<svg width="1316" height="424" viewBox="0 0 1316 424" fill="none" xmlns="http://www.w3.org/2000/svg">
<rect width="1314.37" height="422.934" transform="translate(0.983887 0.117188)" fill="white"/>
<rect x="369.357" y="100.117" width="225" height="136" fill="#DBEEE5"/>
<path d="M391.533 161.385H403.501V176.617H401.456V163.169H393.578V176.617H391.533V161.385ZM407.418 165.084H409.202V167.26C409.594 166.491 410.138 165.904 410.834 165.498C411.545 165.077 412.365 164.867 413.293 164.867C414.744 164.867 415.905 165.345 416.775 166.303C417.645 167.246 418.081 168.653 418.081 170.524V170.959C418.081 171.946 417.965 172.809 417.732 173.549C417.5 174.274 417.174 174.884 416.753 175.377C416.333 175.856 415.825 176.218 415.23 176.465C414.65 176.711 414.004 176.835 413.293 176.835C412.307 176.835 411.48 176.617 410.813 176.182C410.16 175.747 409.667 175.203 409.333 174.55V180.969H407.418V165.084ZM412.858 175.137C413.322 175.137 413.758 175.05 414.164 174.876C414.57 174.688 414.918 174.419 415.208 174.071C415.513 173.723 415.745 173.288 415.905 172.766C416.079 172.243 416.166 171.641 416.166 170.959V170.524C416.166 169.9 416.079 169.342 415.905 168.849C415.745 168.356 415.513 167.942 415.208 167.608C414.918 167.26 414.57 166.999 414.164 166.825C413.758 166.651 413.322 166.564 412.858 166.564C412.336 166.564 411.857 166.651 411.422 166.825C410.987 166.985 410.617 167.217 410.312 167.521C410.008 167.811 409.768 168.16 409.594 168.566C409.42 168.972 409.333 169.407 409.333 169.871V171.612C409.333 172.135 409.42 172.613 409.594 173.048C409.768 173.484 410.008 173.854 410.312 174.158C410.617 174.463 410.987 174.702 411.422 174.876C411.857 175.05 412.336 175.137 412.858 175.137ZM420.806 165.084H422.721V173.788L428.683 165.084H430.598V176.617H428.683V167.913L422.721 176.617H420.806V165.084ZM438.874 176.835C438.135 176.835 437.431 176.719 436.764 176.487C436.096 176.24 435.509 175.877 435.001 175.399C434.493 174.905 434.087 174.289 433.783 173.549C433.478 172.809 433.326 171.946 433.326 170.959V170.524C433.326 169.596 433.478 168.776 433.783 168.065C434.087 167.355 434.493 166.767 435.001 166.303C435.509 165.824 436.096 165.469 436.764 165.237C437.431 164.99 438.135 164.867 438.874 164.867C439.614 164.867 440.318 164.99 440.985 165.237C441.653 165.469 442.24 165.824 442.748 166.303C443.256 166.767 443.662 167.355 443.966 168.065C444.271 168.776 444.423 169.596 444.423 170.524V170.959C444.423 171.946 444.271 172.809 443.966 173.549C443.662 174.289 443.256 174.905 442.748 175.399C442.24 175.877 441.653 176.24 440.985 176.487C440.318 176.719 439.614 176.835 438.874 176.835ZM438.874 175.094C439.31 175.094 439.745 175.021 440.18 174.876C440.615 174.717 441 174.477 441.333 174.158C441.667 173.825 441.935 173.397 442.139 172.874C442.356 172.352 442.465 171.714 442.465 170.959V170.524C442.465 169.828 442.356 169.233 442.139 168.74C441.935 168.247 441.667 167.841 441.333 167.521C441 167.202 440.615 166.97 440.18 166.825C439.745 166.68 439.31 166.607 438.874 166.607C438.439 166.607 438.004 166.68 437.569 166.825C437.134 166.97 436.749 167.202 436.416 167.521C436.082 167.841 435.806 168.247 435.589 168.74C435.386 169.233 435.284 169.828 435.284 170.524V170.959C435.284 171.714 435.386 172.352 435.589 172.874C435.806 173.397 436.082 173.825 436.416 174.158C436.749 174.477 437.134 174.717 437.569 174.876C438.004 175.021 438.439 175.094 438.874 175.094ZM447.135 165.084H448.919V167.26C449.311 166.491 449.855 165.904 450.551 165.498C451.262 165.077 452.082 164.867 453.01 164.867C454.461 164.867 455.621 165.345 456.492 166.303C457.362 167.246 457.797 168.653 457.797 170.524V170.959C457.797 171.946 457.681 172.809 457.449 173.549C457.217 174.274 456.891 174.884 456.47 175.377C456.049 175.856 455.542 176.218 454.947 176.465C454.367 176.711 453.721 176.835 453.01 176.835C452.024 176.835 451.197 176.617 450.53 176.182C449.877 175.747 449.383 175.203 449.05 174.55V180.969H447.135V165.084ZM452.575 175.137C453.039 175.137 453.474 175.05 453.881 174.876C454.287 174.688 454.635 174.419 454.925 174.071C455.23 173.723 455.462 173.288 455.621 172.766C455.796 172.243 455.883 171.641 455.883 170.959V170.524C455.883 169.9 455.796 169.342 455.621 168.849C455.462 168.356 455.23 167.942 454.925 167.608C454.635 167.26 454.287 166.999 453.881 166.825C453.474 166.651 453.039 166.564 452.575 166.564C452.053 166.564 451.574 166.651 451.139 166.825C450.704 166.985 450.334 167.217 450.029 167.521C449.724 167.811 449.485 168.16 449.311 168.566C449.137 168.972 449.05 169.407 449.05 169.871V171.612C449.05 172.135 449.137 172.613 449.311 173.048C449.485 173.484 449.724 173.854 450.029 174.158C450.334 174.463 450.704 174.702 451.139 174.876C451.574 175.05 452.053 175.137 452.575 175.137ZM460.523 165.084H462.438V173.788L468.4 165.084H470.315V176.617H468.4V167.913L462.438 176.617H460.523V165.084ZM476.437 166.782H472.498V165.084H482.291V166.782H478.352V176.617H476.437V166.782ZM489.047 176.835C488.307 176.835 487.603 176.719 486.936 176.487C486.268 176.255 485.681 175.899 485.173 175.42C484.665 174.927 484.259 174.311 483.955 173.571C483.65 172.831 483.498 171.96 483.498 170.959V170.524C483.498 169.567 483.643 168.74 483.933 168.044C484.223 167.333 484.607 166.745 485.086 166.281C485.579 165.802 486.145 165.447 486.783 165.215C487.436 164.983 488.118 164.867 488.829 164.867C490.526 164.867 491.839 165.331 492.768 166.259C493.696 167.188 494.16 168.501 494.16 170.198V171.416H485.413C485.413 172.098 485.521 172.671 485.739 173.136C485.957 173.6 486.239 173.977 486.588 174.267C486.936 174.557 487.32 174.768 487.741 174.898C488.176 175.029 488.611 175.094 489.047 175.094C489.917 175.094 490.584 174.949 491.048 174.659C491.527 174.369 491.868 173.97 492.071 173.462H493.943C493.827 174.013 493.616 174.499 493.312 174.92C493.021 175.341 492.659 175.696 492.224 175.986C491.803 176.262 491.317 176.472 490.766 176.617C490.229 176.762 489.656 176.835 489.047 176.835ZM488.938 166.607C488.488 166.607 488.053 166.673 487.632 166.803C487.211 166.919 486.834 167.115 486.501 167.391C486.181 167.652 485.92 167.986 485.717 168.392C485.514 168.798 485.413 169.284 485.413 169.85H492.354C492.34 169.255 492.238 168.754 492.049 168.348C491.875 167.928 491.636 167.594 491.331 167.347C491.027 167.086 490.664 166.898 490.243 166.782C489.837 166.665 489.402 166.607 488.938 166.607ZM499.302 166.782H495.364V165.084H505.156V166.782H501.217V176.617H499.302V166.782ZM512.777 165.084H514.823L518.935 172.265L523.048 165.084H524.963V176.617H523.048V168.239L519.632 174.115H518.109L514.692 168.239V176.617H512.777V165.084ZM533.226 176.835C532.486 176.835 531.783 176.719 531.115 176.487C530.448 176.24 529.86 175.877 529.353 175.399C528.845 174.905 528.439 174.289 528.134 173.549C527.829 172.809 527.677 171.946 527.677 170.959V170.524C527.677 169.596 527.829 168.776 528.134 168.065C528.439 167.355 528.845 166.767 529.353 166.303C529.86 165.824 530.448 165.469 531.115 165.237C531.783 164.99 532.486 164.867 533.226 164.867C533.966 164.867 534.669 164.99 535.337 165.237C536.004 165.469 536.592 165.824 537.099 166.303C537.607 166.767 538.013 167.355 538.318 168.065C538.623 168.776 538.775 169.596 538.775 170.524V170.959C538.775 171.946 538.623 172.809 538.318 173.549C538.013 174.289 537.607 174.905 537.099 175.399C536.592 175.877 536.004 176.24 535.337 176.487C534.669 176.719 533.966 176.835 533.226 176.835ZM533.226 175.094C533.661 175.094 534.096 175.021 534.532 174.876C534.967 174.717 535.351 174.477 535.685 174.158C536.019 173.825 536.287 173.397 536.49 172.874C536.708 172.352 536.816 171.714 536.816 170.959V170.524C536.816 169.828 536.708 169.233 536.49 168.74C536.287 168.247 536.019 167.841 535.685 167.521C535.351 167.202 534.967 166.97 534.532 166.825C534.096 166.68 533.661 166.607 533.226 166.607C532.791 166.607 532.356 166.68 531.92 166.825C531.485 166.97 531.101 167.202 530.767 167.521C530.433 167.841 530.158 168.247 529.94 168.74C529.737 169.233 529.636 169.828 529.636 170.524V170.959C529.636 171.714 529.737 172.352 529.94 172.874C530.158 173.397 530.433 173.825 530.767 174.158C531.101 174.477 531.485 174.717 531.92 174.876C532.356 175.021 532.791 175.094 533.226 175.094ZM545.947 176.835C545.207 176.835 544.518 176.719 543.88 176.487C543.242 176.24 542.691 175.877 542.226 175.399C541.762 174.905 541.392 174.289 541.117 173.549C540.855 172.809 540.725 171.946 540.725 170.959V170.524C540.725 169.596 540.87 168.776 541.16 168.065C541.45 167.355 541.835 166.767 542.313 166.303C542.792 165.824 543.343 165.469 543.967 165.237C544.605 164.99 545.265 164.867 545.947 164.867C546.629 164.867 547.238 164.961 547.775 165.149C548.326 165.338 548.798 165.599 549.19 165.933C549.596 166.267 549.922 166.658 550.169 167.108C550.43 167.558 550.619 168.044 550.735 168.566H548.776C548.66 168.29 548.522 168.036 548.363 167.804C548.218 167.558 548.029 167.347 547.797 167.173C547.579 166.999 547.318 166.861 547.014 166.76C546.709 166.658 546.353 166.607 545.947 166.607C545.527 166.607 545.12 166.687 544.729 166.847C544.337 166.992 543.989 167.224 543.684 167.543C543.38 167.848 543.133 168.247 542.944 168.74C542.77 169.233 542.683 169.828 542.683 170.524V170.959C542.683 171.699 542.77 172.338 542.944 172.874C543.133 173.397 543.38 173.825 543.684 174.158C543.989 174.477 544.337 174.717 544.729 174.876C545.12 175.021 545.527 175.094 545.947 175.094C546.658 175.094 547.253 174.92 547.732 174.572C548.225 174.224 548.573 173.745 548.776 173.136H550.735C550.459 174.282 549.893 175.188 549.037 175.856C548.181 176.508 547.151 176.835 545.947 176.835ZM555.977 166.782H552.038V165.084H561.831V166.782H557.892V176.617H555.977V166.782ZM566.873 176.835C566.234 176.835 565.669 176.748 565.175 176.574C564.697 176.385 564.29 176.131 563.957 175.812C563.623 175.493 563.369 175.116 563.195 174.681C563.021 174.245 562.934 173.767 562.934 173.244C562.934 172.098 563.268 171.271 563.935 170.764C564.617 170.256 565.589 170.002 566.851 170.002H570.594V169.219C570.594 168.232 570.369 167.55 569.919 167.173C569.484 166.796 568.824 166.607 567.939 166.607C567.112 166.607 566.51 166.767 566.133 167.086C565.756 167.391 565.545 167.739 565.502 168.131H563.587C563.616 167.666 563.739 167.238 563.957 166.847C564.189 166.441 564.493 166.092 564.871 165.802C565.262 165.512 565.727 165.287 566.263 165.128C566.8 164.954 567.395 164.867 568.048 164.867C569.411 164.867 570.492 165.193 571.29 165.846C572.102 166.484 572.509 167.536 572.509 169.001V173.68C572.509 174.289 572.509 174.826 572.509 175.29C572.523 175.74 572.559 176.182 572.617 176.617H570.942C570.898 176.284 570.869 175.972 570.855 175.681C570.84 175.377 570.833 175.036 570.833 174.659C570.528 175.268 570.035 175.783 569.353 176.204C568.671 176.624 567.845 176.835 566.873 176.835ZM567.286 175.094C567.736 175.094 568.156 175.036 568.548 174.92C568.954 174.789 569.31 174.608 569.614 174.376C569.919 174.129 570.158 173.832 570.332 173.484C570.507 173.136 570.594 172.729 570.594 172.265V171.482H567.177C566.466 171.482 565.908 171.627 565.502 171.917C565.095 172.193 564.892 172.635 564.892 173.244C564.892 173.781 565.081 174.224 565.458 174.572C565.85 174.92 566.459 175.094 567.286 175.094Z" fill="black"/>
<rect x="369.357" y="100.117" width="225" height="136" stroke="#58A982"/>
<rect x="594.357" y="100.117" width="461" height="136" fill="#DBEEE5"/>
<path d="M616.533 161.385H621.755C622.756 161.385 623.627 161.501 624.367 161.733C625.107 161.965 625.716 162.292 626.195 162.712C626.688 163.119 627.05 163.612 627.283 164.192C627.515 164.758 627.631 165.382 627.631 166.063C627.631 166.745 627.515 167.376 627.283 167.957C627.05 168.522 626.688 169.016 626.195 169.436C625.716 169.842 625.107 170.162 624.367 170.394C623.627 170.626 622.756 170.742 621.755 170.742H618.578V176.617H616.533V161.385ZM621.647 168.958C622.372 168.958 622.981 168.892 623.475 168.762C623.982 168.617 624.388 168.421 624.693 168.174C625.012 167.928 625.237 167.623 625.368 167.26C625.513 166.898 625.585 166.499 625.585 166.063C625.585 165.628 625.513 165.229 625.368 164.867C625.237 164.504 625.012 164.199 624.693 163.953C624.388 163.706 623.982 163.517 623.475 163.387C622.981 163.242 622.372 163.169 621.647 163.169H618.578V168.958H621.647ZM633.643 176.835C633.004 176.835 632.438 176.748 631.945 176.574C631.467 176.385 631.06 176.131 630.727 175.812C630.393 175.493 630.139 175.116 629.965 174.681C629.791 174.245 629.704 173.767 629.704 173.244C629.704 172.098 630.038 171.271 630.705 170.764C631.387 170.256 632.359 170.002 633.621 170.002H637.364V169.219C637.364 168.232 637.139 167.55 636.689 167.173C636.254 166.796 635.594 166.607 634.709 166.607C633.882 166.607 633.28 166.767 632.903 167.086C632.526 167.391 632.315 167.739 632.272 168.131H630.357C630.386 167.666 630.509 167.238 630.727 166.847C630.959 166.441 631.263 166.092 631.641 165.802C632.032 165.512 632.497 165.287 633.033 165.128C633.57 164.954 634.165 164.867 634.818 164.867C636.181 164.867 637.262 165.193 638.06 165.846C638.872 166.484 639.278 167.536 639.278 169.001V173.68C639.278 174.289 639.278 174.826 639.278 175.29C639.293 175.74 639.329 176.182 639.387 176.617H637.712C637.668 176.284 637.639 175.972 637.625 175.681C637.61 175.377 637.603 175.036 637.603 174.659C637.298 175.268 636.805 175.783 636.123 176.204C635.441 176.624 634.615 176.835 633.643 176.835ZM634.056 175.094C634.506 175.094 634.926 175.036 635.318 174.92C635.724 174.789 636.08 174.608 636.384 174.376C636.689 174.129 636.928 173.832 637.102 173.484C637.277 173.136 637.364 172.729 637.364 172.265V171.482H633.947C633.236 171.482 632.678 171.627 632.272 171.917C631.865 172.193 631.662 172.635 631.662 173.244C631.662 173.781 631.851 174.224 632.228 174.572C632.62 174.92 633.229 175.094 634.056 175.094ZM647.122 176.835C646.382 176.835 645.693 176.719 645.054 176.487C644.416 176.24 643.865 175.877 643.401 175.399C642.936 174.905 642.566 174.289 642.291 173.549C642.03 172.809 641.899 171.946 641.899 170.959V170.524C641.899 169.596 642.044 168.776 642.334 168.065C642.624 167.355 643.009 166.767 643.488 166.303C643.966 165.824 644.518 165.469 645.141 165.237C645.78 164.99 646.44 164.867 647.122 164.867C647.803 164.867 648.413 164.961 648.949 165.149C649.501 165.338 649.972 165.599 650.364 165.933C650.77 166.267 651.096 166.658 651.343 167.108C651.604 167.558 651.793 168.044 651.909 168.566H649.95C649.834 168.29 649.697 168.036 649.537 167.804C649.392 167.558 649.203 167.347 648.971 167.173C648.754 166.999 648.492 166.861 648.188 166.76C647.883 166.658 647.528 166.607 647.122 166.607C646.701 166.607 646.295 166.687 645.903 166.847C645.511 166.992 645.163 167.224 644.858 167.543C644.554 167.848 644.307 168.247 644.119 168.74C643.945 169.233 643.858 169.828 643.858 170.524V170.959C643.858 171.699 643.945 172.338 644.119 172.874C644.307 173.397 644.554 173.825 644.858 174.158C645.163 174.477 645.511 174.717 645.903 174.876C646.295 175.021 646.701 175.094 647.122 175.094C647.832 175.094 648.427 174.92 648.906 174.572C649.399 174.224 649.747 173.745 649.95 173.136H651.909C651.633 174.282 651.067 175.188 650.212 175.856C649.356 176.508 648.326 176.835 647.122 176.835ZM654.518 165.084H656.433V174.92H660.633V165.084H662.548V174.92H666.748V165.084H668.663V176.617H654.518V165.084ZM672.135 165.084H674.05V173.788L680.012 165.084H681.927V176.617H680.012V167.913L674.05 176.617H672.135V165.084ZM685.416 165.084H687.201V167.26C687.592 166.491 688.136 165.904 688.833 165.498C689.544 165.077 690.363 164.867 691.292 164.867C692.742 164.867 693.903 165.345 694.773 166.303C695.644 167.246 696.079 168.653 696.079 170.524V170.959C696.079 171.946 695.963 172.809 695.731 173.549C695.499 174.274 695.172 174.884 694.752 175.377C694.331 175.856 693.823 176.218 693.228 176.465C692.648 176.711 692.003 176.835 691.292 176.835C690.305 176.835 689.478 176.617 688.811 176.182C688.158 175.747 687.665 175.203 687.331 174.55V180.969H685.416V165.084ZM690.856 175.137C691.321 175.137 691.756 175.05 692.162 174.876C692.568 174.688 692.916 174.419 693.207 174.071C693.511 173.723 693.743 173.288 693.903 172.766C694.077 172.243 694.164 171.641 694.164 170.959V170.524C694.164 169.9 694.077 169.342 693.903 168.849C693.743 168.356 693.511 167.942 693.207 167.608C692.916 167.26 692.568 166.999 692.162 166.825C691.756 166.651 691.321 166.564 690.856 166.564C690.334 166.564 689.855 166.651 689.42 166.825C688.985 166.985 688.615 167.217 688.31 167.521C688.006 167.811 687.766 168.16 687.592 168.566C687.418 168.972 687.331 169.407 687.331 169.871V171.612C687.331 172.135 687.418 172.613 687.592 173.048C687.766 173.484 688.006 173.854 688.31 174.158C688.615 174.463 688.985 174.702 689.42 174.876C689.855 175.05 690.334 175.137 690.856 175.137ZM703.591 176.835C702.852 176.835 702.148 176.719 701.481 176.487C700.813 176.255 700.226 175.899 699.718 175.42C699.21 174.927 698.804 174.311 698.499 173.571C698.195 172.831 698.042 171.96 698.042 170.959V170.524C698.042 169.567 698.188 168.74 698.478 168.044C698.768 167.333 699.152 166.745 699.631 166.281C700.124 165.802 700.69 165.447 701.328 165.215C701.981 164.983 702.663 164.867 703.374 164.867C705.071 164.867 706.384 165.331 707.312 166.259C708.241 167.188 708.705 168.501 708.705 170.198V171.416H699.957C699.957 172.098 700.066 172.671 700.284 173.136C700.501 173.6 700.784 173.977 701.132 174.267C701.481 174.557 701.865 174.768 702.286 174.898C702.721 175.029 703.156 175.094 703.591 175.094C704.462 175.094 705.129 174.949 705.593 174.659C706.072 174.369 706.413 173.97 706.616 173.462H708.487C708.371 174.013 708.161 174.499 707.856 174.92C707.566 175.341 707.204 175.696 706.768 175.986C706.348 176.262 705.862 176.472 705.31 176.617C704.774 176.762 704.201 176.835 703.591 176.835ZM703.483 166.607C703.033 166.607 702.598 166.673 702.177 166.803C701.756 166.919 701.379 167.115 701.045 167.391C700.726 167.652 700.465 167.986 700.262 168.392C700.059 168.798 699.957 169.284 699.957 169.85H706.899C706.884 169.255 706.783 168.754 706.594 168.348C706.42 167.928 706.181 167.594 705.876 167.347C705.572 167.086 705.209 166.898 704.788 166.782C704.382 166.665 703.947 166.607 703.483 166.607ZM711.427 165.084H713.342V169.893H719.304V165.084H721.219V176.617H719.304V171.591H713.342V176.617H711.427V165.084ZM724.708 165.084H726.623V169.893H732.586V165.084H734.5V176.617H732.586V171.591H726.623V176.617H724.708V165.084ZM737.99 165.084H739.905V169.436H742.233C743.684 169.436 744.75 169.755 745.432 170.394C746.128 171.032 746.476 171.917 746.476 173.048C746.476 174.151 746.128 175.021 745.432 175.66C744.75 176.298 743.684 176.617 742.233 176.617H737.99V165.084ZM742.124 174.92C743.024 174.92 743.655 174.76 744.017 174.441C744.38 174.122 744.561 173.651 744.561 173.027C744.561 172.403 744.38 171.931 744.017 171.612C743.655 171.293 743.024 171.134 742.124 171.134H739.905V174.92H742.124ZM748.261 165.084H750.176V176.617H748.261V165.084ZM753.651 165.084H755.566V173.788L761.528 165.084H763.443V176.617H761.528V167.913L755.566 176.617H753.651V165.084ZM758.547 163.67C757.416 163.67 756.589 163.43 756.067 162.952C755.544 162.458 755.283 161.755 755.283 160.841H757.155C757.155 161.827 757.619 162.321 758.547 162.321C759.505 162.321 759.983 161.827 759.983 160.841H761.811C761.811 161.755 761.55 162.458 761.028 162.952C760.506 163.43 759.679 163.67 758.547 163.67ZM772.373 165.084H774.288V173.788L780.25 165.084H782.165V176.617H780.25V167.913L774.288 176.617H772.373V165.084ZM784.349 174.92H785.763C785.923 174.702 786.068 174.369 786.198 173.919C786.329 173.469 786.445 172.94 786.546 172.33C786.648 171.721 786.72 171.061 786.764 170.35C786.822 169.625 786.851 168.885 786.851 168.131V165.084H794.902V174.92H796.534V179.337H794.707V176.617H786.176V179.337H784.349V174.92ZM792.987 174.92V166.782H788.722V168.566C788.722 169.175 788.701 169.784 788.657 170.394C788.614 170.989 788.548 171.562 788.461 172.113C788.374 172.65 788.265 173.165 788.135 173.658C788.019 174.137 787.881 174.557 787.721 174.92H792.987ZM803.617 176.835C802.877 176.835 802.173 176.719 801.506 176.487C800.839 176.255 800.251 175.899 799.743 175.42C799.236 174.927 798.829 174.311 798.525 173.571C798.22 172.831 798.068 171.96 798.068 170.959V170.524C798.068 169.567 798.213 168.74 798.503 168.044C798.793 167.333 799.178 166.745 799.656 166.281C800.15 165.802 800.715 165.447 801.354 165.215C802.006 164.983 802.688 164.867 803.399 164.867C805.096 164.867 806.409 165.331 807.338 166.259C808.266 167.188 808.73 168.501 808.73 170.198V171.416H799.983C799.983 172.098 800.092 172.671 800.309 173.136C800.527 173.6 800.81 173.977 801.158 174.267C801.506 174.557 801.89 174.768 802.311 174.898C802.746 175.029 803.182 175.094 803.617 175.094C804.487 175.094 805.154 174.949 805.619 174.659C806.097 174.369 806.438 173.97 806.641 173.462H808.513C808.397 174.013 808.186 174.499 807.882 174.92C807.592 175.341 807.229 175.696 806.794 175.986C806.373 176.262 805.887 176.472 805.336 176.617C804.799 176.762 804.226 176.835 803.617 176.835ZM803.508 166.607C803.058 166.607 802.623 166.673 802.202 166.803C801.782 166.919 801.404 167.115 801.071 167.391C800.752 167.652 800.49 167.986 800.287 168.392C800.084 168.798 799.983 169.284 799.983 169.85H806.924C806.91 169.255 806.808 168.754 806.62 168.348C806.446 167.928 806.206 167.594 805.902 167.347C805.597 167.086 805.234 166.898 804.814 166.782C804.407 166.665 803.972 166.607 803.508 166.607ZM811.452 165.084H813.367V169.893H819.329V165.084H821.244V176.617H819.329V171.591H813.367V176.617H811.452V165.084ZM827.367 166.782H823.428V165.084H833.22V166.782H829.282V176.617H827.367V166.782ZM835.401 165.084H837.316V173.788L843.279 165.084H845.193V176.617H843.279V167.913L837.316 176.617H835.401V165.084ZM854.036 176.835C852.034 176.835 850.511 176.327 849.466 175.312C848.436 174.296 847.921 172.853 847.921 170.981V170.546C847.921 168.762 848.436 167.369 849.466 166.368C850.511 165.367 852.034 164.867 854.036 164.867V161.385H855.951V164.867C857.953 164.867 859.469 165.367 860.499 166.368C861.543 167.369 862.065 168.762 862.065 170.546V170.981C862.065 172.853 861.543 174.296 860.499 175.312C859.469 176.327 857.953 176.835 855.951 176.835V180.969H854.036V176.835ZM860.107 170.546C860.107 169.226 859.766 168.239 859.084 167.587C858.417 166.934 857.365 166.607 855.929 166.607V175.094C857.365 175.094 858.417 174.76 859.084 174.093C859.766 173.426 860.107 172.388 860.107 170.981V170.546ZM849.88 170.981C849.88 172.388 850.213 173.426 850.881 174.093C851.562 174.76 852.621 175.094 854.058 175.094V166.607C852.621 166.607 851.562 166.934 850.881 167.587C850.213 168.239 849.88 169.226 849.88 170.546V170.981ZM864.791 165.084H866.705V173.788L872.668 165.084H874.583V176.617H872.668V167.913L866.705 176.617H864.791V165.084ZM878.072 165.084H879.987V169.915H881.51L885.819 165.084H888.082L883.077 170.611L888.299 176.617H885.862L881.51 171.569H879.987V176.617H878.072V165.084ZM893.662 176.835C893.023 176.835 892.458 176.748 891.964 176.574C891.486 176.385 891.08 176.131 890.746 175.812C890.412 175.493 890.158 175.116 889.984 174.681C889.81 174.245 889.723 173.767 889.723 173.244C889.723 172.098 890.057 171.271 890.724 170.764C891.406 170.256 892.378 170.002 893.64 170.002H897.383V169.219C897.383 168.232 897.158 167.55 896.708 167.173C896.273 166.796 895.613 166.607 894.728 166.607C893.901 166.607 893.299 166.767 892.922 167.086C892.545 167.391 892.334 167.739 892.291 168.131H890.376C890.405 167.666 890.528 167.238 890.746 166.847C890.978 166.441 891.283 166.092 891.66 165.802C892.051 165.512 892.516 165.287 893.052 165.128C893.589 164.954 894.184 164.867 894.837 164.867C896.2 164.867 897.281 165.193 898.079 165.846C898.891 166.484 899.298 167.536 899.298 169.001V173.68C899.298 174.289 899.298 174.826 899.298 175.29C899.312 175.74 899.348 176.182 899.406 176.617H897.731C897.687 176.284 897.658 175.972 897.644 175.681C897.629 175.377 897.622 175.036 897.622 174.659C897.317 175.268 896.824 175.783 896.142 176.204C895.461 176.624 894.634 176.835 893.662 176.835ZM894.075 175.094C894.525 175.094 894.946 175.036 895.337 174.92C895.743 174.789 896.099 174.608 896.404 174.376C896.708 174.129 896.948 173.832 897.122 173.484C897.296 173.136 897.383 172.729 897.383 172.265V171.482H893.966C893.256 171.482 892.697 171.627 892.291 171.917C891.885 172.193 891.682 172.635 891.682 173.244C891.682 173.781 891.87 174.224 892.247 174.572C892.639 174.92 893.248 175.094 894.075 175.094ZM905.1 166.782H901.162V165.084H910.954V166.782H907.015V176.617H905.1V166.782ZM917.71 176.835C916.97 176.835 916.266 176.719 915.599 176.487C914.932 176.24 914.344 175.877 913.836 175.399C913.329 174.905 912.923 174.289 912.618 173.549C912.313 172.809 912.161 171.946 912.161 170.959V170.524C912.161 169.596 912.313 168.776 912.618 168.065C912.923 167.355 913.329 166.767 913.836 166.303C914.344 165.824 914.932 165.469 915.599 165.237C916.266 164.99 916.97 164.867 917.71 164.867C918.45 164.867 919.153 164.99 919.821 165.237C920.488 165.469 921.075 165.824 921.583 166.303C922.091 166.767 922.497 167.355 922.802 168.065C923.106 168.776 923.259 169.596 923.259 170.524V170.959C923.259 171.946 923.106 172.809 922.802 173.549C922.497 174.289 922.091 174.905 921.583 175.399C921.075 175.877 920.488 176.24 919.821 176.487C919.153 176.719 918.45 176.835 917.71 176.835ZM917.71 175.094C918.145 175.094 918.58 175.021 919.015 174.876C919.451 174.717 919.835 174.477 920.169 174.158C920.502 173.825 920.771 173.397 920.974 172.874C921.191 172.352 921.3 171.714 921.3 170.959V170.524C921.3 169.828 921.191 169.233 920.974 168.74C920.771 168.247 920.502 167.841 920.169 167.521C919.835 167.202 919.451 166.97 919.015 166.825C918.58 166.68 918.145 166.607 917.71 166.607C917.275 166.607 916.839 166.68 916.404 166.825C915.969 166.97 915.585 167.202 915.251 167.521C914.917 167.841 914.642 168.247 914.424 168.74C914.221 169.233 914.119 169.828 914.119 170.524V170.959C914.119 171.714 914.221 172.352 914.424 172.874C914.642 173.397 914.917 173.825 915.251 174.158C915.585 174.477 915.969 174.717 916.404 174.876C916.839 175.021 917.275 175.094 917.71 175.094ZM925.97 165.084H927.755V167.26C928.146 166.491 928.69 165.904 929.387 165.498C930.097 165.077 930.917 164.867 931.846 164.867C933.296 164.867 934.457 165.345 935.327 166.303C936.198 167.246 936.633 168.653 936.633 170.524V170.959C936.633 171.946 936.517 172.809 936.285 173.549C936.053 174.274 935.726 174.884 935.305 175.377C934.885 175.856 934.377 176.218 933.782 176.465C933.202 176.711 932.556 176.835 931.846 176.835C930.859 176.835 930.032 176.617 929.365 176.182C928.712 175.747 928.219 175.203 927.885 174.55V180.969H925.97V165.084ZM931.41 175.137C931.875 175.137 932.31 175.05 932.716 174.876C933.122 174.688 933.47 174.419 933.76 174.071C934.065 173.723 934.297 173.288 934.457 172.766C934.631 172.243 934.718 171.641 934.718 170.959V170.524C934.718 169.9 934.631 169.342 934.457 168.849C934.297 168.356 934.065 167.942 933.76 167.608C933.47 167.26 933.122 166.999 932.716 166.825C932.31 166.651 931.875 166.564 931.41 166.564C930.888 166.564 930.409 166.651 929.974 166.825C929.539 166.985 929.169 167.217 928.864 167.521C928.56 167.811 928.32 168.16 928.146 168.566C927.972 168.972 927.885 169.407 927.885 169.871V171.612C927.885 172.135 927.972 172.613 928.146 173.048C928.32 173.484 928.56 173.854 928.864 174.158C929.169 174.463 929.539 174.702 929.974 174.876C930.409 175.05 930.888 175.137 931.41 175.137ZM949.259 176.835C948.519 176.835 947.83 176.719 947.192 176.487C946.553 176.24 946.002 175.877 945.538 175.399C945.074 174.905 944.704 174.289 944.428 173.549C944.167 172.809 944.036 171.946 944.036 170.959V170.524C944.036 169.596 944.182 168.776 944.472 168.065C944.762 167.355 945.146 166.767 945.625 166.303C946.104 165.824 946.655 165.469 947.279 165.237C947.917 164.99 948.577 164.867 949.259 164.867C949.941 164.867 950.55 164.961 951.087 165.149C951.638 165.338 952.11 165.599 952.501 165.933C952.907 166.267 953.234 166.658 953.48 167.108C953.742 167.558 953.93 168.044 954.046 168.566H952.088C951.972 168.29 951.834 168.036 951.674 167.804C951.529 167.558 951.341 167.347 951.109 167.173C950.891 166.999 950.63 166.861 950.325 166.76C950.021 166.658 949.665 166.607 949.259 166.607C948.838 166.607 948.432 166.687 948.04 166.847C947.649 166.992 947.3 167.224 946.996 167.543C946.691 167.848 946.445 168.247 946.256 168.74C946.082 169.233 945.995 169.828 945.995 170.524V170.959C945.995 171.699 946.082 172.338 946.256 172.874C946.445 173.397 946.691 173.825 946.996 174.158C947.3 174.477 947.649 174.717 948.04 174.876C948.432 175.021 948.838 175.094 949.259 175.094C949.97 175.094 950.565 174.92 951.043 174.572C951.537 174.224 951.885 173.745 952.088 173.136H954.046C953.771 174.282 953.205 175.188 952.349 175.856C951.493 176.508 950.463 176.835 949.259 176.835ZM956.656 165.084H958.571V173.788L964.533 165.084H966.448V176.617H964.533V167.913L958.571 176.617H956.656V165.084ZM974.398 176.835C973.658 176.835 972.969 176.719 972.331 176.487C971.693 176.24 971.141 175.877 970.677 175.399C970.213 174.905 969.843 174.289 969.567 173.549C969.306 172.809 969.176 171.946 969.176 170.959V170.524C969.176 169.596 969.321 168.776 969.611 168.065C969.901 167.355 970.285 166.767 970.764 166.303C971.243 165.824 971.794 165.469 972.418 165.237C973.056 164.99 973.716 164.867 974.398 164.867C975.08 164.867 975.689 164.961 976.226 165.149C976.777 165.338 977.249 165.599 977.64 165.933C978.047 166.267 978.373 166.658 978.62 167.108C978.881 167.558 979.069 168.044 979.185 168.566H977.227C977.111 168.29 976.973 168.036 976.813 167.804C976.668 167.558 976.48 167.347 976.248 167.173C976.03 166.999 975.769 166.861 975.464 166.76C975.16 166.658 974.804 166.607 974.398 166.607C973.977 166.607 973.571 166.687 973.18 166.847C972.788 166.992 972.44 167.224 972.135 167.543C971.83 167.848 971.584 168.247 971.395 168.74C971.221 169.233 971.134 169.828 971.134 170.524V170.959C971.134 171.699 971.221 172.338 971.395 172.874C971.584 173.397 971.83 173.825 972.135 174.158C972.44 174.477 972.788 174.717 973.18 174.876C973.571 175.021 973.977 175.094 974.398 175.094C975.109 175.094 975.704 174.92 976.182 174.572C976.676 174.224 977.024 173.745 977.227 173.136H979.185C978.91 174.282 978.344 175.188 977.488 175.856C976.632 176.508 975.602 176.835 974.398 176.835ZM984.428 166.782H980.489V165.084H990.281V166.782H986.343V176.617H984.428V166.782ZM997.037 176.835C996.297 176.835 995.594 176.719 994.927 176.487C994.259 176.255 993.672 175.899 993.164 175.42C992.656 174.927 992.25 174.311 991.945 173.571C991.641 172.831 991.488 171.96 991.488 170.959V170.524C991.488 169.567 991.634 168.74 991.924 168.044C992.214 167.333 992.598 166.745 993.077 166.281C993.57 165.802 994.136 165.447 994.774 165.215C995.427 164.983 996.109 164.867 996.82 164.867C998.517 164.867 999.83 165.331 1000.76 166.259C1001.69 167.188 1002.15 168.501 1002.15 170.198V171.416H993.403C993.403 172.098 993.512 172.671 993.73 173.136C993.947 173.6 994.23 173.977 994.578 174.267C994.927 174.557 995.311 174.768 995.732 174.898C996.167 175.029 996.602 175.094 997.037 175.094C997.908 175.094 998.575 174.949 999.039 174.659C999.518 174.369 999.859 173.97 1000.06 173.462H1001.93C1001.82 174.013 1001.61 174.499 1001.3 174.92C1001.01 175.341 1000.65 175.696 1000.21 175.986C999.794 176.262 999.308 176.472 998.756 176.617C998.22 176.762 997.647 176.835 997.037 176.835ZM996.929 166.607C996.479 166.607 996.044 166.673 995.623 166.803C995.202 166.919 994.825 167.115 994.491 167.391C994.172 167.652 993.911 167.986 993.708 168.392C993.505 168.798 993.403 169.284 993.403 169.85H1000.34C1000.33 169.255 1000.23 168.754 1000.04 168.348C999.866 167.928 999.627 167.594 999.322 167.347C999.018 167.086 998.655 166.898 998.234 166.782C997.828 166.665 997.393 166.607 996.929 166.607ZM1004.87 165.084H1006.92L1011.03 172.265L1015.14 165.084H1017.06V176.617H1015.14V168.239L1011.73 174.115H1010.2L1006.79 168.239V176.617H1004.87V165.084ZM1020.53 165.084H1022.45V169.436H1024.78C1026.23 169.436 1027.29 169.755 1027.98 170.394C1028.67 171.032 1029.02 171.917 1029.02 173.048C1029.02 174.151 1028.67 175.021 1027.98 175.66C1027.29 176.298 1026.23 176.617 1024.78 176.617H1020.53V165.084ZM1024.67 174.92C1025.57 174.92 1026.2 174.76 1026.56 174.441C1026.92 174.122 1027.11 173.651 1027.11 173.027C1027.11 172.403 1026.92 171.931 1026.56 171.612C1026.2 171.293 1025.57 171.134 1024.67 171.134H1022.45V174.92H1024.67ZM1030.81 165.084H1032.72V176.617H1030.81V165.084Z" fill="black"/>
<rect x="594.357" y="100.117" width="461" height="136" stroke="#58A982"/>
<rect x="1055.36" y="100.117" width="160" height="136" fill="#DBEEE5"/>
<path d="M1077.53 161.385H1079.67L1084.76 171.068L1089.85 161.385H1091.89V176.617H1089.85V165.084L1085.48 173.353H1083.95L1079.58 165.084V176.617H1077.53V161.385ZM1104.55 172.831H1098.1L1096.65 176.617H1094.51L1100.35 161.385H1102.39L1108.22 176.617H1106L1104.55 172.831ZM1098.78 171.047H1103.87L1101.32 163.996L1098.78 171.047ZM1115.96 176.835C1115.1 176.835 1114.29 176.69 1113.52 176.4C1112.75 176.095 1112.07 175.631 1111.47 175.007C1110.88 174.369 1110.41 173.563 1110.06 172.592C1109.71 171.62 1109.54 170.459 1109.54 169.11V168.675C1109.54 167.369 1109.71 166.245 1110.06 165.302C1110.41 164.359 1110.88 163.583 1111.47 162.973C1112.07 162.364 1112.75 161.914 1113.52 161.624C1114.29 161.32 1115.1 161.167 1115.96 161.167C1116.78 161.167 1117.54 161.276 1118.22 161.494C1118.92 161.711 1119.52 162.023 1120.05 162.429C1120.57 162.836 1120.99 163.336 1121.31 163.931C1121.64 164.526 1121.85 165.2 1121.94 165.955H1119.76C1119.56 164.968 1119.13 164.228 1118.48 163.735C1117.83 163.242 1116.99 162.995 1115.96 162.995C1115.42 162.995 1114.9 163.097 1114.39 163.3C1113.88 163.503 1113.42 163.829 1113.02 164.279C1112.63 164.714 1112.31 165.295 1112.06 166.02C1111.83 166.745 1111.71 167.63 1111.71 168.675V169.11C1111.71 170.212 1111.84 171.141 1112.1 171.895C1112.37 172.635 1112.7 173.237 1113.11 173.701C1113.51 174.166 1113.97 174.499 1114.48 174.702C1114.98 174.905 1115.48 175.007 1115.96 175.007C1117.09 175.007 1117.97 174.731 1118.61 174.18C1119.25 173.629 1119.63 172.918 1119.76 172.048H1121.94C1121.82 172.889 1121.59 173.614 1121.24 174.224C1120.9 174.818 1120.45 175.312 1119.92 175.703C1119.39 176.095 1118.79 176.385 1118.11 176.574C1117.44 176.748 1116.72 176.835 1115.96 176.835ZM1123.89 169.632H1130.42V171.416H1123.89V169.632ZM1136.31 176.835C1135.68 176.835 1135.11 176.748 1134.62 176.574C1134.14 176.385 1133.73 176.131 1133.4 175.812C1133.06 175.493 1132.81 175.116 1132.64 174.681C1132.46 174.245 1132.38 173.767 1132.38 173.244C1132.38 172.098 1132.71 171.271 1133.38 170.764C1134.06 170.256 1135.03 170.002 1136.29 170.002H1140.04V169.219C1140.04 168.232 1139.81 167.55 1139.36 167.173C1138.93 166.796 1138.27 166.607 1137.38 166.607C1136.55 166.607 1135.95 166.767 1135.57 167.086C1135.2 167.391 1134.99 167.739 1134.94 168.131H1133.03C1133.06 167.666 1133.18 167.238 1133.4 166.847C1133.63 166.441 1133.94 166.092 1134.31 165.802C1134.7 165.512 1135.17 165.287 1135.71 165.128C1136.24 164.954 1136.84 164.867 1137.49 164.867C1138.85 164.867 1139.93 165.193 1140.73 165.846C1141.54 166.484 1141.95 167.536 1141.95 169.001V173.68C1141.95 174.289 1141.95 174.826 1141.95 175.29C1141.96 175.74 1142 176.182 1142.06 176.617H1140.38C1140.34 176.284 1140.31 175.972 1140.3 175.681C1140.28 175.377 1140.27 175.036 1140.27 174.659C1139.97 175.268 1139.48 175.783 1138.8 176.204C1138.11 176.624 1137.29 176.835 1136.31 176.835ZM1136.73 175.094C1137.18 175.094 1137.6 175.036 1137.99 174.92C1138.4 174.789 1138.75 174.608 1139.06 174.376C1139.36 174.129 1139.6 173.832 1139.77 173.484C1139.95 173.136 1140.04 172.729 1140.04 172.265V171.482H1136.62C1135.91 171.482 1135.35 171.627 1134.94 171.917C1134.54 172.193 1134.33 172.635 1134.33 173.244C1134.33 173.781 1134.52 174.224 1134.9 174.572C1135.29 174.92 1135.9 175.094 1136.73 175.094ZM1144.03 174.92H1145.44C1145.6 174.702 1145.75 174.369 1145.88 173.919C1146.01 173.469 1146.12 172.94 1146.22 172.33C1146.33 171.721 1146.4 171.061 1146.44 170.35C1146.5 169.625 1146.53 168.885 1146.53 168.131V165.084H1154.58V174.92H1156.21V179.337H1154.38V176.617H1145.85V179.337H1144.03V174.92ZM1152.67 174.92V166.782H1148.4V168.566C1148.4 169.175 1148.38 169.784 1148.34 170.394C1148.29 170.989 1148.23 171.562 1148.14 172.113C1148.05 172.65 1147.94 173.165 1147.81 173.658C1147.7 174.137 1147.56 174.557 1147.4 174.92H1152.67ZM1158.51 165.084H1160.29V167.26C1160.68 166.491 1161.23 165.904 1161.92 165.498C1162.64 165.077 1163.45 164.867 1164.38 164.867C1165.83 164.867 1166.99 165.345 1167.86 166.303C1168.74 167.246 1169.17 168.653 1169.17 170.524V170.959C1169.17 171.946 1169.05 172.809 1168.82 173.549C1168.59 174.274 1168.26 174.884 1167.84 175.377C1167.42 175.856 1166.91 176.218 1166.32 176.465C1165.74 176.711 1165.09 176.835 1164.38 176.835C1163.4 176.835 1162.57 176.617 1161.9 176.182C1161.25 175.747 1160.76 175.203 1160.42 174.55V180.969H1158.51V165.084ZM1163.95 175.137C1164.41 175.137 1164.85 175.05 1165.25 174.876C1165.66 174.688 1166.01 174.419 1166.3 174.071C1166.6 173.723 1166.83 173.288 1166.99 172.766C1167.17 172.243 1167.26 171.641 1167.26 170.959V170.524C1167.26 169.9 1167.17 169.342 1166.99 168.849C1166.83 168.356 1166.6 167.942 1166.3 167.608C1166.01 167.26 1165.66 166.999 1165.25 166.825C1164.85 166.651 1164.41 166.564 1163.95 166.564C1163.43 166.564 1162.95 166.651 1162.51 166.825C1162.08 166.985 1161.71 167.217 1161.4 167.521C1161.1 167.811 1160.86 168.16 1160.68 168.566C1160.51 168.972 1160.42 169.407 1160.42 169.871V171.612C1160.42 172.135 1160.51 172.613 1160.68 173.048C1160.86 173.484 1161.1 173.854 1161.4 174.158C1161.71 174.463 1162.08 174.702 1162.51 174.876C1162.95 175.05 1163.43 175.137 1163.95 175.137ZM1176.68 176.835C1175.94 176.835 1175.24 176.719 1174.57 176.487C1173.9 176.255 1173.32 175.899 1172.81 175.42C1172.3 174.927 1171.9 174.311 1171.59 173.571C1171.29 172.831 1171.13 171.96 1171.13 170.959V170.524C1171.13 169.567 1171.28 168.74 1171.57 168.044C1171.86 167.333 1172.24 166.745 1172.72 166.281C1173.22 165.802 1173.78 165.447 1174.42 165.215C1175.07 164.983 1175.75 164.867 1176.47 164.867C1178.16 164.867 1179.48 165.331 1180.4 166.259C1181.33 167.188 1181.8 168.501 1181.8 170.198V171.416H1173.05C1173.05 172.098 1173.16 172.671 1173.38 173.136C1173.59 173.6 1173.88 173.977 1174.22 174.267C1174.57 174.557 1174.96 174.768 1175.38 174.898C1175.81 175.029 1176.25 175.094 1176.68 175.094C1177.55 175.094 1178.22 174.949 1178.68 174.659C1179.16 174.369 1179.5 173.97 1179.71 173.462H1181.58C1181.46 174.013 1181.25 174.499 1180.95 174.92C1180.66 175.341 1180.3 175.696 1179.86 175.986C1179.44 176.262 1178.95 176.472 1178.4 176.617C1177.87 176.762 1177.29 176.835 1176.68 176.835ZM1176.57 166.607C1176.12 166.607 1175.69 166.673 1175.27 166.803C1174.85 166.919 1174.47 167.115 1174.14 167.391C1173.82 167.652 1173.56 167.986 1173.35 168.392C1173.15 168.798 1173.05 169.284 1173.05 169.85H1179.99C1179.98 169.255 1179.87 168.754 1179.69 168.348C1179.51 167.928 1179.27 167.594 1178.97 167.347C1178.66 167.086 1178.3 166.898 1177.88 166.782C1177.47 166.665 1177.04 166.607 1176.57 166.607ZM1188.98 176.835C1188.24 176.835 1187.55 176.719 1186.91 176.487C1186.27 176.24 1185.72 175.877 1185.26 175.399C1184.79 174.905 1184.42 174.289 1184.15 173.549C1183.89 172.809 1183.76 171.946 1183.76 170.959V170.524C1183.76 169.596 1183.9 168.776 1184.19 168.065C1184.48 167.355 1184.87 166.767 1185.35 166.303C1185.82 165.824 1186.38 165.469 1187 165.237C1187.64 164.99 1188.3 164.867 1188.98 164.867C1189.66 164.867 1190.27 164.961 1190.81 165.149C1191.36 165.338 1191.83 165.599 1192.22 165.933C1192.63 166.267 1192.95 166.658 1193.2 167.108C1193.46 167.558 1193.65 168.044 1193.77 168.566H1191.81C1191.69 168.29 1191.55 168.036 1191.39 167.804C1191.25 167.558 1191.06 167.347 1190.83 167.173C1190.61 166.999 1190.35 166.861 1190.05 166.76C1189.74 166.658 1189.39 166.607 1188.98 166.607C1188.56 166.607 1188.15 166.687 1187.76 166.847C1187.37 166.992 1187.02 167.224 1186.72 167.543C1186.41 167.848 1186.16 168.247 1185.98 168.74C1185.8 169.233 1185.72 169.828 1185.72 170.524V170.959C1185.72 171.699 1185.8 172.338 1185.98 172.874C1186.16 173.397 1186.41 173.825 1186.72 174.158C1187.02 174.477 1187.37 174.717 1187.76 174.876C1188.15 175.021 1188.56 175.094 1188.98 175.094C1189.69 175.094 1190.28 174.92 1190.76 174.572C1191.26 174.224 1191.6 173.745 1191.81 173.136H1193.77C1193.49 174.282 1192.92 175.188 1192.07 175.856C1191.21 176.508 1190.18 176.835 1188.98 176.835Z" fill="black"/>
<rect x="1055.36" y="100.117" width="160" height="136" stroke="#58A982"/>
<path d="M462.233 315.373H454.486V313.807L462.015 303.819H464.278V313.589H466.237V315.373H464.278V319.051H462.233V315.373ZM462.233 313.589V306.212L456.662 313.589H462.233ZM479.301 319.268C478.532 319.268 477.814 319.123 477.146 318.833C476.493 318.543 475.92 318.122 475.427 317.571C474.948 317.005 474.564 316.316 474.274 315.504C473.998 314.691 473.86 313.77 473.86 312.74V312.305C473.86 310.999 473.955 309.839 474.143 308.823C474.332 307.793 474.651 306.923 475.101 306.212C475.565 305.487 476.167 304.921 476.907 304.515C477.661 304.109 478.604 303.877 479.736 303.819C480.65 303.775 481.448 303.739 482.129 303.71C482.811 303.666 483.391 303.521 483.87 303.275V305.124C483.638 305.255 483.21 305.356 482.586 305.429C481.977 305.501 481.136 305.552 480.062 305.581C479.366 305.596 478.749 305.683 478.212 305.842C477.69 306.002 477.241 306.256 476.863 306.604C476.501 306.952 476.211 307.409 475.993 307.975C475.79 308.526 475.659 309.208 475.601 310.02C475.949 309.251 476.486 308.642 477.212 308.192C477.937 307.743 478.778 307.518 479.736 307.518C480.476 307.518 481.15 307.648 481.759 307.909C482.369 308.156 482.891 308.512 483.326 308.976C483.776 309.44 484.124 310.013 484.371 310.695C484.617 311.362 484.741 312.116 484.741 312.958V313.393C484.741 314.293 484.603 315.105 484.327 315.83C484.052 316.541 483.674 317.158 483.196 317.68C482.717 318.188 482.144 318.579 481.477 318.855C480.809 319.131 480.084 319.268 479.301 319.268ZM479.301 317.528C480.316 317.528 481.15 317.179 481.803 316.483C482.456 315.772 482.782 314.742 482.782 313.393V312.958C482.782 312.392 482.695 311.884 482.521 311.435C482.347 310.985 482.108 310.601 481.803 310.281C481.498 309.948 481.128 309.694 480.693 309.52C480.272 309.346 479.808 309.259 479.301 309.259C478.793 309.259 478.321 309.346 477.886 309.52C477.465 309.694 477.103 309.948 476.798 310.281C476.493 310.601 476.254 310.985 476.08 311.435C475.906 311.884 475.819 312.392 475.819 312.958V313.393C475.819 314.031 475.906 314.612 476.08 315.134C476.269 315.642 476.522 316.077 476.842 316.44C477.161 316.788 477.531 317.056 477.951 317.245C478.372 317.433 478.822 317.528 479.301 317.528ZM487.455 307.518H489.37V316.222L495.332 307.518H497.247V319.051H495.332V310.347L489.37 319.051H487.455V307.518ZM503.369 309.215H499.431V307.518H509.223V309.215H505.284V319.051H503.369V309.215Z" fill="black"/>
<path d="M793.296 317.266H796.93V306.06L793.296 308.649V306.43L796.974 303.819H799.019V317.266H802V319.051H793.296V317.266ZM803.531 317.375L809.624 312.087C810.088 311.696 810.466 311.34 810.756 311.021C811.06 310.702 811.3 310.405 811.474 310.129C811.648 309.839 811.764 309.556 811.822 309.28C811.895 309.005 811.931 308.707 811.931 308.388C811.931 307.532 811.677 306.829 811.169 306.277C810.662 305.712 809.965 305.429 809.08 305.429C808.021 305.429 807.209 305.719 806.643 306.299C806.077 306.865 805.794 307.67 805.794 308.715H803.749C803.749 307.975 803.872 307.293 804.119 306.669C804.38 306.031 804.743 305.487 805.207 305.037C805.686 304.587 806.251 304.239 806.904 303.993C807.557 303.731 808.282 303.601 809.08 303.601C809.849 303.601 810.538 303.724 811.147 303.971C811.757 304.203 812.272 304.537 812.692 304.972C813.113 305.393 813.432 305.893 813.65 306.473C813.868 307.054 813.976 307.692 813.976 308.388C813.976 308.91 813.897 309.396 813.737 309.846C813.577 310.296 813.353 310.724 813.062 311.13C812.787 311.536 812.446 311.935 812.04 312.327C811.648 312.704 811.213 313.096 810.734 313.502L806.186 317.266H814.194V319.051H803.531V317.375ZM827.252 319.268C826.483 319.268 825.765 319.123 825.098 318.833C824.445 318.543 823.872 318.122 823.379 317.571C822.9 317.005 822.515 316.316 822.225 315.504C821.95 314.691 821.812 313.77 821.812 312.74V312.305C821.812 310.999 821.906 309.839 822.095 308.823C822.283 307.793 822.602 306.923 823.052 306.212C823.516 305.487 824.118 304.921 824.858 304.515C825.613 304.109 826.556 303.877 827.687 303.819C828.601 303.775 829.399 303.739 830.081 303.71C830.763 303.666 831.343 303.521 831.822 303.275V305.124C831.589 305.255 831.161 305.356 830.538 305.429C829.928 305.501 829.087 305.552 828.013 305.581C827.317 305.596 826.701 305.683 826.164 305.842C825.642 306.002 825.192 306.256 824.815 306.604C824.452 306.952 824.162 307.409 823.944 307.975C823.741 308.526 823.611 309.208 823.553 310.02C823.901 309.251 824.438 308.642 825.163 308.192C825.888 307.743 826.73 307.518 827.687 307.518C828.427 307.518 829.101 307.648 829.711 307.909C830.32 308.156 830.842 308.512 831.278 308.976C831.727 309.44 832.075 310.013 832.322 310.695C832.569 311.362 832.692 312.116 832.692 312.958V313.393C832.692 314.293 832.554 315.105 832.278 315.83C832.003 316.541 831.626 317.158 831.147 317.68C830.668 318.188 830.095 318.579 829.428 318.855C828.761 319.131 828.035 319.268 827.252 319.268ZM827.252 317.528C828.267 317.528 829.101 317.179 829.754 316.483C830.407 315.772 830.734 314.742 830.734 313.393V312.958C830.734 312.392 830.646 311.884 830.472 311.435C830.298 310.985 830.059 310.601 829.754 310.281C829.45 309.948 829.08 309.694 828.645 309.52C828.224 309.346 827.76 309.259 827.252 309.259C826.744 309.259 826.273 309.346 825.837 309.52C825.417 309.694 825.054 309.948 824.749 310.281C824.445 310.601 824.205 310.985 824.031 311.435C823.857 311.884 823.77 312.392 823.77 312.958V313.393C823.77 314.031 823.857 314.612 824.031 315.134C824.22 315.642 824.474 316.077 824.793 316.44C825.112 316.788 825.482 317.056 825.903 317.245C826.323 317.433 826.773 317.528 827.252 317.528ZM835.406 307.518H837.321V316.222L843.283 307.518H845.198V319.051H843.283V310.347L837.321 319.051H835.406V307.518ZM851.32 309.215H847.382V307.518H857.174V309.215H853.235V319.051H851.32V309.215Z" fill="black"/>
<path d="M1109.09 315.373H1101.35V313.807L1108.87 303.819H1111.14V313.589H1113.1V315.373H1111.14V319.051H1109.09V315.373ZM1109.09 313.589V306.212L1103.52 313.589H1109.09ZM1120.83 319.268C1119.93 319.268 1119.14 319.16 1118.46 318.942C1117.77 318.724 1117.2 318.427 1116.74 318.05C1116.29 317.673 1115.95 317.23 1115.71 316.722C1115.5 316.2 1115.39 315.634 1115.39 315.025C1115.39 314.155 1115.66 313.379 1116.22 312.697C1116.77 312 1117.58 311.507 1118.65 311.217C1118.26 311.086 1117.89 310.912 1117.54 310.695C1117.21 310.463 1116.91 310.194 1116.65 309.89C1116.39 309.585 1116.19 309.244 1116.04 308.867C1115.9 308.475 1115.82 308.062 1115.82 307.627C1115.82 307.061 1115.93 306.531 1116.15 306.038C1116.37 305.545 1116.69 305.124 1117.11 304.776C1117.53 304.413 1118.05 304.13 1118.67 303.927C1119.3 303.71 1120.02 303.601 1120.83 303.601C1121.64 303.601 1122.36 303.71 1122.98 303.927C1123.61 304.13 1124.13 304.413 1124.55 304.776C1124.97 305.124 1125.29 305.545 1125.51 306.038C1125.72 306.531 1125.83 307.061 1125.83 307.627C1125.83 308.497 1125.56 309.237 1125.01 309.846C1124.47 310.455 1123.8 310.912 1123 311.217C1124.09 311.58 1124.9 312.058 1125.44 312.653C1125.99 313.248 1126.27 314.039 1126.27 315.025C1126.27 315.634 1126.15 316.2 1125.92 316.722C1125.7 317.23 1125.36 317.673 1124.9 318.05C1124.45 318.427 1123.88 318.724 1123.2 318.942C1122.52 319.16 1121.73 319.268 1120.83 319.268ZM1120.83 317.441C1121.45 317.441 1121.98 317.375 1122.42 317.245C1122.85 317.1 1123.2 316.918 1123.46 316.701C1123.74 316.469 1123.93 316.2 1124.05 315.896C1124.17 315.576 1124.22 315.243 1124.22 314.895C1124.22 314.488 1124.14 314.118 1123.96 313.785C1123.8 313.451 1123.57 313.161 1123.27 312.914C1122.96 312.653 1122.6 312.45 1122.18 312.305C1121.77 312.145 1121.32 312.037 1120.83 311.979C1120.34 312.037 1119.88 312.145 1119.46 312.305C1119.05 312.45 1118.7 312.646 1118.39 312.893C1118.09 313.139 1117.85 313.437 1117.67 313.785C1117.51 314.118 1117.43 314.488 1117.43 314.895C1117.43 315.243 1117.49 315.576 1117.61 315.896C1117.72 316.2 1117.91 316.469 1118.17 316.701C1118.45 316.918 1118.8 317.1 1119.24 317.245C1119.68 317.375 1120.2 317.441 1120.83 317.441ZM1120.83 310.455C1121.7 310.339 1122.41 310.064 1122.96 309.629C1123.51 309.179 1123.79 308.548 1123.79 307.735C1123.79 306.996 1123.54 306.43 1123.05 306.038C1122.57 305.632 1121.83 305.429 1120.83 305.429C1119.81 305.429 1119.07 305.632 1118.59 306.038C1118.11 306.43 1117.87 306.996 1117.87 307.735C1117.87 308.548 1118.14 309.179 1118.7 309.629C1119.25 310.064 1119.96 310.339 1120.83 310.455ZM1139.44 319.268C1138.67 319.268 1137.95 319.123 1137.29 318.833C1136.63 318.543 1136.06 318.122 1135.57 317.571C1135.09 317.005 1134.7 316.316 1134.41 315.504C1134.14 314.691 1134 313.77 1134 312.74V312.305C1134 310.999 1134.1 309.839 1134.28 308.823C1134.47 307.793 1134.79 306.923 1135.24 306.212C1135.71 305.487 1136.31 304.921 1137.05 304.515C1137.8 304.109 1138.74 303.877 1139.88 303.819C1140.79 303.775 1141.59 303.739 1142.27 303.71C1142.95 303.666 1143.53 303.521 1144.01 303.275V305.124C1143.78 305.255 1143.35 305.356 1142.73 305.429C1142.12 305.501 1141.28 305.552 1140.2 305.581C1139.51 305.596 1138.89 305.683 1138.35 305.842C1137.83 306.002 1137.38 306.256 1137 306.604C1136.64 306.952 1136.35 307.409 1136.13 307.975C1135.93 308.526 1135.8 309.208 1135.74 310.02C1136.09 309.251 1136.63 308.642 1137.35 308.192C1138.08 307.743 1138.92 307.518 1139.88 307.518C1140.62 307.518 1141.29 307.648 1141.9 307.909C1142.51 308.156 1143.03 308.512 1143.47 308.976C1143.92 309.44 1144.26 310.013 1144.51 310.695C1144.76 311.362 1144.88 312.116 1144.88 312.958V313.393C1144.88 314.293 1144.74 315.105 1144.47 315.83C1144.19 316.541 1143.82 317.158 1143.34 317.68C1142.86 318.188 1142.28 318.579 1141.62 318.855C1140.95 319.131 1140.22 319.268 1139.44 319.268ZM1139.44 317.528C1140.46 317.528 1141.29 317.179 1141.94 316.483C1142.6 315.772 1142.92 314.742 1142.92 313.393V312.958C1142.92 312.392 1142.84 311.884 1142.66 311.435C1142.49 310.985 1142.25 310.601 1141.94 310.281C1141.64 309.948 1141.27 309.694 1140.83 309.52C1140.41 309.346 1139.95 309.259 1139.44 309.259C1138.93 309.259 1138.46 309.346 1138.03 309.52C1137.61 309.694 1137.24 309.948 1136.94 310.281C1136.63 310.601 1136.39 310.985 1136.22 311.435C1136.05 311.884 1135.96 312.392 1135.96 312.958V313.393C1135.96 314.031 1136.05 314.612 1136.22 315.134C1136.41 315.642 1136.66 316.077 1136.98 316.44C1137.3 316.788 1137.67 317.056 1138.09 317.245C1138.51 317.433 1138.96 317.528 1139.44 317.528ZM1147.6 307.518H1149.51V316.222L1155.47 307.518H1157.39V319.051H1155.47V310.347L1149.51 319.051H1147.6V307.518ZM1163.51 309.215H1159.57V307.518H1169.36V309.215H1165.42V319.051H1163.51V309.215Z" fill="black"/>
<path d="M176.923 136.885H178.969V148.853L187.064 136.885H189.109V152.117H187.064V140.149L178.969 152.117H176.923V136.885ZM191.715 150.42H193.13C193.289 150.202 193.434 149.869 193.565 149.419C193.696 148.969 193.812 148.44 193.913 147.83C194.015 147.221 194.087 146.561 194.131 145.85C194.189 145.125 194.218 144.385 194.218 143.631V140.584H202.269V150.42H203.901V154.837H202.073V152.117H193.543V154.837H191.715V150.42ZM200.354 150.42V142.282H196.089V144.066C196.089 144.675 196.067 145.284 196.024 145.894C195.98 146.489 195.915 147.062 195.828 147.613C195.741 148.15 195.632 148.665 195.502 149.158C195.386 149.637 195.248 150.057 195.088 150.42H200.354ZM210.983 152.335C210.244 152.335 209.54 152.219 208.873 151.987C208.205 151.755 207.618 151.399 207.11 150.92C206.602 150.427 206.196 149.811 205.892 149.071C205.587 148.331 205.435 147.46 205.435 146.459V146.024C205.435 145.067 205.58 144.24 205.87 143.544C206.16 142.833 206.544 142.245 207.023 141.781C207.516 141.302 208.082 140.947 208.72 140.715C209.373 140.483 210.055 140.367 210.766 140.367C212.463 140.367 213.776 140.831 214.705 141.759C215.633 142.688 216.097 144.001 216.097 145.698V146.916H207.35C207.35 147.598 207.458 148.171 207.676 148.636C207.894 149.1 208.176 149.477 208.525 149.767C208.873 150.057 209.257 150.268 209.678 150.398C210.113 150.529 210.548 150.594 210.983 150.594C211.854 150.594 212.521 150.449 212.985 150.159C213.464 149.869 213.805 149.47 214.008 148.962H215.88C215.764 149.513 215.553 149.999 215.249 150.42C214.958 150.841 214.596 151.196 214.16 151.486C213.74 151.762 213.254 151.972 212.703 152.117C212.166 152.262 211.593 152.335 210.983 152.335ZM210.875 142.107C210.425 142.107 209.99 142.173 209.569 142.303C209.148 142.419 208.771 142.615 208.438 142.891C208.118 143.152 207.857 143.486 207.654 143.892C207.451 144.298 207.35 144.784 207.35 145.35H214.291C214.277 144.755 214.175 144.254 213.986 143.848C213.812 143.428 213.573 143.094 213.268 142.847C212.964 142.586 212.601 142.398 212.18 142.282C211.774 142.165 211.339 142.107 210.875 142.107ZM218.819 140.584H220.734V145.393H226.696V140.584H228.611V152.117H226.696V147.091H220.734V152.117H218.819V140.584ZM234.733 142.282H230.795V140.584H240.587V142.282H236.648V152.117H234.733V142.282ZM242.768 140.584H244.683V149.288L250.645 140.584H252.56V152.117H250.645V143.413L244.683 152.117H242.768V140.584ZM261.403 152.335C259.401 152.335 257.877 151.827 256.833 150.812C255.803 149.796 255.288 148.353 255.288 146.481V146.046C255.288 144.262 255.803 142.869 256.833 141.868C257.877 140.867 259.401 140.367 261.403 140.367V136.885H263.317V140.367C265.319 140.367 266.835 140.867 267.865 141.868C268.91 142.869 269.432 144.262 269.432 146.046V146.481C269.432 148.353 268.91 149.796 267.865 150.812C266.835 151.827 265.319 152.335 263.317 152.335V156.469H261.403V152.335ZM267.474 146.046C267.474 144.726 267.133 143.739 266.451 143.087C265.784 142.434 264.732 142.107 263.296 142.107V150.594C264.732 150.594 265.784 150.26 266.451 149.593C267.133 148.926 267.474 147.888 267.474 146.481V146.046ZM257.246 146.481C257.246 147.888 257.58 148.926 258.247 149.593C258.929 150.26 259.988 150.594 261.424 150.594V142.107C259.988 142.107 258.929 142.434 258.247 143.087C257.58 143.739 257.246 144.726 257.246 146.046V146.481ZM272.157 140.584H274.072V149.288L280.035 140.584H281.949V152.117H280.035V143.413L274.072 152.117H272.157V140.584ZM285.439 140.584H287.354V145.415H288.877L293.185 140.584H295.448L290.444 146.111L295.666 152.117H293.229L288.877 147.069H287.354V152.117H285.439V140.584ZM301.029 152.335C300.39 152.335 299.824 152.248 299.331 152.074C298.852 151.885 298.446 151.631 298.113 151.312C297.779 150.993 297.525 150.616 297.351 150.181C297.177 149.745 297.09 149.267 297.09 148.744C297.09 147.598 297.424 146.771 298.091 146.264C298.773 145.756 299.745 145.502 301.007 145.502H304.75V144.719C304.75 143.732 304.525 143.05 304.075 142.673C303.64 142.296 302.98 142.107 302.095 142.107C301.268 142.107 300.666 142.267 300.289 142.586C299.911 142.891 299.701 143.239 299.658 143.631H297.743C297.772 143.166 297.895 142.738 298.113 142.347C298.345 141.941 298.649 141.592 299.027 141.302C299.418 141.012 299.882 140.787 300.419 140.628C300.956 140.454 301.551 140.367 302.204 140.367C303.567 140.367 304.648 140.693 305.446 141.346C306.258 141.984 306.664 143.036 306.664 144.501V149.18C306.664 149.789 306.664 150.326 306.664 150.79C306.679 151.24 306.715 151.682 306.773 152.117H305.098C305.054 151.784 305.025 151.472 305.011 151.181C304.996 150.877 304.989 150.536 304.989 150.159C304.684 150.768 304.191 151.283 303.509 151.704C302.827 152.124 302 152.335 301.029 152.335ZM301.442 150.594C301.892 150.594 302.312 150.536 302.704 150.42C303.11 150.289 303.466 150.108 303.77 149.876C304.075 149.629 304.314 149.332 304.488 148.984C304.662 148.636 304.75 148.229 304.75 147.765V146.982H301.333C300.622 146.982 300.064 147.127 299.658 147.417C299.251 147.693 299.048 148.135 299.048 148.744C299.048 149.281 299.237 149.724 299.614 150.072C300.006 150.42 300.615 150.594 301.442 150.594ZM312.467 142.282H308.528V140.584H318.321V142.282H314.382V152.117H312.467V142.282ZM325.077 152.335C324.337 152.335 323.633 152.219 322.966 151.987C322.298 151.74 321.711 151.377 321.203 150.899C320.695 150.405 320.289 149.789 319.985 149.049C319.68 148.309 319.528 147.446 319.528 146.459V146.024C319.528 145.096 319.68 144.276 319.985 143.565C320.289 142.855 320.695 142.267 321.203 141.803C321.711 141.324 322.298 140.969 322.966 140.737C323.633 140.49 324.337 140.367 325.077 140.367C325.816 140.367 326.52 140.49 327.187 140.737C327.855 140.969 328.442 141.324 328.95 141.803C329.458 142.267 329.864 142.855 330.168 143.565C330.473 144.276 330.625 145.096 330.625 146.024V146.459C330.625 147.446 330.473 148.309 330.168 149.049C329.864 149.789 329.458 150.405 328.95 150.899C328.442 151.377 327.855 151.74 327.187 151.987C326.52 152.219 325.816 152.335 325.077 152.335ZM325.077 150.594C325.512 150.594 325.947 150.521 326.382 150.376C326.817 150.217 327.202 149.977 327.535 149.658C327.869 149.325 328.138 148.897 328.341 148.374C328.558 147.852 328.667 147.214 328.667 146.459V146.024C328.667 145.328 328.558 144.733 328.341 144.24C328.138 143.747 327.869 143.341 327.535 143.021C327.202 142.702 326.817 142.47 326.382 142.325C325.947 142.18 325.512 142.107 325.077 142.107C324.641 142.107 324.206 142.18 323.771 142.325C323.336 142.47 322.951 142.702 322.618 143.021C322.284 143.341 322.008 143.747 321.791 144.24C321.588 144.733 321.486 145.328 321.486 146.024V146.459C321.486 147.214 321.588 147.852 321.791 148.374C322.008 148.897 322.284 149.325 322.618 149.658C322.951 149.977 323.336 150.217 323.771 150.376C324.206 150.521 324.641 150.594 325.077 150.594ZM333.337 140.584H335.121V142.76C335.513 141.991 336.057 141.404 336.753 140.998C337.464 140.577 338.284 140.367 339.212 140.367C340.663 140.367 341.824 140.845 342.694 141.803C343.564 142.746 344 144.153 344 146.024V146.459C344 147.446 343.884 148.309 343.651 149.049C343.419 149.774 343.093 150.384 342.672 150.877C342.251 151.356 341.744 151.718 341.149 151.965C340.569 152.211 339.923 152.335 339.212 152.335C338.226 152.335 337.399 152.117 336.732 151.682C336.079 151.247 335.586 150.703 335.252 150.05V156.469H333.337V140.584ZM338.777 150.637C339.241 150.637 339.677 150.55 340.083 150.376C340.489 150.188 340.837 149.919 341.127 149.571C341.432 149.223 341.664 148.788 341.824 148.266C341.998 147.743 342.085 147.141 342.085 146.459V146.024C342.085 145.4 341.998 144.842 341.824 144.349C341.664 143.856 341.432 143.442 341.127 143.108C340.837 142.76 340.489 142.499 340.083 142.325C339.677 142.151 339.241 142.064 338.777 142.064C338.255 142.064 337.776 142.151 337.341 142.325C336.906 142.485 336.536 142.717 336.231 143.021C335.926 143.311 335.687 143.66 335.513 144.066C335.339 144.472 335.252 144.907 335.252 145.371V147.112C335.252 147.635 335.339 148.113 335.513 148.548C335.687 148.984 335.926 149.354 336.231 149.658C336.536 149.963 336.906 150.202 337.341 150.376C337.776 150.55 338.255 150.637 338.777 150.637ZM103.09 164.584H105.135L109.248 171.765L113.36 164.584H115.275V176.117H113.36V167.739L109.944 173.615H108.421L105.004 167.739V176.117H103.09V164.584ZM123.538 176.335C122.798 176.335 122.095 176.219 121.428 175.987C120.76 175.74 120.173 175.377 119.665 174.899C119.157 174.405 118.751 173.789 118.446 173.049C118.142 172.309 117.989 171.446 117.989 170.459V170.024C117.989 169.096 118.142 168.276 118.446 167.565C118.751 166.855 119.157 166.267 119.665 165.803C120.173 165.324 120.76 164.969 121.428 164.737C122.095 164.49 122.798 164.367 123.538 164.367C124.278 164.367 124.982 164.49 125.649 164.737C126.316 164.969 126.904 165.324 127.412 165.803C127.919 166.267 128.326 166.855 128.63 167.565C128.935 168.276 129.087 169.096 129.087 170.024V170.459C129.087 171.446 128.935 172.309 128.63 173.049C128.326 173.789 127.919 174.405 127.412 174.899C126.904 175.377 126.316 175.74 125.649 175.987C124.982 176.219 124.278 176.335 123.538 176.335ZM123.538 174.594C123.974 174.594 124.409 174.521 124.844 174.376C125.279 174.217 125.664 173.977 125.997 173.658C126.331 173.325 126.599 172.897 126.802 172.374C127.02 171.852 127.129 171.214 127.129 170.459V170.024C127.129 169.328 127.02 168.733 126.802 168.24C126.599 167.747 126.331 167.341 125.997 167.021C125.664 166.702 125.279 166.47 124.844 166.325C124.409 166.18 123.974 166.107 123.538 166.107C123.103 166.107 122.668 166.18 122.233 166.325C121.798 166.47 121.413 166.702 121.079 167.021C120.746 167.341 120.47 167.747 120.253 168.24C120.049 168.733 119.948 169.328 119.948 170.024V170.459C119.948 171.214 120.049 171.852 120.253 172.374C120.47 172.897 120.746 173.325 121.079 173.658C121.413 173.977 121.798 174.217 122.233 174.376C122.668 174.521 123.103 174.594 123.538 174.594ZM136.26 176.335C135.52 176.335 134.831 176.219 134.192 175.987C133.554 175.74 133.003 175.377 132.539 174.899C132.074 174.405 131.704 173.789 131.429 173.049C131.168 172.309 131.037 171.446 131.037 170.459V170.024C131.037 169.096 131.182 168.276 131.472 167.565C131.762 166.855 132.147 166.267 132.626 165.803C133.104 165.324 133.656 164.969 134.279 164.737C134.918 164.49 135.578 164.367 136.26 164.367C136.941 164.367 137.551 164.461 138.088 164.649C138.639 164.838 139.11 165.099 139.502 165.433C139.908 165.767 140.235 166.158 140.481 166.608C140.742 167.058 140.931 167.544 141.047 168.066H139.088C138.972 167.79 138.835 167.536 138.675 167.304C138.53 167.058 138.341 166.847 138.109 166.673C137.892 166.499 137.631 166.361 137.326 166.26C137.021 166.158 136.666 166.107 136.26 166.107C135.839 166.107 135.433 166.187 135.041 166.347C134.649 166.492 134.301 166.724 133.997 167.043C133.692 167.348 133.445 167.747 133.257 168.24C133.083 168.733 132.996 169.328 132.996 170.024V170.459C132.996 171.199 133.083 171.838 133.257 172.374C133.445 172.897 133.692 173.325 133.997 173.658C134.301 173.977 134.649 174.217 135.041 174.376C135.433 174.521 135.839 174.594 136.26 174.594C136.97 174.594 137.565 174.42 138.044 174.072C138.537 173.724 138.885 173.245 139.088 172.636H141.047C140.771 173.782 140.206 174.688 139.35 175.356C138.494 176.008 137.464 176.335 136.26 176.335ZM146.289 166.282H142.351V164.584H152.143V166.282H148.204V176.117H146.289V166.282ZM157.185 176.335C156.547 176.335 155.981 176.248 155.488 176.074C155.009 175.885 154.603 175.631 154.269 175.312C153.935 174.993 153.682 174.616 153.507 174.181C153.333 173.745 153.246 173.267 153.246 172.744C153.246 171.598 153.58 170.771 154.247 170.264C154.929 169.756 155.901 169.502 157.163 169.502H160.906V168.719C160.906 167.732 160.681 167.05 160.231 166.673C159.796 166.296 159.136 166.107 158.251 166.107C157.424 166.107 156.822 166.267 156.445 166.586C156.068 166.891 155.858 167.239 155.814 167.631H153.899C153.928 167.166 154.051 166.738 154.269 166.347C154.501 165.941 154.806 165.592 155.183 165.302C155.575 165.012 156.039 164.787 156.576 164.628C157.112 164.454 157.707 164.367 158.36 164.367C159.724 164.367 160.804 164.693 161.602 165.346C162.415 165.984 162.821 167.036 162.821 168.501V173.18C162.821 173.789 162.821 174.326 162.821 174.79C162.835 175.24 162.872 175.682 162.93 176.117H161.254C161.211 175.784 161.182 175.472 161.167 175.181C161.153 174.877 161.145 174.536 161.145 174.159C160.841 174.768 160.347 175.283 159.666 175.704C158.984 176.124 158.157 176.335 157.185 176.335ZM157.598 174.594C158.048 174.594 158.469 174.536 158.86 174.42C159.267 174.289 159.622 174.108 159.927 173.876C160.231 173.629 160.471 173.332 160.645 172.984C160.819 172.636 160.906 172.229 160.906 171.765V170.982H157.49C156.779 170.982 156.22 171.127 155.814 171.417C155.408 171.693 155.205 172.135 155.205 172.744C155.205 173.281 155.393 173.724 155.771 174.072C156.162 174.42 156.771 174.594 157.598 174.594ZM176.104 176.335C175.364 176.335 174.675 176.219 174.037 175.987C173.398 175.74 172.847 175.377 172.383 174.899C171.919 174.405 171.549 173.789 171.273 173.049C171.012 172.309 170.882 171.446 170.882 170.459V170.024C170.882 169.096 171.027 168.276 171.317 167.565C171.607 166.855 171.991 166.267 172.47 165.803C172.949 165.324 173.5 164.969 174.124 164.737C174.762 164.49 175.422 164.367 176.104 164.367C176.786 164.367 177.395 164.461 177.932 164.649C178.483 164.838 178.955 165.099 179.346 165.433C179.753 165.767 180.079 166.158 180.326 166.608C180.587 167.058 180.775 167.544 180.891 168.066H178.933C178.817 167.79 178.679 167.536 178.519 167.304C178.374 167.058 178.186 166.847 177.954 166.673C177.736 166.499 177.475 166.361 177.17 166.26C176.866 166.158 176.51 166.107 176.104 166.107C175.683 166.107 175.277 166.187 174.885 166.347C174.494 166.492 174.146 166.724 173.841 167.043C173.536 167.348 173.29 167.747 173.101 168.24C172.927 168.733 172.84 169.328 172.84 170.024V170.459C172.84 171.199 172.927 171.838 173.101 172.374C173.29 172.897 173.536 173.325 173.841 173.658C174.146 173.977 174.494 174.217 174.885 174.376C175.277 174.521 175.683 174.594 176.104 174.594C176.815 174.594 177.41 174.42 177.888 174.072C178.382 173.724 178.73 173.245 178.933 172.636H180.891C180.616 173.782 180.05 174.688 179.194 175.356C178.338 176.008 177.308 176.335 176.104 176.335ZM188.941 164.584H190.725V166.76C191.117 165.991 191.661 165.404 192.357 164.998C193.068 164.577 193.888 164.367 194.816 164.367C196.267 164.367 197.427 164.845 198.298 165.803C199.168 166.746 199.604 168.153 199.604 170.024V170.459C199.604 171.446 199.487 172.309 199.255 173.049C199.023 173.774 198.697 174.384 198.276 174.877C197.855 175.356 197.348 175.718 196.753 175.965C196.173 176.211 195.527 176.335 194.816 176.335C193.83 176.335 193.003 176.117 192.336 175.682C191.683 175.247 191.19 174.703 190.856 174.05V180.469H188.941V164.584ZM194.381 174.637C194.845 174.637 195.28 174.55 195.687 174.376C196.093 174.188 196.441 173.919 196.731 173.571C197.036 173.223 197.268 172.788 197.427 172.266C197.602 171.743 197.689 171.141 197.689 170.459V170.024C197.689 169.4 197.602 168.842 197.427 168.349C197.268 167.856 197.036 167.442 196.731 167.108C196.441 166.76 196.093 166.499 195.687 166.325C195.28 166.151 194.845 166.064 194.381 166.064C193.859 166.064 193.38 166.151 192.945 166.325C192.51 166.485 192.14 166.717 191.835 167.021C191.53 167.311 191.291 167.66 191.117 168.066C190.943 168.472 190.856 168.907 190.856 169.371V171.112C190.856 171.635 190.943 172.113 191.117 172.548C191.291 172.984 191.53 173.354 191.835 173.658C192.14 173.963 192.51 174.202 192.945 174.376C193.38 174.55 193.859 174.637 194.381 174.637ZM205.614 176.335C204.976 176.335 204.41 176.248 203.917 176.074C203.438 175.885 203.032 175.631 202.699 175.312C202.365 174.993 202.111 174.616 201.937 174.181C201.763 173.745 201.676 173.267 201.676 172.744C201.676 171.598 202.009 170.771 202.677 170.264C203.359 169.756 204.331 169.502 205.593 169.502H209.335V168.719C209.335 167.732 209.111 167.05 208.661 166.673C208.226 166.296 207.566 166.107 206.681 166.107C205.854 166.107 205.252 166.267 204.875 166.586C204.497 166.891 204.287 167.239 204.244 167.631H202.329C202.358 167.166 202.481 166.738 202.699 166.347C202.931 165.941 203.235 165.592 203.613 165.302C204.004 165.012 204.468 164.787 205.005 164.628C205.542 164.454 206.137 164.367 206.79 164.367C208.153 164.367 209.234 164.693 210.032 165.346C210.844 165.984 211.25 167.036 211.25 168.501V173.18C211.25 173.789 211.25 174.326 211.25 174.79C211.265 175.24 211.301 175.682 211.359 176.117H209.684C209.64 175.784 209.611 175.472 209.597 175.181C209.582 174.877 209.575 174.536 209.575 174.159C209.27 174.768 208.777 175.283 208.095 175.704C207.413 176.124 206.586 176.335 205.614 176.335ZM206.028 174.594C206.478 174.594 206.898 174.536 207.29 174.42C207.696 174.289 208.052 174.108 208.356 173.876C208.661 173.629 208.9 173.332 209.074 172.984C209.248 172.636 209.335 172.229 209.335 171.765V170.982H205.919C205.208 170.982 204.65 171.127 204.244 171.417C203.837 171.693 203.634 172.135 203.634 172.744C203.634 173.281 203.823 173.724 204.2 174.072C204.592 174.42 205.201 174.594 206.028 174.594ZM219.093 176.335C218.354 176.335 217.665 176.219 217.026 175.987C216.388 175.74 215.837 175.377 215.372 174.899C214.908 174.405 214.538 173.789 214.263 173.049C214.002 172.309 213.871 171.446 213.871 170.459V170.024C213.871 169.096 214.016 168.276 214.306 167.565C214.596 166.855 214.981 166.267 215.459 165.803C215.938 165.324 216.489 164.969 217.113 164.737C217.752 164.49 218.412 164.367 219.093 164.367C219.775 164.367 220.385 164.461 220.921 164.649C221.473 164.838 221.944 165.099 222.336 165.433C222.742 165.767 223.068 166.158 223.315 166.608C223.576 167.058 223.765 167.544 223.881 168.066H221.922C221.806 167.79 221.668 167.536 221.509 167.304C221.364 167.058 221.175 166.847 220.943 166.673C220.725 166.499 220.464 166.361 220.16 166.26C219.855 166.158 219.5 166.107 219.093 166.107C218.673 166.107 218.267 166.187 217.875 166.347C217.483 166.492 217.135 166.724 216.83 167.043C216.526 167.348 216.279 167.747 216.091 168.24C215.916 168.733 215.829 169.328 215.829 170.024V170.459C215.829 171.199 215.916 171.838 216.091 172.374C216.279 172.897 216.526 173.325 216.83 173.658C217.135 173.977 217.483 174.217 217.875 174.376C218.267 174.521 218.673 174.594 219.093 174.594C219.804 174.594 220.399 174.42 220.878 174.072C221.371 173.724 221.719 173.245 221.922 172.636H223.881C223.605 173.782 223.039 174.688 222.183 175.356C221.328 176.008 220.298 176.335 219.093 176.335ZM226.49 164.584H228.405V174.42H232.605V164.584H234.52V174.42H238.72V164.584H240.635V176.117H226.49V164.584ZM244.107 164.584H246.022V173.288L251.984 164.584H253.899V176.117H251.984V167.413L246.022 176.117H244.107V164.584ZM257.388 164.584H259.173V166.76C259.564 165.991 260.108 165.404 260.805 164.998C261.515 164.577 262.335 164.367 263.264 164.367C264.714 164.367 265.875 164.845 266.745 165.803C267.616 166.746 268.051 168.153 268.051 170.024V170.459C268.051 171.446 267.935 172.309 267.703 173.049C267.471 173.774 267.144 174.384 266.723 174.877C266.303 175.356 265.795 175.718 265.2 175.965C264.62 176.211 263.974 176.335 263.264 176.335C262.277 176.335 261.45 176.117 260.783 175.682C260.13 175.247 259.637 174.703 259.303 174.05V180.469H257.388V164.584ZM262.828 174.637C263.293 174.637 263.728 174.55 264.134 174.376C264.54 174.188 264.888 173.919 265.178 173.571C265.483 173.223 265.715 172.788 265.875 172.266C266.049 171.743 266.136 171.141 266.136 170.459V170.024C266.136 169.4 266.049 168.842 265.875 168.349C265.715 167.856 265.483 167.442 265.178 167.108C264.888 166.76 264.54 166.499 264.134 166.325C263.728 166.151 263.293 166.064 262.828 166.064C262.306 166.064 261.827 166.151 261.392 166.325C260.957 166.485 260.587 166.717 260.282 167.021C259.978 167.311 259.738 167.66 259.564 168.066C259.39 168.472 259.303 168.907 259.303 169.371V171.112C259.303 171.635 259.39 172.113 259.564 172.548C259.738 172.984 259.978 173.354 260.282 173.658C260.587 173.963 260.957 174.202 261.392 174.376C261.827 174.55 262.306 174.637 262.828 174.637ZM275.563 176.335C274.823 176.335 274.12 176.219 273.453 175.987C272.785 175.755 272.198 175.399 271.69 174.92C271.182 174.427 270.776 173.811 270.471 173.071C270.167 172.331 270.014 171.46 270.014 170.459V170.024C270.014 169.067 270.159 168.24 270.45 167.544C270.74 166.833 271.124 166.245 271.603 165.781C272.096 165.302 272.662 164.947 273.3 164.715C273.953 164.483 274.635 164.367 275.346 164.367C277.043 164.367 278.356 164.831 279.284 165.759C280.213 166.688 280.677 168.001 280.677 169.698V170.916H271.929C271.929 171.598 272.038 172.171 272.256 172.636C272.473 173.1 272.756 173.477 273.104 173.767C273.453 174.057 273.837 174.268 274.258 174.398C274.693 174.529 275.128 174.594 275.563 174.594C276.434 174.594 277.101 174.449 277.565 174.159C278.044 173.869 278.385 173.47 278.588 172.962H280.459C280.343 173.513 280.133 173.999 279.828 174.42C279.538 174.841 279.175 175.196 278.74 175.486C278.32 175.762 277.834 175.972 277.282 176.117C276.746 176.262 276.173 176.335 275.563 176.335ZM275.454 166.107C275.005 166.107 274.57 166.173 274.149 166.303C273.728 166.419 273.351 166.615 273.017 166.891C272.698 167.152 272.437 167.486 272.234 167.892C272.031 168.298 271.929 168.784 271.929 169.35H278.871C278.856 168.755 278.755 168.254 278.566 167.848C278.392 167.428 278.153 167.094 277.848 166.847C277.543 166.586 277.181 166.398 276.76 166.282C276.354 166.165 275.919 166.107 275.454 166.107ZM283.399 164.584H285.314V169.393H291.276V164.584H293.191V176.117H291.276V171.091H285.314V176.117H283.399V164.584ZM296.68 164.584H298.595V169.393H304.557V164.584H306.472V176.117H304.557V171.091H298.595V176.117H296.68V164.584ZM309.962 164.584H311.877V168.936H314.205C315.656 168.936 316.722 169.255 317.404 169.894C318.1 170.532 318.448 171.417 318.448 172.548C318.448 173.651 318.1 174.521 317.404 175.16C316.722 175.798 315.656 176.117 314.205 176.117H309.962V164.584ZM314.096 174.42C314.996 174.42 315.627 174.26 315.989 173.941C316.352 173.622 316.533 173.151 316.533 172.527C316.533 171.903 316.352 171.431 315.989 171.112C315.627 170.793 314.996 170.634 314.096 170.634H311.877V174.42H314.096ZM320.233 164.584H322.147V176.117H320.233V164.584ZM325.623 164.584H327.669L331.781 171.765L335.894 164.584H337.809V176.117H335.894V167.739L332.478 173.615H330.954L327.538 167.739V176.117H325.623V164.584ZM151.03 188.584H152.945V197.288L158.908 188.584H160.822V200.117H158.908V191.413L152.945 200.117H151.03V188.584ZM163.006 198.42H164.421C164.58 198.202 164.725 197.869 164.856 197.419C164.986 196.969 165.102 196.44 165.204 195.83C165.306 195.221 165.378 194.561 165.422 193.85C165.48 193.125 165.509 192.385 165.509 191.631V188.584H173.56V198.42H175.192V202.837H173.364V200.117H164.834V202.837H163.006V198.42ZM171.645 198.42V190.282H167.38V192.066C167.38 192.675 167.358 193.284 167.315 193.894C167.271 194.489 167.206 195.062 167.119 195.613C167.032 196.15 166.923 196.665 166.792 197.158C166.676 197.637 166.539 198.057 166.379 198.42H171.645ZM182.274 200.335C181.534 200.335 180.831 200.219 180.164 199.987C179.496 199.755 178.909 199.399 178.401 198.92C177.893 198.427 177.487 197.811 177.182 197.071C176.878 196.331 176.725 195.46 176.725 194.459V194.024C176.725 193.067 176.87 192.24 177.161 191.544C177.451 190.833 177.835 190.245 178.314 189.781C178.807 189.302 179.373 188.947 180.011 188.715C180.664 188.483 181.346 188.367 182.057 188.367C183.754 188.367 185.067 188.831 185.995 189.759C186.924 190.688 187.388 192.001 187.388 193.698V194.916H178.64C178.64 195.598 178.749 196.171 178.967 196.636C179.184 197.1 179.467 197.477 179.815 197.767C180.164 198.057 180.548 198.268 180.969 198.398C181.404 198.529 181.839 198.594 182.274 198.594C183.145 198.594 183.812 198.449 184.276 198.159C184.755 197.869 185.096 197.47 185.299 196.962H187.17C187.054 197.513 186.844 197.999 186.539 198.42C186.249 198.841 185.886 199.196 185.451 199.486C185.031 199.762 184.545 199.972 183.993 200.117C183.457 200.262 182.884 200.335 182.274 200.335ZM182.165 190.107C181.716 190.107 181.281 190.173 180.86 190.303C180.439 190.419 180.062 190.615 179.728 190.891C179.409 191.152 179.148 191.486 178.945 191.892C178.742 192.298 178.64 192.784 178.64 193.35H185.582C185.567 192.755 185.466 192.254 185.277 191.848C185.103 191.428 184.864 191.094 184.559 190.847C184.254 190.586 183.892 190.398 183.471 190.282C183.065 190.165 182.63 190.107 182.165 190.107ZM190.11 188.584H192.025V193.393H197.987V188.584H199.902V200.117H197.987V195.091H192.025V200.117H190.11V188.584ZM206.024 190.282H202.086V188.584H211.878V190.282H207.939V200.117H206.024V190.282ZM214.059 188.584H215.974V197.288L221.936 188.584H223.851V200.117H221.936V191.413L215.974 200.117H214.059V188.584ZM232.693 200.335C230.691 200.335 229.168 199.827 228.124 198.812C227.094 197.796 226.579 196.353 226.579 194.481V194.046C226.579 192.262 227.094 190.869 228.124 189.868C229.168 188.867 230.691 188.367 232.693 188.367V184.885H234.608V188.367C236.61 188.367 238.126 188.867 239.156 189.868C240.201 190.869 240.723 192.262 240.723 194.046V194.481C240.723 196.353 240.201 197.796 239.156 198.812C238.126 199.827 236.61 200.335 234.608 200.335V204.469H232.693V200.335ZM238.764 194.046C238.764 192.726 238.424 191.739 237.742 191.087C237.074 190.434 236.023 190.107 234.586 190.107V198.594C236.023 198.594 237.074 198.26 237.742 197.593C238.424 196.926 238.764 195.888 238.764 194.481V194.046ZM228.537 194.481C228.537 195.888 228.871 196.926 229.538 197.593C230.22 198.26 231.279 198.594 232.715 198.594V190.107C231.279 190.107 230.22 190.434 229.538 191.087C228.871 191.739 228.537 192.726 228.537 194.046V194.481ZM243.448 188.584H245.363V197.288L251.325 188.584H253.24V200.117H251.325V191.413L245.363 200.117H243.448V188.584ZM256.73 188.584H258.644V193.415H260.168L264.476 188.584H266.739L261.734 194.111L266.957 200.117H264.52L260.168 195.069H258.644V200.117H256.73V188.584ZM272.319 200.335C271.681 200.335 271.115 200.248 270.622 200.074C270.143 199.885 269.737 199.631 269.403 199.312C269.07 198.993 268.816 198.616 268.642 198.181C268.468 197.745 268.381 197.267 268.381 196.744C268.381 195.598 268.714 194.771 269.382 194.264C270.063 193.756 271.035 193.502 272.298 193.502H276.04V192.719C276.04 191.732 275.815 191.05 275.366 190.673C274.931 190.296 274.27 190.107 273.386 190.107C272.559 190.107 271.957 190.267 271.579 190.586C271.202 190.891 270.992 191.239 270.948 191.631H269.033C269.062 191.166 269.186 190.738 269.403 190.347C269.635 189.941 269.94 189.592 270.317 189.302C270.709 189.012 271.173 188.787 271.71 188.628C272.247 188.454 272.842 188.367 273.494 188.367C274.858 188.367 275.939 188.693 276.737 189.346C277.549 189.984 277.955 191.036 277.955 192.501V197.18C277.955 197.789 277.955 198.326 277.955 198.79C277.97 199.24 278.006 199.682 278.064 200.117H276.388C276.345 199.784 276.316 199.472 276.301 199.181C276.287 198.877 276.28 198.536 276.28 198.159C275.975 198.768 275.482 199.283 274.8 199.704C274.118 200.124 273.291 200.335 272.319 200.335ZM272.733 198.594C273.182 198.594 273.603 198.536 273.995 198.42C274.401 198.289 274.756 198.108 275.061 197.876C275.366 197.629 275.605 197.332 275.779 196.984C275.953 196.636 276.04 196.229 276.04 195.765V194.982H272.624C271.913 194.982 271.355 195.127 270.948 195.417C270.542 195.693 270.339 196.135 270.339 196.744C270.339 197.281 270.528 197.724 270.905 198.072C271.297 198.42 271.906 198.594 272.733 198.594ZM283.758 190.282H279.819V188.584H289.611V190.282H285.673V200.117H283.758V190.282ZM296.367 200.335C295.628 200.335 294.924 200.219 294.257 199.987C293.589 199.74 293.002 199.377 292.494 198.899C291.986 198.405 291.58 197.789 291.275 197.049C290.971 196.309 290.818 195.446 290.818 194.459V194.024C290.818 193.096 290.971 192.276 291.275 191.565C291.58 190.855 291.986 190.267 292.494 189.803C293.002 189.324 293.589 188.969 294.257 188.737C294.924 188.49 295.628 188.367 296.367 188.367C297.107 188.367 297.811 188.49 298.478 188.737C299.145 188.969 299.733 189.324 300.241 189.803C300.748 190.267 301.155 190.855 301.459 191.565C301.764 192.276 301.916 193.096 301.916 194.024V194.459C301.916 195.446 301.764 196.309 301.459 197.049C301.155 197.789 300.748 198.405 300.241 198.899C299.733 199.377 299.145 199.74 298.478 199.987C297.811 200.219 297.107 200.335 296.367 200.335ZM296.367 198.594C296.803 198.594 297.238 198.521 297.673 198.376C298.108 198.217 298.493 197.977 298.826 197.658C299.16 197.325 299.428 196.897 299.631 196.374C299.849 195.852 299.958 195.214 299.958 194.459V194.024C299.958 193.328 299.849 192.733 299.631 192.24C299.428 191.747 299.16 191.341 298.826 191.021C298.493 190.702 298.108 190.47 297.673 190.325C297.238 190.18 296.803 190.107 296.367 190.107C295.932 190.107 295.497 190.18 295.062 190.325C294.627 190.47 294.242 190.702 293.908 191.021C293.575 191.341 293.299 191.747 293.082 192.24C292.878 192.733 292.777 193.328 292.777 194.024V194.459C292.777 195.214 292.878 195.852 293.082 196.374C293.299 196.897 293.575 197.325 293.908 197.658C294.242 197.977 294.627 198.217 295.062 198.376C295.497 198.521 295.932 198.594 296.367 198.594ZM304.628 188.584H306.412V190.76C306.804 189.991 307.348 189.404 308.044 188.998C308.755 188.577 309.575 188.367 310.503 188.367C311.954 188.367 313.114 188.845 313.985 189.803C314.855 190.746 315.29 192.153 315.29 194.024V194.459C315.29 195.446 315.174 196.309 314.942 197.049C314.71 197.774 314.384 198.384 313.963 198.877C313.542 199.356 313.035 199.718 312.44 199.965C311.859 200.211 311.214 200.335 310.503 200.335C309.517 200.335 308.69 200.117 308.022 199.682C307.37 199.247 306.876 198.703 306.543 198.05V204.469H304.628V188.584ZM310.068 198.637C310.532 198.637 310.967 198.55 311.373 198.376C311.78 198.188 312.128 197.919 312.418 197.571C312.723 197.223 312.955 196.788 313.114 196.266C313.288 195.743 313.375 195.141 313.375 194.459V194.024C313.375 193.4 313.288 192.842 313.114 192.349C312.955 191.856 312.723 191.442 312.418 191.108C312.128 190.76 311.78 190.499 311.373 190.325C310.967 190.151 310.532 190.064 310.068 190.064C309.546 190.064 309.067 190.151 308.632 190.325C308.196 190.485 307.827 190.717 307.522 191.021C307.217 191.311 306.978 191.66 306.804 192.066C306.63 192.472 306.543 192.907 306.543 193.371V195.112C306.543 195.635 306.63 196.113 306.804 196.548C306.978 196.984 307.217 197.354 307.522 197.658C307.827 197.963 308.196 198.202 308.632 198.376C309.067 198.55 309.546 198.637 310.068 198.637ZM322.803 200.335C322.063 200.335 321.359 200.219 320.692 199.987C320.025 199.74 319.437 199.377 318.929 198.899C318.422 198.405 318.016 197.789 317.711 197.049C317.406 196.309 317.254 195.446 317.254 194.459V194.024C317.254 193.096 317.406 192.276 317.711 191.565C318.016 190.855 318.422 190.267 318.929 189.803C319.437 189.324 320.025 188.969 320.692 188.737C321.359 188.49 322.063 188.367 322.803 188.367C323.543 188.367 324.246 188.49 324.914 188.737C325.581 188.969 326.168 189.324 326.676 189.803C327.184 190.267 327.59 190.855 327.895 191.565C328.199 192.276 328.352 193.096 328.352 194.024V194.459C328.352 195.446 328.199 196.309 327.895 197.049C327.59 197.789 327.184 198.405 326.676 198.899C326.168 199.377 325.581 199.74 324.914 199.987C324.246 200.219 323.543 200.335 322.803 200.335ZM322.803 198.594C323.238 198.594 323.673 198.521 324.108 198.376C324.544 198.217 324.928 197.977 325.262 197.658C325.595 197.325 325.864 196.897 326.067 196.374C326.284 195.852 326.393 195.214 326.393 194.459V194.024C326.393 193.328 326.284 192.733 326.067 192.24C325.864 191.747 325.595 191.341 325.262 191.021C324.928 190.702 324.544 190.47 324.108 190.325C323.673 190.18 323.238 190.107 322.803 190.107C322.368 190.107 321.932 190.18 321.497 190.325C321.062 190.47 320.678 190.702 320.344 191.021C320.01 191.341 319.735 191.747 319.517 192.24C319.314 192.733 319.212 193.328 319.212 194.024V194.459C319.212 195.214 319.314 195.852 319.517 196.374C319.735 196.897 320.01 197.325 320.344 197.658C320.678 197.977 321.062 198.217 321.497 198.376C321.932 198.521 322.368 198.594 322.803 198.594ZM331.063 188.584H333.109L337.221 195.765L341.334 188.584H343.249V200.117H341.334V191.739L337.918 197.615H336.395L332.978 191.739V200.117H331.063V188.584ZM259.788 225.335C259.048 225.335 258.359 225.219 257.721 224.987C257.082 224.74 256.531 224.377 256.067 223.899C255.603 223.405 255.233 222.789 254.957 222.049C254.696 221.309 254.565 220.446 254.565 219.459V219.024C254.565 218.096 254.71 217.276 255.001 216.565C255.291 215.855 255.675 215.267 256.154 214.803C256.633 214.324 257.184 213.969 257.808 213.737C258.446 213.49 259.106 213.367 259.788 213.367C260.47 213.367 261.079 213.461 261.616 213.649C262.167 213.838 262.638 214.099 263.03 214.433C263.436 214.767 263.763 215.158 264.009 215.608C264.271 216.058 264.459 216.544 264.575 217.066H262.617C262.501 216.79 262.363 216.536 262.203 216.304C262.058 216.058 261.87 215.847 261.638 215.673C261.42 215.499 261.159 215.361 260.854 215.26C260.549 215.158 260.194 215.107 259.788 215.107C259.367 215.107 258.961 215.187 258.569 215.347C258.178 215.492 257.829 215.724 257.525 216.043C257.22 216.348 256.974 216.747 256.785 217.24C256.611 217.733 256.524 218.328 256.524 219.024V219.459C256.524 220.199 256.611 220.838 256.785 221.374C256.974 221.897 257.22 222.325 257.525 222.658C257.829 222.977 258.178 223.217 258.569 223.376C258.961 223.521 259.367 223.594 259.788 223.594C260.499 223.594 261.094 223.42 261.572 223.072C262.065 222.724 262.414 222.245 262.617 221.636H264.575C264.3 222.782 263.734 223.688 262.878 224.356C262.022 225.008 260.992 225.335 259.788 225.335ZM267.185 213.584H269.1V222.288L275.062 213.584H276.977V225.117H275.062V216.413L269.1 225.117H267.185V213.584ZM284.927 225.335C284.187 225.335 283.498 225.219 282.86 224.987C282.222 224.74 281.67 224.377 281.206 223.899C280.742 223.405 280.372 222.789 280.096 222.049C279.835 221.309 279.705 220.446 279.705 219.459V219.024C279.705 218.096 279.85 217.276 280.14 216.565C280.43 215.855 280.814 215.267 281.293 214.803C281.772 214.324 282.323 213.969 282.947 213.737C283.585 213.49 284.245 213.367 284.927 213.367C285.609 213.367 286.218 213.461 286.755 213.649C287.306 213.838 287.778 214.099 288.169 214.433C288.576 214.767 288.902 215.158 289.149 215.608C289.41 216.058 289.598 216.544 289.714 217.066H287.756C287.64 216.79 287.502 216.536 287.342 216.304C287.197 216.058 287.009 215.847 286.777 215.673C286.559 215.499 286.298 215.361 285.993 215.26C285.689 215.158 285.333 215.107 284.927 215.107C284.506 215.107 284.1 215.187 283.708 215.347C283.317 215.492 282.969 215.724 282.664 216.043C282.359 216.348 282.113 216.747 281.924 217.24C281.75 217.733 281.663 218.328 281.663 219.024V219.459C281.663 220.199 281.75 220.838 281.924 221.374C282.113 221.897 282.359 222.325 282.664 222.658C282.969 222.977 283.317 223.217 283.708 223.376C284.1 223.521 284.506 223.594 284.927 223.594C285.638 223.594 286.233 223.42 286.711 223.072C287.205 222.724 287.553 222.245 287.756 221.636H289.714C289.439 222.782 288.873 223.688 288.017 224.356C287.161 225.008 286.131 225.335 284.927 225.335ZM294.957 215.282H291.018V213.584H300.81V215.282H296.872V225.117H294.957V215.282ZM307.566 225.335C306.826 225.335 306.123 225.219 305.456 224.987C304.788 224.755 304.201 224.399 303.693 223.92C303.185 223.427 302.779 222.811 302.474 222.071C302.17 221.331 302.017 220.46 302.017 219.459V219.024C302.017 218.067 302.162 217.24 302.453 216.544C302.743 215.833 303.127 215.245 303.606 214.781C304.099 214.302 304.665 213.947 305.303 213.715C305.956 213.483 306.638 213.367 307.349 213.367C309.046 213.367 310.359 213.831 311.287 214.759C312.216 215.688 312.68 217.001 312.68 218.698V219.916H303.932C303.932 220.598 304.041 221.171 304.259 221.636C304.476 222.1 304.759 222.477 305.107 222.767C305.456 223.057 305.84 223.268 306.261 223.398C306.696 223.529 307.131 223.594 307.566 223.594C308.437 223.594 309.104 223.449 309.568 223.159C310.047 222.869 310.388 222.47 310.591 221.962H312.462C312.346 222.513 312.136 222.999 311.831 223.42C311.541 223.841 311.179 224.196 310.743 224.486C310.323 224.762 309.837 224.972 309.285 225.117C308.749 225.262 308.176 225.335 307.566 225.335ZM307.457 215.107C307.008 215.107 306.573 215.173 306.152 215.303C305.731 215.419 305.354 215.615 305.02 215.891C304.701 216.152 304.44 216.486 304.237 216.892C304.034 217.298 303.932 217.784 303.932 218.35H310.874C310.859 217.755 310.758 217.254 310.569 216.848C310.395 216.428 310.156 216.094 309.851 215.847C309.546 215.586 309.184 215.398 308.763 215.282C308.357 215.165 307.922 215.107 307.457 215.107ZM315.402 213.584H317.447L321.56 220.765L325.673 213.584H327.588V225.117H325.673V216.739L322.256 222.615H320.733L317.317 216.739V225.117H315.402V213.584ZM331.063 213.584H332.978V217.936H335.306C336.757 217.936 337.823 218.255 338.505 218.894C339.202 219.532 339.55 220.417 339.55 221.548C339.55 222.651 339.202 223.521 338.505 224.16C337.823 224.798 336.757 225.117 335.306 225.117H331.063V213.584ZM335.198 223.42C336.097 223.42 336.728 223.26 337.091 222.941C337.454 222.622 337.635 222.151 337.635 221.527C337.635 220.903 337.454 220.431 337.091 220.112C336.728 219.793 336.097 219.634 335.198 219.634H332.978V223.42H335.198ZM341.334 213.584H343.249V225.117H341.334V213.584Z" fill="black"/>
<path d="M398.869 255.117L378.869 266.664L398.869 278.211V255.117Z" fill="#FFBD6E"/>
<path d="M563.869 271.664H398.869V261.664H563.869V271.664Z" fill="#FFBD6E"/>
<path d="M563.869 255.117L583.869 266.664L563.869 278.211V255.117Z" fill="#FFBD6E"/>
<path d="M1084.87 255.117L1064.87 266.664L1084.87 278.211V255.117Z" fill="#FFBD6E"/>
<path d="M1184.87 271.664H1084.87V261.664H1184.87V271.664Z" fill="#FFBD6E"/>
<path d="M1184.87 255.117L1204.87 266.664L1184.87 278.211V255.117Z" fill="#FFBD6E"/>
<path d="M623.869 255.117L603.869 266.664L623.869 278.211V255.117Z" fill="#FFBD6E"/>
<path d="M1024.87 271.664L623.869 271.664V261.664L1024.87 261.664V271.664Z" fill="#FFBD6E"/>
<path d="M1024.87 255.117L1044.87 266.664L1024.87 278.211V255.117Z" fill="#FFBD6E"/>
</svg>
