<svg width="803" height="621" viewBox="0 0 803 621" fill="none" xmlns="http://www.w3.org/2000/svg">
<rect width="801.127" height="620" transform="translate(0.983887 0.317383)" fill="white"/>
<rect x="101.484" y="100.817" width="272" height="44" rx="2.5" fill="#ABD4C1"/>
<path d="M223.447 131.535C222.533 131.535 221.735 131.426 221.054 131.209C220.372 130.991 219.799 130.694 219.334 130.316C218.87 129.925 218.5 129.475 218.225 128.967C217.964 128.445 217.782 127.887 217.681 127.292H219.726C219.799 127.625 219.922 127.945 220.096 128.249C220.27 128.539 220.502 128.793 220.792 129.011C221.097 129.228 221.467 129.402 221.902 129.533C222.337 129.649 222.852 129.707 223.447 129.707C224.666 129.707 225.587 129.475 226.211 129.011C226.849 128.547 227.168 127.974 227.168 127.292C227.168 126.871 227.096 126.516 226.951 126.225C226.82 125.935 226.588 125.681 226.254 125.464C225.935 125.246 225.507 125.05 224.97 124.876C224.448 124.702 223.803 124.528 223.034 124.354C222.178 124.165 221.438 123.962 220.814 123.745C220.205 123.513 219.697 123.23 219.291 122.896C218.899 122.548 218.602 122.135 218.399 121.656C218.21 121.177 218.116 120.59 218.116 119.893C218.116 119.327 218.239 118.805 218.486 118.326C218.732 117.833 219.081 117.405 219.53 117.043C219.995 116.68 220.553 116.397 221.206 116.194C221.873 115.976 222.62 115.868 223.447 115.868C224.26 115.868 224.97 115.976 225.58 116.194C226.189 116.397 226.704 116.68 227.125 117.043C227.56 117.405 227.901 117.833 228.147 118.326C228.394 118.805 228.568 119.327 228.67 119.893H226.624C226.552 119.589 226.443 119.306 226.298 119.045C226.153 118.769 225.95 118.537 225.689 118.348C225.442 118.145 225.13 117.986 224.753 117.869C224.39 117.753 223.955 117.695 223.447 117.695C222.403 117.695 221.59 117.913 221.01 118.348C220.444 118.769 220.161 119.284 220.161 119.893C220.161 120.285 220.234 120.626 220.379 120.916C220.524 121.192 220.749 121.438 221.054 121.656C221.358 121.859 221.743 122.04 222.207 122.2C222.686 122.345 223.251 122.49 223.904 122.635C224.847 122.838 225.652 123.07 226.32 123.331C227.001 123.578 227.553 123.883 227.973 124.245C228.409 124.608 228.72 125.036 228.909 125.529C229.112 126.022 229.214 126.61 229.214 127.292C229.214 127.887 229.083 128.445 228.822 128.967C228.561 129.475 228.184 129.925 227.69 130.316C227.197 130.694 226.595 130.991 225.884 131.209C225.174 131.426 224.361 131.535 223.447 131.535ZM235.913 117.869H230.626V116.085H243.247V117.869H237.959V131.317H235.913V117.869ZM245.86 116.085H251.083C252.084 116.085 252.954 116.201 253.694 116.433C254.434 116.665 255.043 116.992 255.522 117.413C256.015 117.819 256.378 118.312 256.61 118.892C256.842 119.458 256.958 120.082 256.958 120.764C256.958 121.445 256.842 122.076 256.61 122.657C256.378 123.223 256.015 123.716 255.522 124.136C255.043 124.543 254.434 124.862 253.694 125.094C252.954 125.326 252.084 125.442 251.083 125.442H247.906V131.317H245.86V116.085ZM250.974 123.658C251.699 123.658 252.309 123.592 252.802 123.462C253.31 123.317 253.716 123.121 254.02 122.874C254.34 122.628 254.564 122.323 254.695 121.96C254.84 121.598 254.913 121.199 254.913 120.764C254.913 120.328 254.84 119.929 254.695 119.567C254.564 119.204 254.34 118.899 254.02 118.653C253.716 118.406 253.31 118.218 252.802 118.087C252.309 117.942 251.699 117.869 250.974 117.869H247.906V123.658H250.974Z" fill="black"/>
<rect x="101.484" y="100.817" width="272" height="44" rx="2.5" stroke="#58A982"/>
<path d="M185.035 206.535C184.165 206.535 183.323 206.39 182.511 206.1C181.699 205.795 180.981 205.331 180.357 204.707C179.733 204.083 179.232 203.285 178.855 202.313C178.478 201.342 178.29 200.174 178.29 198.81V198.375C178.29 197.069 178.478 195.945 178.855 195.002C179.232 194.059 179.733 193.283 180.357 192.674C180.981 192.05 181.699 191.593 182.511 191.303C183.323 191.013 184.165 190.868 185.035 190.868C185.906 190.868 186.747 191.013 187.559 191.303C188.372 191.593 189.09 192.05 189.714 192.674C190.337 193.283 190.838 194.059 191.215 195.002C191.592 195.945 191.781 197.069 191.781 198.375V198.81C191.781 200.174 191.592 201.342 191.215 202.313C190.838 203.285 190.337 204.083 189.714 204.707C189.09 205.331 188.372 205.795 187.559 206.1C186.747 206.39 185.906 206.535 185.035 206.535ZM185.035 204.707C185.63 204.707 186.203 204.598 186.754 204.381C187.306 204.163 187.792 203.822 188.212 203.358C188.633 202.879 188.967 202.27 189.213 201.53C189.474 200.776 189.605 199.869 189.605 198.81V198.375C189.605 197.374 189.474 196.518 189.213 195.807C188.967 195.082 188.633 194.494 188.212 194.045C187.792 193.58 187.306 193.239 186.754 193.022C186.203 192.804 185.63 192.695 185.035 192.695C184.44 192.695 183.867 192.804 183.316 193.022C182.765 193.239 182.279 193.58 181.858 194.045C181.438 194.494 181.097 195.082 180.835 195.807C180.589 196.518 180.466 197.374 180.466 198.375V198.81C180.466 199.869 180.589 200.776 180.835 201.53C181.097 202.27 181.438 202.879 181.858 203.358C182.279 203.822 182.765 204.163 183.316 204.381C183.867 204.598 184.44 204.707 185.035 204.707ZM197.465 196.482H193.527V194.784H203.319V196.482H199.38V206.317H197.465V196.482ZM205.5 194.784H207.415V199.615H208.938L213.247 194.784H215.51L210.505 200.312L215.728 206.317H213.29L208.938 201.269H207.415V206.317H205.5V194.784ZM217.898 206.535C217.68 206.535 217.462 206.513 217.245 206.47V204.555C217.317 204.569 217.426 204.577 217.571 204.577C217.89 204.577 218.166 204.475 218.398 204.272C218.645 204.069 218.841 203.713 218.986 203.206C219.131 202.698 219.239 202.009 219.312 201.138C219.385 200.268 219.421 199.165 219.421 197.831V194.784H227.69V206.317H225.775V196.482H221.336V198.266C221.336 199.876 221.263 201.211 221.118 202.27C220.973 203.329 220.755 204.178 220.465 204.816C220.19 205.44 219.834 205.882 219.399 206.143C218.964 206.404 218.463 206.535 217.898 206.535ZM231.171 194.784H233.085V199.593H234.717C234.776 198.767 234.957 198.041 235.262 197.417C235.566 196.779 235.951 196.25 236.415 195.829C236.894 195.408 237.438 195.096 238.047 194.893C238.656 194.676 239.302 194.567 239.983 194.567C240.723 194.567 241.412 194.69 242.051 194.937C242.704 195.169 243.269 195.524 243.748 196.003C244.227 196.467 244.604 197.055 244.88 197.766C245.17 198.476 245.315 199.296 245.315 200.224V200.66C245.315 201.646 245.17 202.509 244.88 203.249C244.604 203.989 244.227 204.606 243.748 205.099C243.269 205.578 242.704 205.94 242.051 206.187C241.412 206.419 240.723 206.535 239.983 206.535C239.302 206.535 238.649 206.433 238.025 206.23C237.416 206.013 236.872 205.686 236.393 205.251C235.929 204.816 235.544 204.272 235.24 203.619C234.95 202.952 234.776 202.176 234.717 201.291H233.085V206.317H231.171V194.784ZM239.983 204.794C240.419 204.794 240.839 204.722 241.246 204.577C241.652 204.417 242.007 204.178 242.312 203.858C242.631 203.525 242.885 203.097 243.073 202.575C243.262 202.052 243.356 201.414 243.356 200.66V200.224C243.356 199.528 243.262 198.933 243.073 198.44C242.885 197.947 242.631 197.541 242.312 197.222C242.007 196.902 241.652 196.67 241.246 196.525C240.839 196.38 240.419 196.308 239.983 196.308C239.548 196.308 239.128 196.38 238.721 196.525C238.315 196.67 237.953 196.902 237.633 197.222C237.329 197.541 237.082 197.947 236.894 198.44C236.705 198.933 236.611 199.528 236.611 200.224V200.66C236.611 201.414 236.705 202.052 236.894 202.575C237.082 203.097 237.329 203.525 237.633 203.858C237.953 204.178 238.315 204.417 238.721 204.577C239.128 204.722 239.548 204.794 239.983 204.794ZM254.724 201.726C254.39 201.929 253.984 202.11 253.505 202.27C253.041 202.43 252.453 202.509 251.743 202.509C251.075 202.509 250.473 202.437 249.936 202.292C249.414 202.147 248.972 201.915 248.609 201.595C248.246 201.276 247.971 200.863 247.782 200.355C247.594 199.847 247.499 199.224 247.499 198.484V194.784H249.414V198.157C249.414 198.65 249.458 199.064 249.545 199.398C249.646 199.731 249.806 200 250.024 200.203C250.241 200.406 250.517 200.551 250.85 200.638C251.184 200.725 251.59 200.768 252.069 200.768C252.722 200.768 253.28 200.703 253.745 200.573C254.209 200.442 254.535 200.304 254.724 200.159V194.784H256.639V206.317H254.724V201.726ZM264.901 206.535C264.161 206.535 263.457 206.419 262.79 206.187C262.123 205.955 261.535 205.599 261.027 205.121C260.52 204.627 260.114 204.011 259.809 203.271C259.504 202.531 259.352 201.661 259.352 200.66V200.224C259.352 199.267 259.497 198.44 259.787 197.744C260.077 197.033 260.462 196.445 260.94 195.981C261.434 195.502 261.999 195.147 262.638 194.915C263.291 194.683 263.972 194.567 264.683 194.567C266.381 194.567 267.693 195.031 268.622 195.959C269.55 196.888 270.014 198.201 270.014 199.898V201.117H261.267C261.267 201.798 261.376 202.372 261.593 202.836C261.811 203.3 262.094 203.677 262.442 203.967C262.79 204.257 263.174 204.468 263.595 204.598C264.03 204.729 264.466 204.794 264.901 204.794C265.771 204.794 266.439 204.649 266.903 204.359C267.381 204.069 267.722 203.67 267.925 203.162H269.797C269.681 203.713 269.47 204.199 269.166 204.62C268.876 205.041 268.513 205.396 268.078 205.686C267.657 205.962 267.171 206.172 266.62 206.317C266.083 206.462 265.51 206.535 264.901 206.535ZM264.792 196.308C264.342 196.308 263.907 196.373 263.486 196.503C263.066 196.62 262.688 196.815 262.355 197.091C262.036 197.352 261.775 197.686 261.571 198.092C261.368 198.498 261.267 198.984 261.267 199.55H268.208C268.194 198.955 268.092 198.455 267.904 198.048C267.73 197.628 267.49 197.294 267.186 197.047C266.881 196.786 266.518 196.598 266.098 196.482C265.691 196.366 265.256 196.308 264.792 196.308ZM272.736 194.784H274.651V199.593H280.613V194.784H282.528V206.317H280.613V201.291H274.651V206.317H272.736V194.784ZM290.805 206.535C290.065 206.535 289.362 206.419 288.694 206.187C288.027 205.94 287.439 205.578 286.932 205.099C286.424 204.606 286.018 203.989 285.713 203.249C285.408 202.509 285.256 201.646 285.256 200.66V200.224C285.256 199.296 285.408 198.476 285.713 197.766C286.018 197.055 286.424 196.467 286.932 196.003C287.439 195.524 288.027 195.169 288.694 194.937C289.362 194.69 290.065 194.567 290.805 194.567C291.545 194.567 292.248 194.69 292.916 194.937C293.583 195.169 294.171 195.524 294.678 196.003C295.186 196.467 295.592 197.055 295.897 197.766C296.202 198.476 296.354 199.296 296.354 200.224V200.66C296.354 201.646 296.202 202.509 295.897 203.249C295.592 203.989 295.186 204.606 294.678 205.099C294.171 205.578 293.583 205.94 292.916 206.187C292.248 206.419 291.545 206.535 290.805 206.535ZM290.805 204.794C291.24 204.794 291.675 204.722 292.111 204.577C292.546 204.417 292.93 204.178 293.264 203.858C293.598 203.525 293.866 203.097 294.069 202.575C294.287 202.052 294.395 201.414 294.395 200.66V200.224C294.395 199.528 294.287 198.933 294.069 198.44C293.866 197.947 293.598 197.541 293.264 197.222C292.93 196.902 292.546 196.67 292.111 196.525C291.675 196.38 291.24 196.308 290.805 196.308C290.37 196.308 289.935 196.38 289.499 196.525C289.064 196.67 288.68 196.902 288.346 197.222C288.012 197.541 287.737 197.947 287.519 198.44C287.316 198.933 287.215 199.528 287.215 200.224V200.66C287.215 201.414 287.316 202.052 287.519 202.575C287.737 203.097 288.012 203.525 288.346 203.858C288.68 204.178 289.064 204.417 289.499 204.577C289.935 204.722 290.37 204.794 290.805 204.794Z" fill="black"/>
<rect x="101.484" y="175.817" width="272" height="44" rx="2.5" stroke="#58A982"/>
<path d="M124.16 266.085H134.061V267.848H126.205V272.178H129.6C130.601 272.178 131.471 272.287 132.211 272.504C132.951 272.722 133.56 273.034 134.039 273.44C134.532 273.846 134.895 274.332 135.127 274.898C135.359 275.449 135.475 276.066 135.475 276.748C135.475 277.43 135.359 278.053 135.127 278.619C134.895 279.17 134.532 279.649 134.039 280.055C133.56 280.461 132.951 280.773 132.211 280.991C131.471 281.209 130.601 281.317 129.6 281.317H124.16V266.085ZM129.491 279.533C130.942 279.533 131.957 279.294 132.538 278.815C133.132 278.322 133.43 277.633 133.43 276.748C133.43 275.863 133.132 275.181 132.538 274.702C131.957 274.209 130.942 273.962 129.491 273.962H126.205V279.533H129.491ZM137.44 281.535C137.222 281.535 137.004 281.513 136.787 281.47V279.555C136.859 279.569 136.968 279.577 137.113 279.577C137.432 279.577 137.708 279.475 137.94 279.272C138.187 279.069 138.383 278.713 138.528 278.206C138.673 277.698 138.782 277.009 138.854 276.138C138.927 275.268 138.963 274.165 138.963 272.831V269.784H147.232V281.317H145.317V271.482H140.878V273.266C140.878 274.876 140.805 276.211 140.66 277.27C140.515 278.329 140.298 279.178 140.007 279.816C139.732 280.44 139.376 280.882 138.941 281.143C138.506 281.404 138.005 281.535 137.44 281.535ZM155.5 281.535C154.76 281.535 154.056 281.419 153.389 281.187C152.722 280.94 152.134 280.578 151.627 280.099C151.119 279.606 150.713 278.989 150.408 278.249C150.103 277.509 149.951 276.646 149.951 275.66V275.224C149.951 274.296 150.103 273.476 150.408 272.766C150.713 272.055 151.119 271.467 151.627 271.003C152.134 270.524 152.722 270.169 153.389 269.937C154.056 269.69 154.76 269.567 155.5 269.567C156.24 269.567 156.943 269.69 157.611 269.937C158.278 270.169 158.866 270.524 159.373 271.003C159.881 271.467 160.287 272.055 160.592 272.766C160.896 273.476 161.049 274.296 161.049 275.224V275.66C161.049 276.646 160.896 277.509 160.592 278.249C160.287 278.989 159.881 279.606 159.373 280.099C158.866 280.578 158.278 280.94 157.611 281.187C156.943 281.419 156.24 281.535 155.5 281.535ZM155.5 279.794C155.935 279.794 156.37 279.722 156.806 279.577C157.241 279.417 157.625 279.178 157.959 278.858C158.293 278.525 158.561 278.097 158.764 277.575C158.982 277.052 159.09 276.414 159.09 275.66V275.224C159.09 274.528 158.982 273.933 158.764 273.44C158.561 272.947 158.293 272.541 157.959 272.222C157.625 271.902 157.241 271.67 156.806 271.525C156.37 271.38 155.935 271.308 155.5 271.308C155.065 271.308 154.63 271.38 154.194 271.525C153.759 271.67 153.375 271.902 153.041 272.222C152.707 272.541 152.432 272.947 152.214 273.44C152.011 273.933 151.909 274.528 151.909 275.224V275.66C151.909 276.414 152.011 277.052 152.214 277.575C152.432 278.097 152.707 278.525 153.041 278.858C153.375 279.178 153.759 279.417 154.194 279.577C154.63 279.722 155.065 279.794 155.5 279.794ZM163.76 269.784H165.675V274.615H167.198L171.507 269.784H173.77L168.765 275.312L173.988 281.317H171.551L167.198 276.269H165.675V281.317H163.76V269.784ZM176.277 269.784H178.192V278.489L184.154 269.784H186.069V281.317H184.154V272.613L178.192 281.317H176.277V269.784ZM189.558 269.784H191.343V271.96C191.734 271.192 192.278 270.604 192.975 270.198C193.685 269.777 194.505 269.567 195.434 269.567C196.884 269.567 198.045 270.046 198.915 271.003C199.786 271.946 200.221 273.353 200.221 275.224V275.66C200.221 276.646 200.105 277.509 199.873 278.249C199.641 278.975 199.314 279.584 198.893 280.077C198.473 280.556 197.965 280.918 197.37 281.165C196.79 281.412 196.144 281.535 195.434 281.535C194.447 281.535 193.62 281.317 192.953 280.882C192.3 280.447 191.807 279.903 191.473 279.25V285.669H189.558V269.784ZM194.998 279.838C195.463 279.838 195.898 279.751 196.304 279.577C196.71 279.388 197.058 279.12 197.348 278.771C197.653 278.423 197.885 277.988 198.045 277.466C198.219 276.944 198.306 276.342 198.306 275.66V275.224C198.306 274.601 198.219 274.042 198.045 273.549C197.885 273.056 197.653 272.642 197.348 272.309C197.058 271.96 196.71 271.699 196.304 271.525C195.898 271.351 195.463 271.264 194.998 271.264C194.476 271.264 193.997 271.351 193.562 271.525C193.127 271.685 192.757 271.917 192.452 272.222C192.148 272.512 191.908 272.86 191.734 273.266C191.56 273.672 191.473 274.107 191.473 274.572V276.313C191.473 276.835 191.56 277.313 191.734 277.749C191.908 278.184 192.148 278.554 192.452 278.858C192.757 279.163 193.127 279.402 193.562 279.577C193.997 279.751 194.476 279.838 194.998 279.838ZM204.044 285.887C203.827 285.887 203.609 285.865 203.391 285.822V284.081C203.609 284.124 203.827 284.146 204.044 284.146C204.262 284.146 204.45 284.11 204.61 284.037C204.77 283.965 204.922 283.827 205.067 283.624C205.212 283.421 205.364 283.131 205.524 282.754C205.698 282.391 205.894 281.912 206.111 281.317L201.215 269.784H203.348L207.091 279.141L210.485 269.784H212.531L208.179 281.317C207.874 282.13 207.584 282.826 207.308 283.406C207.033 283.987 206.735 284.458 206.416 284.821C206.111 285.198 205.771 285.466 205.393 285.626C205.016 285.8 204.566 285.887 204.044 285.887ZM214.697 269.784H216.612V274.593H218.244C218.302 273.767 218.484 273.041 218.788 272.417C219.093 271.779 219.477 271.25 219.942 270.829C220.42 270.408 220.964 270.096 221.574 269.893C222.183 269.676 222.829 269.567 223.51 269.567C224.25 269.567 224.939 269.69 225.578 269.937C226.23 270.169 226.796 270.524 227.275 271.003C227.754 271.467 228.131 272.055 228.406 272.766C228.697 273.476 228.842 274.296 228.842 275.224V275.66C228.842 276.646 228.697 277.509 228.406 278.249C228.131 278.989 227.754 279.606 227.275 280.099C226.796 280.578 226.23 280.94 225.578 281.187C224.939 281.419 224.25 281.535 223.51 281.535C222.829 281.535 222.176 281.433 221.552 281.23C220.943 281.013 220.399 280.686 219.92 280.251C219.456 279.816 219.071 279.272 218.767 278.619C218.476 277.952 218.302 277.176 218.244 276.291H216.612V281.317H214.697V269.784ZM223.51 279.794C223.946 279.794 224.366 279.722 224.772 279.577C225.179 279.417 225.534 279.178 225.839 278.858C226.158 278.525 226.412 278.097 226.6 277.575C226.789 277.052 226.883 276.414 226.883 275.66V275.224C226.883 274.528 226.789 273.933 226.6 273.44C226.412 272.947 226.158 272.541 225.839 272.222C225.534 271.902 225.179 271.67 224.772 271.525C224.366 271.38 223.946 271.308 223.51 271.308C223.075 271.308 222.654 271.38 222.248 271.525C221.842 271.67 221.479 271.902 221.16 272.222C220.856 272.541 220.609 272.947 220.42 273.44C220.232 273.933 220.138 274.528 220.138 275.224V275.66C220.138 276.414 220.232 277.052 220.42 277.575C220.609 278.097 220.856 278.525 221.16 278.858C221.479 279.178 221.842 279.417 222.248 279.577C222.654 279.722 223.075 279.794 223.51 279.794ZM245.736 281.317H231.57V269.784H233.485V279.62H237.685V269.784H239.6V279.62H243.8V269.784H245.714V279.62H247.564V284.037H245.736V281.317ZM249.845 269.784H251.76V278.489L257.723 269.784H259.638V281.317H257.723V272.613L251.76 281.317H249.845V269.784ZM263.127 269.784H265.042V278.489L271.004 269.784H272.919V281.317H271.004V272.613L265.042 281.317H263.127V269.784ZM268.023 268.37C266.891 268.37 266.065 268.131 265.542 267.652C265.02 267.159 264.759 266.455 264.759 265.541H266.63C266.63 266.528 267.095 267.021 268.023 267.021C268.98 267.021 269.459 266.528 269.459 265.541H271.287C271.287 266.455 271.026 267.159 270.504 267.652C269.981 268.131 269.155 268.37 268.023 268.37ZM281.849 269.784H283.633V271.96C284.025 271.192 284.569 270.604 285.265 270.198C285.976 269.777 286.795 269.567 287.724 269.567C289.174 269.567 290.335 270.046 291.205 271.003C292.076 271.946 292.511 273.353 292.511 275.224V275.66C292.511 276.646 292.395 277.509 292.163 278.249C291.931 278.975 291.604 279.584 291.184 280.077C290.763 280.556 290.255 280.918 289.66 281.165C289.08 281.412 288.435 281.535 287.724 281.535C286.737 281.535 285.91 281.317 285.243 280.882C284.59 280.447 284.097 279.903 283.763 279.25V285.669H281.849V269.784ZM287.289 279.838C287.753 279.838 288.188 279.751 288.594 279.577C289 279.388 289.349 279.12 289.639 278.771C289.943 278.423 290.175 277.988 290.335 277.466C290.509 276.944 290.596 276.342 290.596 275.66V275.224C290.596 274.601 290.509 274.042 290.335 273.549C290.175 273.056 289.943 272.642 289.639 272.309C289.349 271.96 289 271.699 288.594 271.525C288.188 271.351 287.753 271.264 287.289 271.264C286.766 271.264 286.288 271.351 285.852 271.525C285.417 271.685 285.047 271.917 284.743 272.222C284.438 272.512 284.199 272.86 284.025 273.266C283.85 273.672 283.763 274.107 283.763 274.572V276.313C283.763 276.835 283.85 277.313 284.025 277.749C284.199 278.184 284.438 278.554 284.743 278.858C285.047 279.163 285.417 279.402 285.852 279.577C286.288 279.751 286.766 279.838 287.289 279.838ZM300.023 281.535C299.284 281.535 298.58 281.419 297.913 281.187C297.245 280.955 296.658 280.599 296.15 280.121C295.642 279.627 295.236 279.011 294.932 278.271C294.627 277.531 294.475 276.661 294.475 275.66V275.224C294.475 274.267 294.62 273.44 294.91 272.744C295.2 272.033 295.584 271.445 296.063 270.981C296.556 270.502 297.122 270.147 297.76 269.915C298.413 269.683 299.095 269.567 299.806 269.567C301.503 269.567 302.816 270.031 303.745 270.959C304.673 271.888 305.137 273.201 305.137 274.898V276.117H296.39C296.39 276.798 296.498 277.372 296.716 277.836C296.934 278.3 297.216 278.677 297.565 278.967C297.913 279.257 298.297 279.468 298.718 279.598C299.153 279.729 299.588 279.794 300.023 279.794C300.894 279.794 301.561 279.649 302.025 279.359C302.504 279.069 302.845 278.67 303.048 278.162H304.92C304.804 278.713 304.593 279.199 304.289 279.62C303.998 280.041 303.636 280.396 303.201 280.686C302.78 280.962 302.294 281.172 301.743 281.317C301.206 281.462 300.633 281.535 300.023 281.535ZM299.915 271.308C299.465 271.308 299.03 271.373 298.609 271.503C298.188 271.62 297.811 271.815 297.478 272.091C297.158 272.352 296.897 272.686 296.694 273.092C296.491 273.498 296.39 273.984 296.39 274.55H303.331C303.317 273.955 303.215 273.455 303.026 273.048C302.852 272.628 302.613 272.294 302.308 272.047C302.004 271.786 301.641 271.598 301.22 271.482C300.814 271.366 300.379 271.308 299.915 271.308ZM310.589 275.377L306.455 269.784H308.587L312.112 274.615H313.44V269.784H315.355V274.615H316.66L320.251 269.784H322.34L318.205 275.312L322.557 281.317H320.294L316.66 276.269H315.355V281.317H313.44V276.269H312.112L308.457 281.317H306.237L310.589 275.377ZM324.838 269.784H326.753V278.489L332.715 269.784H334.63V281.317H332.715V272.613L326.753 281.317H324.838V269.784ZM338.119 269.784H340.165L344.278 276.965L348.39 269.784H350.305V281.317H348.39V272.94L344.974 278.815H343.451L340.034 272.94V281.317H338.119V269.784Z" fill="black"/>
<rect x="101.484" y="250.817" width="272" height="44" rx="2.5" stroke="#58A982"/>
<path d="M115.16 341.085H120.382C121.383 341.085 122.254 341.201 122.994 341.433C123.733 341.665 124.343 341.992 124.822 342.413C125.315 342.819 125.677 343.312 125.91 343.892C126.142 344.458 126.258 345.082 126.258 345.764C126.258 346.445 126.142 347.076 125.91 347.657C125.677 348.223 125.315 348.716 124.822 349.136C124.343 349.543 123.733 349.862 122.994 350.094C122.254 350.326 121.383 350.442 120.382 350.442H117.205V356.317H115.16V341.085ZM120.274 348.658C120.999 348.658 121.608 348.592 122.101 348.462C122.609 348.317 123.015 348.121 123.32 347.874C123.639 347.628 123.864 347.323 123.995 346.96C124.14 346.598 124.212 346.199 124.212 345.764C124.212 345.328 124.14 344.929 123.995 344.567C123.864 344.204 123.639 343.899 123.32 343.653C123.015 343.406 122.609 343.218 122.101 343.087C121.608 342.942 120.999 342.869 120.274 342.869H117.205V348.658H120.274ZM133.558 356.535C132.819 356.535 132.115 356.419 131.448 356.187C130.78 355.955 130.193 355.599 129.685 355.121C129.177 354.627 128.771 354.011 128.467 353.271C128.162 352.531 128.01 351.661 128.01 350.66V350.224C128.01 349.267 128.155 348.44 128.445 347.744C128.735 347.033 129.119 346.445 129.598 345.981C130.091 345.502 130.657 345.147 131.295 344.915C131.948 344.683 132.63 344.567 133.341 344.567C135.038 344.567 136.351 345.031 137.279 345.959C138.208 346.888 138.672 348.201 138.672 349.898V351.117H129.924C129.924 351.798 130.033 352.372 130.251 352.836C130.468 353.3 130.751 353.677 131.1 353.967C131.448 354.257 131.832 354.468 132.253 354.598C132.688 354.729 133.123 354.794 133.558 354.794C134.429 354.794 135.096 354.649 135.56 354.359C136.039 354.069 136.38 353.67 136.583 353.162H138.455C138.338 353.713 138.128 354.199 137.823 354.62C137.533 355.041 137.171 355.396 136.735 355.686C136.315 355.962 135.829 356.172 135.278 356.317C134.741 356.462 134.168 356.535 133.558 356.535ZM133.45 346.308C133 346.308 132.565 346.373 132.144 346.503C131.723 346.62 131.346 346.815 131.013 347.091C130.693 347.352 130.432 347.686 130.229 348.092C130.026 348.498 129.924 348.984 129.924 349.55H136.866C136.852 348.955 136.75 348.455 136.561 348.048C136.387 347.628 136.148 347.294 135.843 347.047C135.539 346.786 135.176 346.598 134.755 346.482C134.349 346.366 133.914 346.308 133.45 346.308ZM144.124 350.377L139.99 344.784H142.122L145.647 349.615H146.975V344.784H148.89V349.615H150.195L153.786 344.784H155.875L151.74 350.312L156.092 356.317H153.829L150.195 351.269H148.89V356.317H146.975V351.269H145.647L141.992 356.317H139.772L144.124 350.377ZM158.373 344.784H160.288V353.489L166.25 344.784H168.165V356.317H166.25V347.613L160.288 356.317H158.373V344.784ZM171.654 344.784H173.7L177.813 351.965L181.925 344.784H183.84V356.317H181.925V347.94L178.509 353.815H176.986L173.569 347.94V356.317H171.654V344.784ZM192.756 344.784H202.331V356.317H200.416V346.482H194.671V356.317H192.756V344.784ZM205.804 344.784H207.588V346.96C207.98 346.192 208.524 345.604 209.22 345.198C209.931 344.777 210.751 344.567 211.679 344.567C213.13 344.567 214.29 345.046 215.161 346.003C216.031 346.946 216.466 348.353 216.466 350.224V350.66C216.466 351.646 216.35 352.509 216.118 353.249C215.886 353.975 215.56 354.584 215.139 355.077C214.718 355.556 214.21 355.918 213.616 356.165C213.035 356.412 212.39 356.535 211.679 356.535C210.693 356.535 209.866 356.317 209.198 355.882C208.545 355.447 208.052 354.903 207.719 354.25V360.669H205.804V344.784ZM211.244 354.838C211.708 354.838 212.143 354.751 212.549 354.577C212.956 354.388 213.304 354.12 213.594 353.771C213.899 353.423 214.131 352.988 214.29 352.466C214.464 351.944 214.551 351.342 214.551 350.66V350.224C214.551 349.601 214.464 349.042 214.29 348.549C214.131 348.056 213.899 347.642 213.594 347.309C213.304 346.96 212.956 346.699 212.549 346.525C212.143 346.351 211.708 346.264 211.244 346.264C210.722 346.264 210.243 346.351 209.808 346.525C209.372 346.685 209.002 346.917 208.698 347.222C208.393 347.512 208.154 347.86 207.98 348.266C207.806 348.672 207.719 349.107 207.719 349.572V351.313C207.719 351.835 207.806 352.313 207.98 352.749C208.154 353.184 208.393 353.554 208.698 353.858C209.002 354.163 209.372 354.402 209.808 354.577C210.243 354.751 210.722 354.838 211.244 354.838ZM223.979 356.535C223.239 356.535 222.535 356.419 221.868 356.187C221.201 355.94 220.613 355.578 220.105 355.099C219.598 354.606 219.191 353.989 218.887 353.249C218.582 352.509 218.43 351.646 218.43 350.66V350.224C218.43 349.296 218.582 348.476 218.887 347.766C219.191 347.055 219.598 346.467 220.105 346.003C220.613 345.524 221.201 345.169 221.868 344.937C222.535 344.69 223.239 344.567 223.979 344.567C224.719 344.567 225.422 344.69 226.089 344.937C226.757 345.169 227.344 345.524 227.852 346.003C228.36 346.467 228.766 347.055 229.071 347.766C229.375 348.476 229.528 349.296 229.528 350.224V350.66C229.528 351.646 229.375 352.509 229.071 353.249C228.766 353.989 228.36 354.606 227.852 355.099C227.344 355.578 226.757 355.94 226.089 356.187C225.422 356.419 224.719 356.535 223.979 356.535ZM223.979 354.794C224.414 354.794 224.849 354.722 225.284 354.577C225.719 354.417 226.104 354.178 226.438 353.858C226.771 353.525 227.04 353.097 227.243 352.575C227.46 352.052 227.569 351.414 227.569 350.66V350.224C227.569 349.528 227.46 348.933 227.243 348.44C227.04 347.947 226.771 347.541 226.438 347.222C226.104 346.902 225.719 346.67 225.284 346.525C224.849 346.38 224.414 346.308 223.979 346.308C223.543 346.308 223.108 346.38 222.673 346.525C222.238 346.67 221.853 346.902 221.52 347.222C221.186 347.541 220.91 347.947 220.693 348.44C220.49 348.933 220.388 349.528 220.388 350.224V350.66C220.388 351.414 220.49 352.052 220.693 352.575C220.91 353.097 221.186 353.525 221.52 353.858C221.853 354.178 222.238 354.417 222.673 354.577C223.108 354.722 223.543 354.794 223.979 354.794ZM236.7 356.535C235.96 356.535 235.271 356.419 234.633 356.187C233.994 355.94 233.443 355.578 232.979 355.099C232.515 354.606 232.145 353.989 231.869 353.249C231.608 352.509 231.477 351.646 231.477 350.66V350.224C231.477 349.296 231.623 348.476 231.913 347.766C232.203 347.055 232.587 346.467 233.066 346.003C233.545 345.524 234.096 345.169 234.72 344.937C235.358 344.69 236.018 344.567 236.7 344.567C237.382 344.567 237.991 344.661 238.528 344.85C239.079 345.038 239.551 345.299 239.942 345.633C240.348 345.967 240.675 346.358 240.921 346.808C241.183 347.258 241.371 347.744 241.487 348.266H239.529C239.413 347.99 239.275 347.737 239.115 347.504C238.97 347.258 238.782 347.047 238.55 346.873C238.332 346.699 238.071 346.561 237.766 346.46C237.462 346.358 237.106 346.308 236.7 346.308C236.279 346.308 235.873 346.387 235.481 346.547C235.09 346.692 234.742 346.924 234.437 347.243C234.132 347.548 233.886 347.947 233.697 348.44C233.523 348.933 233.436 349.528 233.436 350.224V350.66C233.436 351.4 233.523 352.038 233.697 352.575C233.886 353.097 234.132 353.525 234.437 353.858C234.742 354.178 235.09 354.417 235.481 354.577C235.873 354.722 236.279 354.794 236.7 354.794C237.411 354.794 238.006 354.62 238.484 354.272C238.978 353.924 239.326 353.445 239.529 352.836H241.487C241.212 353.982 240.646 354.888 239.79 355.556C238.934 356.209 237.904 356.535 236.7 356.535ZM243.553 356.535C243.335 356.535 243.118 356.513 242.9 356.47V354.555C242.973 354.569 243.081 354.577 243.226 354.577C243.546 354.577 243.821 354.475 244.053 354.272C244.3 354.069 244.496 353.713 244.641 353.206C244.786 352.698 244.895 352.009 244.967 351.138C245.04 350.268 245.076 349.165 245.076 347.831V344.784H253.345V356.317H251.43V346.482H246.991V348.266C246.991 349.876 246.918 351.211 246.773 352.27C246.628 353.329 246.411 354.178 246.12 354.816C245.845 355.44 245.489 355.882 245.054 356.143C244.619 356.404 244.119 356.535 243.553 356.535ZM258.349 360.887C258.131 360.887 257.914 360.865 257.696 360.822V359.081C257.914 359.124 258.131 359.146 258.349 359.146C258.567 359.146 258.755 359.11 258.915 359.037C259.074 358.965 259.227 358.827 259.372 358.624C259.517 358.421 259.669 358.131 259.829 357.754C260.003 357.391 260.199 356.912 260.416 356.317L255.52 344.784H257.653L261.395 354.141L264.79 344.784H266.836L262.483 356.317C262.179 357.13 261.889 357.826 261.613 358.406C261.337 358.987 261.04 359.458 260.721 359.821C260.416 360.198 260.075 360.466 259.698 360.626C259.321 360.8 258.871 360.887 258.349 360.887ZM269.002 344.784H270.917V354.62H275.117V344.784H277.032V354.62H281.232V344.784H283.146V356.317H269.002V344.784ZM286.619 344.784H288.534V353.489L294.496 344.784H296.411V356.317H294.496V347.613L288.534 356.317H286.619V344.784ZM299.9 344.784H304.905C306.327 344.784 307.371 345.082 308.039 345.677C308.706 346.257 309.04 347.011 309.04 347.94C309.04 348.186 308.996 348.44 308.909 348.701C308.822 348.948 308.699 349.18 308.539 349.398C308.394 349.615 308.213 349.804 307.995 349.963C307.792 350.123 307.56 350.246 307.299 350.333C308.01 350.507 308.546 350.841 308.909 351.334C309.286 351.813 309.475 352.379 309.475 353.032C309.475 354.033 309.141 354.83 308.474 355.425C307.806 356.02 306.762 356.317 305.34 356.317H299.9V344.784ZM305.34 354.62C306.153 354.62 306.726 354.475 307.059 354.185C307.393 353.895 307.56 353.481 307.56 352.945C307.56 352.393 307.393 351.973 307.059 351.682C306.726 351.378 306.153 351.225 305.34 351.225H301.815V354.62H305.34ZM304.905 349.659C305.732 349.659 306.305 349.514 306.624 349.224C306.958 348.933 307.125 348.534 307.125 348.027C307.125 347.548 306.958 347.171 306.624 346.895C306.305 346.62 305.732 346.482 304.905 346.482H301.815V349.659H304.905ZM315.49 356.535C314.852 356.535 314.286 356.448 313.793 356.274C313.314 356.085 312.908 355.831 312.574 355.512C312.24 355.193 311.987 354.816 311.812 354.381C311.638 353.946 311.551 353.467 311.551 352.945C311.551 351.798 311.885 350.972 312.552 350.464C313.234 349.956 314.206 349.702 315.468 349.702H319.211V348.919C319.211 347.932 318.986 347.251 318.536 346.873C318.101 346.496 317.441 346.308 316.556 346.308C315.729 346.308 315.127 346.467 314.75 346.786C314.373 347.091 314.163 347.439 314.119 347.831H312.204C312.233 347.367 312.356 346.939 312.574 346.547C312.806 346.141 313.111 345.793 313.488 345.502C313.88 345.212 314.344 344.987 314.881 344.828C315.417 344.654 316.012 344.567 316.665 344.567C318.029 344.567 319.109 344.893 319.907 345.546C320.72 346.184 321.126 347.236 321.126 348.701V353.38C321.126 353.989 321.126 354.526 321.126 354.99C321.14 355.44 321.177 355.882 321.235 356.317H319.559C319.516 355.984 319.487 355.672 319.472 355.382C319.458 355.077 319.45 354.736 319.45 354.359C319.146 354.968 318.652 355.483 317.971 355.904C317.289 356.325 316.462 356.535 315.49 356.535ZM315.903 354.794C316.353 354.794 316.774 354.736 317.165 354.62C317.572 354.49 317.927 354.308 318.232 354.076C318.536 353.829 318.776 353.532 318.95 353.184C319.124 352.836 319.211 352.43 319.211 351.965V351.182H315.795C315.084 351.182 314.525 351.327 314.119 351.617C313.713 351.893 313.51 352.335 313.51 352.945C313.51 353.481 313.698 353.924 314.076 354.272C314.467 354.62 315.076 354.794 315.903 354.794ZM324.508 344.784H326.423V349.593H332.385V344.784H334.3V356.317H332.385V351.291H326.423V356.317H324.508V344.784ZM337.79 344.784H339.704V353.489L345.667 344.784H347.582V356.317H345.667V347.613L339.704 356.317H337.79V344.784ZM353.334 351.748C352.377 351.53 351.688 351.138 351.267 350.573C350.846 349.992 350.636 349.253 350.636 348.353C350.636 347.222 350.977 346.344 351.659 345.72C352.355 345.096 353.465 344.784 354.988 344.784H359.993V356.317H358.078V351.922H355.14L352.333 356.317H350.201L353.334 351.748ZM352.551 348.353C352.551 348.962 352.725 349.427 353.073 349.746C353.436 350.065 354.038 350.224 354.879 350.224H358.078V346.482H354.879C354.038 346.482 353.436 346.641 353.073 346.96C352.725 347.28 352.551 347.744 352.551 348.353Z" fill="black"/>
<rect x="101.484" y="325.817" width="272" height="44" rx="2.5" stroke="#58A982"/>
<path d="M193.035 431.535C192.165 431.535 191.323 431.39 190.511 431.1C189.699 430.795 188.981 430.331 188.357 429.707C187.733 429.083 187.232 428.285 186.855 427.313C186.478 426.342 186.29 425.174 186.29 423.81V423.375C186.29 422.069 186.478 420.945 186.855 420.002C187.232 419.059 187.733 418.283 188.357 417.674C188.981 417.05 189.699 416.593 190.511 416.303C191.323 416.013 192.165 415.868 193.035 415.868C193.906 415.868 194.747 416.013 195.559 416.303C196.372 416.593 197.09 417.05 197.714 417.674C198.337 418.283 198.838 419.059 199.215 420.002C199.592 420.945 199.781 422.069 199.781 423.375V423.81C199.781 425.174 199.592 426.342 199.215 427.313C198.838 428.285 198.337 429.083 197.714 429.707C197.09 430.331 196.372 430.795 195.559 431.1C194.747 431.39 193.906 431.535 193.035 431.535ZM193.035 429.707C193.63 429.707 194.203 429.598 194.754 429.381C195.306 429.163 195.792 428.822 196.212 428.358C196.633 427.879 196.967 427.27 197.213 426.53C197.474 425.776 197.605 424.869 197.605 423.81V423.375C197.605 422.374 197.474 421.518 197.213 420.807C196.967 420.082 196.633 419.494 196.212 419.045C195.792 418.58 195.306 418.239 194.754 418.022C194.203 417.804 193.63 417.695 193.035 417.695C192.44 417.695 191.867 417.804 191.316 418.022C190.765 418.239 190.279 418.58 189.858 419.045C189.438 419.494 189.097 420.082 188.835 420.807C188.589 421.518 188.466 422.374 188.466 423.375V423.81C188.466 424.869 188.589 425.776 188.835 426.53C189.097 427.27 189.438 427.879 189.858 428.358C190.279 428.822 190.765 429.163 191.316 429.381C191.867 429.598 192.44 429.707 193.035 429.707ZM207.62 431.535C206.851 431.535 206.133 431.39 205.465 431.1C204.813 430.81 204.24 430.389 203.746 429.838C203.268 429.272 202.883 428.583 202.593 427.77C202.317 426.958 202.18 426.037 202.18 425.007V424.572C202.18 423.266 202.274 422.106 202.463 421.09C202.651 420.06 202.97 419.19 203.42 418.479C203.884 417.753 204.486 417.188 205.226 416.781C205.98 416.375 206.923 416.143 208.055 416.085C208.969 416.042 209.767 416.005 210.449 415.976C211.13 415.933 211.711 415.788 212.189 415.541V417.391C211.957 417.521 211.529 417.623 210.906 417.695C210.296 417.768 209.455 417.819 208.381 417.848C207.685 417.862 207.068 417.949 206.532 418.109C206.009 418.268 205.56 418.522 205.183 418.87C204.82 419.219 204.53 419.676 204.312 420.241C204.109 420.793 203.979 421.474 203.92 422.287C204.269 421.518 204.805 420.909 205.531 420.459C206.256 420.009 207.098 419.784 208.055 419.784C208.795 419.784 209.469 419.915 210.079 420.176C210.688 420.423 211.21 420.778 211.645 421.242C212.095 421.707 212.443 422.28 212.69 422.961C212.937 423.629 213.06 424.383 213.06 425.224V425.66C213.06 426.559 212.922 427.372 212.646 428.097C212.371 428.808 211.994 429.424 211.515 429.946C211.036 430.454 210.463 430.846 209.796 431.122C209.128 431.397 208.403 431.535 207.62 431.535ZM207.62 429.794C208.635 429.794 209.469 429.446 210.122 428.75C210.775 428.039 211.101 427.009 211.101 425.66V425.224C211.101 424.659 211.014 424.151 210.84 423.701C210.666 423.252 210.427 422.867 210.122 422.548C209.818 422.214 209.448 421.96 209.012 421.786C208.592 421.612 208.127 421.525 207.62 421.525C207.112 421.525 206.641 421.612 206.205 421.786C205.785 421.96 205.422 422.214 205.117 422.548C204.813 422.867 204.573 423.252 204.399 423.701C204.225 424.151 204.138 424.659 204.138 425.224V425.66C204.138 426.298 204.225 426.878 204.399 427.401C204.588 427.908 204.842 428.343 205.161 428.706C205.48 429.054 205.85 429.323 206.271 429.511C206.691 429.7 207.141 429.794 207.62 429.794ZM216.872 435.887C216.655 435.887 216.437 435.865 216.219 435.822V434.081C216.437 434.124 216.655 434.146 216.872 434.146C217.09 434.146 217.278 434.11 217.438 434.037C217.597 433.965 217.75 433.827 217.895 433.624C218.04 433.421 218.192 433.131 218.352 432.754C218.526 432.391 218.722 431.912 218.939 431.317L214.043 419.784H216.176L219.919 429.141L223.313 419.784H225.359L221.007 431.317C220.702 432.13 220.412 432.826 220.136 433.406C219.861 433.987 219.563 434.458 219.244 434.821C218.939 435.198 218.598 435.466 218.221 435.626C217.844 435.8 217.394 435.887 216.872 435.887ZM234.418 426.726C234.085 426.929 233.678 427.11 233.2 427.27C232.736 427.43 232.148 427.509 231.437 427.509C230.77 427.509 230.168 427.437 229.631 427.292C229.109 427.147 228.666 426.915 228.304 426.595C227.941 426.276 227.665 425.863 227.477 425.355C227.288 424.847 227.194 424.224 227.194 423.484V419.784H229.109V423.157C229.109 423.65 229.152 424.064 229.239 424.398C229.341 424.731 229.5 425 229.718 425.203C229.936 425.406 230.211 425.551 230.545 425.638C230.879 425.725 231.285 425.768 231.764 425.768C232.416 425.768 232.975 425.703 233.439 425.573C233.903 425.442 234.23 425.304 234.418 425.159V419.784H236.333V431.317H234.418V426.726ZM244.595 431.535C243.855 431.535 243.152 431.419 242.485 431.187C241.817 430.955 241.23 430.599 240.722 430.121C240.214 429.627 239.808 429.011 239.503 428.271C239.199 427.531 239.046 426.661 239.046 425.66V425.224C239.046 424.267 239.192 423.44 239.482 422.744C239.772 422.033 240.156 421.445 240.635 420.981C241.128 420.502 241.694 420.147 242.332 419.915C242.985 419.683 243.667 419.567 244.378 419.567C246.075 419.567 247.388 420.031 248.316 420.959C249.245 421.888 249.709 423.201 249.709 424.898V426.117H240.961C240.961 426.798 241.07 427.372 241.288 427.836C241.505 428.3 241.788 428.677 242.136 428.967C242.485 429.257 242.869 429.468 243.29 429.598C243.725 429.729 244.16 429.794 244.595 429.794C245.466 429.794 246.133 429.649 246.597 429.359C247.076 429.069 247.417 428.67 247.62 428.162H249.491C249.375 428.713 249.165 429.199 248.86 429.62C248.57 430.041 248.208 430.396 247.772 430.686C247.352 430.962 246.866 431.172 246.314 431.317C245.778 431.462 245.205 431.535 244.595 431.535ZM244.487 421.308C244.037 421.308 243.602 421.373 243.181 421.503C242.76 421.62 242.383 421.815 242.049 422.091C241.73 422.352 241.469 422.686 241.266 423.092C241.063 423.498 240.961 423.984 240.961 424.55H247.903C247.888 423.955 247.787 423.455 247.598 423.048C247.424 422.628 247.185 422.294 246.88 422.047C246.576 421.786 246.213 421.598 245.792 421.482C245.386 421.366 244.951 421.308 244.487 421.308ZM252.431 419.784H254.346V424.593H260.308V419.784H262.223V431.317H260.308V426.291H254.346V431.317H252.431V419.784ZM265.712 419.784H267.627V428.489L273.589 419.784H275.504V431.317H273.589V422.613L267.627 431.317H265.712V419.784ZM283.781 431.535C283.041 431.535 282.338 431.419 281.67 431.187C281.003 430.955 280.415 430.599 279.908 430.121C279.4 429.627 278.994 429.011 278.689 428.271C278.384 427.531 278.232 426.661 278.232 425.66V425.224C278.232 424.267 278.377 423.44 278.667 422.744C278.957 422.033 279.342 421.445 279.821 420.981C280.314 420.502 280.88 420.147 281.518 419.915C282.171 419.683 282.853 419.567 283.563 419.567C285.261 419.567 286.574 420.031 287.502 420.959C288.43 421.888 288.895 423.201 288.895 424.898V426.117H280.147C280.147 426.798 280.256 427.372 280.473 427.836C280.691 428.3 280.974 428.677 281.322 428.967C281.67 429.257 282.055 429.468 282.475 429.598C282.911 429.729 283.346 429.794 283.781 429.794C284.651 429.794 285.319 429.649 285.783 429.359C286.262 429.069 286.603 428.67 286.806 428.162H288.677C288.561 428.713 288.351 429.199 288.046 429.62C287.756 430.041 287.393 430.396 286.958 430.686C286.537 430.962 286.051 431.172 285.5 431.317C284.963 431.462 284.39 431.535 283.781 431.535ZM283.672 421.308C283.222 421.308 282.787 421.373 282.367 421.503C281.946 421.62 281.569 421.815 281.235 422.091C280.916 422.352 280.655 422.686 280.452 423.092C280.249 423.498 280.147 423.984 280.147 424.55H287.089C287.074 423.955 286.972 423.455 286.784 423.048C286.61 422.628 286.37 422.294 286.066 422.047C285.761 421.786 285.398 421.598 284.978 421.482C284.572 421.366 284.136 421.308 283.672 421.308Z" fill="black"/>
<rect x="101.484" y="400.817" width="272" height="44" rx="2.5" stroke="#58A982"/>
<path d="M141.66 491.085H146.882C147.883 491.085 148.754 491.201 149.494 491.433C150.233 491.665 150.843 491.992 151.322 492.413C151.815 492.819 152.177 493.312 152.41 493.892C152.642 494.458 152.758 495.082 152.758 495.764C152.758 496.445 152.642 497.076 152.41 497.657C152.177 498.223 151.815 498.716 151.322 499.136C150.843 499.543 150.233 499.862 149.494 500.094C148.754 500.326 147.883 500.442 146.882 500.442H143.705V506.317H141.66V491.085ZM146.774 498.658C147.499 498.658 148.108 498.592 148.601 498.462C149.109 498.317 149.515 498.121 149.82 497.874C150.139 497.628 150.364 497.323 150.495 496.96C150.64 496.598 150.712 496.199 150.712 495.764C150.712 495.328 150.64 494.929 150.495 494.567C150.364 494.204 150.139 493.899 149.82 493.653C149.515 493.406 149.109 493.218 148.601 493.087C148.108 492.942 147.499 492.869 146.774 492.869H143.705V498.658H146.774ZM160.058 506.535C159.319 506.535 158.615 506.419 157.948 506.187C157.28 505.955 156.693 505.599 156.185 505.121C155.677 504.627 155.271 504.011 154.967 503.271C154.662 502.531 154.51 501.661 154.51 500.66V500.224C154.51 499.267 154.655 498.44 154.945 497.744C155.235 497.033 155.619 496.445 156.098 495.981C156.591 495.502 157.157 495.147 157.795 494.915C158.448 494.683 159.13 494.567 159.841 494.567C161.538 494.567 162.851 495.031 163.779 495.959C164.708 496.888 165.172 498.201 165.172 499.898V501.117H156.424C156.424 501.798 156.533 502.372 156.751 502.836C156.968 503.3 157.251 503.677 157.6 503.967C157.948 504.257 158.332 504.468 158.753 504.598C159.188 504.729 159.623 504.794 160.058 504.794C160.929 504.794 161.596 504.649 162.06 504.359C162.539 504.069 162.88 503.67 163.083 503.162H164.955C164.838 503.713 164.628 504.199 164.323 504.62C164.033 505.041 163.671 505.396 163.235 505.686C162.815 505.962 162.329 506.172 161.778 506.317C161.241 506.462 160.668 506.535 160.058 506.535ZM159.95 496.308C159.5 496.308 159.065 496.373 158.644 496.503C158.223 496.62 157.846 496.815 157.513 497.091C157.193 497.352 156.932 497.686 156.729 498.092C156.526 498.498 156.424 498.984 156.424 499.55H163.366C163.352 498.955 163.25 498.455 163.061 498.048C162.887 497.628 162.648 497.294 162.343 497.047C162.039 496.786 161.676 496.598 161.255 496.482C160.849 496.366 160.414 496.308 159.95 496.308ZM170.624 500.377L166.49 494.784H168.622L172.147 499.615H173.475V494.784H175.39V499.615H176.695L180.286 494.784H182.375L178.24 500.312L182.592 506.317H180.329L176.695 501.269H175.39V506.317H173.475V501.269H172.147L168.492 506.317H166.272L170.624 500.377ZM184.873 494.784H186.788V503.489L192.75 494.784H194.665V506.317H192.75V497.613L186.788 506.317H184.873V494.784ZM198.154 494.784H200.2L204.313 501.965L208.425 494.784H210.34V506.317H208.425V497.94L205.009 503.815H203.486L200.069 497.94V506.317H198.154V494.784ZM219.256 494.784H228.831V506.317H226.916V496.482H221.171V506.317H219.256V494.784ZM237.091 506.535C236.351 506.535 235.648 506.419 234.98 506.187C234.313 505.955 233.725 505.599 233.218 505.121C232.71 504.627 232.304 504.011 231.999 503.271C231.694 502.531 231.542 501.661 231.542 500.66V500.224C231.542 499.267 231.687 498.44 231.977 497.744C232.267 497.033 232.652 496.445 233.131 495.981C233.624 495.502 234.19 495.147 234.828 494.915C235.481 494.683 236.163 494.567 236.873 494.567C238.571 494.567 239.884 495.031 240.812 495.959C241.74 496.888 242.205 498.201 242.205 499.898V501.117H233.457C233.457 501.798 233.566 502.372 233.783 502.836C234.001 503.3 234.284 503.677 234.632 503.967C234.98 504.257 235.365 504.468 235.785 504.598C236.221 504.729 236.656 504.794 237.091 504.794C237.961 504.794 238.629 504.649 239.093 504.359C239.572 504.069 239.913 503.67 240.116 503.162H241.987C241.871 503.713 241.661 504.199 241.356 504.62C241.066 505.041 240.703 505.396 240.268 505.686C239.847 505.962 239.361 506.172 238.81 506.317C238.273 506.462 237.7 506.535 237.091 506.535ZM236.982 496.308C236.532 496.308 236.097 496.373 235.677 496.503C235.256 496.62 234.879 496.815 234.545 497.091C234.226 497.352 233.965 497.686 233.762 498.092C233.559 498.498 233.457 498.984 233.457 499.55H240.399C240.384 498.955 240.282 498.455 240.094 498.048C239.92 497.628 239.68 497.294 239.376 497.047C239.071 496.786 238.708 496.598 238.288 496.482C237.882 496.366 237.446 496.308 236.982 496.308ZM244.926 494.784H246.711V496.96C247.102 496.192 247.646 495.604 248.343 495.198C249.054 494.777 249.873 494.567 250.802 494.567C252.252 494.567 253.413 495.046 254.283 496.003C255.154 496.946 255.589 498.353 255.589 500.224V500.66C255.589 501.646 255.473 502.509 255.241 503.249C255.009 503.975 254.682 504.584 254.262 505.077C253.841 505.556 253.333 505.918 252.738 506.165C252.158 506.412 251.513 506.535 250.802 506.535C249.815 506.535 248.988 506.317 248.321 505.882C247.668 505.447 247.175 504.903 246.841 504.25V510.669H244.926V494.784ZM250.366 504.838C250.831 504.838 251.266 504.751 251.672 504.577C252.078 504.388 252.426 504.12 252.717 503.771C253.021 503.423 253.253 502.988 253.413 502.466C253.587 501.944 253.674 501.342 253.674 500.66V500.224C253.674 499.601 253.587 499.042 253.413 498.549C253.253 498.056 253.021 497.642 252.717 497.309C252.426 496.96 252.078 496.699 251.672 496.525C251.266 496.351 250.831 496.264 250.366 496.264C249.844 496.264 249.365 496.351 248.93 496.525C248.495 496.685 248.125 496.917 247.821 497.222C247.516 497.512 247.277 497.86 247.102 498.266C246.928 498.672 246.841 499.107 246.841 499.572V501.313C246.841 501.835 246.928 502.313 247.102 502.749C247.277 503.184 247.516 503.554 247.821 503.858C248.125 504.163 248.495 504.402 248.93 504.577C249.365 504.751 249.844 504.838 250.366 504.838ZM263.101 506.535C262.362 506.535 261.658 506.419 260.991 506.187C260.323 505.955 259.736 505.599 259.228 505.121C258.72 504.627 258.314 504.011 258.009 503.271C257.705 502.531 257.552 501.661 257.552 500.66V500.224C257.552 499.267 257.698 498.44 257.988 497.744C258.278 497.033 258.662 496.445 259.141 495.981C259.634 495.502 260.2 495.147 260.838 494.915C261.491 494.683 262.173 494.567 262.884 494.567C264.581 494.567 265.894 495.031 266.822 495.959C267.751 496.888 268.215 498.201 268.215 499.898V501.117H259.467C259.467 501.798 259.576 502.372 259.794 502.836C260.011 503.3 260.294 503.677 260.642 503.967C260.991 504.257 261.375 504.468 261.796 504.598C262.231 504.729 262.666 504.794 263.101 504.794C263.972 504.794 264.639 504.649 265.103 504.359C265.582 504.069 265.923 503.67 266.126 503.162H267.997C267.881 503.713 267.671 504.199 267.366 504.62C267.076 505.041 266.714 505.396 266.278 505.686C265.858 505.962 265.372 506.172 264.82 506.317C264.284 506.462 263.711 506.535 263.101 506.535ZM262.993 496.308C262.543 496.308 262.108 496.373 261.687 496.503C261.266 496.62 260.889 496.815 260.555 497.091C260.236 497.352 259.975 497.686 259.772 498.092C259.569 498.498 259.467 498.984 259.467 499.55H266.409C266.394 498.955 266.293 498.455 266.104 498.048C265.93 497.628 265.691 497.294 265.386 497.047C265.082 496.786 264.719 496.598 264.298 496.482C263.892 496.366 263.457 496.308 262.993 496.308ZM275.398 506.535C274.658 506.535 273.969 506.419 273.33 506.187C272.692 505.94 272.141 505.578 271.677 505.099C271.212 504.606 270.843 503.989 270.567 503.249C270.306 502.509 270.175 501.646 270.175 500.66V500.224C270.175 499.296 270.32 498.476 270.61 497.766C270.901 497.055 271.285 496.467 271.764 496.003C272.242 495.524 272.794 495.169 273.417 494.937C274.056 494.69 274.716 494.567 275.398 494.567C276.079 494.567 276.689 494.661 277.226 494.85C277.777 495.038 278.248 495.299 278.64 495.633C279.046 495.967 279.373 496.358 279.619 496.808C279.88 497.258 280.069 497.744 280.185 498.266H278.227C278.11 497.99 277.973 497.737 277.813 497.504C277.668 497.258 277.479 497.047 277.247 496.873C277.03 496.699 276.769 496.561 276.464 496.46C276.159 496.358 275.804 496.308 275.398 496.308C274.977 496.308 274.571 496.387 274.179 496.547C273.787 496.692 273.439 496.924 273.135 497.243C272.83 497.548 272.583 497.947 272.395 498.44C272.221 498.933 272.134 499.528 272.134 500.224V500.66C272.134 501.4 272.221 502.038 272.395 502.575C272.583 503.097 272.83 503.525 273.135 503.858C273.439 504.178 273.787 504.417 274.179 504.577C274.571 504.722 274.977 504.794 275.398 504.794C276.109 504.794 276.703 504.62 277.182 504.272C277.675 503.924 278.023 503.445 278.227 502.836H280.185C279.909 503.982 279.344 504.888 278.488 505.556C277.632 506.209 276.602 506.535 275.398 506.535ZM282.794 494.784H284.709V499.136H287.038C288.488 499.136 289.555 499.456 290.237 500.094C290.933 500.732 291.281 501.617 291.281 502.749C291.281 503.851 290.933 504.722 290.237 505.36C289.555 505.998 288.488 506.317 287.038 506.317H282.794V494.784ZM286.929 504.62C287.828 504.62 288.459 504.46 288.822 504.141C289.185 503.822 289.366 503.351 289.366 502.727C289.366 502.103 289.185 501.632 288.822 501.313C288.459 500.993 287.828 500.834 286.929 500.834H284.709V504.62H286.929ZM293.065 494.784H294.98V506.317H293.065V494.784ZM297.912 506.535C297.694 506.535 297.477 506.513 297.259 506.47V504.555C297.332 504.569 297.441 504.577 297.586 504.577C297.905 504.577 298.18 504.475 298.412 504.272C298.659 504.069 298.855 503.713 299 503.206C299.145 502.698 299.254 502.009 299.326 501.138C299.399 500.268 299.435 499.165 299.435 497.831V494.784H307.704V506.317H305.789V496.482H301.35V498.266C301.35 499.876 301.278 501.211 301.133 502.27C300.987 503.329 300.77 504.178 300.48 504.816C300.204 505.44 299.849 505.882 299.413 506.143C298.978 506.404 298.478 506.535 297.912 506.535ZM311.185 494.784H313.1V499.615H314.623L318.932 494.784H321.195L316.19 500.312L321.412 506.317H318.975L314.623 501.269H313.1V506.317H311.185V494.784ZM323.701 494.784H325.616V503.489L331.579 494.784H333.494V506.317H331.579V497.613L325.616 506.317H323.701V494.784Z" fill="black"/>
<rect x="101.484" y="475.817" width="272" height="44" rx="2.5" stroke="#58A982"/>
<rect x="429.611" y="100.817" width="272" height="44" rx="2.5" fill="#63A8E9"/>
<path d="M539.287 116.085H544.618C545.576 116.085 546.41 116.201 547.121 116.433C547.846 116.665 548.448 116.985 548.927 117.391C549.405 117.797 549.768 118.283 550.015 118.849C550.261 119.4 550.385 120.002 550.385 120.655C550.385 121.67 550.08 122.562 549.471 123.331C548.876 124.086 547.991 124.615 546.816 124.92L550.82 131.317H548.404L544.77 125.181H541.332V131.317H539.287V116.085ZM544.401 123.44C545.808 123.44 546.816 123.186 547.425 122.679C548.035 122.156 548.339 121.482 548.339 120.655C548.339 119.828 548.035 119.161 547.425 118.653C546.816 118.131 545.808 117.869 544.401 117.869H541.332V123.44H544.401ZM558.864 131.535C557.95 131.535 557.153 131.426 556.471 131.209C555.789 130.991 555.216 130.694 554.752 130.316C554.287 129.925 553.918 129.475 553.642 128.967C553.381 128.445 553.199 127.887 553.098 127.292H555.143C555.216 127.625 555.339 127.945 555.513 128.249C555.687 128.539 555.919 128.793 556.21 129.011C556.514 129.228 556.884 129.402 557.319 129.533C557.755 129.649 558.27 129.707 558.864 129.707C560.083 129.707 561.004 129.475 561.628 129.011C562.266 128.547 562.585 127.974 562.585 127.292C562.585 126.871 562.513 126.516 562.368 126.225C562.237 125.935 562.005 125.681 561.671 125.464C561.352 125.246 560.924 125.05 560.388 124.876C559.865 124.702 559.22 124.528 558.451 124.354C557.595 124.165 556.855 123.962 556.231 123.745C555.622 123.513 555.114 123.23 554.708 122.896C554.316 122.548 554.019 122.135 553.816 121.656C553.627 121.177 553.533 120.59 553.533 119.893C553.533 119.327 553.656 118.805 553.903 118.326C554.15 117.833 554.498 117.405 554.948 117.043C555.412 116.68 555.97 116.397 556.623 116.194C557.29 115.976 558.037 115.868 558.864 115.868C559.677 115.868 560.388 115.976 560.997 116.194C561.606 116.397 562.121 116.68 562.542 117.043C562.977 117.405 563.318 117.833 563.565 118.326C563.811 118.805 563.985 119.327 564.087 119.893H562.041C561.969 119.589 561.86 119.306 561.715 119.045C561.57 118.769 561.367 118.537 561.106 118.348C560.859 118.145 560.547 117.986 560.17 117.869C559.807 117.753 559.372 117.695 558.864 117.695C557.82 117.695 557.008 117.913 556.427 118.348C555.861 118.769 555.579 119.284 555.579 119.893C555.579 120.285 555.651 120.626 555.796 120.916C555.941 121.192 556.166 121.438 556.471 121.656C556.775 121.859 557.16 122.04 557.624 122.2C558.103 122.345 558.669 122.49 559.321 122.635C560.264 122.838 561.069 123.07 561.737 123.331C562.419 123.578 562.97 123.883 563.391 124.245C563.826 124.608 564.138 125.036 564.326 125.529C564.529 126.022 564.631 126.61 564.631 127.292C564.631 127.887 564.5 128.445 564.239 128.967C563.978 129.475 563.601 129.925 563.108 130.316C562.614 130.694 562.012 130.991 561.302 131.209C560.591 131.426 559.778 131.535 558.864 131.535ZM571.331 117.869H566.043V116.085H578.664V117.869H573.376V131.317H571.331V117.869ZM581.278 116.085H586.5C587.501 116.085 588.371 116.201 589.111 116.433C589.851 116.665 590.46 116.992 590.939 117.413C591.432 117.819 591.795 118.312 592.027 118.892C592.259 119.458 592.375 120.082 592.375 120.764C592.375 121.445 592.259 122.076 592.027 122.657C591.795 123.223 591.432 123.716 590.939 124.136C590.46 124.543 589.851 124.862 589.111 125.094C588.371 125.326 587.501 125.442 586.5 125.442H583.323V131.317H581.278V116.085ZM586.391 123.658C587.117 123.658 587.726 123.592 588.219 123.462C588.727 123.317 589.133 123.121 589.438 122.874C589.757 122.628 589.982 122.323 590.112 121.96C590.257 121.598 590.33 121.199 590.33 120.764C590.33 120.328 590.257 119.929 590.112 119.567C589.982 119.204 589.757 118.899 589.438 118.653C589.133 118.406 588.727 118.218 588.219 118.087C587.726 117.942 587.117 117.869 586.391 117.869H583.323V123.658H586.391Z" fill="black"/>
<rect x="429.611" y="100.817" width="272" height="44" rx="2.5" stroke="#4C89BE"/>
<path d="M451.66 266.085H456.882C457.883 266.085 458.754 266.201 459.494 266.433C460.233 266.665 460.843 266.992 461.322 267.413C461.815 267.819 462.177 268.312 462.41 268.892C462.642 269.458 462.758 270.082 462.758 270.764C462.758 271.445 462.642 272.076 462.41 272.657C462.177 273.223 461.815 273.716 461.322 274.136C460.843 274.543 460.233 274.862 459.494 275.094C458.754 275.326 457.883 275.442 456.882 275.442H453.705V281.317H451.66V266.085ZM456.774 273.658C457.499 273.658 458.108 273.592 458.601 273.462C459.109 273.317 459.515 273.121 459.82 272.874C460.139 272.628 460.364 272.323 460.495 271.96C460.64 271.598 460.712 271.199 460.712 270.764C460.712 270.328 460.64 269.929 460.495 269.567C460.364 269.204 460.139 268.899 459.82 268.653C459.515 268.406 459.109 268.218 458.601 268.087C458.108 267.942 457.499 267.869 456.774 267.869H453.705V273.658H456.774ZM470.058 281.535C469.319 281.535 468.615 281.419 467.948 281.187C467.28 280.955 466.693 280.599 466.185 280.121C465.677 279.627 465.271 279.011 464.967 278.271C464.662 277.531 464.51 276.661 464.51 275.66V275.224C464.51 274.267 464.655 273.44 464.945 272.744C465.235 272.033 465.619 271.445 466.098 270.981C466.591 270.502 467.157 270.147 467.795 269.915C468.448 269.683 469.13 269.567 469.841 269.567C471.538 269.567 472.851 270.031 473.779 270.959C474.708 271.888 475.172 273.201 475.172 274.898V276.117H466.424C466.424 276.798 466.533 277.372 466.751 277.836C466.968 278.3 467.251 278.677 467.6 278.967C467.948 279.257 468.332 279.468 468.753 279.598C469.188 279.729 469.623 279.794 470.058 279.794C470.929 279.794 471.596 279.649 472.06 279.359C472.539 279.069 472.88 278.67 473.083 278.162H474.955C474.838 278.713 474.628 279.199 474.323 279.62C474.033 280.041 473.671 280.396 473.235 280.686C472.815 280.962 472.329 281.172 471.778 281.317C471.241 281.462 470.668 281.535 470.058 281.535ZM469.95 271.308C469.5 271.308 469.065 271.373 468.644 271.503C468.223 271.62 467.846 271.815 467.513 272.091C467.193 272.352 466.932 272.686 466.729 273.092C466.526 273.498 466.424 273.984 466.424 274.55H473.366C473.352 273.955 473.25 273.455 473.061 273.048C472.887 272.628 472.648 272.294 472.343 272.047C472.039 271.786 471.676 271.598 471.255 271.482C470.849 271.366 470.414 271.308 469.95 271.308ZM480.624 275.377L476.49 269.784H478.622L482.147 274.615H483.475V269.784H485.39V274.615H486.695L490.286 269.784H492.375L488.24 275.312L492.592 281.317H490.329L486.695 276.269H485.39V281.317H483.475V276.269H482.147L478.492 281.317H476.272L480.624 275.377ZM494.873 269.784H496.788V278.489L502.75 269.784H504.665V281.317H502.75V272.613L496.788 281.317H494.873V269.784ZM508.154 269.784H510.2L514.313 276.965L518.425 269.784H520.34V281.317H518.425V272.94L515.009 278.815H513.486L510.069 272.94V281.317H508.154V269.784ZM534.043 281.535C533.303 281.535 532.6 281.419 531.932 281.187C531.265 280.94 530.678 280.578 530.17 280.099C529.662 279.606 529.256 278.989 528.951 278.249C528.647 277.509 528.494 276.646 528.494 275.66V275.224C528.494 274.296 528.647 273.476 528.951 272.766C529.256 272.055 529.662 271.467 530.17 271.003C530.678 270.524 531.265 270.169 531.932 269.937C532.6 269.69 533.303 269.567 534.043 269.567C534.783 269.567 535.487 269.69 536.154 269.937C536.821 270.169 537.409 270.524 537.917 271.003C538.424 271.467 538.831 272.055 539.135 272.766C539.44 273.476 539.592 274.296 539.592 275.224V275.66C539.592 276.646 539.44 277.509 539.135 278.249C538.831 278.989 538.424 279.606 537.917 280.099C537.409 280.578 536.821 280.94 536.154 281.187C535.487 281.419 534.783 281.535 534.043 281.535ZM534.043 279.794C534.478 279.794 534.914 279.722 535.349 279.577C535.784 279.417 536.169 279.178 536.502 278.858C536.836 278.525 537.104 278.097 537.307 277.575C537.525 277.052 537.634 276.414 537.634 275.66V275.224C537.634 274.528 537.525 273.933 537.307 273.44C537.104 272.947 536.836 272.541 536.502 272.222C536.169 271.902 535.784 271.67 535.349 271.525C534.914 271.38 534.478 271.308 534.043 271.308C533.608 271.308 533.173 271.38 532.738 271.525C532.302 271.67 531.918 271.902 531.584 272.222C531.251 272.541 530.975 272.947 530.757 273.44C530.554 273.933 530.453 274.528 530.453 275.224V275.66C530.453 276.414 530.554 277.052 530.757 277.575C530.975 278.097 531.251 278.525 531.584 278.858C531.918 279.178 532.302 279.417 532.738 279.577C533.173 279.722 533.608 279.794 534.043 279.794ZM544.724 271.482H540.786V269.784H550.578V271.482H546.639V281.317H544.724V271.482ZM557.546 281.535C556.777 281.535 556.059 281.39 555.392 281.1C554.739 280.81 554.166 280.389 553.673 279.838C553.194 279.272 552.81 278.583 552.519 277.77C552.244 276.958 552.106 276.037 552.106 275.007V274.572C552.106 273.266 552.2 272.106 552.389 271.09C552.578 270.06 552.897 269.19 553.346 268.479C553.811 267.753 554.413 267.188 555.152 266.781C555.907 266.375 556.85 266.143 557.981 266.085C558.895 266.042 559.693 266.005 560.375 265.976C561.057 265.933 561.637 265.788 562.116 265.541V267.391C561.884 267.521 561.456 267.623 560.832 267.695C560.223 267.768 559.381 267.819 558.308 267.848C557.611 267.862 556.995 267.949 556.458 268.109C555.936 268.268 555.486 268.522 555.109 268.87C554.746 269.219 554.456 269.676 554.239 270.241C554.035 270.793 553.905 271.474 553.847 272.287C554.195 271.518 554.732 270.909 555.457 270.459C556.182 270.009 557.024 269.784 557.981 269.784C558.721 269.784 559.396 269.915 560.005 270.176C560.614 270.423 561.137 270.778 561.572 271.242C562.022 271.707 562.37 272.28 562.616 272.961C562.863 273.629 562.986 274.383 562.986 275.224V275.66C562.986 276.559 562.848 277.372 562.573 278.097C562.297 278.808 561.92 279.424 561.441 279.946C560.963 280.454 560.389 280.846 559.722 281.122C559.055 281.397 558.329 281.535 557.546 281.535ZM557.546 279.794C558.562 279.794 559.396 279.446 560.049 278.75C560.701 278.039 561.028 277.009 561.028 275.66V275.224C561.028 274.659 560.941 274.151 560.767 273.701C560.593 273.252 560.353 272.867 560.049 272.548C559.744 272.214 559.374 271.96 558.939 271.786C558.518 271.612 558.054 271.525 557.546 271.525C557.038 271.525 556.567 271.612 556.132 271.786C555.711 271.96 555.348 272.214 555.044 272.548C554.739 272.867 554.5 273.252 554.326 273.701C554.152 274.151 554.064 274.659 554.064 275.224V275.66C554.064 276.298 554.152 276.878 554.326 277.401C554.514 277.908 554.768 278.343 555.087 278.706C555.406 279.054 555.776 279.323 556.197 279.511C556.618 279.7 557.067 279.794 557.546 279.794ZM565.7 269.784H567.485V271.96C567.876 271.192 568.42 270.604 569.117 270.198C569.828 269.777 570.647 269.567 571.576 269.567C573.026 269.567 574.187 270.046 575.057 271.003C575.928 271.946 576.363 273.353 576.363 275.224V275.66C576.363 276.646 576.247 277.509 576.015 278.249C575.783 278.975 575.456 279.584 575.035 280.077C574.615 280.556 574.107 280.918 573.512 281.165C572.932 281.412 572.286 281.535 571.576 281.535C570.589 281.535 569.762 281.317 569.095 280.882C568.442 280.447 567.949 279.903 567.615 279.25V285.669H565.7V269.784ZM571.14 279.838C571.605 279.838 572.04 279.751 572.446 279.577C572.852 279.388 573.2 279.12 573.491 278.771C573.795 278.423 574.027 277.988 574.187 277.466C574.361 276.944 574.448 276.342 574.448 275.66V275.224C574.448 274.601 574.361 274.042 574.187 273.549C574.027 273.056 573.795 272.642 573.491 272.309C573.2 271.96 572.852 271.699 572.446 271.525C572.04 271.351 571.605 271.264 571.14 271.264C570.618 271.264 570.139 271.351 569.704 271.525C569.269 271.685 568.899 271.917 568.594 272.222C568.29 272.512 568.05 272.86 567.876 273.266C567.702 273.672 567.615 274.107 567.615 274.572V276.313C567.615 276.835 567.702 277.313 567.876 277.749C568.05 278.184 568.29 278.554 568.594 278.858C568.899 279.163 569.269 279.402 569.704 279.577C570.139 279.751 570.618 279.838 571.14 279.838ZM582.374 281.535C581.736 281.535 581.17 281.448 580.677 281.274C580.198 281.085 579.792 280.831 579.458 280.512C579.124 280.193 578.87 279.816 578.696 279.381C578.522 278.946 578.435 278.467 578.435 277.945C578.435 276.798 578.769 275.972 579.436 275.464C580.118 274.956 581.09 274.702 582.352 274.702H586.095V273.919C586.095 272.932 585.87 272.251 585.42 271.873C584.985 271.496 584.325 271.308 583.44 271.308C582.613 271.308 582.011 271.467 581.634 271.786C581.257 272.091 581.046 272.439 581.003 272.831H579.088C579.117 272.367 579.24 271.939 579.458 271.547C579.69 271.141 579.995 270.793 580.372 270.502C580.764 270.212 581.228 269.987 581.765 269.828C582.301 269.654 582.896 269.567 583.549 269.567C584.913 269.567 585.993 269.893 586.791 270.546C587.604 271.184 588.01 272.236 588.01 273.701V278.38C588.01 278.989 588.01 279.526 588.01 279.99C588.024 280.44 588.061 280.882 588.119 281.317H586.443C586.399 280.984 586.37 280.672 586.356 280.382C586.341 280.077 586.334 279.736 586.334 279.359C586.03 279.968 585.536 280.483 584.855 280.904C584.173 281.325 583.346 281.535 582.374 281.535ZM582.787 279.794C583.237 279.794 583.658 279.736 584.049 279.62C584.456 279.49 584.811 279.308 585.116 279.076C585.42 278.829 585.66 278.532 585.834 278.184C586.008 277.836 586.095 277.43 586.095 276.965V276.182H582.678C581.968 276.182 581.409 276.327 581.003 276.617C580.597 276.893 580.394 277.335 580.394 277.945C580.394 278.481 580.582 278.924 580.959 279.272C581.351 279.62 581.96 279.794 582.787 279.794ZM595.853 281.535C595.113 281.535 594.424 281.419 593.786 281.187C593.147 280.94 592.596 280.578 592.132 280.099C591.668 279.606 591.298 278.989 591.022 278.249C590.761 277.509 590.63 276.646 590.63 275.66V275.224C590.63 274.296 590.775 273.476 591.066 272.766C591.356 272.055 591.74 271.467 592.219 271.003C592.698 270.524 593.249 270.169 593.873 269.937C594.511 269.69 595.171 269.567 595.853 269.567C596.535 269.567 597.144 269.661 597.681 269.85C598.232 270.038 598.703 270.299 599.095 270.633C599.501 270.967 599.828 271.358 600.074 271.808C600.335 272.258 600.524 272.744 600.64 273.266H598.682C598.566 272.99 598.428 272.737 598.268 272.504C598.123 272.258 597.935 272.047 597.702 271.873C597.485 271.699 597.224 271.561 596.919 271.46C596.614 271.358 596.259 271.308 595.853 271.308C595.432 271.308 595.026 271.387 594.634 271.547C594.243 271.692 593.894 271.924 593.59 272.243C593.285 272.548 593.038 272.947 592.85 273.44C592.676 273.933 592.589 274.528 592.589 275.224V275.66C592.589 276.4 592.676 277.038 592.85 277.575C593.038 278.097 593.285 278.525 593.59 278.858C593.894 279.178 594.243 279.417 594.634 279.577C595.026 279.722 595.432 279.794 595.853 279.794C596.564 279.794 597.158 279.62 597.637 279.272C598.13 278.924 598.479 278.445 598.682 277.836H600.64C600.364 278.982 599.799 279.888 598.943 280.556C598.087 281.209 597.057 281.535 595.853 281.535ZM603.25 269.784H605.165V274.136H607.493C608.944 274.136 610.01 274.456 610.692 275.094C611.388 275.732 611.736 276.617 611.736 277.749C611.736 278.851 611.388 279.722 610.692 280.36C610.01 280.998 608.944 281.317 607.493 281.317H603.25V269.784ZM607.384 279.62C608.284 279.62 608.915 279.46 609.277 279.141C609.64 278.822 609.821 278.351 609.821 277.727C609.821 277.103 609.64 276.632 609.277 276.313C608.915 275.993 608.284 275.834 607.384 275.834H605.165V279.62H607.384ZM613.521 269.784H615.435V281.317H613.521V269.784ZM618.911 269.784H623.916C625.338 269.784 626.382 270.082 627.05 270.677C627.717 271.257 628.051 272.011 628.051 272.94C628.051 273.186 628.007 273.44 627.92 273.701C627.833 273.948 627.71 274.18 627.55 274.398C627.405 274.615 627.224 274.804 627.006 274.963C626.803 275.123 626.571 275.246 626.31 275.333C627.021 275.507 627.557 275.841 627.92 276.334C628.297 276.813 628.486 277.379 628.486 278.032C628.486 279.033 628.152 279.83 627.485 280.425C626.817 281.02 625.773 281.317 624.351 281.317H618.911V269.784ZM624.351 279.62C625.164 279.62 625.737 279.475 626.07 279.185C626.404 278.895 626.571 278.481 626.571 277.945C626.571 277.393 626.404 276.973 626.07 276.682C625.737 276.378 625.164 276.225 624.351 276.225H620.826V279.62H624.351ZM623.916 274.659C624.743 274.659 625.316 274.514 625.635 274.224C625.969 273.933 626.136 273.534 626.136 273.027C626.136 272.548 625.969 272.171 625.635 271.895C625.316 271.62 624.743 271.482 623.916 271.482H620.826V274.659H623.916ZM634.501 281.535C633.863 281.535 633.297 281.448 632.804 281.274C632.325 281.085 631.919 280.831 631.585 280.512C631.251 280.193 630.997 279.816 630.823 279.381C630.649 278.946 630.562 278.467 630.562 277.945C630.562 276.798 630.896 275.972 631.563 275.464C632.245 274.956 633.217 274.702 634.479 274.702H638.222V273.919C638.222 272.932 637.997 272.251 637.547 271.873C637.112 271.496 636.452 271.308 635.567 271.308C634.74 271.308 634.138 271.467 633.761 271.786C633.384 272.091 633.174 272.439 633.13 272.831H631.215C631.244 272.367 631.367 271.939 631.585 271.547C631.817 271.141 632.122 270.793 632.499 270.502C632.891 270.212 633.355 269.987 633.892 269.828C634.428 269.654 635.023 269.567 635.676 269.567C637.04 269.567 638.12 269.893 638.918 270.546C639.731 271.184 640.137 272.236 640.137 273.701V278.38C640.137 278.989 640.137 279.526 640.137 279.99C640.151 280.44 640.188 280.882 640.246 281.317H638.57C638.527 280.984 638.498 280.672 638.483 280.382C638.469 280.077 638.461 279.736 638.461 279.359C638.157 279.968 637.663 280.483 636.982 280.904C636.3 281.325 635.473 281.535 634.501 281.535ZM634.914 279.794C635.364 279.794 635.785 279.736 636.176 279.62C636.583 279.49 636.938 279.308 637.243 279.076C637.547 278.829 637.787 278.532 637.961 278.184C638.135 277.836 638.222 277.43 638.222 276.965V276.182H634.806C634.095 276.182 633.536 276.327 633.13 276.617C632.724 276.893 632.521 277.335 632.521 277.945C632.521 278.481 632.709 278.924 633.086 279.272C633.478 279.62 634.087 279.794 634.914 279.794ZM643.519 269.784H645.434V274.593H651.396V269.784H653.311V281.317H651.396V276.291H645.434V281.317H643.519V269.784ZM656.801 269.784H658.715V278.489L664.678 269.784H666.593V281.317H664.678V272.613L658.715 281.317H656.801V269.784ZM672.345 276.748C671.388 276.53 670.699 276.138 670.278 275.573C669.857 274.992 669.647 274.253 669.647 273.353C669.647 272.222 669.988 271.344 670.67 270.72C671.366 270.096 672.476 269.784 673.999 269.784H679.004V281.317H677.089V276.922H674.151L671.344 281.317H669.212L672.345 276.748ZM671.562 273.353C671.562 273.962 671.736 274.427 672.084 274.746C672.447 275.065 673.049 275.224 673.89 275.224H677.089V271.482H673.89C673.049 271.482 672.447 271.641 672.084 271.96C671.736 272.28 671.562 272.744 671.562 273.353Z" fill="black"/>
<rect x="429.484" y="175.817" width="272" height="194" rx="21.5" stroke="#4C89BE"/>
<path d="M521.162 431.535C520.292 431.535 519.45 431.39 518.638 431.1C517.826 430.795 517.107 430.331 516.484 429.707C515.86 429.083 515.359 428.285 514.982 427.313C514.605 426.342 514.416 425.174 514.416 423.81V423.375C514.416 422.069 514.605 420.945 514.982 420.002C515.359 419.059 515.86 418.283 516.484 417.674C517.107 417.05 517.826 416.593 518.638 416.303C519.45 416.013 520.292 415.868 521.162 415.868C522.033 415.868 522.874 416.013 523.686 416.303C524.499 416.593 525.217 417.05 525.841 417.674C526.464 418.283 526.965 419.059 527.342 420.002C527.719 420.945 527.908 422.069 527.908 423.375V423.81C527.908 425.174 527.719 426.342 527.342 427.313C526.965 428.285 526.464 429.083 525.841 429.707C525.217 430.331 524.499 430.795 523.686 431.1C522.874 431.39 522.033 431.535 521.162 431.535ZM521.162 429.707C521.757 429.707 522.33 429.598 522.881 429.381C523.432 429.163 523.918 428.822 524.339 428.358C524.76 427.879 525.094 427.27 525.34 426.53C525.601 425.776 525.732 424.869 525.732 423.81V423.375C525.732 422.374 525.601 421.518 525.34 420.807C525.094 420.082 524.76 419.494 524.339 419.045C523.918 418.58 523.432 418.239 522.881 418.022C522.33 417.804 521.757 417.695 521.162 417.695C520.567 417.695 519.994 417.804 519.443 418.022C518.892 418.239 518.406 418.58 517.985 419.045C517.564 419.494 517.224 420.082 516.962 420.807C516.716 421.518 516.592 422.374 516.592 423.375V423.81C516.592 424.869 516.716 425.776 516.962 426.53C517.224 427.27 517.564 427.879 517.985 428.358C518.406 428.822 518.892 429.163 519.443 429.381C519.994 429.598 520.567 429.707 521.162 429.707ZM535.747 431.535C534.978 431.535 534.26 431.39 533.592 431.1C532.94 430.81 532.367 430.389 531.873 429.838C531.395 429.272 531.01 428.583 530.72 427.77C530.444 426.958 530.307 426.037 530.307 425.007V424.572C530.307 423.266 530.401 422.106 530.59 421.09C530.778 420.06 531.097 419.19 531.547 418.479C532.011 417.753 532.613 417.188 533.353 416.781C534.107 416.375 535.05 416.143 536.182 416.085C537.096 416.042 537.894 416.005 538.576 415.976C539.257 415.933 539.838 415.788 540.316 415.541V417.391C540.084 417.521 539.656 417.623 539.033 417.695C538.423 417.768 537.582 417.819 536.508 417.848C535.812 417.862 535.195 417.949 534.659 418.109C534.136 418.268 533.687 418.522 533.31 418.87C532.947 419.219 532.657 419.676 532.439 420.241C532.236 420.793 532.105 421.474 532.047 422.287C532.396 421.518 532.932 420.909 533.658 420.459C534.383 420.009 535.224 419.784 536.182 419.784C536.922 419.784 537.596 419.915 538.206 420.176C538.815 420.423 539.337 420.778 539.772 421.242C540.222 421.707 540.57 422.28 540.817 422.961C541.063 423.629 541.187 424.383 541.187 425.224V425.66C541.187 426.559 541.049 427.372 540.773 428.097C540.498 428.808 540.121 429.424 539.642 429.946C539.163 430.454 538.59 430.846 537.923 431.122C537.255 431.397 536.53 431.535 535.747 431.535ZM535.747 429.794C536.762 429.794 537.596 429.446 538.249 428.75C538.902 428.039 539.228 427.009 539.228 425.66V425.224C539.228 424.659 539.141 424.151 538.967 423.701C538.793 423.252 538.554 422.867 538.249 422.548C537.944 422.214 537.575 421.96 537.139 421.786C536.719 421.612 536.254 421.525 535.747 421.525C535.239 421.525 534.767 421.612 534.332 421.786C533.912 421.96 533.549 422.214 533.244 422.548C532.94 422.867 532.7 423.252 532.526 423.701C532.352 424.151 532.265 424.659 532.265 425.224V425.66C532.265 426.298 532.352 426.878 532.526 427.401C532.715 427.908 532.969 428.343 533.288 428.706C533.607 429.054 533.977 429.323 534.398 429.511C534.818 429.7 535.268 429.794 535.747 429.794ZM544.999 435.887C544.781 435.887 544.564 435.865 544.346 435.822V434.081C544.564 434.124 544.781 434.146 544.999 434.146C545.217 434.146 545.405 434.11 545.565 434.037C545.724 433.965 545.877 433.827 546.022 433.624C546.167 433.421 546.319 433.131 546.479 432.754C546.653 432.391 546.849 431.912 547.066 431.317L542.17 419.784H544.303L548.046 429.141L551.44 419.784H553.486L549.134 431.317C548.829 432.13 548.539 432.826 548.263 433.406C547.988 433.987 547.69 434.458 547.371 434.821C547.066 435.198 546.725 435.466 546.348 435.626C545.971 435.8 545.521 435.887 544.999 435.887ZM562.545 426.726C562.212 426.929 561.805 427.11 561.327 427.27C560.862 427.43 560.275 427.509 559.564 427.509C558.897 427.509 558.295 427.437 557.758 427.292C557.236 427.147 556.793 426.915 556.431 426.595C556.068 426.276 555.792 425.863 555.604 425.355C555.415 424.847 555.321 424.224 555.321 423.484V419.784H557.236V423.157C557.236 423.65 557.279 424.064 557.366 424.398C557.468 424.731 557.627 425 557.845 425.203C558.063 425.406 558.338 425.551 558.672 425.638C559.006 425.725 559.412 425.768 559.89 425.768C560.543 425.768 561.102 425.703 561.566 425.573C562.03 425.442 562.357 425.304 562.545 425.159V419.784H564.46V431.317H562.545V426.726ZM572.722 431.535C571.982 431.535 571.279 431.419 570.612 431.187C569.944 430.955 569.357 430.599 568.849 430.121C568.341 429.627 567.935 429.011 567.63 428.271C567.326 427.531 567.173 426.661 567.173 425.66V425.224C567.173 424.267 567.318 423.44 567.609 422.744C567.899 422.033 568.283 421.445 568.762 420.981C569.255 420.502 569.821 420.147 570.459 419.915C571.112 419.683 571.794 419.567 572.505 419.567C574.202 419.567 575.515 420.031 576.443 420.959C577.372 421.888 577.836 423.201 577.836 424.898V426.117H569.088C569.088 426.798 569.197 427.372 569.415 427.836C569.632 428.3 569.915 428.677 570.263 428.967C570.612 429.257 570.996 429.468 571.417 429.598C571.852 429.729 572.287 429.794 572.722 429.794C573.593 429.794 574.26 429.649 574.724 429.359C575.203 429.069 575.544 428.67 575.747 428.162H577.618C577.502 428.713 577.292 429.199 576.987 429.62C576.697 430.041 576.335 430.396 575.899 430.686C575.479 430.962 574.993 431.172 574.441 431.317C573.905 431.462 573.332 431.535 572.722 431.535ZM572.613 421.308C572.164 421.308 571.729 421.373 571.308 421.503C570.887 421.62 570.51 421.815 570.176 422.091C569.857 422.352 569.596 422.686 569.393 423.092C569.19 423.498 569.088 423.984 569.088 424.55H576.03C576.015 423.955 575.914 423.455 575.725 423.048C575.551 422.628 575.312 422.294 575.007 422.047C574.702 421.786 574.34 421.598 573.919 421.482C573.513 421.366 573.078 421.308 572.613 421.308ZM580.558 419.784H582.473V424.593H588.435V419.784H590.35V431.317H588.435V426.291H582.473V431.317H580.558V419.784ZM593.839 419.784H595.754V428.489L601.716 419.784H603.631V431.317H601.716V422.613L595.754 431.317H593.839V419.784ZM611.908 431.535C611.168 431.535 610.464 431.419 609.797 431.187C609.13 430.955 608.542 430.599 608.035 430.121C607.527 429.627 607.121 429.011 606.816 428.271C606.511 427.531 606.359 426.661 606.359 425.66V425.224C606.359 424.267 606.504 423.44 606.794 422.744C607.084 422.033 607.469 421.445 607.948 420.981C608.441 420.502 609.007 420.147 609.645 419.915C610.298 419.683 610.979 419.567 611.69 419.567C613.388 419.567 614.701 420.031 615.629 420.959C616.557 421.888 617.022 423.201 617.022 424.898V426.117H608.274C608.274 426.798 608.383 427.372 608.6 427.836C608.818 428.3 609.101 428.677 609.449 428.967C609.797 429.257 610.182 429.468 610.602 429.598C611.038 429.729 611.473 429.794 611.908 429.794C612.778 429.794 613.446 429.649 613.91 429.359C614.389 429.069 614.73 428.67 614.933 428.162H616.804C616.688 428.713 616.478 429.199 616.173 429.62C615.883 430.041 615.52 430.396 615.085 430.686C614.664 430.962 614.178 431.172 613.627 431.317C613.09 431.462 612.517 431.535 611.908 431.535ZM611.799 421.308C611.349 421.308 610.914 421.373 610.494 421.503C610.073 421.62 609.696 421.815 609.362 422.091C609.043 422.352 608.782 422.686 608.579 423.092C608.375 423.498 608.274 423.984 608.274 424.55H615.216C615.201 423.955 615.099 423.455 614.911 423.048C614.737 422.628 614.497 422.294 614.193 422.047C613.888 421.786 613.525 421.598 613.105 421.482C612.699 421.366 612.263 421.308 611.799 421.308Z" fill="black"/>
<rect x="429.611" y="400.817" width="272" height="44" rx="2.5" stroke="#4C89BE"/>
<path d="M469.787 491.085H475.009C476.01 491.085 476.881 491.201 477.621 491.433C478.36 491.665 478.97 491.992 479.448 492.413C479.942 492.819 480.304 493.312 480.536 493.892C480.769 494.458 480.885 495.082 480.885 495.764C480.885 496.445 480.769 497.076 480.536 497.657C480.304 498.223 479.942 498.716 479.448 499.136C478.97 499.543 478.36 499.862 477.621 500.094C476.881 500.326 476.01 500.442 475.009 500.442H471.832V506.317H469.787V491.085ZM474.901 498.658C475.626 498.658 476.235 498.592 476.728 498.462C477.236 498.317 477.642 498.121 477.947 497.874C478.266 497.628 478.491 497.323 478.622 496.96C478.767 496.598 478.839 496.199 478.839 495.764C478.839 495.328 478.767 494.929 478.622 494.567C478.491 494.204 478.266 493.899 477.947 493.653C477.642 493.406 477.236 493.218 476.728 493.087C476.235 492.942 475.626 492.869 474.901 492.869H471.832V498.658H474.901ZM488.185 506.535C487.446 506.535 486.742 506.419 486.075 506.187C485.407 505.955 484.82 505.599 484.312 505.121C483.804 504.627 483.398 504.011 483.093 503.271C482.789 502.531 482.637 501.661 482.637 500.66V500.224C482.637 499.267 482.782 498.44 483.072 497.744C483.362 497.033 483.746 496.445 484.225 495.981C484.718 495.502 485.284 495.147 485.922 494.915C486.575 494.683 487.257 494.567 487.968 494.567C489.665 494.567 490.978 495.031 491.906 495.959C492.835 496.888 493.299 498.201 493.299 499.898V501.117H484.551C484.551 501.798 484.66 502.372 484.878 502.836C485.095 503.3 485.378 503.677 485.727 503.967C486.075 504.257 486.459 504.468 486.88 504.598C487.315 504.729 487.75 504.794 488.185 504.794C489.056 504.794 489.723 504.649 490.187 504.359C490.666 504.069 491.007 503.67 491.21 503.162H493.081C492.965 503.713 492.755 504.199 492.45 504.62C492.16 505.041 491.798 505.396 491.362 505.686C490.942 505.962 490.456 506.172 489.904 506.317C489.368 506.462 488.795 506.535 488.185 506.535ZM488.077 496.308C487.627 496.308 487.192 496.373 486.771 496.503C486.35 496.62 485.973 496.815 485.639 497.091C485.32 497.352 485.059 497.686 484.856 498.092C484.653 498.498 484.551 498.984 484.551 499.55H491.493C491.478 498.955 491.377 498.455 491.188 498.048C491.014 497.628 490.775 497.294 490.47 497.047C490.166 496.786 489.803 496.598 489.382 496.482C488.976 496.366 488.541 496.308 488.077 496.308ZM498.751 500.377L494.617 494.784H496.749L500.274 499.615H501.602V494.784H503.517V499.615H504.822L508.413 494.784H510.502L506.367 500.312L510.719 506.317H508.456L504.822 501.269H503.517V506.317H501.602V501.269H500.274L496.619 506.317H494.399L498.751 500.377ZM513 494.784H514.915V503.489L520.877 494.784H522.792V506.317H520.877V497.613L514.915 506.317H513V494.784ZM526.281 494.784H528.327L532.44 501.965L536.552 494.784H538.467V506.317H536.552V497.94L533.136 503.815H531.613L528.196 497.94V506.317H526.281V494.784ZM547.383 494.784H556.957V506.317H555.043V496.482H549.298V506.317H547.383V494.784ZM565.218 506.535C564.478 506.535 563.774 506.419 563.107 506.187C562.44 505.955 561.852 505.599 561.345 505.121C560.837 504.627 560.431 504.011 560.126 503.271C559.821 502.531 559.669 501.661 559.669 500.66V500.224C559.669 499.267 559.814 498.44 560.104 497.744C560.394 497.033 560.779 496.445 561.258 495.981C561.751 495.502 562.317 495.147 562.955 494.915C563.608 494.683 564.289 494.567 565 494.567C566.698 494.567 568.01 495.031 568.939 495.959C569.867 496.888 570.332 498.201 570.332 499.898V501.117H561.584C561.584 501.798 561.693 502.372 561.91 502.836C562.128 503.3 562.411 503.677 562.759 503.967C563.107 504.257 563.492 504.468 563.912 504.598C564.347 504.729 564.783 504.794 565.218 504.794C566.088 504.794 566.756 504.649 567.22 504.359C567.699 504.069 568.04 503.67 568.243 503.162H570.114C569.998 503.713 569.788 504.199 569.483 504.62C569.193 505.041 568.83 505.396 568.395 505.686C567.974 505.962 567.488 506.172 566.937 506.317C566.4 506.462 565.827 506.535 565.218 506.535ZM565.109 496.308C564.659 496.308 564.224 496.373 563.803 496.503C563.383 496.62 563.006 496.815 562.672 497.091C562.353 497.352 562.092 497.686 561.889 498.092C561.685 498.498 561.584 498.984 561.584 499.55H568.525C568.511 498.955 568.409 498.455 568.221 498.048C568.047 497.628 567.807 497.294 567.503 497.047C567.198 496.786 566.835 496.598 566.415 496.482C566.009 496.366 565.573 496.308 565.109 496.308ZM573.053 494.784H574.838V496.96C575.229 496.192 575.773 495.604 576.47 495.198C577.181 494.777 578 494.567 578.929 494.567C580.379 494.567 581.54 495.046 582.41 496.003C583.281 496.946 583.716 498.353 583.716 500.224V500.66C583.716 501.646 583.6 502.509 583.368 503.249C583.136 503.975 582.809 504.584 582.389 505.077C581.968 505.556 581.46 505.918 580.865 506.165C580.285 506.412 579.639 506.535 578.929 506.535C577.942 506.535 577.115 506.317 576.448 505.882C575.795 505.447 575.302 504.903 574.968 504.25V510.669H573.053V494.784ZM578.493 504.838C578.958 504.838 579.393 504.751 579.799 504.577C580.205 504.388 580.553 504.12 580.844 503.771C581.148 503.423 581.38 502.988 581.54 502.466C581.714 501.944 581.801 501.342 581.801 500.66V500.224C581.801 499.601 581.714 499.042 581.54 498.549C581.38 498.056 581.148 497.642 580.844 497.309C580.553 496.96 580.205 496.699 579.799 496.525C579.393 496.351 578.958 496.264 578.493 496.264C577.971 496.264 577.492 496.351 577.057 496.525C576.622 496.685 576.252 496.917 575.947 497.222C575.643 497.512 575.403 497.86 575.229 498.266C575.055 498.672 574.968 499.107 574.968 499.572V501.313C574.968 501.835 575.055 502.313 575.229 502.749C575.403 503.184 575.643 503.554 575.947 503.858C576.252 504.163 576.622 504.402 577.057 504.577C577.492 504.751 577.971 504.838 578.493 504.838ZM591.228 506.535C590.488 506.535 589.785 506.419 589.118 506.187C588.45 505.955 587.863 505.599 587.355 505.121C586.847 504.627 586.441 504.011 586.136 503.271C585.832 502.531 585.679 501.661 585.679 500.66V500.224C585.679 499.267 585.825 498.44 586.115 497.744C586.405 497.033 586.789 496.445 587.268 495.981C587.761 495.502 588.327 495.147 588.965 494.915C589.618 494.683 590.3 494.567 591.011 494.567C592.708 494.567 594.021 495.031 594.949 495.959C595.878 496.888 596.342 498.201 596.342 499.898V501.117H587.594C587.594 501.798 587.703 502.372 587.921 502.836C588.138 503.3 588.421 503.677 588.769 503.967C589.118 504.257 589.502 504.468 589.923 504.598C590.358 504.729 590.793 504.794 591.228 504.794C592.099 504.794 592.766 504.649 593.23 504.359C593.709 504.069 594.05 503.67 594.253 503.162H596.124C596.008 503.713 595.798 504.199 595.493 504.62C595.203 505.041 594.841 505.396 594.405 505.686C593.985 505.962 593.499 506.172 592.947 506.317C592.411 506.462 591.838 506.535 591.228 506.535ZM591.12 496.308C590.67 496.308 590.235 496.373 589.814 496.503C589.393 496.62 589.016 496.815 588.682 497.091C588.363 497.352 588.102 497.686 587.899 498.092C587.696 498.498 587.594 498.984 587.594 499.55H594.536C594.521 498.955 594.42 498.455 594.231 498.048C594.057 497.628 593.818 497.294 593.513 497.047C593.209 496.786 592.846 496.598 592.425 496.482C592.019 496.366 591.584 496.308 591.12 496.308ZM603.525 506.535C602.785 506.535 602.096 506.419 601.457 506.187C600.819 505.94 600.268 505.578 599.804 505.099C599.339 504.606 598.969 503.989 598.694 503.249C598.433 502.509 598.302 501.646 598.302 500.66V500.224C598.302 499.296 598.447 498.476 598.737 497.766C599.027 497.055 599.412 496.467 599.891 496.003C600.369 495.524 600.921 495.169 601.544 494.937C602.183 494.69 602.843 494.567 603.525 494.567C604.206 494.567 604.816 494.661 605.352 494.85C605.904 495.038 606.375 495.299 606.767 495.633C607.173 495.967 607.5 496.358 607.746 496.808C608.007 497.258 608.196 497.744 608.312 498.266H606.353C606.237 497.99 606.1 497.737 605.94 497.504C605.795 497.258 605.606 497.047 605.374 496.873C605.157 496.699 604.896 496.561 604.591 496.46C604.286 496.358 603.931 496.308 603.525 496.308C603.104 496.308 602.698 496.387 602.306 496.547C601.914 496.692 601.566 496.924 601.262 497.243C600.957 497.548 600.71 497.947 600.522 498.44C600.348 498.933 600.261 499.528 600.261 500.224V500.66C600.261 501.4 600.348 502.038 600.522 502.575C600.71 503.097 600.957 503.525 601.262 503.858C601.566 504.178 601.914 504.417 602.306 504.577C602.698 504.722 603.104 504.794 603.525 504.794C604.235 504.794 604.83 504.62 605.309 504.272C605.802 503.924 606.15 503.445 606.353 502.836H608.312C608.036 503.982 607.47 504.888 606.615 505.556C605.759 506.209 604.729 506.535 603.525 506.535ZM610.921 494.784H612.836V499.136H615.165C616.615 499.136 617.682 499.456 618.363 500.094C619.06 500.732 619.408 501.617 619.408 502.749C619.408 503.851 619.06 504.722 618.363 505.36C617.682 505.998 616.615 506.317 615.165 506.317H610.921V494.784ZM615.056 504.62C615.955 504.62 616.586 504.46 616.949 504.141C617.312 503.822 617.493 503.351 617.493 502.727C617.493 502.103 617.312 501.632 616.949 501.313C616.586 500.993 615.955 500.834 615.056 500.834H612.836V504.62H615.056ZM621.192 494.784H623.107V506.317H621.192V494.784ZM626.039 506.535C625.821 506.535 625.604 506.513 625.386 506.47V504.555C625.459 504.569 625.567 504.577 625.713 504.577C626.032 504.577 626.307 504.475 626.539 504.272C626.786 504.069 626.982 503.713 627.127 503.206C627.272 502.698 627.381 502.009 627.453 501.138C627.526 500.268 627.562 499.165 627.562 497.831V494.784H635.831V506.317H633.916V496.482H629.477V498.266C629.477 499.876 629.405 501.211 629.259 502.27C629.114 503.329 628.897 504.178 628.607 504.816C628.331 505.44 627.976 505.882 627.54 506.143C627.105 506.404 626.605 506.535 626.039 506.535ZM639.312 494.784H641.227V499.615H642.75L647.059 494.784H649.322L644.317 500.312L649.539 506.317H647.102L642.75 501.269H641.227V506.317H639.312V494.784ZM651.828 494.784H653.743V503.489L659.706 494.784H661.621V506.317H659.706V497.613L653.743 506.317H651.828V494.784Z" fill="black"/>
<rect x="429.611" y="475.817" width="272" height="44" rx="2.5" stroke="#4C89BE"/>
</svg>
