<svg width="1300" height="556" viewBox="0 0 1300 556" fill="none" xmlns="http://www.w3.org/2000/svg">
<rect width="1299.57" height="555.201" transform="translate(0 0.152344)" fill="white"/>
<path d="M641.35 164.07H670.35V455.07H641.35V164.07Z" fill="url(#paint0_linear_564_49301)"/>
<path d="M640.85 164.07V165.067H641.85V164.07H640.85ZM640.85 167.06V169.053H641.85V167.06H640.85ZM640.85 171.046V173.039H641.85V171.046H640.85ZM640.85 175.033V177.026H641.85V175.033H640.85ZM640.85 179.019V181.012H641.85V179.019H640.85ZM640.85 183.005V184.998H641.85V183.005H640.85ZM640.85 186.992V188.985H641.85V186.992H640.85ZM640.85 190.978V192.971H641.85V190.978H640.85ZM640.85 194.964V196.957H641.85V194.964H640.85ZM640.85 198.95V200.944H641.85V198.95H640.85ZM640.85 202.937V204.93H641.85V202.937H640.85ZM640.85 206.923V208.916H641.85V206.923H640.85ZM640.85 210.909V212.902H641.85V210.909H640.85ZM640.85 214.896V216.889H641.85V214.896H640.85ZM640.85 218.882V220.875H641.85V218.882H640.85ZM640.85 222.868V224.861H641.85V222.868H640.85ZM640.85 226.855V228.848H641.85V226.855H640.85ZM640.85 230.841V232.834H641.85V230.841H640.85ZM640.85 234.827V236.82H641.85V234.827H640.85ZM640.85 238.813V240.807H641.85V238.813H640.85ZM640.85 242.8V244.793H641.85V242.8H640.85ZM640.85 246.786V248.779H641.85V246.786H640.85ZM640.85 250.772V252.765H641.85V250.772H640.85ZM640.85 254.759V256.752H641.85V254.759H640.85ZM640.85 258.745V260.738H641.85V258.745H640.85ZM640.85 262.731V264.724H641.85V262.731H640.85ZM640.85 266.717V268.711H641.85V266.717H640.85ZM640.85 270.704V272.697H641.85V270.704H640.85ZM640.85 274.69V276.683H641.85V274.69H640.85ZM640.85 278.676V280.67H641.85V278.676H640.85ZM640.85 282.663V284.656H641.85V282.663H640.85ZM640.85 286.649V288.642H641.85V286.649H640.85ZM640.85 290.635V292.628H641.85V290.635H640.85ZM640.85 294.622V296.615H641.85V294.622H640.85ZM640.85 298.608V300.601H641.85V298.608H640.85ZM640.85 302.594V304.587H641.85V302.594H640.85ZM640.85 306.58V308.574H641.85V306.58H640.85ZM640.85 310.567V312.56H641.85V310.567H640.85ZM640.85 314.553V316.546H641.85V314.553H640.85ZM640.85 318.539V320.533H641.85V318.539H640.85ZM640.85 322.526V324.519H641.85V322.526H640.85ZM640.85 326.512V328.505H641.85V326.512H640.85ZM640.85 330.498V332.491H641.85V330.498H640.85ZM640.85 334.485V336.478H641.85V334.485H640.85ZM640.85 338.471V340.464H641.85V338.471H640.85ZM640.85 342.457V344.45H641.85V342.457H640.85ZM640.85 346.443V348.437H641.85V346.443H640.85ZM640.85 350.43V352.423H641.85V350.43H640.85ZM640.85 354.416V356.409H641.85V354.416H640.85ZM640.85 358.402V360.396H641.85V358.402H640.85ZM640.85 362.389V364.382H641.85V362.389H640.85ZM640.85 366.375V368.368H641.85V366.375H640.85ZM640.85 370.361V372.354H641.85V370.361H640.85ZM640.85 374.348V376.341H641.85V374.348H640.85ZM640.85 378.334V380.327H641.85V378.334H640.85ZM640.85 382.32V384.313H641.85V382.32H640.85ZM640.85 386.306V388.3H641.85V386.306H640.85ZM640.85 390.293V392.286H641.85V390.293H640.85ZM640.85 394.279V396.272H641.85V394.279H640.85ZM640.85 398.265V400.258H641.85V398.265H640.85ZM640.85 402.252V404.245H641.85V402.252H640.85ZM640.85 406.238V408.231H641.85V406.238H640.85ZM640.85 410.224V412.217H641.85V410.224H640.85ZM640.85 414.211V416.204H641.85V414.211H640.85ZM640.85 418.197V420.19H641.85V418.197H640.85ZM640.85 422.183V424.176H641.85V422.183H640.85ZM640.85 426.169V428.163H641.85V426.169H640.85ZM640.85 430.156V432.149H641.85V430.156H640.85ZM640.85 434.142V436.135H641.85V434.142H640.85ZM640.85 438.128V440.122H641.85V438.128H640.85ZM640.85 442.115V444.108H641.85V442.115H640.85ZM640.85 446.101V448.094H641.85V446.101H640.85ZM640.85 450.087V452.081H641.85V450.087H640.85ZM640.85 454.074V455.07H641.85V454.074H640.85ZM670.85 455.07V454.074H669.85V455.07H670.85ZM670.85 452.081V450.087H669.85V452.081H670.85ZM670.85 448.094V446.101H669.85V448.094H670.85ZM670.85 444.108V442.115H669.85V444.108H670.85ZM670.85 440.122V438.129H669.85V440.122H670.85ZM670.85 436.135V434.142H669.85V436.135H670.85ZM670.85 432.149V430.156H669.85V432.149H670.85ZM670.85 428.163V426.17H669.85V428.163H670.85ZM670.85 424.176V422.183H669.85V424.176H670.85ZM670.85 420.19V418.197H669.85V420.19H670.85ZM670.85 416.204V414.211H669.85V416.204H670.85ZM670.85 412.218V410.224H669.85V412.218H670.85ZM670.85 408.231V406.238H669.85V408.231H670.85ZM670.85 404.245V402.252H669.85V404.245H670.85ZM670.85 400.259V398.266H669.85V400.259H670.85ZM670.85 396.272V394.279H669.85V396.272H670.85ZM670.85 392.286V390.293H669.85V392.286H670.85ZM670.85 388.3V386.307H669.85V388.3H670.85ZM670.85 384.313V382.32H669.85V384.313H670.85ZM670.85 380.327V378.334H669.85V380.327H670.85ZM670.85 376.341V374.348H669.85V376.341H670.85ZM670.85 372.355V370.361H669.85V372.355H670.85ZM670.85 368.368V366.375H669.85V368.368H670.85ZM670.85 364.382V362.389H669.85V364.382H670.85ZM670.85 360.396V358.403H669.85V360.396H670.85ZM670.85 356.409V354.416H669.85V356.409H670.85ZM670.85 352.423V350.43H669.85V352.423H670.85ZM670.85 348.437V346.444H669.85V348.437H670.85ZM670.85 344.451V342.457H669.85V344.451H670.85ZM670.85 340.464V338.471H669.85V340.464H670.85ZM670.85 336.478V334.485H669.85V336.478H670.85ZM670.85 332.492V330.498H669.85V332.492H670.85ZM670.85 328.505V326.512H669.85V328.505H670.85ZM670.85 324.519V322.526H669.85V324.519H670.85ZM670.85 320.533V318.54H669.85V320.533H670.85ZM670.85 316.546V314.553H669.85V316.546H670.85ZM670.85 312.56V310.567H669.85V312.56H670.85ZM670.85 308.574V306.581H669.85V308.574H670.85ZM670.85 304.588V302.594H669.85V304.588H670.85ZM670.85 300.601V298.608H669.85V300.601H670.85ZM670.85 296.615V294.622H669.85V296.615H670.85ZM670.85 292.629V290.636H669.85V292.629H670.85ZM670.85 288.642V286.649H669.85V288.642H670.85ZM670.85 284.656V282.663H669.85V284.656H670.85ZM670.85 280.67V278.677H669.85V280.67H670.85ZM670.85 276.683V274.69H669.85V276.683H670.85ZM670.85 272.697V270.704H669.85V272.697H670.85ZM670.85 268.711V266.718H669.85V268.711H670.85ZM670.85 264.725V262.731H669.85V264.725H670.85ZM670.85 260.738V258.745H669.85V260.738H670.85ZM670.85 256.752V254.759H669.85V256.752H670.85ZM670.85 252.766V250.773H669.85V252.766H670.85ZM670.85 248.779V246.786H669.85V248.779H670.85ZM670.85 244.793V242.8H669.85V244.793H670.85ZM670.85 240.807V238.814H669.85V240.807H670.85ZM670.85 236.82V234.827H669.85V236.82H670.85ZM670.85 232.834V230.841H669.85V232.834H670.85ZM670.85 228.848V226.855H669.85V228.848H670.85ZM670.85 224.862V222.868H669.85V224.862H670.85ZM670.85 220.875V218.882H669.85V220.875H670.85ZM670.85 216.889V214.896H669.85V216.889H670.85ZM670.85 212.903V210.91H669.85V212.903H670.85ZM670.85 208.916V206.923H669.85V208.916H670.85ZM670.85 204.93V202.937H669.85V204.93H670.85ZM670.85 200.944V198.951H669.85V200.944H670.85ZM670.85 196.957V194.964H669.85V196.957H670.85ZM670.85 192.971V190.978H669.85V192.971H670.85ZM670.85 188.985V186.992H669.85V188.985H670.85ZM670.85 184.999V183.005H669.85V184.999H670.85ZM670.85 181.012V179.019H669.85V181.012H670.85ZM670.85 177.026V175.033H669.85V177.026H670.85ZM670.85 173.04V171.046H669.85V173.04H670.85ZM670.85 169.053V167.06H669.85V169.053H670.85ZM670.85 165.067V164.07H669.85V165.067H670.85Z" fill="#C1B8A6"/>
<path d="M379.35 164.07H408.35V455.07H379.35V164.07Z" fill="url(#paint1_linear_564_49301)"/>
<path d="M378.85 164.07V165.067H379.85V164.07H378.85ZM378.85 167.06V169.053H379.85V167.06H378.85ZM378.85 171.046V173.039H379.85V171.046H378.85ZM378.85 175.033V177.026H379.85V175.033H378.85ZM378.85 179.019V181.012H379.85V179.019H378.85ZM378.85 183.005V184.998H379.85V183.005H378.85ZM378.85 186.992V188.985H379.85V186.992H378.85ZM378.85 190.978V192.971H379.85V190.978H378.85ZM378.85 194.964V196.957H379.85V194.964H378.85ZM378.85 198.95V200.944H379.85V198.95H378.85ZM378.85 202.937V204.93H379.85V202.937H378.85ZM378.85 206.923V208.916H379.85V206.923H378.85ZM378.85 210.909V212.902H379.85V210.909H378.85ZM378.85 214.896V216.889H379.85V214.896H378.85ZM378.85 218.882V220.875H379.85V218.882H378.85ZM378.85 222.868V224.861H379.85V222.868H378.85ZM378.85 226.855V228.848H379.85V226.855H378.85ZM378.85 230.841V232.834H379.85V230.841H378.85ZM378.85 234.827V236.82H379.85V234.827H378.85ZM378.85 238.813V240.807H379.85V238.813H378.85ZM378.85 242.8V244.793H379.85V242.8H378.85ZM378.85 246.786V248.779H379.85V246.786H378.85ZM378.85 250.772V252.765H379.85V250.772H378.85ZM378.85 254.759V256.752H379.85V254.759H378.85ZM378.85 258.745V260.738H379.85V258.745H378.85ZM378.85 262.731V264.724H379.85V262.731H378.85ZM378.85 266.717V268.711H379.85V266.717H378.85ZM378.85 270.704V272.697H379.85V270.704H378.85ZM378.85 274.69V276.683H379.85V274.69H378.85ZM378.85 278.676V280.67H379.85V278.676H378.85ZM378.85 282.663V284.656H379.85V282.663H378.85ZM378.85 286.649V288.642H379.85V286.649H378.85ZM378.85 290.635V292.628H379.85V290.635H378.85ZM378.85 294.622V296.615H379.85V294.622H378.85ZM378.85 298.608V300.601H379.85V298.608H378.85ZM378.85 302.594V304.587H379.85V302.594H378.85ZM378.85 306.58V308.574H379.85V306.58H378.85ZM378.85 310.567V312.56H379.85V310.567H378.85ZM378.85 314.553V316.546H379.85V314.553H378.85ZM378.85 318.539V320.533H379.85V318.539H378.85ZM378.85 322.526V324.519H379.85V322.526H378.85ZM378.85 326.512V328.505H379.85V326.512H378.85ZM378.85 330.498V332.491H379.85V330.498H378.85ZM378.85 334.485V336.478H379.85V334.485H378.85ZM378.85 338.471V340.464H379.85V338.471H378.85ZM378.85 342.457V344.45H379.85V342.457H378.85ZM378.85 346.443V348.437H379.85V346.443H378.85ZM378.85 350.43V352.423H379.85V350.43H378.85ZM378.85 354.416V356.409H379.85V354.416H378.85ZM378.85 358.402V360.396H379.85V358.402H378.85ZM378.85 362.389V364.382H379.85V362.389H378.85ZM378.85 366.375V368.368H379.85V366.375H378.85ZM378.85 370.361V372.354H379.85V370.361H378.85ZM378.85 374.348V376.341H379.85V374.348H378.85ZM378.85 378.334V380.327H379.85V378.334H378.85ZM378.85 382.32V384.313H379.85V382.32H378.85ZM378.85 386.306V388.3H379.85V386.306H378.85ZM378.85 390.293V392.286H379.85V390.293H378.85ZM378.85 394.279V396.272H379.85V394.279H378.85ZM378.85 398.265V400.258H379.85V398.265H378.85ZM378.85 402.252V404.245H379.85V402.252H378.85ZM378.85 406.238V408.231H379.85V406.238H378.85ZM378.85 410.224V412.217H379.85V410.224H378.85ZM378.85 414.211V416.204H379.85V414.211H378.85ZM378.85 418.197V420.19H379.85V418.197H378.85ZM378.85 422.183V424.176H379.85V422.183H378.85ZM378.85 426.169V428.163H379.85V426.169H378.85ZM378.85 430.156V432.149H379.85V430.156H378.85ZM378.85 434.142V436.135H379.85V434.142H378.85ZM378.85 438.128V440.122H379.85V438.128H378.85ZM378.85 442.115V444.108H379.85V442.115H378.85ZM378.85 446.101V448.094H379.85V446.101H378.85ZM378.85 450.087V452.081H379.85V450.087H378.85ZM378.85 454.074V455.07H379.85V454.074H378.85ZM408.85 455.07V454.074H407.85V455.07H408.85ZM408.85 452.081V450.087H407.85V452.081H408.85ZM408.85 448.094V446.101H407.85V448.094H408.85ZM408.85 444.108V442.115H407.85V444.108H408.85ZM408.85 440.122V438.129H407.85V440.122H408.85ZM408.85 436.135V434.142H407.85V436.135H408.85ZM408.85 432.149V430.156H407.85V432.149H408.85ZM408.85 428.163V426.17H407.85V428.163H408.85ZM408.85 424.176V422.183H407.85V424.176H408.85ZM408.85 420.19V418.197H407.85V420.19H408.85ZM408.85 416.204V414.211H407.85V416.204H408.85ZM408.85 412.218V410.224H407.85V412.218H408.85ZM408.85 408.231V406.238H407.85V408.231H408.85ZM408.85 404.245V402.252H407.85V404.245H408.85ZM408.85 400.259V398.266H407.85V400.259H408.85ZM408.85 396.272V394.279H407.85V396.272H408.85ZM408.85 392.286V390.293H407.85V392.286H408.85ZM408.85 388.3V386.307H407.85V388.3H408.85ZM408.85 384.313V382.32H407.85V384.313H408.85ZM408.85 380.327V378.334H407.85V380.327H408.85ZM408.85 376.341V374.348H407.85V376.341H408.85ZM408.85 372.355V370.361H407.85V372.355H408.85ZM408.85 368.368V366.375H407.85V368.368H408.85ZM408.85 364.382V362.389H407.85V364.382H408.85ZM408.85 360.396V358.403H407.85V360.396H408.85ZM408.85 356.409V354.416H407.85V356.409H408.85ZM408.85 352.423V350.43H407.85V352.423H408.85ZM408.85 348.437V346.444H407.85V348.437H408.85ZM408.85 344.451V342.457H407.85V344.451H408.85ZM408.85 340.464V338.471H407.85V340.464H408.85ZM408.85 336.478V334.485H407.85V336.478H408.85ZM408.85 332.492V330.498H407.85V332.492H408.85ZM408.85 328.505V326.512H407.85V328.505H408.85ZM408.85 324.519V322.526H407.85V324.519H408.85ZM408.85 320.533V318.54H407.85V320.533H408.85ZM408.85 316.546V314.553H407.85V316.546H408.85ZM408.85 312.56V310.567H407.85V312.56H408.85ZM408.85 308.574V306.581H407.85V308.574H408.85ZM408.85 304.588V302.594H407.85V304.588H408.85ZM408.85 300.601V298.608H407.85V300.601H408.85ZM408.85 296.615V294.622H407.85V296.615H408.85ZM408.85 292.629V290.636H407.85V292.629H408.85ZM408.85 288.642V286.649H407.85V288.642H408.85ZM408.85 284.656V282.663H407.85V284.656H408.85ZM408.85 280.67V278.677H407.85V280.67H408.85ZM408.85 276.683V274.69H407.85V276.683H408.85ZM408.85 272.697V270.704H407.85V272.697H408.85ZM408.85 268.711V266.718H407.85V268.711H408.85ZM408.85 264.725V262.731H407.85V264.725H408.85ZM408.85 260.738V258.745H407.85V260.738H408.85ZM408.85 256.752V254.759H407.85V256.752H408.85ZM408.85 252.766V250.773H407.85V252.766H408.85ZM408.85 248.779V246.786H407.85V248.779H408.85ZM408.85 244.793V242.8H407.85V244.793H408.85ZM408.85 240.807V238.814H407.85V240.807H408.85ZM408.85 236.82V234.827H407.85V236.82H408.85ZM408.85 232.834V230.841H407.85V232.834H408.85ZM408.85 228.848V226.855H407.85V228.848H408.85ZM408.85 224.862V222.868H407.85V224.862H408.85ZM408.85 220.875V218.882H407.85V220.875H408.85ZM408.85 216.889V214.896H407.85V216.889H408.85ZM408.85 212.903V210.91H407.85V212.903H408.85ZM408.85 208.916V206.923H407.85V208.916H408.85ZM408.85 204.93V202.937H407.85V204.93H408.85ZM408.85 200.944V198.951H407.85V200.944H408.85ZM408.85 196.957V194.964H407.85V196.957H408.85ZM408.85 192.971V190.978H407.85V192.971H408.85ZM408.85 188.985V186.992H407.85V188.985H408.85ZM408.85 184.999V183.005H407.85V184.999H408.85ZM408.85 181.012V179.019H407.85V181.012H408.85ZM408.85 177.026V175.033H407.85V177.026H408.85ZM408.85 173.04V171.046H407.85V173.04H408.85ZM408.85 169.053V167.06H407.85V169.053H408.85ZM408.85 165.067V164.07H407.85V165.067H408.85Z" fill="#ABD4C1"/>
<path d="M758.35 164.07H787.35V455.07H758.35V164.07Z" fill="url(#paint2_linear_564_49301)"/>
<path d="M757.85 164.07V165.067H758.85V164.07H757.85ZM757.85 167.06V169.053H758.85V167.06H757.85ZM757.85 171.046V173.039H758.85V171.046H757.85ZM757.85 175.033V177.026H758.85V175.033H757.85ZM757.85 179.019V181.012H758.85V179.019H757.85ZM757.85 183.005V184.998H758.85V183.005H757.85ZM757.85 186.992V188.985H758.85V186.992H757.85ZM757.85 190.978V192.971H758.85V190.978H757.85ZM757.85 194.964V196.957H758.85V194.964H757.85ZM757.85 198.95V200.944H758.85V198.95H757.85ZM757.85 202.937V204.93H758.85V202.937H757.85ZM757.85 206.923V208.916H758.85V206.923H757.85ZM757.85 210.909V212.902H758.85V210.909H757.85ZM757.85 214.896V216.889H758.85V214.896H757.85ZM757.85 218.882V220.875H758.85V218.882H757.85ZM757.85 222.868V224.861H758.85V222.868H757.85ZM757.85 226.855V228.848H758.85V226.855H757.85ZM757.85 230.841V232.834H758.85V230.841H757.85ZM757.85 234.827V236.82H758.85V234.827H757.85ZM757.85 238.813V240.807H758.85V238.813H757.85ZM757.85 242.8V244.793H758.85V242.8H757.85ZM757.85 246.786V248.779H758.85V246.786H757.85ZM757.85 250.772V252.765H758.85V250.772H757.85ZM757.85 254.759V256.752H758.85V254.759H757.85ZM757.85 258.745V260.738H758.85V258.745H757.85ZM757.85 262.731V264.724H758.85V262.731H757.85ZM757.85 266.717V268.711H758.85V266.717H757.85ZM757.85 270.704V272.697H758.85V270.704H757.85ZM757.85 274.69V276.683H758.85V274.69H757.85ZM757.85 278.676V280.67H758.85V278.676H757.85ZM757.85 282.663V284.656H758.85V282.663H757.85ZM757.85 286.649V288.642H758.85V286.649H757.85ZM757.85 290.635V292.628H758.85V290.635H757.85ZM757.85 294.622V296.615H758.85V294.622H757.85ZM757.85 298.608V300.601H758.85V298.608H757.85ZM757.85 302.594V304.587H758.85V302.594H757.85ZM757.85 306.58V308.574H758.85V306.58H757.85ZM757.85 310.567V312.56H758.85V310.567H757.85ZM757.85 314.553V316.546H758.85V314.553H757.85ZM757.85 318.539V320.533H758.85V318.539H757.85ZM757.85 322.526V324.519H758.85V322.526H757.85ZM757.85 326.512V328.505H758.85V326.512H757.85ZM757.85 330.498V332.491H758.85V330.498H757.85ZM757.85 334.485V336.478H758.85V334.485H757.85ZM757.85 338.471V340.464H758.85V338.471H757.85ZM757.85 342.457V344.45H758.85V342.457H757.85ZM757.85 346.443V348.437H758.85V346.443H757.85ZM757.85 350.43V352.423H758.85V350.43H757.85ZM757.85 354.416V356.409H758.85V354.416H757.85ZM757.85 358.402V360.396H758.85V358.402H757.85ZM757.85 362.389V364.382H758.85V362.389H757.85ZM757.85 366.375V368.368H758.85V366.375H757.85ZM757.85 370.361V372.354H758.85V370.361H757.85ZM757.85 374.348V376.341H758.85V374.348H757.85ZM757.85 378.334V380.327H758.85V378.334H757.85ZM757.85 382.32V384.313H758.85V382.32H757.85ZM757.85 386.306V388.3H758.85V386.306H757.85ZM757.85 390.293V392.286H758.85V390.293H757.85ZM757.85 394.279V396.272H758.85V394.279H757.85ZM757.85 398.265V400.258H758.85V398.265H757.85ZM757.85 402.252V404.245H758.85V402.252H757.85ZM757.85 406.238V408.231H758.85V406.238H757.85ZM757.85 410.224V412.217H758.85V410.224H757.85ZM757.85 414.211V416.204H758.85V414.211H757.85ZM757.85 418.197V420.19H758.85V418.197H757.85ZM757.85 422.183V424.176H758.85V422.183H757.85ZM757.85 426.169V428.163H758.85V426.169H757.85ZM757.85 430.156V432.149H758.85V430.156H757.85ZM757.85 434.142V436.135H758.85V434.142H757.85ZM757.85 438.128V440.122H758.85V438.128H757.85ZM757.85 442.115V444.108H758.85V442.115H757.85ZM757.85 446.101V448.094H758.85V446.101H757.85ZM757.85 450.087V452.081H758.85V450.087H757.85ZM757.85 454.074V455.07H758.85V454.074H757.85ZM787.85 455.07V454.074H786.85V455.07H787.85ZM787.85 452.081V450.087H786.85V452.081H787.85ZM787.85 448.094V446.101H786.85V448.094H787.85ZM787.85 444.108V442.115H786.85V444.108H787.85ZM787.85 440.122V438.129H786.85V440.122H787.85ZM787.85 436.135V434.142H786.85V436.135H787.85ZM787.85 432.149V430.156H786.85V432.149H787.85ZM787.85 428.163V426.17H786.85V428.163H787.85ZM787.85 424.176V422.183H786.85V424.176H787.85ZM787.85 420.19V418.197H786.85V420.19H787.85ZM787.85 416.204V414.211H786.85V416.204H787.85ZM787.85 412.218V410.224H786.85V412.218H787.85ZM787.85 408.231V406.238H786.85V408.231H787.85ZM787.85 404.245V402.252H786.85V404.245H787.85ZM787.85 400.259V398.266H786.85V400.259H787.85ZM787.85 396.272V394.279H786.85V396.272H787.85ZM787.85 392.286V390.293H786.85V392.286H787.85ZM787.85 388.3V386.307H786.85V388.3H787.85ZM787.85 384.313V382.32H786.85V384.313H787.85ZM787.85 380.327V378.334H786.85V380.327H787.85ZM787.85 376.341V374.348H786.85V376.341H787.85ZM787.85 372.355V370.361H786.85V372.355H787.85ZM787.85 368.368V366.375H786.85V368.368H787.85ZM787.85 364.382V362.389H786.85V364.382H787.85ZM787.85 360.396V358.403H786.85V360.396H787.85ZM787.85 356.409V354.416H786.85V356.409H787.85ZM787.85 352.423V350.43H786.85V352.423H787.85ZM787.85 348.437V346.444H786.85V348.437H787.85ZM787.85 344.451V342.457H786.85V344.451H787.85ZM787.85 340.464V338.471H786.85V340.464H787.85ZM787.85 336.478V334.485H786.85V336.478H787.85ZM787.85 332.492V330.498H786.85V332.492H787.85ZM787.85 328.505V326.512H786.85V328.505H787.85ZM787.85 324.519V322.526H786.85V324.519H787.85ZM787.85 320.533V318.54H786.85V320.533H787.85ZM787.85 316.546V314.553H786.85V316.546H787.85ZM787.85 312.56V310.567H786.85V312.56H787.85ZM787.85 308.574V306.581H786.85V308.574H787.85ZM787.85 304.588V302.594H786.85V304.588H787.85ZM787.85 300.601V298.608H786.85V300.601H787.85ZM787.85 296.615V294.622H786.85V296.615H787.85ZM787.85 292.629V290.636H786.85V292.629H787.85ZM787.85 288.642V286.649H786.85V288.642H787.85ZM787.85 284.656V282.663H786.85V284.656H787.85ZM787.85 280.67V278.677H786.85V280.67H787.85ZM787.85 276.683V274.69H786.85V276.683H787.85ZM787.85 272.697V270.704H786.85V272.697H787.85ZM787.85 268.711V266.718H786.85V268.711H787.85ZM787.85 264.725V262.731H786.85V264.725H787.85ZM787.85 260.738V258.745H786.85V260.738H787.85ZM787.85 256.752V254.759H786.85V256.752H787.85ZM787.85 252.766V250.773H786.85V252.766H787.85ZM787.85 248.779V246.786H786.85V248.779H787.85ZM787.85 244.793V242.8H786.85V244.793H787.85ZM787.85 240.807V238.814H786.85V240.807H787.85ZM787.85 236.82V234.827H786.85V236.82H787.85ZM787.85 232.834V230.841H786.85V232.834H787.85ZM787.85 228.848V226.855H786.85V228.848H787.85ZM787.85 224.862V222.868H786.85V224.862H787.85ZM787.85 220.875V218.882H786.85V220.875H787.85ZM787.85 216.889V214.896H786.85V216.889H787.85ZM787.85 212.903V210.91H786.85V212.903H787.85ZM787.85 208.916V206.923H786.85V208.916H787.85ZM787.85 204.93V202.937H786.85V204.93H787.85ZM787.85 200.944V198.951H786.85V200.944H787.85ZM787.85 196.957V194.964H786.85V196.957H787.85ZM787.85 192.971V190.978H786.85V192.971H787.85ZM787.85 188.985V186.992H786.85V188.985H787.85ZM787.85 184.999V183.005H786.85V184.999H787.85ZM787.85 181.012V179.019H786.85V181.012H787.85ZM787.85 177.026V175.033H786.85V177.026H787.85ZM787.85 173.04V171.046H786.85V173.04H787.85ZM787.85 169.053V167.06H786.85V169.053H787.85ZM787.85 165.067V164.07H786.85V165.067H787.85Z" fill="#ABD4C1"/>
<rect x="291.35" y="364.07" width="30" height="91" fill="white"/>
<rect x="291.35" y="364.07" width="30" height="91" stroke="#ABD4C1"/>
<rect x="321.35" y="339.07" width="29" height="116" fill="#ABD4C1"/>
<rect x="321.35" y="339.07" width="29" height="116" stroke="#508C6D"/>
<rect x="350.35" y="324.07" width="29" height="131" fill="#ABD4C1"/>
<rect x="350.35" y="324.07" width="29" height="131" stroke="#508C6D"/>
<rect x="379.35" y="317.07" width="29" height="138" fill="#58A982"/>
<rect x="379.35" y="317.07" width="29" height="138" stroke="#508C6D"/>
<rect x="408.35" y="321.07" width="29" height="134" fill="#ABD4C1"/>
<rect x="408.35" y="321.07" width="29" height="134" stroke="#508C6D"/>
<rect x="437.35" y="329.07" width="29" height="126" fill="#58A982"/>
<rect x="437.35" y="329.07" width="29" height="126" stroke="#508C6D"/>
<rect x="466.35" y="346.07" width="29" height="109" fill="#58A982"/>
<rect x="466.35" y="346.07" width="29" height="109" stroke="#508C6D"/>
<rect x="495.35" y="371.07" width="30" height="84" fill="white"/>
<rect x="495.35" y="371.07" width="30" height="84" stroke="#ABD4C1"/>
<rect x="525.35" y="388.07" width="29" height="67" fill="white"/>
<rect x="525.35" y="388.07" width="29" height="67" stroke="#ABD4C1"/>
<rect x="554.35" y="378.07" width="29" height="77" fill="white"/>
<rect x="554.35" y="378.07" width="29" height="77" stroke="#ABD4C1"/>
<rect x="583.35" y="378.07" width="29" height="77" fill="white"/>
<rect x="583.35" y="378.07" width="29" height="77" stroke="#ABD4C1"/>
<rect x="612.35" y="368.07" width="29" height="87" fill="#D9D2C3"/>
<rect x="612.35" y="368.07" width="29" height="87" stroke="#508C6D"/>
<rect x="641.35" y="360.07" width="29" height="95" fill="#C1B8A6"/>
<rect x="641.35" y="360.07" width="29" height="95" stroke="#508C6D"/>
<rect x="670.35" y="354.07" width="30" height="101" fill="#D9D2C3"/>
<rect x="670.35" y="354.07" width="30" height="101" stroke="#508C6D"/>
<rect x="700.35" y="349.07" width="29" height="106" fill="#D9D2C3"/>
<rect x="700.35" y="349.07" width="29" height="106" stroke="#508C6D"/>
<rect x="729.35" y="349.07" width="29" height="106" fill="#FFF5D6"/>
<rect x="729.35" y="349.07" width="29" height="106" stroke="#EAC053"/>
<rect x="758.35" y="349.07" width="29" height="106" fill="#FFECB3"/>
<rect x="758.35" y="349.07" width="29" height="106" stroke="#EAC053"/>
<rect x="904.35" y="378.07" width="29" height="77" fill="white"/>
<rect x="904.35" y="378.07" width="29" height="77" stroke="#ABD4C1"/>
<rect x="933.35" y="402.07" width="29" height="53" fill="white"/>
<rect x="933.35" y="402.07" width="29" height="53" stroke="#ABD4C1"/>
<rect x="962.35" y="416.07" width="29" height="39" fill="white"/>
<rect x="962.35" y="416.07" width="29" height="39" stroke="#ABD4C1"/>
<rect x="991.35" y="423.07" width="29" height="32" fill="white"/>
<rect x="991.35" y="423.07" width="29" height="32" stroke="#ABD4C1"/>
<rect x="1020.35" y="433.07" width="29" height="22" fill="white"/>
<rect x="1020.35" y="433.07" width="29" height="22" stroke="#ABD4C1"/>
<rect x="1049.35" y="443.07" width="29" height="12" fill="white"/>
<rect x="1049.35" y="443.07" width="29" height="12" stroke="#ABD4C1"/>
<rect x="1078.35" y="450.299" width="23" height="4.77246" fill="white"/>
<rect x="1078.35" y="450.299" width="23" height="4.77246" stroke="#ABD4C1"/>
<rect x="787.35" y="354.07" width="29" height="101" fill="#FFF5D6"/>
<rect x="787.35" y="354.07" width="29" height="101" stroke="#EAC053"/>
<rect x="816.35" y="349.07" width="29" height="106" fill="#FFF5D6"/>
<rect x="816.35" y="349.07" width="29" height="106" stroke="#EAC053"/>
<rect x="845.35" y="354.07" width="29" height="101" fill="#FFECB3"/>
<rect x="845.35" y="354.07" width="29" height="101" stroke="#EAC053"/>
<rect x="874.35" y="356.07" width="30" height="99" fill="#FFF5D6"/>
<rect x="874.35" y="356.07" width="30" height="99" stroke="#EAC053"/>
<path d="M655.535 129.817C656.093 129.944 656.56 129.883 657.673 129.54C659.7 128.914 662.905 128.914 662.905 129.539C662.905 129.667 663.792 130.179 664.874 130.678L666.843 131.584L666.73 132.296C666.656 132.762 666.707 133.152 666.879 133.426C667.383 134.231 667.44 135.908 666.995 136.832C666.434 138 666.337 139.38 666.694 141.119C666.986 142.539 666.984 142.604 666.623 143.191C666.07 144.092 666.157 144.661 667.165 146.734C668.595 149.674 668.572 149.814 666.622 150.053C666.216 150.104 666.156 150.204 666.148 150.859C666.143 151.27 666.085 151.733 666.02 151.887C665.954 152.041 665.86 152.546 665.809 153.009C665.758 153.471 665.66 154.127 665.59 154.465C665.519 154.807 665.565 155.446 665.693 155.906C666.202 157.734 665.002 158.688 662.877 158.145C659.225 157.213 659.794 157.916 663.695 159.157C675.833 163.019 676.281 163.258 676.657 166.097C677.219 170.344 678.832 175.187 680.076 176.363C680.439 176.705 680.505 176.882 680.367 177.142C679.937 177.951 680.154 178.447 681.51 179.753C682.826 181.021 682.831 181.03 682.72 181.835C682.211 185.506 682.514 186.904 684.092 188.161L684.818 188.739L684.455 189.337C684.007 190.076 683.995 190.649 684.41 191.357C684.687 191.829 684.697 191.98 684.484 192.508C684.021 193.654 684.041 193.837 684.728 194.742C685.516 195.78 685.519 195.807 684.939 196.666C684.259 197.675 684.087 201.338 684.245 211.438L684.306 215.364L683.235 215.502C681.919 215.671 681.937 215.643 681.808 217.857C681.679 220.099 681.56 220.427 679.161 225.208C677.942 227.637 677.215 229.302 677.215 229.663C677.215 230.52 676.802 231.357 675.988 232.15L675.264 232.857L675.267 238.695C675.269 241.905 675.38 249.623 675.514 255.844C675.857 271.838 675.707 273.078 672.865 277.802C671.798 279.577 671.46 280.73 671.167 283.594C670.839 286.797 670.57 287.566 669.289 288.968C668.488 289.845 668.295 290.183 668.295 290.703C668.295 291.221 668.185 291.413 667.737 291.679L667.18 292.011V294.827C667.18 297.877 667.353 299.677 667.953 302.868C668.891 307.849 667.721 309.873 663.901 309.878C660.294 309.882 658.49 308.547 657.879 305.423C657.715 304.585 657.592 304.306 657.45 304.45C657.18 304.721 657.272 307.44 657.565 307.833C657.691 308.003 658.067 308.504 658.4 308.946C659.558 310.487 659.601 311.694 658.62 315.124C658.229 316.491 658.074 317.438 658.074 318.463C658.074 321.072 657.515 321.283 651.502 320.949C645.778 320.631 645.447 320.486 645.703 318.426C645.892 316.903 646.319 316.257 647.576 315.594C649.197 314.739 650.043 312.924 650.384 309.577L650.502 308.425L649.54 308.217C646.991 307.667 646.038 305.894 646.731 302.988C647.078 301.535 646.413 300.481 644.408 299.304C644.085 299.114 644.09 299.062 644.514 298.182C645.115 296.934 645.083 295.308 644.346 289.686C644.029 287.27 643.598 283.736 643.389 281.833C643.052 278.775 642.909 278.083 642.155 275.858C641.136 272.853 641.091 271.999 641.795 269.093C642.433 266.462 642.417 265.101 641.711 262.197C641.123 259.775 640.804 257.262 640.796 254.989C640.789 253.118 640.324 250.591 639.383 247.308C638.087 242.789 637.462 239.298 637.158 234.88L637.034 233.08L636.357 232.871C635.158 232.499 635.166 232.519 635.566 230.775C638.214 219.241 638.366 217.546 637.169 212.862C636.183 209 636.246 207.487 637.492 205.01C638.531 202.946 638.553 202.661 637.946 199.112C637.371 195.753 636.703 196.004 636.703 199.579C636.703 201.112 636.692 201.15 636.045 201.817C635.392 202.49 635.388 202.501 635.613 203.346C636.001 204.805 635.676 206.121 632.53 215.832C631.68 218.454 630.792 221.483 630.556 222.563C630.32 223.643 630.018 224.593 629.884 224.676C629.515 224.903 629.59 225.367 630.122 226.139C630.386 226.523 630.793 227.591 631.026 228.513C631.259 229.434 631.585 230.383 631.751 230.62C632.041 231.038 632.047 231.879 631.772 233.652L631.69 234.177L632.227 233.792C633.322 233.008 634.099 233.45 633.826 234.701C633.628 235.605 633.126 235.903 631.773 235.918C630.327 235.934 630.324 235.946 631.506 236.853C632.57 237.669 632.871 238.122 632.705 238.65C632.405 239.601 629.697 238.099 627.084 235.533L625.155 233.639L624.802 230.017C624.607 228.025 624.446 226.214 624.443 225.993C624.439 225.669 624.235 225.525 623.409 225.264C622.116 224.855 622.18 225.109 622.686 222.376C623.318 218.953 623.701 213.89 623.648 209.645L623.601 205.983L624.587 204C625.74 201.679 625.886 201.031 625.478 200.047C625.081 199.091 625.094 198.985 625.732 197.941C626.474 196.729 626.767 193.975 626.58 189.977C626.446 187.095 626.425 185.647 626.494 183.953C626.515 183.439 626.469 182.471 626.393 181.803C626.263 180.671 626.293 180.508 626.832 179.442C627.542 178.039 627.585 176.903 627.03 174.233C626.596 172.139 626.658 171.58 627.452 170.464C627.971 169.734 627.995 169.622 627.874 168.483C627.75 167.322 627.765 167.26 628.25 166.876C629.174 166.144 633.495 164.047 637.757 162.261C643.543 159.835 643.547 159.833 644.229 157.227C644.643 155.642 645.566 154.61 647.162 153.944C648.936 153.204 648.822 151.764 646.616 147.04C644.903 143.372 644.635 141.416 645.515 138.986C645.757 138.317 646.286 136.827 646.691 135.675C647.837 132.415 648.075 132.178 651.578 130.792C654.414 129.669 654.642 129.613 655.535 129.817Z" fill="#C1B8A6" stroke="#A59D88"/>
<path d="M771.781 132.194C773.1 131.306 773.795 131.074 775.842 130.84C780.798 130.274 782.877 130.734 785.384 132.955C787.348 134.694 788.1 135.889 788.866 138.486C789.693 141.289 791.225 145.727 792.55 149.153C794.255 153.561 794.555 155.555 793.886 158.008C793.277 160.239 793.815 162.946 795.105 164.149C795.491 164.51 796.209 165.177 796.699 165.633C799.574 168.304 799.567 172.386 796.674 178.498C796.261 179.371 795.558 181.089 795.113 182.315C794.163 184.93 793.58 186.136 792.786 187.128C792.221 187.833 792.205 187.911 792.068 190.573C791.921 193.415 791.596 195.004 790.671 197.394C789.212 201.167 788.87 202.241 788.662 203.698L788.436 205.294L789.69 207.862C791.977 212.544 793.124 216.33 793.816 221.475C793.921 222.262 794.079 227.683 794.166 233.521C794.345 245.517 794.47 247.052 795.711 252.382C795.932 253.333 796.08 254.135 796.041 254.164C795.412 254.618 790.278 256.306 787.45 256.988L785.746 257.399L785.687 259.054C785.655 259.964 785.726 261.373 785.845 262.184C786.04 263.52 786.354 264.63 788.269 270.765C790.769 278.77 790.331 286.45 786.799 296.536C783.931 304.723 783.729 306.319 784.957 311.065C786.128 315.59 785.928 316.525 783.657 317.129C782.696 317.385 782.011 317.75 780.759 318.674C774.823 323.058 765.672 324.053 765.684 320.313C765.686 319.639 765.643 319.109 765.589 319.136C765.535 319.163 764.894 319.489 764.166 319.861C758.058 322.97 755.476 318.809 760.22 313.503C764.706 308.486 764.972 303.708 761.215 295.619C758.692 290.183 758.225 288.958 755.544 280.728C753.995 275.974 752.607 272.315 751.599 270.332C750.053 267.29 749.627 265.011 749.556 259.413L749.497 254.765L748.218 254.309C747.515 254.057 746.901 253.821 746.855 253.783C746.808 253.746 747.092 253.083 747.486 252.31C748.788 249.753 749.645 246.567 750.911 239.573C752.5 230.789 754.217 223.236 755.716 218.437C756.447 216.098 757.251 213.055 757.908 210.15C758.161 209.03 758.212 207.963 758.166 204.757L758.108 200.762L757.313 200.536C751.852 198.981 747.513 194.106 748.093 190.176C748.537 187.171 748.782 186.529 750.061 185.027C751.375 183.483 751.718 182.87 752.413 180.82C752.691 180.001 753.255 178.686 753.667 177.898C754.079 177.11 754.417 176.262 754.417 176.014C754.417 175.767 754.68 175.238 755.003 174.84C755.984 173.628 756.447 172.691 756.772 171.252C757.105 169.777 757.434 169.018 757.906 168.633C758.069 168.5 758.203 168.128 758.203 167.807C758.203 167.486 758.296 166.931 758.41 166.573C758.523 166.215 758.643 164.749 758.675 163.315C758.739 160.408 759.197 157.741 760.088 155.081C761.833 149.873 764.071 140.773 764.071 138.887V137.505L765.378 136.237C766.362 135.283 767.169 134.725 768.638 133.982C769.711 133.44 771.126 132.635 771.781 132.194Z" fill="#FFECB3" stroke="#EAC053"/>
<path fill-rule="evenodd" clip-rule="evenodd" d="M402.717 100.261C402.673 100.305 402.02 100.383 401.264 100.434C399.625 100.546 397.615 101.446 396.389 102.618C395.502 103.466 395.544 103.447 395.458 103.024C395.412 102.796 395.231 102.978 394.857 103.63C394.563 104.143 394.178 104.73 394.002 104.935C392.841 106.289 392.101 108.857 392.07 111.645C392.057 112.772 391.934 114.261 391.796 114.953C391.346 117.212 392.247 120.469 393.448 120.924C394.108 121.175 394.153 121.273 394.31 122.813C394.49 124.576 394.314 125.239 393.543 125.695C393.189 125.905 392.503 126.638 392.018 127.325C390.015 130.162 390.038 130.146 386.06 131.48C379.379 133.721 376.571 135.187 376.571 136.434C376.571 137.08 376.328 137.517 375.232 138.842C373.331 141.139 373.113 142.04 372.97 148.176C372.873 152.341 372.657 154.575 371.834 159.918C370.922 165.833 370.923 168.323 371.835 176.04C372.084 178.142 372.379 181.413 372.491 183.309C372.74 187.516 373.121 188.899 373.833 188.185C374.203 187.813 374.298 187.939 374.426 188.966C374.652 190.788 375.34 192.569 376.328 193.892C376.718 194.415 376.792 194.74 376.836 196.129C376.876 197.393 377.013 198.091 377.452 199.272C379.051 203.578 379.28 207.26 378.372 214.063C377.411 221.259 377.392 222.354 378.174 225.375C378.241 225.632 378.135 225.99 377.89 226.336C377.436 226.976 377.408 227.393 377.777 228.041C378.265 228.899 378.128 229.967 377.409 230.913C377.054 231.381 376.587 232.331 376.372 233.024C376.157 233.718 375.784 234.83 375.544 235.497C373.642 240.759 372.945 252.421 373.887 263.21C374.249 267.362 374.065 268.367 372.657 269.917C371.863 270.791 371.856 270.616 372.791 273.18L373.313 274.611L372.905 275.882C372.681 276.581 372.032 277.95 371.463 278.924C369.185 282.82 368.436 285.059 368.268 288.465L368.17 290.457L368.711 291C369.539 291.832 373.854 292.472 375.332 291.982C376.785 291.5 377.998 289.747 378.551 287.329C379.088 284.985 379.554 283.575 380.106 282.636C381.181 280.804 381.272 280.461 381.291 278.169C381.308 276.026 381.311 276.012 381.91 275.282C383.069 273.869 383.204 273.158 382.598 271.645L382.075 270.341L382.5 268.982C382.934 267.59 382.822 266.768 382.139 266.344C381.611 266.016 382.782 260.964 385.422 252.178C386.192 249.615 387.022 246.847 387.267 246.027C387.954 243.73 388.393 241.285 388.725 237.92C389.325 231.816 390.602 227.482 391.799 227.482C392.263 227.482 392.251 227.395 391.693 226.66C390.988 225.731 392.037 222.605 393.557 221.102C394.284 220.384 394.424 220.09 395.004 218.07C395.357 216.84 396.21 213.988 396.898 211.733C397.587 209.477 398.322 207.066 398.531 206.374C398.944 205.01 399.116 204.833 399.257 205.629C399.308 205.911 399.645 207.777 400.008 209.776C400.914 214.77 401.198 216.972 401.612 222.195C401.843 225.111 402.071 226.938 402.258 227.39C402.642 228.313 402.624 228.839 402.177 229.719C401.661 230.734 401.71 231.216 402.424 232.161C403.603 233.724 403.707 234.746 403.105 238.852C402.634 242.057 402.638 244.467 403.123 249.983C403.617 255.602 403.549 260.321 402.942 262.599C402.448 264.449 402.449 264.929 402.95 265.894L403.351 266.668L402.95 268.039C402.444 269.768 402.429 270.79 402.905 271.268C403.238 271.602 403.244 271.688 402.998 272.509C402.355 274.656 402.685 276.462 404.375 280.055C404.975 281.329 405.707 283.08 406.001 283.946C406.396 285.102 406.734 285.725 407.28 286.296L408.022 287.073L409.97 287.182C415.761 287.505 416.902 283.323 412.909 276.408C410.412 272.083 410.31 271.772 411.328 271.581C413.749 271.124 414.622 269.237 413.31 267.297C412.438 266.007 412.422 265.846 413.032 264.461C413.626 263.112 413.616 262.511 412.985 261.553C412.294 260.504 412.335 259.623 413.158 257.858C414.056 255.93 414.331 254.998 414.888 251.992C415.154 250.556 415.661 248.476 416.015 247.368L416.659 245.354L416.608 241.684L416.557 238.013L417.372 236.338C418.615 233.784 418.545 233.194 416.577 229.669C415.568 227.863 415.509 226.798 416.292 224.593L416.888 222.916L417.001 217.977L417.114 213.037L418.258 210.614C420.075 206.765 420.351 205.583 420.498 201.031L420.602 197.784L422.444 196.009C423.457 195.032 424.414 193.984 424.57 193.68C425.145 192.564 425.554 191.058 425.673 189.624C425.767 188.494 425.86 188.155 426.075 188.155C426.315 188.155 426.337 187.844 426.229 185.932C426.105 183.719 426.106 183.709 426.526 183.649C427.341 183.533 427.397 172.797 426.61 167.617C426.246 165.222 426.179 164.352 426.322 163.833C426.462 163.324 426.438 162.945 426.225 162.284C426.069 161.803 425.85 160.486 425.738 159.359C425.009 152.031 424.397 148.443 423.247 144.759C422.743 143.145 422.588 142.325 422.588 141.283C422.588 140.017 422.539 139.848 421.905 138.922C421.471 138.287 421.184 137.62 421.117 137.086L421.01 136.247L414.98 133.224C408.446 129.949 408.508 129.993 407.191 127.707C406.3 126.161 406.305 126.215 406.99 125.725C407.69 125.224 408.463 123.635 408.609 122.397C408.702 121.606 408.788 121.43 409.08 121.43C409.684 121.43 410.117 121.088 410.318 120.453C410.807 118.911 411.123 116.434 411.035 114.847C410.964 113.57 411.015 113.009 411.266 112.331C411.739 111.056 411.893 107.788 411.544 106.443C411.393 105.86 411.269 105.353 411.269 105.316C411.269 105.279 411.451 105.297 411.673 105.355C412.18 105.488 411.239 104.233 410.323 103.553C409.893 103.234 409.81 103.079 409.966 102.89C410.123 102.7 410.03 102.557 409.559 102.265C408.736 101.755 406.588 100.742 406.328 100.741C406.213 100.741 406.015 100.615 405.888 100.462C405.673 100.202 402.947 100.029 402.717 100.261ZM416.093 160.273C416.093 162.969 416.826 168.052 417.787 172.033C418.036 173.061 418.199 174.696 418.313 177.298C418.48 181.099 418.997 183.416 419.595 183.044C419.85 182.886 419.99 183.409 419.99 184.525C419.99 185.074 420.081 185.581 420.193 185.65C420.651 185.934 419.662 189.255 418.941 189.856C418.47 190.248 418.133 189.145 416.941 183.309C415.224 174.901 414.87 170.074 415.445 162.9C415.593 161.055 415.716 159.441 415.718 159.312C415.72 159.184 415.806 159.079 415.908 159.079C416.012 159.079 416.093 159.602 416.093 160.273ZM381.642 166.208C382.062 180.726 382.011 185.173 381.424 185.173C380.439 185.173 379.977 172.467 380.729 166.069C381.359 160.715 381.484 160.734 381.642 166.208ZM380.757 186.932C381.098 187.186 381.1 187.218 380.797 187.527C380.428 187.903 380.378 187.874 380.212 187.177C380.075 186.603 380.225 186.536 380.757 186.932Z" fill="#58A982" stroke="#508C6D"/>
<path d="M483.025 232.387H485.07V238.937H486.811L492.773 232.387H495.211L488.552 239.655L495.428 247.619H492.817L486.811 240.634H485.07V247.619H483.025V232.387ZM500.899 247.837C500.261 247.837 499.695 247.75 499.202 247.576C498.723 247.387 498.317 247.133 497.984 246.814C497.65 246.495 497.396 246.118 497.222 245.682C497.048 245.247 496.961 244.769 496.961 244.246C496.961 243.1 497.294 242.273 497.962 241.766C498.644 241.258 499.616 241.004 500.878 241.004H504.62V240.221C504.62 239.234 504.396 238.552 503.946 238.175C503.511 237.798 502.851 237.609 501.966 237.609C501.139 237.609 500.537 237.769 500.16 238.088C499.782 238.393 499.572 238.741 499.529 239.133H497.614C497.643 238.668 497.766 238.24 497.984 237.849C498.216 237.443 498.52 237.094 498.897 236.804C499.289 236.514 499.753 236.289 500.29 236.13C500.827 235.956 501.422 235.869 502.074 235.869C503.438 235.869 504.519 236.195 505.317 236.848C506.129 237.486 506.535 238.538 506.535 240.003V244.681C506.535 245.291 506.535 245.828 506.535 246.292C506.55 246.741 506.586 247.184 506.644 247.619H504.969C504.925 247.285 504.896 246.974 504.882 246.683C504.867 246.379 504.86 246.038 504.86 245.661C504.555 246.27 504.062 246.785 503.38 247.206C502.698 247.626 501.871 247.837 500.899 247.837ZM501.313 246.096C501.763 246.096 502.183 246.038 502.575 245.922C502.981 245.791 503.337 245.61 503.641 245.378C503.946 245.131 504.185 244.834 504.359 244.486C504.533 244.137 504.62 243.731 504.62 243.267V242.484H501.204C500.493 242.484 499.935 242.629 499.529 242.919C499.122 243.195 498.919 243.637 498.919 244.246C498.919 244.783 499.108 245.226 499.485 245.574C499.877 245.922 500.486 246.096 501.313 246.096ZM509.918 236.086H511.832V240.895H517.795V236.086H519.71V247.619H517.795V242.592H511.832V247.619H509.918V236.086ZM526.485 247.837C525.847 247.837 525.281 247.75 524.788 247.576C524.309 247.387 523.903 247.133 523.569 246.814C523.235 246.495 522.981 246.118 522.807 245.682C522.633 245.247 522.546 244.769 522.546 244.246C522.546 243.1 522.88 242.273 523.547 241.766C524.229 241.258 525.201 241.004 526.463 241.004H530.206V240.221C530.206 239.234 529.981 238.552 529.531 238.175C529.096 237.798 528.436 237.609 527.551 237.609C526.724 237.609 526.122 237.769 525.745 238.088C525.368 238.393 525.157 238.741 525.114 239.133H523.199C523.228 238.668 523.351 238.24 523.569 237.849C523.801 237.443 524.106 237.094 524.483 236.804C524.875 236.514 525.339 236.289 525.876 236.13C526.412 235.956 527.007 235.869 527.66 235.869C529.024 235.869 530.104 236.195 530.902 236.848C531.715 237.486 532.121 238.538 532.121 240.003V244.681C532.121 245.291 532.121 245.828 532.121 246.292C532.135 246.741 532.172 247.184 532.23 247.619H530.554C530.51 247.285 530.481 246.974 530.467 246.683C530.452 246.379 530.445 246.038 530.445 245.661C530.141 246.27 529.647 246.785 528.965 247.206C528.284 247.626 527.457 247.837 526.485 247.837ZM526.898 246.096C527.348 246.096 527.769 246.038 528.16 245.922C528.567 245.791 528.922 245.61 529.227 245.378C529.531 245.131 529.771 244.834 529.945 244.486C530.119 244.137 530.206 243.731 530.206 243.267V242.484H526.789C526.079 242.484 525.52 242.629 525.114 242.919C524.708 243.195 524.505 243.637 524.505 244.246C524.505 244.783 524.693 245.226 525.07 245.574C525.462 245.922 526.071 246.096 526.898 246.096ZM534.959 247.837C534.741 247.837 534.524 247.815 534.306 247.771V245.857C534.379 245.871 534.487 245.878 534.633 245.878C534.952 245.878 535.227 245.777 535.459 245.574C535.706 245.371 535.902 245.015 536.047 244.507C536.192 244 536.301 243.311 536.373 242.44C536.446 241.57 536.482 240.467 536.482 239.133V236.086H544.751V247.619H542.836V237.783H538.397V239.568C538.397 241.178 538.325 242.513 538.179 243.572C538.034 244.631 537.817 245.479 537.527 246.118C537.251 246.741 536.896 247.184 536.46 247.445C536.025 247.706 535.525 247.837 534.959 247.837Z" fill="#333333"/>
<path d="M917.399 261.887H929.367V277.119H927.322V263.671H919.445V277.119H917.399V261.887ZM938.072 277.337C937.332 277.337 936.628 277.221 935.961 276.989C935.293 276.742 934.706 276.379 934.198 275.901C933.69 275.407 933.284 274.791 932.98 274.051C932.675 273.311 932.523 272.448 932.523 271.461V271.026C932.523 270.098 932.675 269.278 932.98 268.567C933.284 267.856 933.69 267.269 934.198 266.805C934.706 266.326 935.293 265.971 935.961 265.738C936.628 265.492 937.332 265.369 938.072 265.369C938.811 265.369 939.515 265.492 940.182 265.738C940.85 265.971 941.437 266.326 941.945 266.805C942.453 267.269 942.859 267.856 943.163 268.567C943.468 269.278 943.62 270.098 943.62 271.026V271.461C943.62 272.448 943.468 273.311 943.163 274.051C942.859 274.791 942.453 275.407 941.945 275.901C941.437 276.379 940.85 276.742 940.182 276.989C939.515 277.221 938.811 277.337 938.072 277.337ZM938.072 275.596C938.507 275.596 938.942 275.523 939.377 275.378C939.812 275.219 940.197 274.979 940.53 274.66C940.864 274.327 941.132 273.899 941.336 273.376C941.553 272.854 941.662 272.216 941.662 271.461V271.026C941.662 270.33 941.553 269.735 941.336 269.242C941.132 268.749 940.864 268.342 940.53 268.023C940.197 267.704 939.812 267.472 939.377 267.327C938.942 267.182 938.507 267.109 938.072 267.109C937.636 267.109 937.201 267.182 936.766 267.327C936.331 267.472 935.946 267.704 935.613 268.023C935.279 268.342 935.003 268.749 934.786 269.242C934.583 269.735 934.481 270.33 934.481 271.026V271.461C934.481 272.216 934.583 272.854 934.786 273.376C935.003 273.899 935.279 274.327 935.613 274.66C935.946 274.979 936.331 275.219 936.766 275.378C937.201 275.523 937.636 275.596 938.072 275.596ZM944.814 275.422H946.228C946.388 275.204 946.533 274.871 946.663 274.421C946.794 273.971 946.91 273.442 947.012 272.832C947.113 272.223 947.186 271.563 947.229 270.852C947.287 270.127 947.316 269.387 947.316 268.633V265.586H955.368V275.422H957V279.839H955.172V277.119H946.642V279.839H944.814V275.422ZM953.453 275.422V267.283H949.188V269.068C949.188 269.677 949.166 270.286 949.122 270.896C949.079 271.49 949.014 272.063 948.927 272.615C948.839 273.152 948.731 273.666 948.6 274.16C948.484 274.638 948.346 275.059 948.187 275.422H953.453ZM959.295 265.586H961.21V270.417H962.733L967.041 265.586H969.304L964.3 271.113L969.522 277.119H967.085L962.733 272.071H961.21V277.119H959.295V265.586ZM974.884 277.337C974.246 277.337 973.68 277.25 973.187 277.076C972.708 276.887 972.302 276.633 971.969 276.314C971.635 275.995 971.381 275.618 971.207 275.182C971.033 274.747 970.946 274.269 970.946 273.746C970.946 272.6 971.279 271.773 971.947 271.266C972.629 270.758 973.601 270.504 974.863 270.504H978.605V269.721C978.605 268.734 978.381 268.052 977.931 267.675C977.496 267.298 976.836 267.109 975.951 267.109C975.124 267.109 974.522 267.269 974.145 267.588C973.767 267.893 973.557 268.241 973.514 268.633H971.599C971.628 268.168 971.751 267.74 971.969 267.349C972.201 266.943 972.505 266.594 972.882 266.304C973.274 266.014 973.738 265.789 974.275 265.63C974.812 265.456 975.407 265.369 976.059 265.369C977.423 265.369 978.504 265.695 979.302 266.348C980.114 266.986 980.52 268.038 980.52 269.503V274.181C980.52 274.791 980.52 275.328 980.52 275.792C980.535 276.241 980.571 276.684 980.629 277.119H978.954C978.91 276.785 978.881 276.474 978.867 276.183C978.852 275.879 978.845 275.538 978.845 275.161C978.54 275.77 978.047 276.285 977.365 276.706C976.683 277.126 975.856 277.337 974.884 277.337ZM975.298 275.596C975.748 275.596 976.168 275.538 976.56 275.422C976.966 275.291 977.322 275.11 977.626 274.878C977.931 274.631 978.17 274.334 978.344 273.986C978.518 273.637 978.605 273.231 978.605 272.767V271.984H975.189C974.478 271.984 973.92 272.129 973.514 272.419C973.107 272.695 972.904 273.137 972.904 273.746C972.904 274.283 973.093 274.726 973.47 275.074C973.862 275.422 974.471 275.596 975.298 275.596ZM983.903 265.586H985.817V270.395H991.78V265.586H993.695V277.119H991.78V272.092H985.817V277.119H983.903V265.586ZM1000.47 277.337C999.832 277.337 999.266 277.25 998.773 277.076C998.294 276.887 997.888 276.633 997.554 276.314C997.22 275.995 996.966 275.618 996.792 275.182C996.618 274.747 996.531 274.269 996.531 273.746C996.531 272.6 996.865 271.773 997.532 271.266C998.214 270.758 999.186 270.504 1000.45 270.504H1004.19V269.721C1004.19 268.734 1003.97 268.052 1003.52 267.675C1003.08 267.298 1002.42 267.109 1001.54 267.109C1000.71 267.109 1000.11 267.269 999.73 267.588C999.353 267.893 999.142 268.241 999.099 268.633H997.184C997.213 268.168 997.336 267.74 997.554 267.349C997.786 266.943 998.091 266.594 998.468 266.304C998.86 266.014 999.324 265.789 999.861 265.63C1000.4 265.456 1000.99 265.369 1001.64 265.369C1003.01 265.369 1004.09 265.695 1004.89 266.348C1005.7 266.986 1006.11 268.038 1006.11 269.503V274.181C1006.11 274.791 1006.11 275.328 1006.11 275.792C1006.12 276.241 1006.16 276.684 1006.21 277.119H1004.54C1004.5 276.785 1004.47 276.474 1004.45 276.183C1004.44 275.879 1004.43 275.538 1004.43 275.161C1004.13 275.77 1003.63 276.285 1002.95 276.706C1002.27 277.126 1001.44 277.337 1000.47 277.337ZM1000.88 275.596C1001.33 275.596 1001.75 275.538 1002.15 275.422C1002.55 275.291 1002.91 275.11 1003.21 274.878C1003.52 274.631 1003.76 274.334 1003.93 273.986C1004.1 273.637 1004.19 273.231 1004.19 272.767V271.984H1000.77C1000.06 271.984 999.505 272.129 999.099 272.419C998.693 272.695 998.49 273.137 998.49 273.746C998.49 274.283 998.678 274.726 999.055 275.074C999.447 275.422 1000.06 275.596 1000.88 275.596ZM1008.94 277.337C1008.73 277.337 1008.51 277.315 1008.29 277.271V275.357C1008.36 275.371 1008.47 275.378 1008.62 275.378C1008.94 275.378 1009.21 275.277 1009.44 275.074C1009.69 274.871 1009.89 274.515 1010.03 274.007C1010.18 273.5 1010.29 272.811 1010.36 271.94C1010.43 271.07 1010.47 269.967 1010.47 268.633V265.586H1018.74V277.119H1016.82V267.283H1012.38V269.068C1012.38 270.678 1012.31 272.013 1012.16 273.072C1012.02 274.131 1011.8 274.979 1011.51 275.618C1011.24 276.241 1010.88 276.684 1010.45 276.945C1010.01 277.206 1009.51 277.337 1008.94 277.337Z" fill="#333333"/>
<path d="M422.85 309.57L434.003 306.582L425.838 298.417L422.85 309.57ZM429.921 303.913L472.592 261.242L471.178 259.828L428.506 302.499L429.921 303.913Z" fill="black"/>
<path d="M860.35 339.07L871.503 336.082L863.338 327.917L860.35 339.07ZM867.421 333.413L910.092 290.742L908.678 289.328L866.006 331.999L867.421 333.413Z" fill="black"/>
<path d="M102.538 339.94H107.978C108.892 339.94 109.675 340.041 110.328 340.244C110.981 340.447 111.517 340.73 111.938 341.093C112.373 341.441 112.693 341.869 112.896 342.377C113.099 342.87 113.2 343.414 113.2 344.009C113.2 344.792 112.983 345.467 112.547 346.033C112.112 346.584 111.576 346.983 110.937 347.229C111.837 347.432 112.547 347.846 113.07 348.47C113.592 349.079 113.853 349.877 113.853 350.863C113.853 351.487 113.752 352.06 113.548 352.582C113.345 353.105 113.026 353.562 112.591 353.953C112.156 354.33 111.59 354.628 110.894 354.845C110.212 355.063 109.385 355.172 108.413 355.172H102.538V339.94ZM108.413 353.388C109.066 353.388 109.61 353.329 110.045 353.213C110.48 353.083 110.828 352.909 111.09 352.691C111.351 352.459 111.532 352.183 111.634 351.864C111.75 351.545 111.808 351.19 111.808 350.798C111.808 350.406 111.75 350.051 111.634 349.732C111.532 349.398 111.351 349.122 111.09 348.905C110.828 348.673 110.473 348.499 110.023 348.383C109.588 348.252 109.044 348.187 108.391 348.187H104.583V353.388H108.413ZM107.978 346.489C108.587 346.489 109.095 346.431 109.501 346.315C109.907 346.199 110.234 346.033 110.48 345.815C110.727 345.597 110.901 345.343 111.002 345.053C111.104 344.763 111.155 344.444 111.155 344.096C111.155 343.748 111.104 343.429 111.002 343.138C110.901 342.834 110.727 342.58 110.48 342.377C110.234 342.174 109.907 342.014 109.501 341.898C109.095 341.782 108.587 341.724 107.978 341.724H104.583V346.489H107.978ZM121.468 355.389C120.728 355.389 120.024 355.273 119.357 355.041C118.689 354.809 118.102 354.454 117.594 353.975C117.086 353.482 116.68 352.865 116.376 352.125C116.071 351.386 115.919 350.515 115.919 349.514V349.079C115.919 348.122 116.064 347.295 116.354 346.598C116.644 345.887 117.028 345.3 117.507 344.836C118 344.357 118.566 344.002 119.204 343.769C119.857 343.537 120.539 343.421 121.25 343.421C122.947 343.421 124.26 343.886 125.189 344.814C126.117 345.742 126.581 347.055 126.581 348.753V349.971H117.834C117.834 350.653 117.942 351.226 118.16 351.69C118.378 352.154 118.66 352.532 119.009 352.822C119.357 353.112 119.741 353.322 120.162 353.453C120.597 353.583 121.032 353.649 121.468 353.649C122.338 353.649 123.005 353.504 123.469 353.213C123.948 352.923 124.289 352.524 124.492 352.017H126.364C126.248 352.568 126.037 353.054 125.733 353.475C125.442 353.895 125.08 354.251 124.645 354.541C124.224 354.816 123.738 355.027 123.187 355.172C122.65 355.317 122.077 355.389 121.468 355.389ZM121.359 345.162C120.909 345.162 120.474 345.227 120.053 345.358C119.632 345.474 119.255 345.67 118.922 345.945C118.602 346.207 118.341 346.54 118.138 346.946C117.935 347.353 117.834 347.839 117.834 348.404H124.775C124.761 347.81 124.659 347.309 124.47 346.903C124.296 346.482 124.057 346.149 123.752 345.902C123.448 345.641 123.085 345.452 122.664 345.336C122.258 345.22 121.823 345.162 121.359 345.162ZM128.546 355.389C128.329 355.389 128.111 355.368 127.894 355.324V353.409C127.966 353.424 128.075 353.431 128.22 353.431C128.539 353.431 128.815 353.329 129.047 353.126C129.294 352.923 129.489 352.568 129.634 352.06C129.78 351.552 129.888 350.863 129.961 349.993C130.033 349.122 130.07 348.02 130.07 346.685V343.639H138.339V355.172H136.424V345.336H131.985V347.121C131.985 348.731 131.912 350.065 131.767 351.124C131.622 352.183 131.404 353.032 131.114 353.67C130.839 354.294 130.483 354.737 130.048 354.998C129.613 355.259 129.112 355.389 128.546 355.389ZM146.607 355.389C145.867 355.389 145.163 355.273 144.496 355.041C143.829 354.809 143.241 354.454 142.733 353.975C142.226 353.482 141.819 352.865 141.515 352.125C141.21 351.386 141.058 350.515 141.058 349.514V349.079C141.058 348.122 141.203 347.295 141.493 346.598C141.783 345.887 142.168 345.3 142.646 344.836C143.14 344.357 143.705 344.002 144.344 343.769C144.996 343.537 145.678 343.421 146.389 343.421C148.086 343.421 149.399 343.886 150.328 344.814C151.256 345.742 151.72 347.055 151.72 348.753V349.971H142.973C142.973 350.653 143.081 351.226 143.299 351.69C143.517 352.154 143.8 352.532 144.148 352.822C144.496 353.112 144.88 353.322 145.301 353.453C145.736 353.583 146.171 353.649 146.607 353.649C147.477 353.649 148.144 353.504 148.609 353.213C149.087 352.923 149.428 352.524 149.631 352.017H151.503C151.387 352.568 151.176 353.054 150.872 353.475C150.582 353.895 150.219 354.251 149.784 354.541C149.363 354.816 148.877 355.027 148.326 355.172C147.789 355.317 147.216 355.389 146.607 355.389ZM146.498 345.162C146.048 345.162 145.613 345.227 145.192 345.358C144.772 345.474 144.394 345.67 144.061 345.945C143.742 346.207 143.48 346.54 143.277 346.946C143.074 347.353 142.973 347.839 142.973 348.404H149.914C149.9 347.81 149.798 347.309 149.61 346.903C149.436 346.482 149.196 346.149 148.892 345.902C148.587 345.641 148.224 345.452 147.803 345.336C147.397 345.22 146.962 345.162 146.498 345.162ZM161.123 350.58C160.789 350.784 160.383 350.965 159.904 351.124C159.44 351.284 158.852 351.364 158.141 351.364C157.474 351.364 156.872 351.291 156.335 351.146C155.813 351.001 155.371 350.769 155.008 350.45C154.645 350.131 154.37 349.717 154.181 349.21C153.992 348.702 153.898 348.078 153.898 347.338V343.639H155.813V347.012C155.813 347.505 155.857 347.918 155.944 348.252C156.045 348.586 156.205 348.854 156.422 349.057C156.64 349.26 156.916 349.405 157.249 349.492C157.583 349.579 157.989 349.623 158.468 349.623C159.121 349.623 159.679 349.558 160.143 349.427C160.608 349.297 160.934 349.159 161.123 349.014V343.639H163.037V355.172H161.123V350.58ZM166.512 343.639H168.427V352.343L174.39 343.639H176.304V355.172H174.39V346.468L168.427 355.172H166.512V343.639ZM179.794 343.639H181.709V348.448H187.671V343.639H189.586V355.172H187.671V350.145H181.709V355.172H179.794V343.639ZM196.361 355.389C195.723 355.389 195.157 355.302 194.664 355.128C194.185 354.94 193.779 354.686 193.445 354.367C193.111 354.048 192.858 353.67 192.684 353.235C192.509 352.8 192.422 352.321 192.422 351.799C192.422 350.653 192.756 349.826 193.423 349.318C194.105 348.811 195.077 348.557 196.339 348.557H200.082V347.773C200.082 346.787 199.857 346.105 199.407 345.728C198.972 345.351 198.312 345.162 197.427 345.162C196.6 345.162 195.998 345.322 195.621 345.641C195.244 345.945 195.034 346.294 194.99 346.685H193.075C193.104 346.221 193.228 345.793 193.445 345.401C193.677 344.995 193.982 344.647 194.359 344.357C194.751 344.067 195.215 343.842 195.752 343.682C196.288 343.508 196.883 343.421 197.536 343.421C198.9 343.421 199.98 343.748 200.778 344.401C201.591 345.039 201.997 346.091 201.997 347.556V352.234C201.997 352.844 201.997 353.38 201.997 353.844C202.011 354.294 202.048 354.737 202.106 355.172H200.43C200.387 354.838 200.358 354.526 200.343 354.236C200.329 353.932 200.321 353.591 200.321 353.213C200.017 353.823 199.524 354.338 198.842 354.758C198.16 355.179 197.333 355.389 196.361 355.389ZM196.774 353.649C197.224 353.649 197.645 353.591 198.037 353.475C198.443 353.344 198.798 353.163 199.103 352.931C199.407 352.684 199.647 352.387 199.821 352.038C199.995 351.69 200.082 351.284 200.082 350.82V350.036H196.666C195.955 350.036 195.396 350.182 194.99 350.472C194.584 350.747 194.381 351.19 194.381 351.799C194.381 352.336 194.569 352.778 194.947 353.126C195.338 353.475 195.948 353.649 196.774 353.649Z" fill="#333333"/>
<path d="M217.959 221.787L212.185 231.787H223.732L217.959 221.787ZM217.959 455.353H216.959V456.353H217.959V455.353ZM1199.57 455.353L1189.57 449.58V461.127L1199.57 455.353ZM216.959 230.787V455.353H218.959V230.787H216.959ZM217.959 456.353H1190.57V454.353H217.959V456.353Z" fill="black"/>
<defs>
<linearGradient id="paint0_linear_564_49301" x1="655.85" y1="251.372" x2="655.85" y2="444.2" gradientUnits="userSpaceOnUse">
<stop offset="0.208321" stop-color="#C1B8A6" stop-opacity="0"/>
<stop offset="1" stop-color="#C1B8A6"/>
</linearGradient>
<linearGradient id="paint1_linear_564_49301" x1="393.85" y1="251.372" x2="393.85" y2="444.2" gradientUnits="userSpaceOnUse">
<stop stop-color="#58A982" stop-opacity="0"/>
<stop offset="0.593754" stop-color="#58A982" stop-opacity="0.1"/>
<stop offset="1" stop-color="#58A982" stop-opacity="0"/>
</linearGradient>
<linearGradient id="paint2_linear_564_49301" x1="772.85" y1="251.372" x2="772.85" y2="629.278" gradientUnits="userSpaceOnUse">
<stop stop-color="#F1F7F5" stop-opacity="0"/>
<stop offset="1" stop-color="#F1F7F5"/>
</linearGradient>
</defs>
</svg>
