<svg width="1303" height="500" viewBox="0 0 1303 500" fill="none" xmlns="http://www.w3.org/2000/svg">
<rect width="1302.57" height="499.305" transform="translate(0 0.353516)" fill="white"/>
<path d="M102.51 231.815H104.643L109.735 241.498L114.827 231.815H116.872V247.047H114.827V235.514L110.453 243.783H108.929L104.556 235.514V247.047H102.51V231.815ZM125.584 247.264C124.844 247.264 124.14 247.148 123.473 246.916C122.806 246.67 122.218 246.307 121.71 245.828C121.203 245.335 120.796 244.719 120.492 243.979C120.187 243.239 120.035 242.376 120.035 241.389V240.954C120.035 240.026 120.187 239.206 120.492 238.495C120.796 237.784 121.203 237.197 121.71 236.732C122.218 236.254 122.806 235.898 123.473 235.666C124.14 235.42 124.844 235.296 125.584 235.296C126.324 235.296 127.027 235.42 127.695 235.666C128.362 235.898 128.949 236.254 129.457 236.732C129.965 237.197 130.371 237.784 130.676 238.495C130.98 239.206 131.133 240.026 131.133 240.954V241.389C131.133 242.376 130.98 243.239 130.676 243.979C130.371 244.719 129.965 245.335 129.457 245.828C128.949 246.307 128.362 246.67 127.695 246.916C127.027 247.148 126.324 247.264 125.584 247.264ZM125.584 245.524C126.019 245.524 126.454 245.451 126.889 245.306C127.325 245.146 127.709 244.907 128.043 244.588C128.376 244.254 128.645 243.826 128.848 243.304C129.065 242.782 129.174 242.144 129.174 241.389V240.954C129.174 240.258 129.065 239.663 128.848 239.17C128.645 238.676 128.376 238.27 128.043 237.951C127.709 237.632 127.325 237.4 126.889 237.255C126.454 237.11 126.019 237.037 125.584 237.037C125.149 237.037 124.713 237.11 124.278 237.255C123.843 237.4 123.459 237.632 123.125 237.951C122.791 238.27 122.516 238.676 122.298 239.17C122.095 239.663 121.993 240.258 121.993 240.954V241.389C121.993 242.144 122.095 242.782 122.298 243.304C122.516 243.826 122.791 244.254 123.125 244.588C123.459 244.907 123.843 245.146 124.278 245.306C124.713 245.451 125.149 245.524 125.584 245.524ZM148.01 247.047H133.844V235.514H135.759V245.35H139.959V235.514H141.874V245.35H146.074V235.514H147.988V245.35H149.838V249.767H148.01V247.047ZM152.119 235.514H154.034V240.323H159.997V235.514H161.912V247.047H159.997V242.02H154.034V247.047H152.119V235.514ZM170.188 247.264C169.448 247.264 168.745 247.148 168.077 246.916C167.41 246.67 166.823 246.307 166.315 245.828C165.807 245.335 165.401 244.719 165.096 243.979C164.792 243.239 164.639 242.376 164.639 241.389V240.954C164.639 240.026 164.792 239.206 165.096 238.495C165.401 237.784 165.807 237.197 166.315 236.732C166.823 236.254 167.41 235.898 168.077 235.666C168.745 235.42 169.448 235.296 170.188 235.296C170.928 235.296 171.632 235.42 172.299 235.666C172.966 235.898 173.554 236.254 174.062 236.732C174.569 237.197 174.976 237.784 175.28 238.495C175.585 239.206 175.737 240.026 175.737 240.954V241.389C175.737 242.376 175.585 243.239 175.28 243.979C174.976 244.719 174.569 245.335 174.062 245.828C173.554 246.307 172.966 246.67 172.299 246.916C171.632 247.148 170.928 247.264 170.188 247.264ZM170.188 245.524C170.623 245.524 171.059 245.451 171.494 245.306C171.929 245.146 172.313 244.907 172.647 244.588C172.981 244.254 173.249 243.826 173.452 243.304C173.67 242.782 173.779 242.144 173.779 241.389V240.954C173.779 240.258 173.67 239.663 173.452 239.17C173.249 238.676 172.981 238.27 172.647 237.951C172.313 237.632 171.929 237.4 171.494 237.255C171.059 237.11 170.623 237.037 170.188 237.037C169.753 237.037 169.318 237.11 168.883 237.255C168.447 237.4 168.063 237.632 167.729 237.951C167.396 238.27 167.12 238.676 166.902 239.17C166.699 239.663 166.598 240.258 166.598 240.954V241.389C166.598 242.144 166.699 242.782 166.902 243.304C167.12 243.826 167.396 244.254 167.729 244.588C168.063 244.907 168.447 245.146 168.883 245.306C169.318 245.451 169.753 245.524 170.188 245.524ZM182.91 247.264C182.17 247.264 181.481 247.148 180.842 246.916C180.204 246.67 179.653 246.307 179.189 245.828C178.724 245.335 178.354 244.719 178.079 243.979C177.818 243.239 177.687 242.376 177.687 241.389V240.954C177.687 240.026 177.832 239.206 178.122 238.495C178.412 237.784 178.797 237.197 179.276 236.732C179.754 236.254 180.306 235.898 180.929 235.666C181.568 235.42 182.228 235.296 182.91 235.296C183.591 235.296 184.201 235.391 184.737 235.579C185.289 235.768 185.76 236.029 186.152 236.363C186.558 236.696 186.884 237.088 187.131 237.538C187.392 237.987 187.581 238.473 187.697 238.996H185.738C185.622 238.72 185.485 238.466 185.325 238.234C185.18 237.987 184.991 237.777 184.759 237.603C184.542 237.429 184.28 237.291 183.976 237.189C183.671 237.088 183.316 237.037 182.91 237.037C182.489 237.037 182.083 237.117 181.691 237.276C181.299 237.422 180.951 237.654 180.646 237.973C180.342 238.277 180.095 238.676 179.907 239.17C179.733 239.663 179.645 240.258 179.645 240.954V241.389C179.645 242.129 179.733 242.767 179.907 243.304C180.095 243.826 180.342 244.254 180.646 244.588C180.951 244.907 181.299 245.146 181.691 245.306C182.083 245.451 182.489 245.524 182.91 245.524C183.62 245.524 184.215 245.35 184.694 245.001C185.187 244.653 185.535 244.175 185.738 243.565H187.697C187.421 244.711 186.855 245.618 186 246.285C185.144 246.938 184.114 247.264 182.91 247.264ZM192.939 237.211H189.001V235.514H198.793V237.211H194.854V247.047H192.939V237.211ZM200.974 235.514H202.889V239.866H205.653C207.103 239.866 208.169 240.185 208.851 240.823C209.548 241.462 209.896 242.347 209.896 243.478C209.896 244.581 209.548 245.451 208.851 246.089C208.169 246.728 207.103 247.047 205.653 247.047H200.974V235.514ZM205.544 245.35C206.443 245.35 207.074 245.19 207.437 244.871C207.8 244.552 207.981 244.08 207.981 243.456C207.981 242.833 207.8 242.361 207.437 242.042C207.074 241.723 206.443 241.563 205.544 241.563H202.889V245.35H205.544Z" fill="#333333"/>
<path d="M655.919 388.958C655.542 389.205 655.013 389.429 654.331 389.633C653.649 389.836 652.866 389.937 651.981 389.937C650.196 389.937 648.898 389.538 648.086 388.74C647.273 387.928 646.867 386.644 646.867 384.889V380.428H648.913V384.889C648.913 386.035 649.166 386.862 649.674 387.369C650.182 387.863 651.023 388.109 652.198 388.109C653.098 388.109 653.845 388.001 654.44 387.783C655.049 387.565 655.542 387.333 655.919 387.087V380.428H657.965V395.66H655.919V388.958ZM665.166 395.878C664.528 395.878 663.962 395.791 663.468 395.617C662.99 395.428 662.584 395.174 662.25 394.855C661.916 394.536 661.662 394.159 661.488 393.723C661.314 393.288 661.227 392.81 661.227 392.287C661.227 391.141 661.561 390.314 662.228 389.807C662.91 389.299 663.882 389.045 665.144 389.045H668.887V388.262C668.887 387.275 668.662 386.593 668.212 386.216C667.777 385.839 667.117 385.65 666.232 385.65C665.405 385.65 664.803 385.81 664.426 386.129C664.049 386.434 663.838 386.782 663.795 387.174H661.88C661.909 386.709 662.032 386.281 662.25 385.89C662.482 385.484 662.787 385.135 663.164 384.845C663.556 384.555 664.02 384.33 664.557 384.171C665.093 383.997 665.688 383.91 666.341 383.91C667.705 383.91 668.785 384.236 669.583 384.889C670.396 385.527 670.802 386.579 670.802 388.044V392.723C670.802 393.332 670.802 393.869 670.802 394.333C670.816 394.782 670.853 395.225 670.911 395.66H669.235C669.191 395.326 669.162 395.015 669.148 394.724C669.133 394.42 669.126 394.079 669.126 393.702C668.822 394.311 668.328 394.826 667.646 395.247C666.965 395.667 666.138 395.878 665.166 395.878ZM665.579 394.137C666.029 394.137 666.45 394.079 666.841 393.963C667.248 393.832 667.603 393.651 667.908 393.419C668.212 393.172 668.452 392.875 668.626 392.527C668.8 392.179 668.887 391.772 668.887 391.308V390.525H665.47C664.76 390.525 664.201 390.67 663.795 390.96C663.389 391.236 663.186 391.678 663.186 392.287C663.186 392.824 663.374 393.267 663.751 393.615C664.143 393.963 664.752 394.137 665.579 394.137ZM678.645 395.878C677.905 395.878 677.216 395.762 676.578 395.53C675.939 395.283 675.388 394.92 674.924 394.442C674.46 393.948 674.09 393.332 673.814 392.592C673.553 391.852 673.422 390.989 673.422 390.002V389.567C673.422 388.639 673.567 387.819 673.858 387.108C674.148 386.398 674.532 385.81 675.011 385.346C675.49 384.867 676.041 384.512 676.665 384.279C677.303 384.033 677.963 383.91 678.645 383.91C679.327 383.91 679.936 384.004 680.473 384.192C681.024 384.381 681.495 384.642 681.887 384.976C682.293 385.309 682.62 385.701 682.866 386.151C683.127 386.601 683.316 387.087 683.432 387.609H681.474C681.358 387.333 681.22 387.079 681.06 386.847C680.915 386.601 680.727 386.39 680.494 386.216C680.277 386.042 680.016 385.904 679.711 385.803C679.406 385.701 679.051 385.65 678.645 385.65C678.224 385.65 677.818 385.73 677.426 385.89C677.035 386.035 676.686 386.267 676.382 386.586C676.077 386.891 675.83 387.29 675.642 387.783C675.468 388.276 675.381 388.871 675.381 389.567V390.002C675.381 390.742 675.468 391.381 675.642 391.917C675.83 392.44 676.077 392.868 676.382 393.201C676.686 393.52 677.035 393.76 677.426 393.919C677.818 394.064 678.224 394.137 678.645 394.137C679.356 394.137 679.95 393.963 680.429 393.615C680.922 393.267 681.271 392.788 681.474 392.179H683.432C683.156 393.325 682.591 394.231 681.735 394.899C680.879 395.551 679.849 395.878 678.645 395.878ZM688.675 385.824H684.736V384.127H694.528V385.824H690.59V395.66H688.675V385.824ZM701.284 395.878C700.544 395.878 699.841 395.762 699.173 395.53C698.506 395.283 697.918 394.92 697.411 394.442C696.903 393.948 696.497 393.332 696.192 392.592C695.888 391.852 695.735 390.989 695.735 390.002V389.567C695.735 388.639 695.888 387.819 696.192 387.108C696.497 386.398 696.903 385.81 697.411 385.346C697.918 384.867 698.506 384.512 699.173 384.279C699.841 384.033 700.544 383.91 701.284 383.91C702.024 383.91 702.728 384.033 703.395 384.279C704.062 384.512 704.65 384.867 705.157 385.346C705.665 385.81 706.071 386.398 706.376 387.108C706.681 387.819 706.833 388.639 706.833 389.567V390.002C706.833 390.989 706.681 391.852 706.376 392.592C706.071 393.332 705.665 393.948 705.157 394.442C704.65 394.92 704.062 395.283 703.395 395.53C702.728 395.762 702.024 395.878 701.284 395.878ZM701.284 394.137C701.719 394.137 702.154 394.064 702.59 393.919C703.025 393.76 703.409 393.52 703.743 393.201C704.077 392.868 704.345 392.44 704.548 391.917C704.766 391.395 704.875 390.757 704.875 390.002V389.567C704.875 388.871 704.766 388.276 704.548 387.783C704.345 387.29 704.077 386.883 703.743 386.564C703.409 386.245 703.025 386.013 702.59 385.868C702.154 385.723 701.719 385.65 701.284 385.65C700.849 385.65 700.414 385.723 699.978 385.868C699.543 386.013 699.159 386.245 698.825 386.564C698.491 386.883 698.216 387.29 697.998 387.783C697.795 388.276 697.694 388.871 697.694 389.567V390.002C697.694 390.757 697.795 391.395 697.998 391.917C698.216 392.44 698.491 392.868 698.825 393.201C699.159 393.52 699.543 393.76 699.978 393.919C700.414 394.064 700.849 394.137 701.284 394.137ZM711.965 385.824H708.026V384.127H717.819V385.824H713.88V395.66H711.965V385.824ZM722.86 395.878C722.222 395.878 721.656 395.791 721.163 395.617C720.684 395.428 720.278 395.174 719.945 394.855C719.611 394.536 719.357 394.159 719.183 393.723C719.009 393.288 718.922 392.81 718.922 392.287C718.922 391.141 719.256 390.314 719.923 389.807C720.605 389.299 721.577 389.045 722.839 389.045H726.582V388.262C726.582 387.275 726.357 386.593 725.907 386.216C725.472 385.839 724.812 385.65 723.927 385.65C723.1 385.65 722.498 385.81 722.121 386.129C721.743 386.434 721.533 386.782 721.49 387.174H719.575C719.604 386.709 719.727 386.281 719.945 385.89C720.177 385.484 720.481 385.135 720.859 384.845C721.25 384.555 721.714 384.33 722.251 384.171C722.788 383.997 723.383 383.91 724.036 383.91C725.399 383.91 726.48 384.236 727.278 384.889C728.09 385.527 728.496 386.579 728.496 388.044V392.723C728.496 393.332 728.496 393.869 728.496 394.333C728.511 394.782 728.547 395.225 728.605 395.66H726.93C726.886 395.326 726.857 395.015 726.843 394.724C726.828 394.42 726.821 394.079 726.821 393.702C726.516 394.311 726.023 394.826 725.341 395.247C724.659 395.667 723.832 395.878 722.86 395.878ZM723.274 394.137C723.724 394.137 724.144 394.079 724.536 393.963C724.942 393.832 725.298 393.651 725.602 393.419C725.907 393.172 726.146 392.875 726.32 392.527C726.494 392.179 726.582 391.772 726.582 391.308V390.525H723.165C722.454 390.525 721.896 390.67 721.49 390.96C721.083 391.236 720.88 391.678 720.88 392.287C720.88 392.824 721.069 393.267 721.446 393.615C721.838 393.963 722.447 394.137 723.274 394.137Z" fill="black"/>
<path d="M220.959 127.66L215.185 137.66H226.732L220.959 127.66ZM220.959 361.226H219.959V362.226H220.959V361.226ZM1202.57 361.226L1192.57 355.453V367L1202.57 361.226ZM219.959 136.66V361.226H221.959V136.66H219.959ZM220.959 362.226H1193.57V360.226H220.959V362.226Z" fill="black"/>
<path d="M381.086 361.227C381.086 276.526 359.936 207.863 333.847 207.863C307.757 207.863 286.607 276.526 286.607 361.227" stroke="#F2994A" stroke-width="4"/>
<path d="M475.565 361.227C475.565 276.526 454.415 207.863 428.325 207.863C402.236 207.863 381.086 276.526 381.086 361.227" stroke="#F2994A" stroke-width="4"/>
<path d="M570.043 361.227C570.043 276.526 548.893 207.863 522.804 207.863C496.714 207.863 475.564 276.526 475.564 361.227" stroke="#F2994A" stroke-width="4"/>
<path d="M664.522 361.227C664.522 276.526 643.372 207.863 617.282 207.863C591.193 207.863 570.043 276.526 570.043 361.227" stroke="#F2994A" stroke-width="4"/>
<path d="M759 361.227C759 276.526 737.85 207.863 711.761 207.863C685.671 207.863 664.521 276.526 664.521 361.227" stroke="#F2994A" stroke-width="4"/>
<path d="M853.477 361.227C853.477 276.526 832.327 207.863 806.237 207.863C780.148 207.863 758.998 276.526 758.998 361.227" stroke="#F2994A" stroke-width="4"/>
<path d="M947.955 361.227C947.955 276.526 926.805 207.863 900.716 207.863C874.626 207.863 853.477 276.526 853.477 361.227" stroke="#F2994A" stroke-width="4"/>
<path d="M1042.43 361.227C1042.43 276.526 1021.28 207.863 995.194 207.863C969.105 207.863 947.955 276.526 947.955 361.227" stroke="#F2994A" stroke-width="4"/>
<path d="M1136.91 361.227C1136.91 276.526 1115.76 207.863 1089.67 207.863C1063.58 207.863 1042.43 276.526 1042.43 361.227" stroke="#F2994A" stroke-width="4"/>
<path d="M714.244 207.857L721.841 199.161L710.511 196.93L714.244 207.857ZM716.912 199.397C719.928 191.801 726.979 184.519 737.498 177.866C748 171.223 761.862 165.267 778.337 160.281C811.284 150.308 854.55 144.248 901.959 144.248V142.248C854.397 142.248 810.93 148.325 777.758 158.366C761.173 163.386 747.13 169.407 736.428 176.176C725.743 182.935 718.291 190.503 715.053 198.659L716.912 199.397ZM901.959 144.248C953.715 144.248 1000.53 151.47 1034.37 163.117C1051.29 168.943 1064.92 175.856 1074.29 183.484C1083.67 191.118 1088.67 199.361 1088.67 207.857H1090.67C1090.67 198.513 1085.17 189.758 1075.55 181.933C1065.93 174.101 1052.06 167.093 1035.02 161.226C1000.92 149.489 953.875 142.248 901.959 142.248V144.248Z" fill="#315390"/>
<path d="M619.766 207.857L629.405 201.5L619.08 196.33L619.766 207.857ZM624.497 200.52C628.805 196.283 636.696 192.214 647.665 188.511C658.601 184.818 672.478 181.526 688.641 178.779C720.965 173.286 762.352 169.984 807.48 169.984V167.984C762.265 167.984 720.762 171.291 688.306 176.807C672.079 179.565 658.093 182.879 647.025 186.616C635.991 190.342 627.739 194.527 623.095 199.094L624.497 200.52ZM807.48 169.984C859.269 169.984 906.127 174.332 940.012 181.349C956.963 184.859 970.614 189.027 980.004 193.624C984.701 195.924 988.279 198.306 990.67 200.726C993.058 203.142 994.195 205.524 994.195 207.857H996.195C996.195 204.823 994.706 201.964 992.093 199.32C989.483 196.679 985.685 194.179 980.883 191.828C971.275 187.124 957.436 182.915 940.418 179.391C906.363 172.339 859.363 167.984 807.48 167.984V169.984Z" fill="#315390"/>
<path d="M330.49 207.858L337.632 198.784L326.204 197.136L330.49 207.858ZM332.736 199.225C336.624 185.807 349.54 172.913 370.139 161.12C390.7 149.349 418.736 138.778 452.537 129.916C520.132 112.195 610.622 101.354 710.082 101.354V99.3535C610.494 99.3535 519.828 110.207 452.03 127.981C418.134 136.868 389.915 147.494 369.145 159.385C348.414 171.253 334.924 184.485 330.815 198.669L332.736 199.225ZM710.082 101.354C814.838 101.354 909.64 113.38 978.221 132.803C1012.52 142.516 1040.2 154.064 1059.29 166.843C1078.41 179.647 1088.67 193.526 1088.67 207.858H1090.67C1090.67 192.503 1079.69 178.101 1060.4 165.181C1041.07 152.237 1013.16 140.62 978.766 130.879C909.963 111.393 814.969 99.3535 710.082 99.3535V101.354Z" fill="#315390"/>
<path d="M523.609 207.857L531.843 199.762L520.716 196.678L523.609 207.857ZM526.884 199.672C531.568 191.367 543.262 183.918 559.709 178.549C576.095 173.199 596.989 169.984 619.767 169.984V167.984C596.815 167.984 575.708 171.222 559.088 176.647C542.527 182.054 530.21 189.703 525.142 198.69L526.884 199.672ZM619.767 169.984C646.224 169.984 670.13 174.321 687.385 181.297C696.015 184.786 702.932 188.915 707.676 193.449C712.417 197.98 714.924 202.849 714.924 207.857H716.924C716.924 202.13 714.049 196.773 709.058 192.003C704.07 187.236 696.906 182.989 688.135 179.443C670.588 172.349 646.415 167.984 619.767 167.984V169.984Z" fill="#315390"/>
<path d="M330.49 207.857L338.724 199.762L327.597 196.678L330.49 207.857ZM333.765 199.672C338.449 191.367 350.143 183.918 366.589 178.549C382.976 173.199 403.87 169.984 426.647 169.984V167.984C403.696 167.984 382.589 171.222 365.969 176.647C349.408 182.054 337.091 189.703 332.023 198.69L333.765 199.672ZM426.647 169.984C453.105 169.984 477.011 174.321 494.266 181.297C502.896 184.786 509.813 188.915 514.557 193.449C519.298 197.98 521.805 202.849 521.805 207.857H523.805C523.805 202.13 520.929 196.773 515.939 192.003C510.951 187.236 503.786 182.989 495.016 179.443C477.468 172.349 453.296 167.984 426.647 167.984V169.984Z" fill="#315390"/>
</svg>
