<svg width="1303" height="473" viewBox="0 0 1303 473" fill="none" xmlns="http://www.w3.org/2000/svg">
<rect width="1302.57" height="471.999" transform="translate(0 0.201172)" fill="white"/>
<path d="M102.51 204.356H104.643L109.735 214.039L114.827 204.356H116.872V219.588H114.827V208.055L110.453 216.324H108.929L104.556 208.055V219.588H102.51V204.356ZM125.584 219.805C124.844 219.805 124.14 219.689 123.473 219.457C122.806 219.211 122.218 218.848 121.71 218.369C121.203 217.876 120.796 217.26 120.492 216.52C120.187 215.78 120.035 214.917 120.035 213.93V213.495C120.035 212.567 120.187 211.747 120.492 211.036C120.796 210.325 121.203 209.738 121.71 209.273C122.218 208.795 122.806 208.439 123.473 208.207C124.14 207.961 124.844 207.837 125.584 207.837C126.324 207.837 127.027 207.961 127.695 208.207C128.362 208.439 128.949 208.795 129.457 209.273C129.965 209.738 130.371 210.325 130.676 211.036C130.98 211.747 131.133 212.567 131.133 213.495V213.93C131.133 214.917 130.98 215.78 130.676 216.52C130.371 217.26 129.965 217.876 129.457 218.369C128.949 218.848 128.362 219.211 127.695 219.457C127.027 219.689 126.324 219.805 125.584 219.805ZM125.584 218.065C126.019 218.065 126.454 217.992 126.889 217.847C127.325 217.687 127.709 217.448 128.043 217.129C128.376 216.795 128.645 216.367 128.848 215.845C129.065 215.323 129.174 214.685 129.174 213.93V213.495C129.174 212.799 129.065 212.204 128.848 211.711C128.645 211.217 128.376 210.811 128.043 210.492C127.709 210.173 127.325 209.941 126.889 209.796C126.454 209.651 126.019 209.578 125.584 209.578C125.149 209.578 124.713 209.651 124.278 209.796C123.843 209.941 123.459 210.173 123.125 210.492C122.791 210.811 122.516 211.217 122.298 211.711C122.095 212.204 121.993 212.799 121.993 213.495V213.93C121.993 214.685 122.095 215.323 122.298 215.845C122.516 216.367 122.791 216.795 123.125 217.129C123.459 217.448 123.843 217.687 124.278 217.847C124.713 217.992 125.149 218.065 125.584 218.065ZM148.01 219.588H133.844V208.055H135.759V217.891H139.959V208.055H141.874V217.891H146.074V208.055H147.988V217.891H149.838V222.308H148.01V219.588ZM152.119 208.055H154.034V212.864H159.997V208.055H161.912V219.588H159.997V214.561H154.034V219.588H152.119V208.055ZM170.188 219.805C169.448 219.805 168.745 219.689 168.077 219.457C167.41 219.211 166.823 218.848 166.315 218.369C165.807 217.876 165.401 217.26 165.096 216.52C164.792 215.78 164.639 214.917 164.639 213.93V213.495C164.639 212.567 164.792 211.747 165.096 211.036C165.401 210.325 165.807 209.738 166.315 209.273C166.823 208.795 167.41 208.439 168.077 208.207C168.745 207.961 169.448 207.837 170.188 207.837C170.928 207.837 171.632 207.961 172.299 208.207C172.966 208.439 173.554 208.795 174.062 209.273C174.569 209.738 174.976 210.325 175.28 211.036C175.585 211.747 175.737 212.567 175.737 213.495V213.93C175.737 214.917 175.585 215.78 175.28 216.52C174.976 217.26 174.569 217.876 174.062 218.369C173.554 218.848 172.966 219.211 172.299 219.457C171.632 219.689 170.928 219.805 170.188 219.805ZM170.188 218.065C170.623 218.065 171.059 217.992 171.494 217.847C171.929 217.687 172.313 217.448 172.647 217.129C172.981 216.795 173.249 216.367 173.452 215.845C173.67 215.323 173.779 214.685 173.779 213.93V213.495C173.779 212.799 173.67 212.204 173.452 211.711C173.249 211.217 172.981 210.811 172.647 210.492C172.313 210.173 171.929 209.941 171.494 209.796C171.059 209.651 170.623 209.578 170.188 209.578C169.753 209.578 169.318 209.651 168.883 209.796C168.447 209.941 168.063 210.173 167.729 210.492C167.396 210.811 167.12 211.217 166.902 211.711C166.699 212.204 166.598 212.799 166.598 213.495V213.93C166.598 214.685 166.699 215.323 166.902 215.845C167.12 216.367 167.396 216.795 167.729 217.129C168.063 217.448 168.447 217.687 168.883 217.847C169.318 217.992 169.753 218.065 170.188 218.065ZM182.91 219.805C182.17 219.805 181.481 219.689 180.842 219.457C180.204 219.211 179.653 218.848 179.189 218.369C178.724 217.876 178.354 217.26 178.079 216.52C177.818 215.78 177.687 214.917 177.687 213.93V213.495C177.687 212.567 177.832 211.747 178.122 211.036C178.412 210.325 178.797 209.738 179.276 209.273C179.754 208.795 180.306 208.439 180.929 208.207C181.568 207.961 182.228 207.837 182.91 207.837C183.591 207.837 184.201 207.932 184.737 208.12C185.289 208.309 185.76 208.57 186.152 208.904C186.558 209.237 186.884 209.629 187.131 210.079C187.392 210.528 187.581 211.014 187.697 211.537H185.738C185.622 211.261 185.485 211.007 185.325 210.775C185.18 210.528 184.991 210.318 184.759 210.144C184.542 209.97 184.28 209.832 183.976 209.73C183.671 209.629 183.316 209.578 182.91 209.578C182.489 209.578 182.083 209.658 181.691 209.817C181.299 209.963 180.951 210.195 180.646 210.514C180.342 210.818 180.095 211.217 179.907 211.711C179.733 212.204 179.645 212.799 179.645 213.495V213.93C179.645 214.67 179.733 215.308 179.907 215.845C180.095 216.367 180.342 216.795 180.646 217.129C180.951 217.448 181.299 217.687 181.691 217.847C182.083 217.992 182.489 218.065 182.91 218.065C183.62 218.065 184.215 217.891 184.694 217.542C185.187 217.194 185.535 216.716 185.738 216.106H187.697C187.421 217.252 186.855 218.159 186 218.826C185.144 219.479 184.114 219.805 182.91 219.805ZM192.939 209.752H189.001V208.055H198.793V209.752H194.854V219.588H192.939V209.752ZM200.974 208.055H202.889V212.407H205.653C207.103 212.407 208.169 212.726 208.851 213.364C209.548 214.003 209.896 214.888 209.896 216.019C209.896 217.122 209.548 217.992 208.851 218.63C208.169 219.269 207.103 219.588 205.653 219.588H200.974V208.055ZM205.544 217.891C206.443 217.891 207.074 217.731 207.437 217.412C207.8 217.093 207.981 216.621 207.981 215.997C207.981 215.374 207.8 214.902 207.437 214.583C207.074 214.264 206.443 214.104 205.544 214.104H202.889V217.891H205.544Z" fill="#333333"/>
<path d="M308.1 204.356H312.561C313.707 204.356 314.73 204.515 315.629 204.834C316.529 205.139 317.29 205.596 317.914 206.205C318.538 206.815 319.017 207.576 319.35 208.49C319.684 209.404 319.851 210.456 319.851 211.645V212.081C319.851 213.299 319.677 214.38 319.328 215.323C318.995 216.251 318.502 217.035 317.849 217.673C317.21 218.297 316.427 218.776 315.499 219.109C314.57 219.428 313.518 219.588 312.343 219.588H308.1V204.356ZM312.126 217.804C312.982 217.804 313.751 217.695 314.432 217.477C315.129 217.26 315.716 216.926 316.195 216.476C316.674 216.012 317.036 215.417 317.283 214.692C317.544 213.966 317.675 213.096 317.675 212.081V211.645C317.675 210.673 317.551 209.839 317.305 209.143C317.058 208.447 316.703 207.881 316.238 207.446C315.774 206.996 315.208 206.669 314.541 206.466C313.888 206.249 313.156 206.14 312.343 206.14H310.146V217.804H312.126ZM328.124 219.805C327.21 219.805 326.412 219.697 325.73 219.479C325.048 219.261 324.475 218.964 324.011 218.587C323.547 218.195 323.177 217.746 322.901 217.238C322.64 216.716 322.459 216.157 322.357 215.562H324.403C324.475 215.896 324.599 216.215 324.773 216.52C324.947 216.81 325.179 217.064 325.469 217.281C325.774 217.499 326.144 217.673 326.579 217.804C327.014 217.92 327.529 217.978 328.124 217.978C329.342 217.978 330.264 217.746 330.887 217.281C331.526 216.817 331.845 216.244 331.845 215.562C331.845 215.142 331.772 214.786 331.627 214.496C331.497 214.206 331.265 213.952 330.931 213.734C330.612 213.517 330.184 213.321 329.647 213.147C329.125 212.973 328.479 212.799 327.71 212.625C326.854 212.436 326.115 212.233 325.491 212.015C324.882 211.783 324.374 211.5 323.968 211.167C323.576 210.818 323.279 210.405 323.075 209.926C322.887 209.448 322.793 208.86 322.793 208.164C322.793 207.598 322.916 207.076 323.162 206.597C323.409 206.104 323.757 205.676 324.207 205.313C324.671 204.95 325.23 204.668 325.883 204.464C326.55 204.247 327.297 204.138 328.124 204.138C328.936 204.138 329.647 204.247 330.256 204.464C330.866 204.668 331.381 204.95 331.801 205.313C332.237 205.676 332.577 206.104 332.824 206.597C333.071 207.076 333.245 207.598 333.346 208.164H331.301C331.228 207.859 331.12 207.576 330.974 207.315C330.829 207.039 330.626 206.807 330.365 206.619C330.119 206.416 329.807 206.256 329.429 206.14C329.067 206.024 328.632 205.966 328.124 205.966C327.079 205.966 326.267 206.184 325.687 206.619C325.121 207.039 324.838 207.554 324.838 208.164C324.838 208.555 324.911 208.896 325.056 209.186C325.201 209.462 325.426 209.709 325.73 209.926C326.035 210.129 326.419 210.311 326.884 210.47C327.362 210.615 327.928 210.76 328.581 210.906C329.524 211.109 330.329 211.341 330.996 211.602C331.678 211.848 332.229 212.153 332.65 212.516C333.085 212.878 333.397 213.306 333.586 213.8C333.789 214.293 333.89 214.88 333.89 215.562C333.89 216.157 333.76 216.716 333.499 217.238C333.238 217.746 332.86 218.195 332.367 218.587C331.874 218.964 331.272 219.261 330.561 219.479C329.85 219.697 329.038 219.805 328.124 219.805ZM342.043 219.805C341.129 219.805 340.331 219.697 339.649 219.479C338.967 219.261 338.394 218.964 337.93 218.587C337.466 218.195 337.096 217.746 336.82 217.238C336.559 216.716 336.378 216.157 336.276 215.562H338.322C338.394 215.896 338.518 216.215 338.692 216.52C338.866 216.81 339.098 217.064 339.388 217.281C339.693 217.499 340.063 217.673 340.498 217.804C340.933 217.92 341.448 217.978 342.043 217.978C343.261 217.978 344.183 217.746 344.806 217.281C345.445 216.817 345.764 216.244 345.764 215.562C345.764 215.142 345.691 214.786 345.546 214.496C345.416 214.206 345.184 213.952 344.85 213.734C344.531 213.517 344.103 213.321 343.566 213.147C343.044 212.973 342.398 212.799 341.629 212.625C340.773 212.436 340.034 212.233 339.41 212.015C338.801 211.783 338.293 211.5 337.887 211.167C337.495 210.818 337.198 210.405 336.994 209.926C336.806 209.448 336.712 208.86 336.712 208.164C336.712 207.598 336.835 207.076 337.081 206.597C337.328 206.104 337.676 205.676 338.126 205.313C338.59 204.95 339.149 204.668 339.802 204.464C340.469 204.247 341.216 204.138 342.043 204.138C342.855 204.138 343.566 204.247 344.175 204.464C344.785 204.668 345.3 204.95 345.72 205.313C346.156 205.676 346.496 206.104 346.743 206.597C346.99 207.076 347.164 207.598 347.265 208.164H345.22C345.147 207.859 345.038 207.576 344.893 207.315C344.748 207.039 344.545 206.807 344.284 206.619C344.038 206.416 343.726 206.256 343.348 206.14C342.986 206.024 342.551 205.966 342.043 205.966C340.998 205.966 340.186 206.184 339.606 206.619C339.04 207.039 338.757 207.554 338.757 208.164C338.757 208.555 338.83 208.896 338.975 209.186C339.12 209.462 339.345 209.709 339.649 209.926C339.954 210.129 340.338 210.311 340.802 210.47C341.281 210.615 341.847 210.76 342.5 210.906C343.443 211.109 344.248 211.341 344.915 211.602C345.597 211.848 346.148 212.153 346.569 212.516C347.004 212.878 347.316 213.306 347.505 213.8C347.708 214.293 347.809 214.88 347.809 215.562C347.809 216.157 347.679 216.716 347.418 217.238C347.157 217.746 346.779 218.195 346.286 218.587C345.793 218.964 345.191 219.261 344.48 219.479C343.769 219.697 342.957 219.805 342.043 219.805ZM355.962 219.805C355.048 219.805 354.25 219.697 353.568 219.479C352.886 219.261 352.313 218.964 351.849 218.587C351.385 218.195 351.015 217.746 350.739 217.238C350.478 216.716 350.297 216.157 350.195 215.562H352.241C352.313 215.896 352.437 216.215 352.611 216.52C352.785 216.81 353.017 217.064 353.307 217.281C353.612 217.499 353.982 217.673 354.417 217.804C354.852 217.92 355.367 217.978 355.962 217.978C357.18 217.978 358.102 217.746 358.725 217.281C359.364 216.817 359.683 216.244 359.683 215.562C359.683 215.142 359.61 214.786 359.465 214.496C359.335 214.206 359.103 213.952 358.769 213.734C358.45 213.517 358.022 213.321 357.485 213.147C356.963 212.973 356.317 212.799 355.548 212.625C354.692 212.436 353.953 212.233 353.329 212.015C352.72 211.783 352.212 211.5 351.806 211.167C351.414 210.818 351.116 210.405 350.913 209.926C350.725 209.448 350.631 208.86 350.631 208.164C350.631 207.598 350.754 207.076 351 206.597C351.247 206.104 351.595 205.676 352.045 205.313C352.509 204.95 353.068 204.668 353.72 204.464C354.388 204.247 355.135 204.138 355.962 204.138C356.774 204.138 357.485 204.247 358.094 204.464C358.704 204.668 359.219 204.95 359.639 205.313C360.075 205.676 360.415 206.104 360.662 206.597C360.909 207.076 361.083 207.598 361.184 208.164H359.139C359.066 207.859 358.957 207.576 358.812 207.315C358.667 207.039 358.464 206.807 358.203 206.619C357.956 206.416 357.645 206.256 357.267 206.14C356.905 206.024 356.47 205.966 355.962 205.966C354.917 205.966 354.105 206.184 353.525 206.619C352.959 207.039 352.676 207.554 352.676 208.164C352.676 208.555 352.749 208.896 352.894 209.186C353.039 209.462 353.264 209.709 353.568 209.926C353.873 210.129 354.257 210.311 354.721 210.47C355.2 210.615 355.766 210.76 356.419 210.906C357.362 211.109 358.167 211.341 358.834 211.602C359.516 211.848 360.067 212.153 360.488 212.516C360.923 212.878 361.235 213.306 361.424 213.8C361.627 214.293 361.728 214.88 361.728 215.562C361.728 216.157 361.598 216.716 361.337 217.238C361.075 217.746 360.698 218.195 360.205 218.587C359.712 218.964 359.11 219.261 358.399 219.479C357.688 219.697 356.876 219.805 355.962 219.805ZM363.788 212.603H370.316V214.387H363.788V212.603ZM377.386 219.805C376.646 219.805 375.957 219.689 375.318 219.457C374.68 219.211 374.129 218.848 373.665 218.369C373.2 217.876 372.83 217.26 372.555 216.52C372.294 215.78 372.163 214.917 372.163 213.93V213.495C372.163 212.567 372.308 211.747 372.598 211.036C372.888 210.325 373.273 209.738 373.752 209.273C374.23 208.795 374.782 208.439 375.405 208.207C376.044 207.961 376.704 207.837 377.386 207.837C378.067 207.837 378.677 207.932 379.213 208.12C379.765 208.309 380.236 208.57 380.628 208.904C381.034 209.237 381.36 209.629 381.607 210.079C381.868 210.528 382.057 211.014 382.173 211.537H380.214C380.098 211.261 379.961 211.007 379.801 210.775C379.656 210.528 379.467 210.318 379.235 210.144C379.018 209.97 378.756 209.832 378.452 209.73C378.147 209.629 377.792 209.578 377.386 209.578C376.965 209.578 376.559 209.658 376.167 209.817C375.775 209.963 375.427 210.195 375.122 210.514C374.818 210.818 374.571 211.217 374.383 211.711C374.209 212.204 374.121 212.799 374.121 213.495V213.93C374.121 214.67 374.209 215.308 374.383 215.845C374.571 216.367 374.818 216.795 375.122 217.129C375.427 217.448 375.775 217.687 376.167 217.847C376.559 217.992 376.965 218.065 377.386 218.065C378.096 218.065 378.691 217.891 379.17 217.542C379.663 217.194 380.011 216.716 380.214 216.106H382.173C381.897 217.252 381.331 218.159 380.476 218.826C379.62 219.479 378.59 219.805 377.386 219.805ZM384.782 208.055H386.697V216.759L392.66 208.055H394.575V219.588H392.66V210.884L386.697 219.588H384.782V208.055ZM398.064 208.055H405.898V209.752H399.979V219.588H398.064V208.055ZM408.073 208.055H409.988V212.864H415.95V208.055H417.865V219.588H415.95V214.561H409.988V219.588H408.073V208.055ZM424.64 219.805C424.002 219.805 423.436 219.718 422.943 219.544C422.464 219.356 422.058 219.102 421.724 218.783C421.39 218.464 421.137 218.086 420.963 217.651C420.788 217.216 420.701 216.737 420.701 216.215C420.701 215.069 421.035 214.242 421.702 213.734C422.384 213.227 423.356 212.973 424.618 212.973H428.361V212.189C428.361 211.203 428.136 210.521 427.686 210.144C427.251 209.767 426.591 209.578 425.706 209.578C424.879 209.578 424.277 209.738 423.9 210.057C423.523 210.362 423.313 210.71 423.269 211.101H421.354C421.383 210.637 421.507 210.209 421.724 209.817C421.956 209.411 422.261 209.063 422.638 208.773C423.03 208.483 423.494 208.258 424.031 208.098C424.567 207.924 425.162 207.837 425.815 207.837C427.179 207.837 428.259 208.164 429.057 208.817C429.87 209.455 430.276 210.507 430.276 211.972V216.65C430.276 217.26 430.276 217.796 430.276 218.261C430.29 218.71 430.327 219.153 430.385 219.588H428.709C428.666 219.254 428.637 218.942 428.622 218.652C428.608 218.348 428.6 218.007 428.6 217.629C428.296 218.239 427.803 218.754 427.121 219.174C426.439 219.595 425.612 219.805 424.64 219.805ZM425.053 218.065C425.503 218.065 425.924 218.007 426.316 217.891C426.722 217.76 427.077 217.579 427.382 217.347C427.686 217.1 427.926 216.803 428.1 216.454C428.274 216.106 428.361 215.7 428.361 215.236V214.452H424.945C424.234 214.452 423.675 214.598 423.269 214.888C422.863 215.163 422.66 215.606 422.66 216.215C422.66 216.752 422.848 217.194 423.226 217.542C423.617 217.891 424.227 218.065 425.053 218.065ZM433.114 219.805C432.897 219.805 432.679 219.784 432.461 219.74V217.825C432.534 217.84 432.643 217.847 432.788 217.847C433.107 217.847 433.383 217.746 433.615 217.542C433.861 217.339 434.057 216.984 434.202 216.476C434.347 215.968 434.456 215.279 434.529 214.409C434.601 213.539 434.637 212.436 434.637 211.101V208.055H442.906V219.588H440.991V209.752H436.552V211.537C436.552 213.147 436.48 214.481 436.335 215.54C436.19 216.599 435.972 217.448 435.682 218.086C435.406 218.71 435.051 219.153 434.616 219.414C434.18 219.675 433.68 219.805 433.114 219.805Z" fill="#333333"/>
<path d="M748.259 121.404H750.304V133.373L758.399 121.404H760.444V136.637H758.399V124.669L750.304 136.637H748.259V121.404ZM768.817 136.854C768.077 136.854 767.388 136.738 766.75 136.506C766.112 136.26 765.56 135.897 765.096 135.418C764.632 134.925 764.262 134.308 763.986 133.569C763.725 132.829 763.595 131.965 763.595 130.979V130.544C763.595 129.615 763.74 128.796 764.03 128.085C764.32 127.374 764.704 126.787 765.183 126.322C765.662 125.844 766.213 125.488 766.837 125.256C767.475 125.009 768.135 124.886 768.817 124.886C769.499 124.886 770.108 124.98 770.645 125.169C771.196 125.358 771.668 125.619 772.059 125.952C772.466 126.286 772.792 126.678 773.039 127.127C773.3 127.577 773.488 128.063 773.604 128.585H771.646C771.53 128.31 771.392 128.056 771.233 127.824C771.087 127.577 770.899 127.367 770.667 127.193C770.449 127.019 770.188 126.881 769.883 126.779C769.579 126.678 769.223 126.627 768.817 126.627C768.396 126.627 767.99 126.707 767.599 126.866C767.207 127.011 766.859 127.244 766.554 127.563C766.249 127.867 766.003 128.266 765.814 128.759C765.64 129.253 765.553 129.847 765.553 130.544V130.979C765.553 131.719 765.64 132.357 765.814 132.894C766.003 133.416 766.249 133.844 766.554 134.178C766.859 134.497 767.207 134.736 767.599 134.896C767.99 135.041 768.396 135.113 768.817 135.113C769.528 135.113 770.123 134.939 770.601 134.591C771.095 134.243 771.443 133.764 771.646 133.155H773.604C773.329 134.301 772.763 135.208 771.907 135.875C771.051 136.528 770.021 136.854 768.817 136.854ZM779.135 130.783L775.022 125.104H777.242L780.288 129.303L783.335 125.104H785.467L781.354 130.674L785.685 136.637H783.422L780.201 132.132L776.981 136.637H774.805L779.135 130.783ZM792.328 136.854C791.588 136.854 790.884 136.738 790.217 136.506C789.55 136.26 788.962 135.897 788.454 135.418C787.947 134.925 787.54 134.308 787.236 133.569C786.931 132.829 786.779 131.965 786.779 130.979V130.544C786.779 129.615 786.931 128.796 787.236 128.085C787.54 127.374 787.947 126.787 788.454 126.322C788.962 125.844 789.55 125.488 790.217 125.256C790.884 125.009 791.588 124.886 792.328 124.886C793.067 124.886 793.771 125.009 794.438 125.256C795.106 125.488 795.693 125.844 796.201 126.322C796.709 126.787 797.115 127.374 797.42 128.085C797.724 128.796 797.877 129.615 797.877 130.544V130.979C797.877 131.965 797.724 132.829 797.42 133.569C797.115 134.308 796.709 134.925 796.201 135.418C795.693 135.897 795.106 136.26 794.438 136.506C793.771 136.738 793.067 136.854 792.328 136.854ZM792.328 135.113C792.763 135.113 793.198 135.041 793.633 134.896C794.068 134.736 794.453 134.497 794.787 134.178C795.12 133.844 795.389 133.416 795.592 132.894C795.809 132.372 795.918 131.733 795.918 130.979V130.544C795.918 129.847 795.809 129.253 795.592 128.759C795.389 128.266 795.12 127.86 794.787 127.541C794.453 127.222 794.068 126.99 793.633 126.845C793.198 126.699 792.763 126.627 792.328 126.627C791.892 126.627 791.457 126.699 791.022 126.845C790.587 126.99 790.202 127.222 789.869 127.541C789.535 127.86 789.259 128.266 789.042 128.759C788.839 129.253 788.737 129.847 788.737 130.544V130.979C788.737 131.733 788.839 132.372 789.042 132.894C789.259 133.416 789.535 133.844 789.869 134.178C790.202 134.497 790.587 134.736 791.022 134.896C791.457 135.041 791.892 135.113 792.328 135.113ZM799.07 134.939H800.484C800.644 134.722 800.789 134.388 800.92 133.938C801.05 133.489 801.166 132.959 801.268 132.35C801.369 131.741 801.442 131.081 801.485 130.37C801.543 129.644 801.572 128.905 801.572 128.15V125.104H809.624V134.939H811.256V139.357H809.428V136.637H800.898V139.357H799.07V134.939ZM807.709 134.939V126.801H803.444V128.585C803.444 129.195 803.422 129.804 803.378 130.413C803.335 131.008 803.27 131.581 803.183 132.132C803.096 132.669 802.987 133.184 802.856 133.677C802.74 134.156 802.602 134.577 802.443 134.939H807.709ZM813.551 125.104H815.466V129.913H821.428V125.104H823.343V136.637H821.428V131.61H815.466V136.637H813.551V125.104ZM826.832 125.104H828.747V129.456H831.076C832.526 129.456 833.592 129.775 834.274 130.413C834.971 131.052 835.319 131.936 835.319 133.068C835.319 134.171 834.971 135.041 834.274 135.679C833.592 136.318 832.526 136.637 831.076 136.637H826.832V125.104ZM830.967 134.939C831.866 134.939 832.497 134.78 832.86 134.461C833.223 134.142 833.404 133.67 833.404 133.046C833.404 132.422 833.223 131.951 832.86 131.632C832.497 131.313 831.866 131.153 830.967 131.153H828.747V134.939H830.967ZM837.103 125.104H839.018V136.637H837.103V125.104ZM842.494 125.104H844.409V133.808L850.371 125.104H852.286V136.637H850.371V127.933L844.409 136.637H842.494V125.104ZM847.39 123.689C846.258 123.689 845.431 123.45 844.909 122.971C844.387 122.478 844.126 121.774 844.126 120.86H845.997C845.997 121.847 846.461 122.34 847.39 122.34C848.347 122.34 848.826 121.847 848.826 120.86H850.654C850.654 121.774 850.393 122.478 849.871 122.971C849.348 123.45 848.521 123.689 847.39 123.689ZM865.676 136.854C864.936 136.854 864.247 136.738 863.609 136.506C862.971 136.26 862.419 135.897 861.955 135.418C861.491 134.925 861.121 134.308 860.845 133.569C860.584 132.829 860.454 131.965 860.454 130.979V130.544C860.454 129.615 860.599 128.796 860.889 128.085C861.179 127.374 861.563 126.787 862.042 126.322C862.521 125.844 863.072 125.488 863.696 125.256C864.334 125.009 864.994 124.886 865.676 124.886C866.358 124.886 866.967 124.98 867.504 125.169C868.055 125.358 868.527 125.619 868.918 125.952C869.325 126.286 869.651 126.678 869.898 127.127C870.159 127.577 870.347 128.063 870.463 128.585H868.505C868.389 128.31 868.251 128.056 868.092 127.824C867.946 127.577 867.758 127.367 867.526 127.193C867.308 127.019 867.047 126.881 866.742 126.779C866.438 126.678 866.082 126.627 865.676 126.627C865.255 126.627 864.849 126.707 864.458 126.866C864.066 127.011 863.718 127.244 863.413 127.563C863.108 127.867 862.862 128.266 862.673 128.759C862.499 129.253 862.412 129.847 862.412 130.544V130.979C862.412 131.719 862.499 132.357 862.673 132.894C862.862 133.416 863.108 133.844 863.413 134.178C863.718 134.497 864.066 134.736 864.458 134.896C864.849 135.041 865.255 135.113 865.676 135.113C866.387 135.113 866.982 134.939 867.461 134.591C867.954 134.243 868.302 133.764 868.505 133.155H870.463C870.188 134.301 869.622 135.208 868.766 135.875C867.91 136.528 866.88 136.854 865.676 136.854ZM873.073 125.104H874.988V133.808L880.95 125.104H882.865V136.637H880.95V127.933L874.988 136.637H873.073V125.104ZM886.354 125.104H894.188V126.801H888.269V136.637H886.354V125.104ZM896.363 125.104H898.278V129.913H904.241V125.104H906.156V136.637H904.241V131.61H898.278V136.637H896.363V125.104ZM912.931 136.854C912.292 136.854 911.727 136.767 911.233 136.593C910.755 136.405 910.348 136.151 910.015 135.832C909.681 135.512 909.427 135.135 909.253 134.7C909.079 134.265 908.992 133.786 908.992 133.264C908.992 132.118 909.326 131.291 909.993 130.783C910.675 130.275 911.647 130.022 912.909 130.022H916.652V129.238C916.652 128.252 916.427 127.57 915.977 127.193C915.542 126.816 914.882 126.627 913.997 126.627C913.17 126.627 912.568 126.787 912.191 127.106C911.814 127.41 911.603 127.758 911.56 128.15H909.645C909.674 127.686 909.797 127.258 910.015 126.866C910.247 126.46 910.552 126.112 910.929 125.822C911.32 125.532 911.785 125.307 912.321 125.147C912.858 124.973 913.453 124.886 914.106 124.886C915.469 124.886 916.55 125.213 917.348 125.865C918.16 126.504 918.567 127.555 918.567 129.021V133.699C918.567 134.308 918.567 134.845 918.567 135.309C918.581 135.759 918.617 136.202 918.675 136.637H917C916.956 136.303 916.927 135.991 916.913 135.701C916.898 135.396 916.891 135.055 916.891 134.678C916.586 135.288 916.093 135.803 915.411 136.223C914.729 136.644 913.903 136.854 912.931 136.854ZM913.344 135.113C913.794 135.113 914.214 135.055 914.606 134.939C915.012 134.809 915.368 134.628 915.672 134.395C915.977 134.149 916.216 133.851 916.391 133.503C916.565 133.155 916.652 132.749 916.652 132.285V131.501H913.235C912.524 131.501 911.966 131.646 911.56 131.936C911.154 132.212 910.95 132.655 910.95 133.264C910.95 133.801 911.139 134.243 911.516 134.591C911.908 134.939 912.517 135.113 913.344 135.113ZM921.405 136.854C921.187 136.854 920.97 136.833 920.752 136.789V134.874C920.824 134.889 920.933 134.896 921.078 134.896C921.397 134.896 921.673 134.794 921.905 134.591C922.152 134.388 922.348 134.033 922.493 133.525C922.638 133.017 922.747 132.328 922.819 131.458C922.892 130.587 922.928 129.485 922.928 128.15V125.104H931.197V136.637H929.282V126.801H924.843V128.585C924.843 130.196 924.77 131.53 924.625 132.589C924.48 133.648 924.263 134.497 923.972 135.135C923.697 135.759 923.341 136.202 922.906 136.463C922.471 136.724 921.971 136.854 921.405 136.854Z" fill="#333333"/>
<path d="M655.919 361.499C655.542 361.746 655.013 361.97 654.331 362.174C653.649 362.377 652.866 362.478 651.981 362.478C650.196 362.478 648.898 362.079 648.086 361.281C647.273 360.469 646.867 359.185 646.867 357.43V352.969H648.913V357.43C648.913 358.576 649.166 359.403 649.674 359.91C650.182 360.404 651.023 360.65 652.198 360.65C653.098 360.65 653.845 360.542 654.44 360.324C655.049 360.106 655.542 359.874 655.919 359.628V352.969H657.965V368.201H655.919V361.499ZM665.166 368.419C664.528 368.419 663.962 368.332 663.468 368.158C662.99 367.969 662.584 367.715 662.25 367.396C661.916 367.077 661.662 366.7 661.488 366.265C661.314 365.829 661.227 365.351 661.227 364.828C661.227 363.682 661.561 362.855 662.228 362.348C662.91 361.84 663.882 361.586 665.144 361.586H668.887V360.803C668.887 359.816 668.662 359.134 668.212 358.757C667.777 358.38 667.117 358.191 666.232 358.191C665.405 358.191 664.803 358.351 664.426 358.67C664.049 358.975 663.838 359.323 663.795 359.715H661.88C661.909 359.25 662.032 358.822 662.25 358.431C662.482 358.025 662.787 357.676 663.164 357.386C663.556 357.096 664.02 356.871 664.557 356.712C665.093 356.538 665.688 356.451 666.341 356.451C667.705 356.451 668.785 356.777 669.583 357.43C670.396 358.068 670.802 359.12 670.802 360.585V365.264C670.802 365.873 670.802 366.41 670.802 366.874C670.816 367.324 670.853 367.766 670.911 368.201H669.235C669.191 367.868 669.162 367.556 669.148 367.265C669.133 366.961 669.126 366.62 669.126 366.243C668.822 366.852 668.328 367.367 667.646 367.788C666.965 368.208 666.138 368.419 665.166 368.419ZM665.579 366.678C666.029 366.678 666.45 366.62 666.841 366.504C667.248 366.373 667.603 366.192 667.908 365.96C668.212 365.713 668.452 365.416 668.626 365.068C668.8 364.72 668.887 364.313 668.887 363.849V363.066H665.47C664.76 363.066 664.201 363.211 663.795 363.501C663.389 363.777 663.186 364.219 663.186 364.828C663.186 365.365 663.374 365.808 663.751 366.156C664.143 366.504 664.752 366.678 665.579 366.678ZM678.645 368.419C677.905 368.419 677.216 368.303 676.578 368.071C675.939 367.824 675.388 367.461 674.924 366.983C674.46 366.489 674.09 365.873 673.814 365.133C673.553 364.393 673.422 363.53 673.422 362.543V362.108C673.422 361.18 673.567 360.36 673.858 359.649C674.148 358.939 674.532 358.351 675.011 357.887C675.49 357.408 676.041 357.053 676.665 356.821C677.303 356.574 677.963 356.451 678.645 356.451C679.327 356.451 679.936 356.545 680.473 356.733C681.024 356.922 681.495 357.183 681.887 357.517C682.293 357.85 682.62 358.242 682.866 358.692C683.127 359.142 683.316 359.628 683.432 360.15H681.474C681.358 359.874 681.22 359.62 681.06 359.388C680.915 359.142 680.727 358.931 680.494 358.757C680.277 358.583 680.016 358.445 679.711 358.344C679.406 358.242 679.051 358.191 678.645 358.191C678.224 358.191 677.818 358.271 677.426 358.431C677.035 358.576 676.686 358.808 676.382 359.127C676.077 359.432 675.83 359.831 675.642 360.324C675.468 360.817 675.381 361.412 675.381 362.108V362.543C675.381 363.283 675.468 363.922 675.642 364.458C675.83 364.981 676.077 365.409 676.382 365.742C676.686 366.061 677.035 366.301 677.426 366.46C677.818 366.605 678.224 366.678 678.645 366.678C679.356 366.678 679.95 366.504 680.429 366.156C680.922 365.808 681.271 365.329 681.474 364.72H683.432C683.156 365.866 682.591 366.772 681.735 367.44C680.879 368.092 679.849 368.419 678.645 368.419ZM688.675 358.365H684.736V356.668H694.528V358.365H690.59V368.201H688.675V358.365ZM701.284 368.419C700.544 368.419 699.841 368.303 699.173 368.071C698.506 367.824 697.918 367.461 697.411 366.983C696.903 366.489 696.497 365.873 696.192 365.133C695.888 364.393 695.735 363.53 695.735 362.543V362.108C695.735 361.18 695.888 360.36 696.192 359.649C696.497 358.939 696.903 358.351 697.411 357.887C697.918 357.408 698.506 357.053 699.173 356.821C699.841 356.574 700.544 356.451 701.284 356.451C702.024 356.451 702.728 356.574 703.395 356.821C704.062 357.053 704.65 357.408 705.157 357.887C705.665 358.351 706.071 358.939 706.376 359.649C706.681 360.36 706.833 361.18 706.833 362.108V362.543C706.833 363.53 706.681 364.393 706.376 365.133C706.071 365.873 705.665 366.489 705.157 366.983C704.65 367.461 704.062 367.824 703.395 368.071C702.728 368.303 702.024 368.419 701.284 368.419ZM701.284 366.678C701.719 366.678 702.154 366.605 702.59 366.46C703.025 366.301 703.409 366.061 703.743 365.742C704.077 365.409 704.345 364.981 704.548 364.458C704.766 363.936 704.875 363.298 704.875 362.543V362.108C704.875 361.412 704.766 360.817 704.548 360.324C704.345 359.831 704.077 359.424 703.743 359.105C703.409 358.786 703.025 358.554 702.59 358.409C702.154 358.264 701.719 358.191 701.284 358.191C700.849 358.191 700.414 358.264 699.978 358.409C699.543 358.554 699.159 358.786 698.825 359.105C698.491 359.424 698.216 359.831 697.998 360.324C697.795 360.817 697.694 361.412 697.694 362.108V362.543C697.694 363.298 697.795 363.936 697.998 364.458C698.216 364.981 698.491 365.409 698.825 365.742C699.159 366.061 699.543 366.301 699.978 366.46C700.414 366.605 700.849 366.678 701.284 366.678ZM711.965 358.365H708.026V356.668H717.819V358.365H713.88V368.201H711.965V358.365ZM722.86 368.419C722.222 368.419 721.656 368.332 721.163 368.158C720.684 367.969 720.278 367.715 719.945 367.396C719.611 367.077 719.357 366.7 719.183 366.265C719.009 365.829 718.922 365.351 718.922 364.828C718.922 363.682 719.256 362.855 719.923 362.348C720.605 361.84 721.577 361.586 722.839 361.586H726.582V360.803C726.582 359.816 726.357 359.134 725.907 358.757C725.472 358.38 724.812 358.191 723.927 358.191C723.1 358.191 722.498 358.351 722.121 358.67C721.743 358.975 721.533 359.323 721.49 359.715H719.575C719.604 359.25 719.727 358.822 719.945 358.431C720.177 358.025 720.481 357.676 720.859 357.386C721.25 357.096 721.714 356.871 722.251 356.712C722.788 356.538 723.383 356.451 724.036 356.451C725.399 356.451 726.48 356.777 727.278 357.43C728.09 358.068 728.496 359.12 728.496 360.585V365.264C728.496 365.873 728.496 366.41 728.496 366.874C728.511 367.324 728.547 367.766 728.605 368.201H726.93C726.886 367.868 726.857 367.556 726.843 367.265C726.828 366.961 726.821 366.62 726.821 366.243C726.516 366.852 726.023 367.367 725.341 367.788C724.659 368.208 723.832 368.419 722.86 368.419ZM723.274 366.678C723.724 366.678 724.144 366.62 724.536 366.504C724.942 366.373 725.298 366.192 725.602 365.96C725.907 365.713 726.146 365.416 726.32 365.068C726.494 364.72 726.582 364.313 726.582 363.849V363.066H723.165C722.454 363.066 721.896 363.211 721.49 363.501C721.083 363.777 720.88 364.219 720.88 364.828C720.88 365.365 721.069 365.808 721.446 366.156C721.838 366.504 722.447 366.678 723.274 366.678Z" fill="black"/>
<path d="M220.959 100.201L215.185 110.201H226.732L220.959 100.201ZM220.959 333.767H219.959V334.767H220.959V333.767ZM1202.57 333.767L1192.57 327.994V339.541L1202.57 333.767ZM219.959 109.201V333.767H221.959V109.201H219.959ZM220.959 334.767H1193.57V332.767H220.959V334.767Z" fill="black"/>
<path d="M756.748 198.588L767.902 195.599L759.737 187.434L756.748 198.588ZM763.819 192.931L806.49 150.26L805.076 148.846L762.405 191.517L763.819 192.931Z" fill="black"/>
<path d="M423.82 279.766L412.667 276.777L420.832 268.612L423.82 279.766ZM416.749 274.109L374.078 231.438L375.492 230.023L418.163 272.695L416.749 274.109Z" fill="black"/>
<path d="M746.01 333.766C746.01 204.772 719.867 100.202 687.618 100.202C655.369 100.202 629.227 204.772 629.227 333.766" stroke="#F2994A" stroke-width="4"/>
<path d="M992.523 333.766C992.523 286.75 856.013 248.637 687.618 248.637C519.224 248.637 382.713 286.75 382.713 333.766" stroke="#315390" stroke-width="4"/>
</svg>
