<svg width="1024" height="526" viewBox="0 0 1024 526" fill="none" xmlns="http://www.w3.org/2000/svg">
<rect width="1023.46" height="524.759" transform="translate(0 0.288086)" fill="white"/>
<path d="M322.326 301.501C322.326 255.934 285.387 218.994 239.819 218.994C194.252 218.994 157.312 255.934 157.312 301.501" stroke="#F2994A" stroke-width="2.84229"/>
<path d="M358.504 301.501C358.504 255.934 321.564 218.994 275.997 218.994C230.43 218.994 193.49 255.934 193.49 301.501" stroke="#9B51E0" stroke-width="2.84229"/>
<path d="M394.682 301.501C394.682 255.934 357.742 218.994 312.175 218.994C266.608 218.994 229.668 255.934 229.668 301.501" stroke="#9B51E0" stroke-width="2.84229"/>
<path d="M430.861 301.501C430.861 255.934 393.922 218.994 348.354 218.994C302.787 218.994 265.848 255.934 265.848 301.501" stroke="#9B51E0" stroke-width="2.84229"/>
<path d="M467.039 301.501C467.039 255.934 430.099 218.994 384.532 218.994C338.965 218.994 302.025 255.934 302.025 301.501" stroke="#9B51E0" stroke-width="2.84229"/>
<path d="M503.217 301.501C503.217 255.934 466.277 218.994 420.71 218.994C375.143 218.994 338.203 255.934 338.203 301.501" stroke="#F2994A" stroke-width="2.84229"/>
<path d="M539.394 301.501C539.394 255.934 502.455 218.994 456.888 218.994C411.32 218.994 374.381 255.934 374.381 301.501" stroke="#9B51E0" stroke-width="2.84229"/>
<path d="M575.572 301.501C575.572 255.934 538.633 218.994 493.065 218.994C447.498 218.994 410.559 255.934 410.559 301.501" stroke="#9B51E0" stroke-width="2.84229"/>
<path d="M611.75 301.501C611.75 255.934 574.81 218.994 529.243 218.994C483.676 218.994 446.736 255.934 446.736 301.501" stroke="#9B51E0" stroke-width="2.84229"/>
<path d="M647.93 301.501C647.93 255.934 610.99 218.994 565.423 218.994C519.856 218.994 482.916 255.934 482.916 301.501" stroke="#9B51E0" stroke-width="2.84229"/>
<path d="M684.107 301.501C684.107 255.934 647.168 218.994 601.601 218.994C556.033 218.994 519.094 255.934 519.094 301.501" stroke="#F2994A" stroke-width="2.84229"/>
<path d="M241.998 211.647V191.962" stroke="black" stroke-width="2"/>
<path d="M275.998 211.647V191.962" stroke="black" stroke-width="2"/>
<path d="M309.996 211.647V191.962" stroke="black" stroke-width="2"/>
<path d="M343.996 211.647V191.962" stroke="black" stroke-width="2"/>
<path d="M377.994 211.647V191.962" stroke="black" stroke-width="2"/>
<path d="M411.994 211.647V191.962" stroke="black" stroke-width="2"/>
<path d="M445.994 211.647V191.962" stroke="black" stroke-width="2"/>
<path d="M479.992 211.647V191.962" stroke="black" stroke-width="2"/>
<path d="M513.992 211.647V191.962" stroke="black" stroke-width="2"/>
<path d="M547.99 211.647V191.962" stroke="black" stroke-width="2"/>
<path d="M581.99 211.647V191.962" stroke="black" stroke-width="2"/>
<path d="M130.736 255.27V301.501H886.961V255.27" stroke="black" stroke-width="2"/>
<path d="M130.736 218.994V301.501H886.961V218.994" stroke="black" stroke-width="2"/>
<path d="M157.312 301.501V347.732H193.49V301.501" stroke="black"/>
<path d="M157.312 390.079V412.547H187.566M322.326 302.128V412.547H291.332" stroke="black"/>
<path d="M130.736 159.02V112.788H269.079H343.883M684.107 159.02V112.788H545.765H472.081" stroke="black"/>
<path d="M214.945 288.292V318.013" stroke="black" stroke-width="2"/>
<path d="M289.43 288.292V318.013" stroke="black" stroke-width="2"/>
<path d="M363.912 288.292V318.013" stroke="black" stroke-width="2"/>
<path d="M438.395 288.292V318.013" stroke="black" stroke-width="2"/>
<path d="M512.879 288.292V318.013" stroke="black" stroke-width="2"/>
<path d="M587.363 288.292V318.013" stroke="black" stroke-width="2"/>
<path d="M661.848 288.292V318.013" stroke="black" stroke-width="2"/>
<path d="M736.328 288.292V318.013" stroke="black" stroke-width="2"/>
<path d="M810.812 288.292V318.013" stroke="black" stroke-width="2"/>
<path d="M369.946 106.056H371.991V112.606H373.732L379.695 106.056H382.132L375.473 113.324L382.349 121.288H379.738L373.732 114.303H371.991V121.288H369.946V106.056ZM387.821 121.506C387.182 121.506 386.617 121.419 386.123 121.245C385.645 121.056 385.238 120.802 384.905 120.483C384.571 120.164 384.317 119.787 384.143 119.351C383.969 118.916 383.882 118.437 383.882 117.915C383.882 116.769 384.216 115.942 384.883 115.435C385.565 114.927 386.537 114.673 387.799 114.673H391.542V113.89C391.542 112.903 391.317 112.221 390.867 111.844C390.432 111.467 389.772 111.278 388.887 111.278C388.06 111.278 387.458 111.438 387.081 111.757C386.704 112.062 386.493 112.41 386.45 112.802H384.535C384.564 112.337 384.687 111.909 384.905 111.518C385.137 111.111 385.441 110.763 385.819 110.473C386.21 110.183 386.675 109.958 387.211 109.799C387.748 109.625 388.343 109.537 388.996 109.537C390.359 109.537 391.44 109.864 392.238 110.517C393.05 111.155 393.457 112.207 393.457 113.672V118.35C393.457 118.96 393.457 119.496 393.457 119.961C393.471 120.41 393.507 120.853 393.565 121.288H391.89C391.846 120.954 391.817 120.643 391.803 120.352C391.788 120.048 391.781 119.707 391.781 119.33C391.476 119.939 390.983 120.454 390.301 120.875C389.619 121.295 388.793 121.506 387.821 121.506ZM388.234 119.765C388.684 119.765 389.104 119.707 389.496 119.591C389.902 119.46 390.258 119.279 390.562 119.047C390.867 118.8 391.106 118.503 391.281 118.155C391.455 117.806 391.542 117.4 391.542 116.936V116.153H388.125C387.414 116.153 386.856 116.298 386.45 116.588C386.044 116.863 385.84 117.306 385.84 117.915C385.84 118.452 386.029 118.894 386.406 119.243C386.798 119.591 387.407 119.765 388.234 119.765ZM396.839 109.755H398.754V114.564H404.716V109.755H406.631V121.288H404.716V116.261H398.754V121.288H396.839V109.755ZM413.406 121.506C412.768 121.506 412.202 121.419 411.709 121.245C411.23 121.056 410.824 120.802 410.49 120.483C410.156 120.164 409.903 119.787 409.729 119.351C409.554 118.916 409.467 118.437 409.467 117.915C409.467 116.769 409.801 115.942 410.468 115.435C411.15 114.927 412.122 114.673 413.384 114.673H417.127V113.89C417.127 112.903 416.902 112.221 416.452 111.844C416.017 111.467 415.357 111.278 414.472 111.278C413.645 111.278 413.043 111.438 412.666 111.757C412.289 112.062 412.079 112.41 412.035 112.802H410.12C410.149 112.337 410.273 111.909 410.49 111.518C410.722 111.111 411.027 110.763 411.404 110.473C411.796 110.183 412.26 109.958 412.797 109.799C413.333 109.625 413.928 109.537 414.581 109.537C415.945 109.537 417.025 109.864 417.823 110.517C418.636 111.155 419.042 112.207 419.042 113.672V118.35C419.042 118.96 419.042 119.496 419.042 119.961C419.056 120.41 419.093 120.853 419.151 121.288H417.475C417.432 120.954 417.403 120.643 417.388 120.352C417.374 120.048 417.366 119.707 417.366 119.33C417.062 119.939 416.569 120.454 415.887 120.875C415.205 121.295 414.378 121.506 413.406 121.506ZM413.819 119.765C414.269 119.765 414.69 119.707 415.082 119.591C415.488 119.46 415.843 119.279 416.148 119.047C416.452 118.8 416.692 118.503 416.866 118.155C417.04 117.806 417.127 117.4 417.127 116.936V116.153H413.711C413 116.153 412.441 116.298 412.035 116.588C411.629 116.863 411.426 117.306 411.426 117.915C411.426 118.452 411.614 118.894 411.992 119.243C412.383 119.591 412.993 119.765 413.819 119.765ZM421.88 121.506C421.663 121.506 421.445 121.484 421.227 121.44V119.525C421.3 119.54 421.409 119.547 421.554 119.547C421.873 119.547 422.149 119.446 422.381 119.243C422.627 119.04 422.823 118.684 422.968 118.176C423.113 117.669 423.222 116.98 423.295 116.109C423.367 115.239 423.403 114.136 423.403 112.802V109.755H431.672V121.288H429.757V111.452H425.318V113.237C425.318 114.847 425.246 116.182 425.101 117.241C424.956 118.3 424.738 119.148 424.448 119.787C424.172 120.41 423.817 120.853 423.382 121.114C422.946 121.375 422.446 121.506 421.88 121.506ZM435.153 109.755H437.068V114.107H439.396C440.847 114.107 441.913 114.426 442.595 115.065C443.291 115.703 443.64 116.588 443.64 117.719C443.64 118.822 443.291 119.692 442.595 120.331C441.913 120.969 440.847 121.288 439.396 121.288H435.153V109.755ZM439.288 119.591C440.187 119.591 440.818 119.431 441.181 119.112C441.543 118.793 441.725 118.321 441.725 117.698C441.725 117.074 441.543 116.602 441.181 116.283C440.818 115.964 440.187 115.804 439.288 115.804H437.068V119.591H439.288ZM445.424 109.755H447.339V121.288H445.424V109.755Z" fill="#333333"/>
<path d="M101.214 208.629L107.306 203.341C107.771 202.95 108.148 202.594 108.438 202.275C108.743 201.956 108.982 201.659 109.156 201.383C109.33 201.093 109.446 200.81 109.504 200.534C109.577 200.259 109.613 199.961 109.613 199.642C109.613 198.786 109.359 198.083 108.851 197.531C108.344 196.966 107.647 196.683 106.762 196.683C105.703 196.683 104.891 196.973 104.325 197.553C103.76 198.119 103.477 198.924 103.477 199.969H101.431C101.431 199.229 101.554 198.547 101.801 197.923C102.062 197.285 102.425 196.741 102.889 196.291C103.368 195.841 103.934 195.493 104.586 195.247C105.239 194.985 105.965 194.855 106.762 194.855C107.531 194.855 108.22 194.978 108.83 195.225C109.439 195.457 109.954 195.791 110.375 196.226C110.795 196.646 111.115 197.147 111.332 197.727C111.55 198.307 111.659 198.946 111.659 199.642C111.659 200.164 111.579 200.65 111.419 201.1C111.26 201.55 111.035 201.978 110.745 202.384C110.469 202.79 110.128 203.189 109.722 203.581C109.33 203.958 108.895 204.35 108.416 204.756L103.868 208.52H111.876V210.305H101.214V208.629ZM116.23 210.522C115.809 210.522 115.447 210.377 115.142 210.087C114.852 209.782 114.707 209.42 114.707 208.999C114.707 208.564 114.852 208.201 115.142 207.911C115.447 207.621 115.809 207.476 116.23 207.476C116.651 207.476 117.006 207.621 117.296 207.911C117.601 208.201 117.753 208.564 117.753 208.999C117.753 209.42 117.601 209.782 117.296 210.087C117.006 210.377 116.651 210.522 116.23 210.522ZM127.672 206.627H119.925V205.06L127.454 195.072H129.717V204.843H131.676V206.627H129.717V210.305H127.672V206.627ZM127.672 204.843V197.466L122.101 204.843H127.672ZM140.387 195.072H149.962V196.857H142.433V210.305H140.387V195.072ZM152.564 195.072H162.138V196.857H154.609V210.305H152.564V195.072ZM171.282 210.305H161.904V198.772H163.819V208.607H169.346V198.772H171.261V208.607H173.11V213.025H171.282V210.305Z" fill="#333333"/>
<path d="M237.914 178.235H241.548V167.029L237.914 169.618V167.399L241.592 164.787H243.637V178.235H246.618V180.02H237.914V178.235Z" fill="#333333"/>
<path d="M270.553 178.344L276.646 173.056C277.11 172.665 277.488 172.309 277.778 171.99C278.082 171.671 278.322 171.373 278.496 171.098C278.67 170.808 278.786 170.525 278.844 170.249C278.916 169.974 278.953 169.676 278.953 169.357C278.953 168.501 278.699 167.797 278.191 167.246C277.683 166.68 276.987 166.398 276.102 166.398C275.043 166.398 274.231 166.688 273.665 167.268C273.099 167.834 272.816 168.639 272.816 169.683H270.771C270.771 168.944 270.894 168.262 271.141 167.638C271.402 167 271.765 166.456 272.229 166.006C272.707 165.556 273.273 165.208 273.926 164.961C274.579 164.7 275.304 164.57 276.102 164.57C276.871 164.57 277.56 164.693 278.169 164.94C278.779 165.172 279.294 165.505 279.714 165.941C280.135 166.361 280.454 166.862 280.672 167.442C280.889 168.022 280.998 168.661 280.998 169.357C280.998 169.879 280.918 170.365 280.759 170.815C280.599 171.265 280.374 171.693 280.084 172.099C279.809 172.505 279.468 172.904 279.062 173.296C278.67 173.673 278.235 174.064 277.756 174.471L273.208 178.235H281.216V180.02H270.553V178.344Z" fill="#333333"/>
<path d="M309.829 180.237C309.003 180.237 308.263 180.128 307.61 179.911C306.972 179.679 306.428 179.367 305.978 178.975C305.528 178.583 305.187 178.126 304.955 177.604C304.723 177.067 304.607 176.494 304.607 175.885H306.652C306.652 176.625 306.906 177.234 307.414 177.713C307.922 178.177 308.727 178.409 309.829 178.409C310.932 178.409 311.737 178.17 312.245 177.691C312.753 177.198 313.006 176.56 313.006 175.776C313.006 174.964 312.745 174.311 312.223 173.818C311.715 173.31 310.917 173.056 309.829 173.056H308.197V171.315H309.829C310.874 171.315 311.628 171.098 312.092 170.663C312.557 170.213 312.789 169.596 312.789 168.813C312.789 168.059 312.564 167.471 312.114 167.05C311.665 166.615 310.903 166.398 309.829 166.398C308.799 166.398 308.045 166.622 307.566 167.072C307.102 167.507 306.87 168.051 306.87 168.704H304.825C304.825 168.138 304.933 167.602 305.151 167.094C305.383 166.586 305.709 166.151 306.13 165.788C306.565 165.411 307.088 165.114 307.697 164.896C308.321 164.678 309.032 164.57 309.829 164.57C310.627 164.57 311.338 164.678 311.962 164.896C312.586 165.114 313.108 165.404 313.529 165.767C313.964 166.129 314.29 166.557 314.508 167.05C314.725 167.544 314.834 168.059 314.834 168.595C314.834 169.466 314.602 170.206 314.138 170.815C313.688 171.41 313.05 171.83 312.223 172.077C313.093 172.353 313.783 172.802 314.29 173.426C314.798 174.05 315.052 174.906 315.052 175.994C315.052 176.574 314.936 177.125 314.704 177.648C314.472 178.155 314.131 178.605 313.681 178.997C313.246 179.374 312.702 179.679 312.049 179.911C311.396 180.128 310.656 180.237 309.829 180.237Z" fill="#333333"/>
<path d="M345.029 176.342H337.283V174.775L344.812 164.787H347.075V174.558H349.033V176.342H347.075V180.02H345.029V176.342ZM345.029 174.558V167.181L339.459 174.558H345.029Z" fill="#333333"/>
<path d="M377.985 180.237C377.159 180.237 376.44 180.128 375.831 179.911C375.222 179.679 374.707 179.381 374.286 179.019C373.88 178.641 373.568 178.221 373.351 177.756C373.133 177.292 373.01 176.814 372.981 176.32H375.026C375.099 176.872 375.389 177.358 375.896 177.778C376.419 178.199 377.115 178.409 377.985 178.409C378.972 178.409 379.748 178.105 380.314 177.495C380.88 176.872 381.162 176.008 381.162 174.906C381.162 174.282 381.068 173.745 380.88 173.296C380.706 172.846 380.466 172.483 380.162 172.208C379.871 171.932 379.538 171.729 379.161 171.598C378.783 171.468 378.392 171.402 377.985 171.402C377.202 171.402 376.586 171.548 376.136 171.838C375.701 172.128 375.367 172.461 375.135 172.839H373.307V164.787H382.338V166.572H375.352V170.815C376.107 169.988 377.093 169.575 378.312 169.575C379.821 169.575 381.01 170.032 381.881 170.945C382.766 171.859 383.208 173.18 383.208 174.906C383.208 175.718 383.077 176.458 382.816 177.125C382.57 177.778 382.214 178.337 381.75 178.801C381.3 179.265 380.749 179.621 380.096 179.867C379.458 180.114 378.754 180.237 377.985 180.237Z" fill="#333333"/>
<path d="M411.749 180.237C410.908 180.237 410.146 180.099 409.464 179.824C408.783 179.548 408.195 179.127 407.702 178.562C407.223 177.981 406.853 177.256 406.592 176.386C406.331 175.515 406.2 174.478 406.2 173.274V172.839C406.2 171.344 406.353 170.075 406.657 169.031C406.962 167.972 407.375 167.116 407.898 166.463C408.42 165.796 409.029 165.317 409.726 165.027C410.422 164.722 411.169 164.57 411.967 164.57C413.142 164.57 414.128 164.853 414.926 165.418C415.739 165.97 416.275 166.811 416.537 167.943H414.491C414.085 166.913 413.244 166.398 411.967 166.398C411.416 166.398 410.908 166.492 410.444 166.68C409.979 166.869 409.573 167.181 409.225 167.616C408.891 168.051 408.623 168.632 408.42 169.357C408.217 170.082 408.101 170.989 408.072 172.077C408.275 171.729 408.522 171.431 408.812 171.185C409.102 170.924 409.414 170.721 409.747 170.576C410.096 170.416 410.451 170.3 410.814 170.227C411.176 170.155 411.524 170.119 411.858 170.119C413.381 170.119 414.593 170.547 415.492 171.402C416.406 172.244 416.863 173.455 416.863 175.036V175.254C416.863 175.979 416.725 176.647 416.45 177.256C416.188 177.865 415.826 178.395 415.362 178.844C414.897 179.28 414.353 179.621 413.73 179.867C413.106 180.114 412.446 180.237 411.749 180.237ZM411.575 178.409C412.634 178.409 413.439 178.141 413.991 177.604C414.542 177.067 414.818 176.291 414.818 175.276V175.058C414.818 174.057 414.542 173.288 413.991 172.752C413.439 172.215 412.634 171.946 411.575 171.946C410.516 171.946 409.711 172.215 409.16 172.752C408.609 173.288 408.333 174.057 408.333 175.058V175.276C408.333 176.277 408.609 177.053 409.16 177.604C409.711 178.141 410.516 178.409 411.575 178.409Z" fill="#333333"/>
<path d="M448.241 166.572H440.146V164.787H450.374V166.463L444.933 180.02H442.757L448.241 166.572Z" fill="#333333"/>
<path d="M479.473 180.237C478.573 180.237 477.783 180.128 477.101 179.911C476.419 179.693 475.846 179.396 475.382 179.019C474.932 178.641 474.591 178.199 474.359 177.691C474.141 177.169 474.033 176.603 474.033 175.994C474.033 175.123 474.308 174.347 474.86 173.666C475.411 172.969 476.223 172.476 477.297 172.186C476.905 172.055 476.535 171.881 476.187 171.664C475.853 171.431 475.556 171.163 475.295 170.858C475.034 170.554 474.831 170.213 474.685 169.836C474.54 169.444 474.468 169.031 474.468 168.595C474.468 168.03 474.577 167.5 474.794 167.007C475.012 166.514 475.331 166.093 475.752 165.745C476.172 165.382 476.695 165.099 477.318 164.896C477.942 164.678 478.66 164.57 479.473 164.57C480.285 164.57 481.003 164.678 481.627 164.896C482.251 165.099 482.773 165.382 483.194 165.745C483.614 166.093 483.934 166.514 484.151 167.007C484.369 167.5 484.478 168.03 484.478 168.595C484.478 169.466 484.202 170.206 483.651 170.815C483.114 171.424 482.447 171.881 481.649 172.186C482.737 172.548 483.549 173.027 484.086 173.622C484.637 174.217 484.913 175.007 484.913 175.994C484.913 176.603 484.797 177.169 484.565 177.691C484.347 178.199 484.006 178.641 483.542 179.019C483.092 179.396 482.526 179.693 481.845 179.911C481.163 180.128 480.372 180.237 479.473 180.237ZM479.473 178.409C480.097 178.409 480.626 178.344 481.061 178.213C481.496 178.068 481.845 177.887 482.106 177.669C482.381 177.437 482.577 177.169 482.693 176.864C482.809 176.545 482.867 176.211 482.867 175.863C482.867 175.457 482.78 175.087 482.606 174.754C482.447 174.42 482.215 174.13 481.91 173.883C481.605 173.622 481.243 173.419 480.822 173.274C480.416 173.114 479.966 173.005 479.473 172.947C478.98 173.005 478.523 173.114 478.102 173.274C477.696 173.419 477.34 173.615 477.036 173.861C476.731 174.108 476.492 174.405 476.317 174.754C476.158 175.087 476.078 175.457 476.078 175.863C476.078 176.211 476.136 176.545 476.252 176.864C476.368 177.169 476.557 177.437 476.818 177.669C477.094 177.887 477.449 178.068 477.884 178.213C478.319 178.344 478.849 178.409 479.473 178.409ZM479.473 171.424C480.343 171.308 481.054 171.033 481.605 170.597C482.157 170.148 482.432 169.517 482.432 168.704C482.432 167.964 482.186 167.399 481.692 167.007C481.214 166.601 480.474 166.398 479.473 166.398C478.457 166.398 477.71 166.601 477.231 167.007C476.753 167.399 476.513 167.964 476.513 168.704C476.513 169.517 476.789 170.148 477.34 170.597C477.891 171.033 478.602 171.308 479.473 171.424Z" fill="#333333"/>
<path d="M513.089 180.237C511.856 180.237 510.833 179.962 510.02 179.41C509.208 178.844 508.671 177.996 508.41 176.864H510.456C510.862 177.894 511.74 178.409 513.089 178.409C513.611 178.409 514.097 178.315 514.547 178.126C514.996 177.938 515.388 177.626 515.722 177.191C516.055 176.755 516.324 176.175 516.527 175.45C516.73 174.725 516.846 173.818 516.875 172.73C516.672 173.078 516.425 173.383 516.135 173.644C515.845 173.89 515.526 174.093 515.178 174.253C514.844 174.398 514.496 174.507 514.133 174.579C513.771 174.652 513.422 174.688 513.089 174.688C511.565 174.688 510.347 174.268 509.433 173.426C508.534 172.57 508.084 171.352 508.084 169.77V169.553C508.084 168.827 508.214 168.16 508.476 167.551C508.751 166.942 509.121 166.419 509.585 165.984C510.05 165.534 510.594 165.186 511.217 164.94C511.841 164.693 512.501 164.57 513.198 164.57C514.909 164.57 516.258 165.128 517.245 166.245C518.246 167.362 518.746 169.125 518.746 171.533V171.968C518.746 173.462 518.594 174.739 518.289 175.798C517.985 176.843 517.571 177.698 517.049 178.366C516.541 179.019 515.947 179.497 515.265 179.802C514.583 180.092 513.858 180.237 513.089 180.237ZM513.372 172.86C514.431 172.86 515.236 172.592 515.787 172.055C516.338 171.518 516.614 170.75 516.614 169.749V169.531C516.614 168.545 516.331 167.776 515.765 167.224C515.214 166.673 514.416 166.398 513.372 166.398C512.313 166.398 511.507 166.666 510.956 167.203C510.405 167.725 510.129 168.501 510.129 169.531V169.749C510.129 170.75 510.405 171.518 510.956 172.055C511.507 172.592 512.313 172.86 513.372 172.86Z" fill="#333333"/>
<path d="M537.14 178.235H540.774V167.029L537.14 169.618V167.399L540.817 164.787H542.863V178.235H545.844V180.02H537.14V178.235ZM553.25 180.237C552.51 180.237 551.807 180.114 551.139 179.867C550.487 179.621 549.914 179.2 549.42 178.605C548.927 177.996 548.535 177.191 548.245 176.19C547.955 175.174 547.81 173.912 547.81 172.403V171.968C547.81 170.561 547.955 169.386 548.245 168.443C548.535 167.5 548.927 166.746 549.42 166.18C549.914 165.6 550.487 165.186 551.139 164.94C551.807 164.693 552.51 164.57 553.25 164.57C553.99 164.57 554.686 164.693 555.339 164.94C556.006 165.186 556.587 165.6 557.08 166.18C557.573 166.746 557.965 167.5 558.255 168.443C558.545 169.386 558.69 170.561 558.69 171.968V172.403C558.69 173.912 558.545 175.174 558.255 176.19C557.965 177.191 557.573 177.996 557.08 178.605C556.587 179.2 556.006 179.621 555.339 179.867C554.686 180.114 553.99 180.237 553.25 180.237ZM553.25 178.453C553.7 178.453 554.128 178.373 554.534 178.213C554.955 178.039 555.317 177.735 555.622 177.299C555.941 176.85 556.188 176.233 556.362 175.45C556.55 174.666 556.645 173.651 556.645 172.403V171.968C556.645 170.837 556.55 169.908 556.362 169.183C556.188 168.458 555.941 167.885 555.622 167.464C555.317 167.043 554.955 166.753 554.534 166.593C554.128 166.434 553.7 166.354 553.25 166.354C552.786 166.354 552.351 166.434 551.945 166.593C551.538 166.753 551.176 167.043 550.856 167.464C550.552 167.885 550.305 168.458 550.117 169.183C549.943 169.908 549.856 170.837 549.856 171.968V172.403C549.856 173.651 549.943 174.666 550.117 175.45C550.305 176.233 550.552 176.85 550.856 177.299C551.176 177.735 551.538 178.039 551.945 178.213C552.351 178.373 552.786 178.453 553.25 178.453Z" fill="#333333"/>
<path d="M572.102 178.235H575.736V167.029L572.102 169.618V167.399L575.78 164.787H577.825V178.235H580.806V180.02H572.102V178.235ZM582.664 178.235H586.298V167.029L582.664 169.618V167.399L586.341 164.787H588.387V178.235H591.368V180.02H582.664V178.235Z" fill="#333333"/>
<path d="M150.284 373.639C149.457 373.639 148.739 373.531 148.129 373.313C147.52 373.081 147.005 372.784 146.585 372.421C146.178 372.044 145.866 371.623 145.649 371.159C145.431 370.695 145.308 370.216 145.279 369.723H147.324C147.397 370.274 147.687 370.76 148.195 371.181C148.717 371.601 149.413 371.812 150.284 371.812C151.27 371.812 152.046 371.507 152.612 370.898C153.178 370.274 153.461 369.411 153.461 368.308C153.461 367.684 153.366 367.148 153.178 366.698C153.004 366.248 152.764 365.886 152.46 365.61C152.17 365.334 151.836 365.131 151.459 365.001C151.082 364.87 150.69 364.805 150.284 364.805C149.5 364.805 148.884 364.95 148.434 365.24C147.999 365.53 147.665 365.864 147.433 366.241H145.605V358.19H154.636V359.974H147.651V364.217C148.405 363.39 149.392 362.977 150.61 362.977C152.119 362.977 153.308 363.434 154.179 364.348C155.064 365.262 155.506 366.582 155.506 368.308C155.506 369.121 155.376 369.86 155.115 370.528C154.868 371.181 154.513 371.739 154.048 372.203C153.599 372.668 153.047 373.023 152.395 373.27C151.756 373.516 151.053 373.639 150.284 373.639ZM164.212 358.19H166.345L171.437 367.873L176.528 358.19H178.574V373.422H176.528V361.889L172.155 370.158H170.631L166.258 361.889V373.422H164.212V358.19ZM182.934 358.19H192.508V359.974H184.979V373.422H182.934V358.19ZM201.652 373.422H192.274V361.889H194.189V371.725H199.716V361.889H201.631V371.725H203.48V376.142H201.652V373.422Z" fill="#333333"/>
<path d="M204.353 419.371L210.446 414.084C210.91 413.692 211.287 413.336 211.577 413.017C211.882 412.698 212.121 412.401 212.295 412.125C212.469 411.835 212.585 411.552 212.643 411.276C212.716 411.001 212.752 410.703 212.752 410.384C212.752 409.528 212.498 408.825 211.991 408.274C211.483 407.708 210.786 407.425 209.902 407.425C208.843 407.425 208.03 407.715 207.464 408.295C206.899 408.861 206.616 409.666 206.616 410.711H204.57C204.57 409.971 204.694 409.289 204.94 408.665C205.201 408.027 205.564 407.483 206.028 407.033C206.507 406.583 207.073 406.235 207.725 405.989C208.378 405.728 209.104 405.597 209.902 405.597C210.67 405.597 211.359 405.72 211.969 405.967C212.578 406.199 213.093 406.533 213.514 406.968C213.934 407.389 214.254 407.889 214.471 408.469C214.689 409.05 214.798 409.688 214.798 410.384C214.798 410.907 214.718 411.393 214.558 411.842C214.399 412.292 214.174 412.72 213.884 413.126C213.608 413.532 213.267 413.931 212.861 414.323C212.469 414.7 212.034 415.092 211.555 415.498L207.007 419.263H215.015V421.047H204.353V419.371ZM216.975 419.371L223.068 414.084C223.532 413.692 223.91 413.336 224.2 413.017C224.504 412.698 224.744 412.401 224.918 412.125C225.092 411.835 225.208 411.552 225.266 411.276C225.339 411.001 225.375 410.703 225.375 410.384C225.375 409.528 225.121 408.825 224.613 408.274C224.105 407.708 223.409 407.425 222.524 407.425C221.465 407.425 220.653 407.715 220.087 408.295C219.521 408.861 219.238 409.666 219.238 410.711H217.193C217.193 409.971 217.316 409.289 217.563 408.665C217.824 408.027 218.187 407.483 218.651 407.033C219.13 406.583 219.695 406.235 220.348 405.989C221.001 405.728 221.726 405.597 222.524 405.597C223.293 405.597 223.982 405.72 224.591 405.967C225.201 406.199 225.716 406.533 226.136 406.968C226.557 407.389 226.876 407.889 227.094 408.469C227.312 409.05 227.42 409.688 227.42 410.384C227.42 410.907 227.341 411.393 227.181 411.842C227.021 412.292 226.797 412.72 226.506 413.126C226.231 413.532 225.89 413.931 225.484 414.323C225.092 414.7 224.657 415.092 224.178 415.498L219.63 419.263H227.638V421.047H216.975V419.371ZM236.344 405.815H238.476L243.568 415.498L248.66 405.815H250.706V421.047H248.66V409.514L244.286 417.783H242.763L238.389 409.514V421.047H236.344V405.815ZM255.065 405.815H264.64V407.599H257.111V421.047H255.065V405.815ZM273.784 421.047H264.405V409.514H266.32V419.35H271.847V409.514H273.762V419.35H275.612V423.767H273.784V421.047Z" fill="#333333"/>
<path d="M851.504 208.629L857.597 203.341C858.061 202.95 858.438 202.594 858.728 202.275C859.033 201.956 859.272 201.659 859.446 201.383C859.621 201.093 859.737 200.81 859.795 200.534C859.867 200.259 859.903 199.961 859.903 199.642C859.903 198.786 859.65 198.083 859.142 197.531C858.634 196.966 857.938 196.683 857.053 196.683C855.994 196.683 855.181 196.973 854.616 197.553C854.05 198.119 853.767 198.924 853.767 199.969H851.721C851.721 199.229 851.845 198.547 852.091 197.923C852.353 197.285 852.715 196.741 853.179 196.291C853.658 195.841 854.224 195.493 854.877 195.247C855.53 194.985 856.255 194.855 857.053 194.855C857.822 194.855 858.511 194.978 859.12 195.225C859.729 195.457 860.244 195.791 860.665 196.226C861.086 196.646 861.405 197.147 861.622 197.727C861.84 198.307 861.949 198.946 861.949 199.642C861.949 200.164 861.869 200.65 861.709 201.1C861.55 201.55 861.325 201.978 861.035 202.384C860.759 202.79 860.418 203.189 860.012 203.581C859.621 203.958 859.185 204.35 858.707 204.756L854.159 208.52H862.166V210.305H851.504V208.629ZM866.52 210.522C866.1 210.522 865.737 210.377 865.432 210.087C865.142 209.782 864.997 209.42 864.997 208.999C864.997 208.564 865.142 208.201 865.432 207.911C865.737 207.621 866.1 207.476 866.52 207.476C866.941 207.476 867.296 207.621 867.586 207.911C867.891 208.201 868.043 208.564 868.043 208.999C868.043 209.42 867.891 209.782 867.586 210.087C867.296 210.377 866.941 210.522 866.52 210.522ZM876.091 210.522C875.264 210.522 874.546 210.413 873.936 210.196C873.327 209.964 872.812 209.666 872.391 209.304C871.985 208.927 871.673 208.506 871.456 208.042C871.238 207.577 871.115 207.099 871.086 206.605H873.131C873.204 207.157 873.494 207.643 874.002 208.063C874.524 208.484 875.22 208.694 876.091 208.694C877.077 208.694 877.853 208.39 878.419 207.78C878.985 207.157 879.268 206.294 879.268 205.191C879.268 204.567 879.173 204.03 878.985 203.581C878.811 203.131 878.571 202.768 878.267 202.493C877.976 202.217 877.643 202.014 877.266 201.883C876.888 201.753 876.497 201.688 876.091 201.688C875.307 201.688 874.691 201.833 874.241 202.123C873.806 202.413 873.472 202.747 873.24 203.124H871.412V195.072H880.443V196.857H873.458V201.1C874.212 200.273 875.198 199.86 876.417 199.86C877.926 199.86 879.115 200.317 879.986 201.231C880.871 202.145 881.313 203.465 881.313 205.191C881.313 206.003 881.182 206.743 880.921 207.411C880.675 208.063 880.319 208.622 879.855 209.086C879.405 209.55 878.854 209.906 878.201 210.152C877.563 210.399 876.859 210.522 876.091 210.522ZM890.019 195.072H899.593V196.857H892.064V210.305H890.019V195.072ZM902.195 195.072H911.77V196.857H904.241V210.305H902.195V195.072ZM920.914 210.305H911.535V198.772H913.45V208.607H918.977V198.772H920.892V208.607H922.742V213.025H920.914V210.305Z" fill="#333333"/>
</svg>
