<svg width="1557" height="416" viewBox="0 0 1557 416" fill="none" xmlns="http://www.w3.org/2000/svg">
<rect width="1557" height="415.199" transform="translate(0 0.589844)" fill="white"/>
<rect x="538" y="100.59" width="153" height="65" fill="#DBEEE5"/>
<path d="M565.235 141.807C564.336 141.807 563.538 141.699 562.842 141.481C562.145 141.249 561.551 140.93 561.057 140.524C560.564 140.117 560.173 139.639 559.882 139.087C559.592 138.522 559.418 137.905 559.36 137.238H561.406C561.522 138.065 561.913 138.732 562.581 139.24C563.248 139.733 564.133 139.98 565.235 139.98C566.585 139.98 567.557 139.74 568.151 139.261C568.761 138.783 569.065 138.137 569.065 137.325C569.065 136.541 568.775 135.896 568.195 135.388C567.615 134.866 566.664 134.605 565.344 134.605H563.277V132.907H565.344C566.432 132.907 567.23 132.675 567.738 132.211C568.26 131.732 568.521 131.13 568.521 130.405C568.521 129.68 568.246 129.092 567.694 128.642C567.143 128.193 566.323 127.968 565.235 127.968C564.075 127.968 563.219 128.193 562.668 128.642C562.131 129.078 561.819 129.658 561.732 130.383H559.687C559.745 129.774 559.897 129.208 560.143 128.686C560.405 128.164 560.767 127.714 561.232 127.337C561.696 126.96 562.262 126.669 562.929 126.466C563.596 126.249 564.365 126.14 565.235 126.14C566.991 126.14 568.318 126.532 569.218 127.315C570.117 128.098 570.567 129.128 570.567 130.405C570.567 131.203 570.335 131.885 569.87 132.45C569.421 133.002 568.819 133.401 568.064 133.647C568.978 133.865 569.711 134.286 570.262 134.909C570.828 135.533 571.111 136.338 571.111 137.325C571.111 137.978 570.98 138.58 570.719 139.131C570.472 139.668 570.095 140.139 569.587 140.545C569.094 140.937 568.485 141.249 567.76 141.481C567.034 141.699 566.193 141.807 565.235 141.807ZM577.196 141.807C576.558 141.807 575.992 141.72 575.499 141.546C575.02 141.358 574.614 141.104 574.28 140.785C573.946 140.466 573.693 140.088 573.518 139.653C573.344 139.218 573.257 138.739 573.257 138.217C573.257 137.071 573.591 136.244 574.258 135.736C574.94 135.229 575.912 134.975 577.174 134.975H580.917V134.191C580.917 133.205 580.692 132.523 580.242 132.146C579.807 131.769 579.147 131.58 578.262 131.58C577.435 131.58 576.833 131.74 576.456 132.059C576.079 132.363 575.869 132.712 575.825 133.103H573.91C573.939 132.639 574.062 132.211 574.28 131.819C574.512 131.413 574.817 131.065 575.194 130.775C575.586 130.485 576.05 130.26 576.587 130.1C577.123 129.926 577.718 129.839 578.371 129.839C579.735 129.839 580.815 130.166 581.613 130.818C582.426 131.457 582.832 132.509 582.832 133.974V138.652C582.832 139.261 582.832 139.798 582.832 140.262C582.846 140.712 582.883 141.155 582.941 141.59H581.265C581.222 141.256 581.193 140.944 581.178 140.654C581.164 140.35 581.156 140.009 581.156 139.631C580.852 140.241 580.358 140.756 579.677 141.176C578.995 141.597 578.168 141.807 577.196 141.807ZM577.609 140.067C578.059 140.067 578.48 140.009 578.872 139.893C579.278 139.762 579.633 139.581 579.938 139.349C580.242 139.102 580.482 138.805 580.656 138.456C580.83 138.108 580.917 137.702 580.917 137.238V136.454H577.501C576.79 136.454 576.231 136.599 575.825 136.89C575.419 137.165 575.216 137.608 575.216 138.217C575.216 138.754 575.404 139.196 575.782 139.544C576.173 139.893 576.783 140.067 577.609 140.067ZM586.214 130.057H594.048V131.754H588.129V141.59H586.214V130.057ZM600.798 141.807C600.058 141.807 599.354 141.691 598.687 141.459C598.02 141.213 597.432 140.85 596.924 140.371C596.417 139.878 596.011 139.261 595.706 138.522C595.401 137.782 595.249 136.919 595.249 135.932V135.497C595.249 134.569 595.401 133.749 595.706 133.038C596.011 132.327 596.417 131.74 596.924 131.275C597.432 130.797 598.02 130.441 598.687 130.209C599.354 129.963 600.058 129.839 600.798 129.839C601.538 129.839 602.241 129.963 602.909 130.209C603.576 130.441 604.163 130.797 604.671 131.275C605.179 131.74 605.585 132.327 605.89 133.038C606.194 133.749 606.347 134.569 606.347 135.497V135.932C606.347 136.919 606.194 137.782 605.89 138.522C605.585 139.261 605.179 139.878 604.671 140.371C604.163 140.85 603.576 141.213 602.909 141.459C602.241 141.691 601.538 141.807 600.798 141.807ZM600.798 140.067C601.233 140.067 601.668 139.994 602.103 139.849C602.539 139.689 602.923 139.45 603.257 139.131C603.59 138.797 603.859 138.369 604.062 137.847C604.279 137.325 604.388 136.687 604.388 135.932V135.497C604.388 134.801 604.279 134.206 604.062 133.713C603.859 133.219 603.59 132.813 603.257 132.494C602.923 132.175 602.539 131.943 602.103 131.798C601.668 131.653 601.233 131.58 600.798 131.58C600.363 131.58 599.927 131.653 599.492 131.798C599.057 131.943 598.673 132.175 598.339 132.494C598.005 132.813 597.73 133.219 597.512 133.713C597.309 134.206 597.207 134.801 597.207 135.497V135.932C597.207 136.687 597.309 137.325 597.512 137.847C597.73 138.369 598.005 138.797 598.339 139.131C598.673 139.45 599.057 139.689 599.492 139.849C599.927 139.994 600.363 140.067 600.798 140.067ZM608.302 141.807C608.084 141.807 607.866 141.786 607.649 141.742V139.827C607.721 139.842 607.83 139.849 607.975 139.849C608.294 139.849 608.57 139.747 608.802 139.544C609.049 139.341 609.245 138.986 609.39 138.478C609.535 137.97 609.644 137.281 609.716 136.411C609.789 135.54 609.825 134.438 609.825 133.103V130.057H618.094V141.59H616.179V131.754H611.74V133.539C611.74 135.149 611.667 136.483 611.522 137.542C611.377 138.601 611.16 139.45 610.869 140.088C610.594 140.712 610.238 141.155 609.803 141.416C609.368 141.677 608.867 141.807 608.302 141.807ZM626.362 141.807C625.622 141.807 624.919 141.691 624.251 141.459C623.584 141.213 622.996 140.85 622.489 140.371C621.981 139.878 621.575 139.261 621.27 138.522C620.965 137.782 620.813 136.919 620.813 135.932V135.497C620.813 134.569 620.965 133.749 621.27 133.038C621.575 132.327 621.981 131.74 622.489 131.275C622.996 130.797 623.584 130.441 624.251 130.209C624.919 129.963 625.622 129.839 626.362 129.839C627.102 129.839 627.805 129.963 628.473 130.209C629.14 130.441 629.728 130.797 630.235 131.275C630.743 131.74 631.149 132.327 631.454 133.038C631.759 133.749 631.911 134.569 631.911 135.497V135.932C631.911 136.919 631.759 137.782 631.454 138.522C631.149 139.261 630.743 139.878 630.235 140.371C629.728 140.85 629.14 141.213 628.473 141.459C627.805 141.691 627.102 141.807 626.362 141.807ZM626.362 140.067C626.797 140.067 627.232 139.994 627.668 139.849C628.103 139.689 628.487 139.45 628.821 139.131C629.155 138.797 629.423 138.369 629.626 137.847C629.844 137.325 629.952 136.687 629.952 135.932V135.497C629.952 134.801 629.844 134.206 629.626 133.713C629.423 133.219 629.155 132.813 628.821 132.494C628.487 132.175 628.103 131.943 627.668 131.798C627.232 131.653 626.797 131.58 626.362 131.58C625.927 131.58 625.492 131.653 625.056 131.798C624.621 131.943 624.237 132.175 623.903 132.494C623.569 132.813 623.294 133.219 623.076 133.713C622.873 134.206 622.771 134.801 622.771 135.497V135.932C622.771 136.687 622.873 137.325 623.076 137.847C623.294 138.369 623.569 138.797 623.903 139.131C624.237 139.45 624.621 139.689 625.056 139.849C625.492 139.994 625.927 140.067 626.362 140.067ZM634.622 130.057H639.627C641.049 130.057 642.093 130.354 642.761 130.949C643.428 131.529 643.762 132.284 643.762 133.212C643.762 133.459 643.718 133.713 643.631 133.974C643.544 134.22 643.421 134.452 643.261 134.67C643.116 134.888 642.935 135.076 642.717 135.236C642.514 135.395 642.282 135.519 642.021 135.606C642.732 135.78 643.268 136.113 643.631 136.607C644.008 137.085 644.197 137.651 644.197 138.304C644.197 139.305 643.863 140.103 643.196 140.698C642.529 141.292 641.484 141.59 640.062 141.59H634.622V130.057ZM640.062 139.893C640.875 139.893 641.448 139.747 641.782 139.457C642.115 139.167 642.282 138.754 642.282 138.217C642.282 137.666 642.115 137.245 641.782 136.955C641.448 136.65 640.875 136.498 640.062 136.498H636.537V139.893H640.062ZM639.627 134.931C640.454 134.931 641.027 134.786 641.346 134.496C641.68 134.206 641.847 133.807 641.847 133.299C641.847 132.82 641.68 132.443 641.346 132.168C641.027 131.892 640.454 131.754 639.627 131.754H636.537V134.931H639.627ZM651.714 141.807C650.974 141.807 650.27 141.691 649.603 141.459C648.936 141.213 648.348 140.85 647.84 140.371C647.333 139.878 646.926 139.261 646.622 138.522C646.317 137.782 646.165 136.919 646.165 135.932V135.497C646.165 134.569 646.317 133.749 646.622 133.038C646.926 132.327 647.333 131.74 647.84 131.275C648.348 130.797 648.936 130.441 649.603 130.209C650.27 129.963 650.974 129.839 651.714 129.839C652.453 129.839 653.157 129.963 653.824 130.209C654.492 130.441 655.079 130.797 655.587 131.275C656.095 131.74 656.501 132.327 656.806 133.038C657.11 133.749 657.262 134.569 657.262 135.497V135.932C657.262 136.919 657.11 137.782 656.806 138.522C656.501 139.261 656.095 139.878 655.587 140.371C655.079 140.85 654.492 141.213 653.824 141.459C653.157 141.691 652.453 141.807 651.714 141.807ZM651.714 140.067C652.149 140.067 652.584 139.994 653.019 139.849C653.454 139.689 653.839 139.45 654.173 139.131C654.506 138.797 654.775 138.369 654.978 137.847C655.195 137.325 655.304 136.687 655.304 135.932V135.497C655.304 134.801 655.195 134.206 654.978 133.713C654.775 133.219 654.506 132.813 654.173 132.494C653.839 132.175 653.454 131.943 653.019 131.798C652.584 131.653 652.149 131.58 651.714 131.58C651.278 131.58 650.843 131.653 650.408 131.798C649.973 131.943 649.588 132.175 649.255 132.494C648.921 132.813 648.645 133.219 648.428 133.713C648.225 134.206 648.123 134.801 648.123 135.497V135.932C648.123 136.687 648.225 137.325 648.428 137.847C648.645 138.369 648.921 138.797 649.255 139.131C649.588 139.45 649.973 139.689 650.408 139.849C650.843 139.994 651.278 140.067 651.714 140.067ZM659.974 130.057H661.889V134.888H663.412L667.721 130.057H669.984L664.979 135.584L670.201 141.59H667.764L663.412 136.541H661.889V141.59H659.974V130.057Z" fill="black"/>
<rect x="538" y="100.59" width="153" height="65" stroke="#508C6D"/>
<rect x="691" y="100.59" width="246" height="65" fill="#ABD4C1"/>
<path d="M713.314 126.358H725.282V141.59H723.236V128.142H715.359V141.59H713.314V126.358ZM733.986 141.807C733.246 141.807 732.543 141.691 731.875 141.459C731.208 141.213 730.62 140.85 730.113 140.371C729.605 139.878 729.199 139.261 728.894 138.522C728.59 137.782 728.437 136.919 728.437 135.932V135.497C728.437 134.569 728.59 133.749 728.894 133.038C729.199 132.327 729.605 131.74 730.113 131.275C730.62 130.797 731.208 130.441 731.875 130.209C732.543 129.963 733.246 129.839 733.986 129.839C734.726 129.839 735.43 129.963 736.097 130.209C736.764 130.441 737.352 130.797 737.859 131.275C738.367 131.74 738.773 132.327 739.078 133.038C739.383 133.749 739.535 134.569 739.535 135.497V135.932C739.535 136.919 739.383 137.782 739.078 138.522C738.773 139.261 738.367 139.878 737.859 140.371C737.352 140.85 736.764 141.213 736.097 141.459C735.43 141.691 734.726 141.807 733.986 141.807ZM733.986 140.067C734.421 140.067 734.857 139.994 735.292 139.849C735.727 139.689 736.111 139.45 736.445 139.131C736.779 138.797 737.047 138.369 737.25 137.847C737.468 137.325 737.577 136.687 737.577 135.932V135.497C737.577 134.801 737.468 134.206 737.25 133.713C737.047 133.219 736.779 132.813 736.445 132.494C736.111 132.175 735.727 131.943 735.292 131.798C734.857 131.653 734.421 131.58 733.986 131.58C733.551 131.58 733.116 131.653 732.68 131.798C732.245 131.943 731.861 132.175 731.527 132.494C731.194 132.813 730.918 133.219 730.7 133.713C730.497 134.206 730.396 134.801 730.396 135.497V135.932C730.396 136.687 730.497 137.325 730.7 137.847C730.918 138.369 731.194 138.797 731.527 139.131C731.861 139.45 732.245 139.689 732.68 139.849C733.116 139.994 733.551 140.067 733.986 140.067ZM741.49 141.807C741.272 141.807 741.055 141.786 740.837 141.742V139.827C740.91 139.842 741.019 139.849 741.164 139.849C741.483 139.849 741.758 139.747 741.991 139.544C742.237 139.341 742.433 138.986 742.578 138.478C742.723 137.97 742.832 137.281 742.904 136.411C742.977 135.54 743.013 134.438 743.013 133.103V130.057H751.282V141.59H749.367V131.754H744.928V133.539C744.928 135.149 744.856 136.483 744.711 137.542C744.565 138.601 744.348 139.45 744.058 140.088C743.782 140.712 743.427 141.155 742.991 141.416C742.556 141.677 742.056 141.807 741.49 141.807ZM759.55 141.807C758.81 141.807 758.107 141.691 757.439 141.459C756.772 141.227 756.185 140.872 755.677 140.393C755.169 139.9 754.763 139.283 754.458 138.543C754.154 137.804 754.001 136.933 754.001 135.932V135.497C754.001 134.539 754.146 133.713 754.437 133.016C754.727 132.305 755.111 131.718 755.59 131.254C756.083 130.775 756.649 130.42 757.287 130.187C757.94 129.955 758.622 129.839 759.333 129.839C761.03 129.839 762.343 130.303 763.271 131.232C764.2 132.16 764.664 133.473 764.664 135.171V136.389H755.916C755.916 137.071 756.025 137.644 756.243 138.108C756.46 138.572 756.743 138.95 757.091 139.24C757.439 139.53 757.824 139.74 758.245 139.871C758.68 140.001 759.115 140.067 759.55 140.067C760.421 140.067 761.088 139.922 761.552 139.631C762.031 139.341 762.372 138.942 762.575 138.435H764.446C764.33 138.986 764.12 139.472 763.815 139.893C763.525 140.313 763.162 140.669 762.727 140.959C762.307 141.234 761.821 141.445 761.269 141.59C760.733 141.735 760.16 141.807 759.55 141.807ZM759.441 131.58C758.992 131.58 758.557 131.645 758.136 131.776C757.715 131.892 757.338 132.088 757.004 132.363C756.685 132.625 756.424 132.958 756.221 133.364C756.018 133.771 755.916 134.257 755.916 134.822H762.858C762.843 134.228 762.742 133.727 762.553 133.321C762.379 132.9 762.14 132.567 761.835 132.32C761.53 132.059 761.168 131.87 760.747 131.754C760.341 131.638 759.906 131.58 759.441 131.58ZM771.303 141.807C769.852 141.807 768.713 141.503 767.886 140.894C767.059 140.284 766.602 139.428 766.515 138.326H768.43C768.532 138.892 768.829 139.327 769.322 139.631C769.83 139.922 770.49 140.067 771.303 140.067C772.304 140.067 773.029 139.9 773.479 139.566C773.943 139.218 774.175 138.805 774.175 138.326C774.175 137.76 773.986 137.318 773.609 136.998C773.232 136.665 772.579 136.498 771.651 136.498H769.671V134.931H771.52C772.318 134.931 772.884 134.779 773.217 134.474C773.566 134.17 773.74 133.742 773.74 133.19C773.74 132.755 773.537 132.378 773.13 132.059C772.724 131.74 772.115 131.58 771.303 131.58C770.418 131.58 769.772 131.725 769.366 132.015C768.974 132.291 768.735 132.69 768.648 133.212H766.733C766.776 132.733 766.907 132.291 767.125 131.885C767.357 131.464 767.669 131.101 768.06 130.797C768.452 130.492 768.916 130.26 769.453 130.1C770.004 129.926 770.621 129.839 771.303 129.839C772.042 129.839 772.681 129.926 773.217 130.1C773.769 130.26 774.226 130.492 774.588 130.797C774.951 131.087 775.219 131.435 775.393 131.841C775.568 132.247 775.655 132.697 775.655 133.19C775.655 133.742 775.517 134.228 775.241 134.648C774.966 135.054 774.523 135.374 773.914 135.606C774.726 135.823 775.292 136.172 775.611 136.65C775.93 137.129 776.09 137.687 776.09 138.326C776.09 138.805 775.988 139.254 775.785 139.675C775.582 140.096 775.277 140.466 774.871 140.785C774.48 141.089 773.979 141.336 773.37 141.525C772.775 141.713 772.086 141.807 771.303 141.807ZM778.818 130.057H780.733V134.866H786.696V130.057H788.611V141.59H786.696V136.563H780.733V141.59H778.818V130.057ZM795.386 141.807C794.747 141.807 794.182 141.72 793.688 141.546C793.21 141.358 792.803 141.104 792.47 140.785C792.136 140.466 791.882 140.088 791.708 139.653C791.534 139.218 791.447 138.739 791.447 138.217C791.447 137.071 791.781 136.244 792.448 135.736C793.13 135.229 794.102 134.975 795.364 134.975H799.107V134.191C799.107 133.205 798.882 132.523 798.432 132.146C797.997 131.769 797.337 131.58 796.452 131.58C795.625 131.58 795.023 131.74 794.646 132.059C794.269 132.363 794.058 132.712 794.015 133.103H792.1C792.129 132.639 792.252 132.211 792.47 131.819C792.702 131.413 793.007 131.065 793.384 130.775C793.775 130.485 794.24 130.26 794.776 130.1C795.313 129.926 795.908 129.839 796.561 129.839C797.924 129.839 799.005 130.166 799.803 130.818C800.615 131.457 801.022 132.509 801.022 133.974V138.652C801.022 139.261 801.022 139.798 801.022 140.262C801.036 140.712 801.072 141.155 801.13 141.59H799.455C799.411 141.256 799.382 140.944 799.368 140.654C799.353 140.35 799.346 140.009 799.346 139.631C799.041 140.241 798.548 140.756 797.866 141.176C797.184 141.597 796.358 141.807 795.386 141.807ZM795.799 140.067C796.249 140.067 796.67 140.009 797.061 139.893C797.467 139.762 797.823 139.581 798.127 139.349C798.432 139.102 798.671 138.805 798.846 138.456C799.02 138.108 799.107 137.702 799.107 137.238V136.454H795.69C794.979 136.454 794.421 136.599 794.015 136.89C793.609 137.165 793.405 137.608 793.405 138.217C793.405 138.754 793.594 139.196 793.971 139.544C794.363 139.893 794.972 140.067 795.799 140.067ZM806.667 137.02C805.709 136.803 805.02 136.411 804.6 135.845C804.179 135.265 803.969 134.525 803.969 133.626C803.969 132.494 804.309 131.616 804.991 130.993C805.688 130.369 806.797 130.057 808.321 130.057H813.326V141.59H811.411V137.194H808.473L805.666 141.59H803.533L806.667 137.02ZM805.883 133.626C805.883 134.235 806.058 134.699 806.406 135.018C806.768 135.337 807.37 135.497 808.212 135.497H811.411V131.754H808.212C807.37 131.754 806.768 131.914 806.406 132.233C806.058 132.552 805.883 133.016 805.883 133.626ZM822.254 130.057H824.169V134.866H830.131V130.057H832.046V141.59H830.131V136.563H824.169V141.59H822.254V130.057ZM838.821 141.807C838.183 141.807 837.617 141.72 837.124 141.546C836.645 141.358 836.239 141.104 835.905 140.785C835.572 140.466 835.318 140.088 835.144 139.653C834.97 139.218 834.883 138.739 834.883 138.217C834.883 137.071 835.216 136.244 835.884 135.736C836.566 135.229 837.537 134.975 838.8 134.975H842.542V134.191C842.542 133.205 842.317 132.523 841.868 132.146C841.433 131.769 840.773 131.58 839.888 131.58C839.061 131.58 838.459 131.74 838.081 132.059C837.704 132.363 837.494 132.712 837.45 133.103H835.536C835.565 132.639 835.688 132.211 835.905 131.819C836.138 131.413 836.442 131.065 836.819 130.775C837.211 130.485 837.675 130.26 838.212 130.1C838.749 129.926 839.344 129.839 839.996 129.839C841.36 129.839 842.441 130.166 843.239 130.818C844.051 131.457 844.457 132.509 844.457 133.974V138.652C844.457 139.261 844.457 139.798 844.457 140.262C844.472 140.712 844.508 141.155 844.566 141.59H842.891C842.847 141.256 842.818 140.944 842.803 140.654C842.789 140.35 842.782 140.009 842.782 139.631C842.477 140.241 841.984 140.756 841.302 141.176C840.62 141.597 839.793 141.807 838.821 141.807ZM839.235 140.067C839.684 140.067 840.105 140.009 840.497 139.893C840.903 139.762 841.258 139.581 841.563 139.349C841.868 139.102 842.107 138.805 842.281 138.456C842.455 138.108 842.542 137.702 842.542 137.238V136.454H839.126C838.415 136.454 837.857 136.599 837.45 136.89C837.044 137.165 836.841 137.608 836.841 138.217C836.841 138.754 837.03 139.196 837.407 139.544C837.799 139.893 838.408 140.067 839.235 140.067ZM847.839 130.057H855.673V131.754H849.754V141.59H847.839V130.057ZM857.848 130.057H859.633V132.233C860.024 131.464 860.568 130.876 861.265 130.47C861.976 130.05 862.795 129.839 863.724 129.839C865.174 129.839 866.335 130.318 867.205 131.275C868.076 132.218 868.511 133.626 868.511 135.497V135.932C868.511 136.919 868.395 137.782 868.163 138.522C867.931 139.247 867.604 139.856 867.184 140.35C866.763 140.828 866.255 141.191 865.66 141.438C865.08 141.684 864.435 141.807 863.724 141.807C862.737 141.807 861.91 141.59 861.243 141.155C860.59 140.719 860.097 140.175 859.763 139.523V145.942H857.848V130.057ZM863.288 140.11C863.753 140.11 864.188 140.023 864.594 139.849C865 139.66 865.348 139.392 865.639 139.044C865.943 138.696 866.175 138.261 866.335 137.738C866.509 137.216 866.596 136.614 866.596 135.932V135.497C866.596 134.873 866.509 134.315 866.335 133.821C866.175 133.328 865.943 132.915 865.639 132.581C865.348 132.233 865 131.972 864.594 131.798C864.188 131.624 863.753 131.537 863.288 131.537C862.766 131.537 862.287 131.624 861.852 131.798C861.417 131.957 861.047 132.189 860.743 132.494C860.438 132.784 860.199 133.132 860.024 133.539C859.85 133.945 859.763 134.38 859.763 134.844V136.585C859.763 137.107 859.85 137.586 860.024 138.021C860.199 138.456 860.438 138.826 860.743 139.131C861.047 139.436 861.417 139.675 861.852 139.849C862.287 140.023 862.766 140.11 863.288 140.11ZM872.334 146.16C872.117 146.16 871.899 146.138 871.682 146.094V144.353C871.899 144.397 872.117 144.419 872.334 144.419C872.552 144.419 872.741 144.382 872.9 144.31C873.06 144.237 873.212 144.1 873.357 143.896C873.502 143.693 873.654 143.403 873.814 143.026C873.988 142.663 874.184 142.185 874.402 141.59L869.505 130.057H871.638L875.381 139.414L878.775 130.057H880.821L876.469 141.59C876.164 142.402 875.874 143.099 875.598 143.679C875.323 144.259 875.025 144.731 874.706 145.093C874.402 145.47 874.061 145.739 873.683 145.898C873.306 146.072 872.857 146.16 872.334 146.16ZM886.479 141.807C885.029 141.807 883.89 141.503 883.063 140.894C882.236 140.284 881.779 139.428 881.692 138.326H883.607C883.709 138.892 884.006 139.327 884.499 139.631C885.007 139.922 885.667 140.067 886.479 140.067C887.48 140.067 888.206 139.9 888.655 139.566C889.12 139.218 889.352 138.805 889.352 138.326C889.352 137.76 889.163 137.318 888.786 136.998C888.409 136.665 887.756 136.498 886.828 136.498H884.847V134.931H886.697C887.495 134.931 888.061 134.779 888.394 134.474C888.742 134.17 888.917 133.742 888.917 133.19C888.917 132.755 888.713 132.378 888.307 132.059C887.901 131.74 887.292 131.58 886.479 131.58C885.594 131.58 884.949 131.725 884.543 132.015C884.151 132.291 883.912 132.69 883.825 133.212H881.91C881.953 132.733 882.084 132.291 882.301 131.885C882.534 131.464 882.845 131.101 883.237 130.797C883.629 130.492 884.093 130.26 884.63 130.1C885.181 129.926 885.798 129.839 886.479 129.839C887.219 129.839 887.858 129.926 888.394 130.1C888.946 130.26 889.403 130.492 889.765 130.797C890.128 131.087 890.396 131.435 890.57 131.841C890.744 132.247 890.831 132.697 890.831 133.19C890.831 133.742 890.694 134.228 890.418 134.648C890.142 135.054 889.7 135.374 889.091 135.606C889.903 135.823 890.469 136.172 890.788 136.65C891.107 137.129 891.267 137.687 891.267 138.326C891.267 138.805 891.165 139.254 890.962 139.675C890.759 140.096 890.454 140.466 890.048 140.785C889.656 141.089 889.156 141.336 888.547 141.525C887.952 141.713 887.263 141.807 886.479 141.807ZM893.995 130.057H895.91V134.888H897.433L901.742 130.057H904.005L899 135.584L904.223 141.59H901.785L897.433 136.541H895.91V141.59H893.995V130.057ZM909.585 141.807C908.947 141.807 908.381 141.72 907.888 141.546C907.409 141.358 907.003 141.104 906.669 140.785C906.335 140.466 906.082 140.088 905.907 139.653C905.733 139.218 905.646 138.739 905.646 138.217C905.646 137.071 905.98 136.244 906.647 135.736C907.329 135.229 908.301 134.975 909.563 134.975H913.306V134.191C913.306 133.205 913.081 132.523 912.631 132.146C912.196 131.769 911.536 131.58 910.651 131.58C909.824 131.58 909.222 131.74 908.845 132.059C908.468 132.363 908.258 132.712 908.214 133.103H906.299C906.328 132.639 906.451 132.211 906.669 131.819C906.901 131.413 907.206 131.065 907.583 130.775C907.975 130.485 908.439 130.26 908.976 130.1C909.512 129.926 910.107 129.839 910.76 129.839C912.124 129.839 913.204 130.166 914.002 130.818C914.815 131.457 915.221 132.509 915.221 133.974V138.652C915.221 139.261 915.221 139.798 915.221 140.262C915.235 140.712 915.272 141.155 915.33 141.59H913.654C913.611 141.256 913.582 140.944 913.567 140.654C913.553 140.35 913.545 140.009 913.545 139.631C913.241 140.241 912.747 140.756 912.066 141.176C911.384 141.597 910.557 141.807 909.585 141.807ZM909.998 140.067C910.448 140.067 910.869 140.009 911.261 139.893C911.667 139.762 912.022 139.581 912.327 139.349C912.631 139.102 912.871 138.805 913.045 138.456C913.219 138.108 913.306 137.702 913.306 137.238V136.454H909.89C909.179 136.454 908.62 136.599 908.214 136.89C907.808 137.165 907.605 137.608 907.605 138.217C907.605 138.754 907.793 139.196 908.171 139.544C908.562 139.893 909.172 140.067 909.998 140.067Z" fill="black"/>
<rect x="691" y="100.59" width="246" height="65" stroke="#508C6D"/>
<rect x="937" y="100.59" width="82" height="65" fill="#ABD4C1"/>
<path d="M959.404 126.358H969.196V128.142H961.449V133.082H968.543V134.866H961.449V141.59H959.404V126.358ZM977.788 141.807C976.932 141.807 976.12 141.662 975.351 141.372C974.582 141.068 973.9 140.603 973.305 139.98C972.711 139.341 972.239 138.536 971.891 137.564C971.543 136.592 971.369 135.432 971.369 134.083V133.647C971.369 132.342 971.543 131.217 971.891 130.274C972.239 129.332 972.711 128.555 973.305 127.946C973.9 127.337 974.582 126.887 975.351 126.597C976.12 126.292 976.932 126.14 977.788 126.14C978.615 126.14 979.369 126.249 980.051 126.466C980.747 126.684 981.357 126.996 981.879 127.402C982.401 127.808 982.822 128.309 983.141 128.904C983.475 129.498 983.685 130.173 983.772 130.927H981.596C981.393 129.941 980.965 129.201 980.312 128.708C979.659 128.214 978.818 127.968 977.788 127.968C977.251 127.968 976.729 128.069 976.221 128.273C975.713 128.476 975.256 128.802 974.85 129.252C974.459 129.687 974.139 130.267 973.893 130.993C973.661 131.718 973.545 132.603 973.545 133.647V134.083C973.545 135.185 973.675 136.113 973.936 136.868C974.197 137.608 974.531 138.21 974.937 138.674C975.344 139.138 975.8 139.472 976.308 139.675C976.816 139.878 977.309 139.98 977.788 139.98C978.919 139.98 979.804 139.704 980.443 139.153C981.081 138.601 981.465 137.891 981.596 137.02H983.772C983.656 137.862 983.424 138.587 983.076 139.196C982.728 139.791 982.285 140.284 981.748 140.676C981.226 141.068 980.624 141.358 979.942 141.546C979.275 141.72 978.557 141.807 977.788 141.807ZM991.817 141.807C990.903 141.807 990.105 141.699 989.423 141.481C988.741 141.263 988.168 140.966 987.704 140.589C987.24 140.197 986.87 139.747 986.594 139.24C986.333 138.717 986.152 138.159 986.05 137.564H988.096C988.168 137.898 988.291 138.217 988.465 138.522C988.64 138.812 988.872 139.066 989.162 139.283C989.466 139.501 989.836 139.675 990.272 139.805C990.707 139.922 991.222 139.98 991.817 139.98C993.035 139.98 993.956 139.747 994.58 139.283C995.218 138.819 995.538 138.246 995.538 137.564C995.538 137.143 995.465 136.788 995.32 136.498C995.189 136.208 994.957 135.954 994.624 135.736C994.304 135.519 993.877 135.323 993.34 135.149C992.818 134.975 992.172 134.801 991.403 134.627C990.547 134.438 989.807 134.235 989.184 134.017C988.574 133.785 988.067 133.502 987.66 133.169C987.269 132.82 986.971 132.407 986.768 131.928C986.58 131.45 986.485 130.862 986.485 130.166C986.485 129.6 986.609 129.078 986.855 128.599C987.102 128.106 987.45 127.678 987.9 127.315C988.364 126.952 988.922 126.669 989.575 126.466C990.243 126.249 990.99 126.14 991.817 126.14C992.629 126.14 993.34 126.249 993.949 126.466C994.558 126.669 995.073 126.952 995.494 127.315C995.929 127.678 996.27 128.106 996.517 128.599C996.763 129.078 996.937 129.6 997.039 130.166H994.994C994.921 129.861 994.812 129.578 994.667 129.317C994.522 129.041 994.319 128.809 994.058 128.621C993.811 128.418 993.499 128.258 993.122 128.142C992.759 128.026 992.324 127.968 991.817 127.968C990.772 127.968 989.96 128.185 989.379 128.621C988.814 129.041 988.531 129.556 988.531 130.166C988.531 130.557 988.603 130.898 988.748 131.188C988.893 131.464 989.118 131.711 989.423 131.928C989.728 132.131 990.112 132.313 990.576 132.472C991.055 132.617 991.621 132.762 992.274 132.907C993.216 133.111 994.022 133.343 994.689 133.604C995.371 133.85 995.922 134.155 996.343 134.518C996.778 134.88 997.09 135.308 997.278 135.802C997.481 136.295 997.583 136.882 997.583 137.564C997.583 138.159 997.452 138.717 997.191 139.24C996.93 139.747 996.553 140.197 996.06 140.589C995.567 140.966 994.965 141.263 994.254 141.481C993.543 141.699 992.73 141.807 991.817 141.807Z" fill="black"/>
<rect x="937" y="100.59" width="82" height="65" stroke="#508C6D"/>
<rect x="100" y="250.789" width="255" height="65" fill="#DBEEE5"/>
<path d="M124.657 292.007C124.498 292.007 124.338 291.999 124.179 291.985C124.033 291.985 123.903 291.978 123.787 291.963V290.135C123.903 290.15 124.033 290.164 124.179 290.179C124.338 290.179 124.498 290.179 124.657 290.179C124.962 290.179 125.223 290.157 125.441 290.114C125.658 290.055 125.847 289.961 126.006 289.831C126.18 289.686 126.333 289.497 126.463 289.265C126.608 289.033 126.761 288.728 126.92 288.351L120.632 276.557H122.851L127.943 286.24L132.252 276.557H134.341L128.792 288.808C128.545 289.359 128.291 289.838 128.03 290.244C127.769 290.65 127.479 290.984 127.16 291.245C126.841 291.506 126.478 291.695 126.072 291.811C125.666 291.941 125.194 292.007 124.657 292.007ZM135.644 280.256H145.218V291.789H143.303V281.953H137.559V291.789H135.644V280.256ZM148.691 280.256H150.476V282.432C150.867 281.663 151.411 281.076 152.108 280.67C152.819 280.249 153.638 280.038 154.567 280.038C156.017 280.038 157.178 280.517 158.048 281.475C158.919 282.418 159.354 283.825 159.354 285.696V286.131C159.354 287.118 159.238 287.981 159.006 288.721C158.774 289.446 158.447 290.055 158.027 290.549C157.606 291.027 157.098 291.39 156.503 291.637C155.923 291.883 155.278 292.007 154.567 292.007C153.58 292.007 152.753 291.789 152.086 291.354C151.433 290.919 150.94 290.375 150.606 289.722V296.141H148.691V280.256ZM154.131 290.309C154.596 290.309 155.031 290.222 155.437 290.048C155.843 289.86 156.191 289.591 156.482 289.243C156.786 288.895 157.018 288.46 157.178 287.937C157.352 287.415 157.439 286.813 157.439 286.131V285.696C157.439 285.072 157.352 284.514 157.178 284.021C157.018 283.527 156.786 283.114 156.482 282.78C156.191 282.432 155.843 282.171 155.437 281.997C155.031 281.823 154.596 281.736 154.131 281.736C153.609 281.736 153.131 281.823 152.695 281.997C152.26 282.156 151.89 282.389 151.586 282.693C151.281 282.983 151.042 283.332 150.867 283.738C150.693 284.144 150.606 284.579 150.606 285.043V286.784C150.606 287.306 150.693 287.785 150.867 288.22C151.042 288.656 151.281 289.025 151.586 289.33C151.89 289.635 152.26 289.874 152.695 290.048C153.131 290.222 153.609 290.309 154.131 290.309ZM165.365 292.007C164.727 292.007 164.161 291.92 163.668 291.746C163.189 291.557 162.783 291.303 162.449 290.984C162.115 290.665 161.862 290.288 161.687 289.852C161.513 289.417 161.426 288.938 161.426 288.416C161.426 287.27 161.76 286.443 162.427 285.936C163.109 285.428 164.081 285.174 165.343 285.174H169.086V284.391C169.086 283.404 168.861 282.722 168.411 282.345C167.976 281.968 167.316 281.779 166.431 281.779C165.604 281.779 165.002 281.939 164.625 282.258C164.248 282.563 164.038 282.911 163.994 283.303H162.079C162.108 282.838 162.231 282.41 162.449 282.019C162.681 281.612 162.986 281.264 163.363 280.974C163.755 280.684 164.219 280.459 164.756 280.3C165.292 280.126 165.887 280.038 166.54 280.038C167.904 280.038 168.984 280.365 169.782 281.018C170.595 281.656 171.001 282.708 171.001 284.173V288.851C171.001 289.461 171.001 289.997 171.001 290.462C171.015 290.911 171.052 291.354 171.11 291.789H169.434C169.391 291.455 169.362 291.144 169.347 290.853C169.333 290.549 169.325 290.208 169.325 289.831C169.021 290.44 168.527 290.955 167.846 291.376C167.164 291.796 166.337 292.007 165.365 292.007ZM165.778 290.266C166.228 290.266 166.649 290.208 167.04 290.092C167.447 289.961 167.802 289.78 168.107 289.548C168.411 289.301 168.651 289.004 168.825 288.656C168.999 288.307 169.086 287.901 169.086 287.437V286.654H165.67C164.959 286.654 164.4 286.799 163.994 287.089C163.588 287.364 163.385 287.807 163.385 288.416C163.385 288.953 163.573 289.395 163.951 289.744C164.342 290.092 164.951 290.266 165.778 290.266ZM174.383 280.256H179.388C180.81 280.256 181.854 280.553 182.521 281.148C183.189 281.729 183.522 282.483 183.522 283.411C183.522 283.658 183.479 283.912 183.392 284.173C183.305 284.42 183.182 284.652 183.022 284.869C182.877 285.087 182.696 285.275 182.478 285.435C182.275 285.595 182.043 285.718 181.782 285.805C182.492 285.979 183.029 286.313 183.392 286.806C183.769 287.285 183.958 287.85 183.958 288.503C183.958 289.504 183.624 290.302 182.957 290.897C182.289 291.492 181.245 291.789 179.823 291.789H174.383V280.256ZM179.823 290.092C180.636 290.092 181.209 289.947 181.542 289.657C181.876 289.366 182.043 288.953 182.043 288.416C182.043 287.865 181.876 287.444 181.542 287.154C181.209 286.849 180.636 286.697 179.823 286.697H176.298V290.092H179.823ZM179.388 285.13C180.215 285.13 180.788 284.985 181.107 284.695C181.441 284.405 181.608 284.006 181.608 283.498C181.608 283.02 181.441 282.642 181.107 282.367C180.788 282.091 180.215 281.953 179.388 281.953H176.298V285.13H179.388ZM186.143 292.007C185.925 292.007 185.708 291.985 185.49 291.941V290.026C185.563 290.041 185.672 290.048 185.817 290.048C186.136 290.048 186.411 289.947 186.643 289.744C186.89 289.54 187.086 289.185 187.231 288.677C187.376 288.17 187.485 287.481 187.557 286.61C187.63 285.74 187.666 284.637 187.666 283.303V280.256H195.935V291.789H194.02V281.953H189.581V283.738C189.581 285.348 189.509 286.683 189.364 287.742C189.218 288.801 189.001 289.649 188.711 290.288C188.435 290.911 188.08 291.354 187.644 291.615C187.209 291.876 186.709 292.007 186.143 292.007ZM204.203 292.007C203.463 292.007 202.76 291.891 202.092 291.659C201.425 291.426 200.838 291.071 200.33 290.592C199.822 290.099 199.416 289.482 199.111 288.743C198.807 288.003 198.654 287.132 198.654 286.131V285.696C198.654 284.739 198.799 283.912 199.09 283.215C199.38 282.505 199.764 281.917 200.243 281.453C200.736 280.974 201.302 280.619 201.94 280.387C202.593 280.155 203.275 280.038 203.986 280.038C205.683 280.038 206.996 280.503 207.924 281.431C208.853 282.36 209.317 283.672 209.317 285.37V286.588H200.569C200.569 287.27 200.678 287.843 200.896 288.307C201.113 288.772 201.396 289.149 201.744 289.439C202.092 289.729 202.477 289.939 202.898 290.07C203.333 290.201 203.768 290.266 204.203 290.266C205.074 290.266 205.741 290.121 206.205 289.831C206.684 289.54 207.025 289.142 207.228 288.634H209.099C208.983 289.185 208.773 289.671 208.468 290.092C208.178 290.512 207.815 290.868 207.38 291.158C206.96 291.434 206.474 291.644 205.922 291.789C205.386 291.934 204.813 292.007 204.203 292.007ZM204.094 281.779C203.645 281.779 203.21 281.845 202.789 281.975C202.368 282.091 201.991 282.287 201.657 282.563C201.338 282.824 201.077 283.157 200.874 283.564C200.671 283.97 200.569 284.456 200.569 285.022H207.511C207.496 284.427 207.395 283.926 207.206 283.52C207.032 283.099 206.793 282.766 206.488 282.519C206.183 282.258 205.821 282.069 205.4 281.953C204.994 281.837 204.559 281.779 204.094 281.779ZM212.039 280.256H213.954V285.065H219.916V280.256H221.831V291.789H219.916V286.762H213.954V291.789H212.039V280.256ZM225.32 280.256H227.235V288.96L233.197 280.256H235.112V291.789H233.197V283.085L227.235 291.789H225.32V280.256ZM243.389 292.007C242.649 292.007 241.945 291.891 241.278 291.659C240.611 291.426 240.023 291.071 239.516 290.592C239.008 290.099 238.602 289.482 238.297 288.743C237.992 288.003 237.84 287.132 237.84 286.131V285.696C237.84 284.739 237.985 283.912 238.275 283.215C238.565 282.505 238.95 281.917 239.429 281.453C239.922 280.974 240.488 280.619 241.126 280.387C241.779 280.155 242.46 280.038 243.171 280.038C244.869 280.038 246.181 280.503 247.11 281.431C248.038 282.36 248.503 283.672 248.503 285.37V286.588H239.755C239.755 287.27 239.864 287.843 240.081 288.307C240.299 288.772 240.582 289.149 240.93 289.439C241.278 289.729 241.663 289.939 242.083 290.07C242.518 290.201 242.954 290.266 243.389 290.266C244.259 290.266 244.927 290.121 245.391 289.831C245.87 289.54 246.21 289.142 246.414 288.634H248.285C248.169 289.185 247.959 289.671 247.654 290.092C247.364 290.512 247.001 290.868 246.566 291.158C246.145 291.434 245.659 291.644 245.108 291.789C244.571 291.934 243.998 292.007 243.389 292.007ZM243.28 281.779C242.83 281.779 242.395 281.845 241.974 281.975C241.554 282.091 241.177 282.287 240.843 282.563C240.524 282.824 240.263 283.157 240.06 283.564C239.856 283.97 239.755 284.456 239.755 285.022H246.696C246.682 284.427 246.58 283.926 246.392 283.52C246.218 283.099 245.978 282.766 245.674 282.519C245.369 282.258 245.006 282.069 244.586 281.953C244.18 281.837 243.744 281.779 243.28 281.779ZM256.664 280.256H258.579V285.087H260.103L264.411 280.256H266.674L261.669 285.783L266.892 291.789H264.455L260.103 286.741H258.579V291.789H256.664V280.256ZM272.254 292.007C271.616 292.007 271.05 291.92 270.557 291.746C270.078 291.557 269.672 291.303 269.338 290.984C269.005 290.665 268.751 290.288 268.577 289.852C268.403 289.417 268.316 288.938 268.316 288.416C268.316 287.27 268.649 286.443 269.317 285.936C269.998 285.428 270.97 285.174 272.232 285.174H275.975V284.391C275.975 283.404 275.75 282.722 275.301 282.345C274.865 281.968 274.205 281.779 273.32 281.779C272.494 281.779 271.891 281.939 271.514 282.258C271.137 282.563 270.927 282.911 270.883 283.303H268.968C268.997 282.838 269.121 282.41 269.338 282.019C269.57 281.612 269.875 281.264 270.252 280.974C270.644 280.684 271.108 280.459 271.645 280.3C272.182 280.126 272.776 280.038 273.429 280.038C274.793 280.038 275.874 280.365 276.672 281.018C277.484 281.656 277.89 282.708 277.89 284.173V288.851C277.89 289.461 277.89 289.997 277.89 290.462C277.905 290.911 277.941 291.354 277.999 291.789H276.323C276.28 291.455 276.251 291.144 276.236 290.853C276.222 290.549 276.215 290.208 276.215 289.831C275.91 290.44 275.417 290.955 274.735 291.376C274.053 291.796 273.226 292.007 272.254 292.007ZM272.668 290.266C273.117 290.266 273.538 290.208 273.93 290.092C274.336 289.961 274.691 289.78 274.996 289.548C275.301 289.301 275.54 289.004 275.714 288.656C275.888 288.307 275.975 287.901 275.975 287.437V286.654H272.559C271.848 286.654 271.289 286.799 270.883 287.089C270.477 287.364 270.274 287.807 270.274 288.416C270.274 288.953 270.463 289.395 270.84 289.744C271.231 290.092 271.841 290.266 272.668 290.266ZM279.967 290.092H281.381C281.541 289.874 281.686 289.54 281.816 289.091C281.947 288.641 282.063 288.112 282.164 287.502C282.266 286.893 282.339 286.233 282.382 285.522C282.44 284.797 282.469 284.057 282.469 283.303V280.256H290.52V290.092H292.152V294.509H290.325V291.789H281.795V294.509H279.967V290.092ZM288.606 290.092V281.953H284.341V283.738C284.341 284.347 284.319 284.956 284.275 285.566C284.232 286.16 284.166 286.733 284.079 287.285C283.992 287.821 283.884 288.336 283.753 288.83C283.637 289.308 283.499 289.729 283.34 290.092H288.606ZM294.447 280.256H296.232V282.432C296.624 281.663 297.168 281.076 297.864 280.67C298.575 280.249 299.394 280.038 300.323 280.038C301.773 280.038 302.934 280.517 303.804 281.475C304.675 282.418 305.11 283.825 305.11 285.696V286.131C305.11 287.118 304.994 287.981 304.762 288.721C304.53 289.446 304.203 290.055 303.783 290.549C303.362 291.027 302.854 291.39 302.259 291.637C301.679 291.883 301.034 292.007 300.323 292.007C299.336 292.007 298.509 291.789 297.842 291.354C297.189 290.919 296.696 290.375 296.362 289.722V296.141H294.447V280.256ZM299.888 290.309C300.352 290.309 300.787 290.222 301.193 290.048C301.599 289.86 301.948 289.591 302.238 289.243C302.542 288.895 302.774 288.46 302.934 287.937C303.108 287.415 303.195 286.813 303.195 286.131V285.696C303.195 285.072 303.108 284.514 302.934 284.021C302.774 283.527 302.542 283.114 302.238 282.78C301.948 282.432 301.599 282.171 301.193 281.997C300.787 281.823 300.352 281.736 299.888 281.736C299.365 281.736 298.887 281.823 298.451 281.997C298.016 282.156 297.646 282.389 297.342 282.693C297.037 282.983 296.798 283.332 296.624 283.738C296.449 284.144 296.362 284.579 296.362 285.043V286.784C296.362 287.306 296.449 287.785 296.624 288.22C296.798 288.656 297.037 289.025 297.342 289.33C297.646 289.635 298.016 289.874 298.451 290.048C298.887 290.222 299.365 290.309 299.888 290.309ZM312.622 292.007C311.883 292.007 311.179 291.891 310.512 291.659C309.844 291.412 309.257 291.049 308.749 290.57C308.241 290.077 307.835 289.461 307.531 288.721C307.226 287.981 307.074 287.118 307.074 286.131V285.696C307.074 284.768 307.226 283.948 307.531 283.237C307.835 282.526 308.241 281.939 308.749 281.475C309.257 280.996 309.844 280.641 310.512 280.408C311.179 280.162 311.883 280.038 312.622 280.038C313.362 280.038 314.066 280.162 314.733 280.408C315.401 280.641 315.988 280.996 316.496 281.475C317.004 281.939 317.41 282.526 317.714 283.237C318.019 283.948 318.171 284.768 318.171 285.696V286.131C318.171 287.118 318.019 287.981 317.714 288.721C317.41 289.461 317.004 290.077 316.496 290.57C315.988 291.049 315.401 291.412 314.733 291.659C314.066 291.891 313.362 292.007 312.622 292.007ZM312.622 290.266C313.058 290.266 313.493 290.193 313.928 290.048C314.363 289.889 314.748 289.649 315.081 289.33C315.415 288.996 315.683 288.569 315.887 288.046C316.104 287.524 316.213 286.886 316.213 286.131V285.696C316.213 285 316.104 284.405 315.887 283.912C315.683 283.419 315.415 283.012 315.081 282.693C314.748 282.374 314.363 282.142 313.928 281.997C313.493 281.852 313.058 281.779 312.622 281.779C312.187 281.779 311.752 281.852 311.317 281.997C310.882 282.142 310.497 282.374 310.164 282.693C309.83 283.012 309.554 283.419 309.337 283.912C309.134 284.405 309.032 285 309.032 285.696V286.131C309.032 286.886 309.134 287.524 309.337 288.046C309.554 288.569 309.83 288.996 310.164 289.33C310.497 289.649 310.882 289.889 311.317 290.048C311.752 290.193 312.187 290.266 312.622 290.266ZM320.883 280.256H322.928L327.041 287.437L331.154 280.256H333.069V291.789H331.154V283.411L327.737 289.287H326.214L322.798 283.411V291.789H320.883V280.256Z" fill="black"/>
<rect x="100" y="250.789" width="255" height="65" stroke="#508C6D"/>
<rect x="355" y="250.789" width="191" height="65" fill="#DBEEE5"/>
<path d="M375.89 290.005H377.522C377.797 289.453 378.029 288.772 378.218 287.959C378.407 287.147 378.552 286.276 378.653 285.348C378.755 284.405 378.827 283.44 378.871 282.454C378.914 281.453 378.936 280.503 378.936 279.603V276.557H388.837V290.005H390.687V294.618H388.728V291.789H377.848V294.618H375.89V290.005ZM386.792 290.005V278.341H380.938V280.038C380.938 282.244 380.836 284.151 380.633 285.761C380.445 287.372 380.133 288.786 379.698 290.005H386.792ZM393.418 292.007C393.2 292.007 392.983 291.985 392.765 291.941V290.026C392.837 290.041 392.946 290.048 393.091 290.048C393.411 290.048 393.686 289.947 393.918 289.744C394.165 289.54 394.361 289.185 394.506 288.677C394.651 288.17 394.76 287.481 394.832 286.61C394.905 285.74 394.941 284.637 394.941 283.303V280.256H403.21V291.789H401.295V281.953H396.856V283.738C396.856 285.348 396.783 286.683 396.638 287.742C396.493 288.801 396.276 289.649 395.985 290.288C395.71 290.911 395.354 291.354 394.919 291.615C394.484 291.876 393.984 292.007 393.418 292.007ZM406.691 280.256H408.606V288.96L414.568 280.256H416.483V291.789H414.568V283.085L408.606 291.789H406.691V280.256ZM422.605 281.953H418.667V280.256H428.459V281.953H424.52V291.789H422.605V281.953ZM435.215 292.007C434.475 292.007 433.771 291.891 433.104 291.659C432.437 291.426 431.849 291.071 431.341 290.592C430.834 290.099 430.427 289.482 430.123 288.743C429.818 288.003 429.666 287.132 429.666 286.131V285.696C429.666 284.739 429.811 283.912 430.101 283.215C430.391 282.505 430.776 281.917 431.254 281.453C431.747 280.974 432.313 280.619 432.952 280.387C433.604 280.155 434.286 280.038 434.997 280.038C436.694 280.038 438.007 280.503 438.936 281.431C439.864 282.36 440.328 283.672 440.328 285.37V286.588H431.581C431.581 287.27 431.689 287.843 431.907 288.307C432.125 288.772 432.408 289.149 432.756 289.439C433.104 289.729 433.488 289.939 433.909 290.07C434.344 290.201 434.779 290.266 435.215 290.266C436.085 290.266 436.752 290.121 437.217 289.831C437.695 289.54 438.036 289.142 438.239 288.634H440.111C439.995 289.185 439.784 289.671 439.48 290.092C439.19 290.512 438.827 290.868 438.392 291.158C437.971 291.434 437.485 291.644 436.934 291.789C436.397 291.934 435.824 292.007 435.215 292.007ZM435.106 281.779C434.656 281.779 434.221 281.845 433.8 281.975C433.38 282.091 433.002 282.287 432.669 282.563C432.35 282.824 432.088 283.157 431.885 283.564C431.682 283.97 431.581 284.456 431.581 285.022H438.522C438.508 284.427 438.406 283.926 438.218 283.52C438.043 283.099 437.804 282.766 437.499 282.519C437.195 282.258 436.832 282.069 436.411 281.953C436.005 281.837 435.57 281.779 435.106 281.779ZM442.294 292.007C442.076 292.007 441.858 291.985 441.641 291.941V290.026C441.713 290.041 441.822 290.048 441.967 290.048C442.286 290.048 442.562 289.947 442.794 289.744C443.041 289.54 443.236 289.185 443.382 288.677C443.527 288.17 443.635 287.481 443.708 286.61C443.781 285.74 443.817 284.637 443.817 283.303V280.256H452.086V291.789H450.171V281.953H445.732V283.738C445.732 285.348 445.659 286.683 445.514 287.742C445.369 288.801 445.151 289.649 444.861 290.288C444.586 290.911 444.23 291.354 443.795 291.615C443.36 291.876 442.859 292.007 442.294 292.007ZM455.567 280.256H457.481V284.608H460.245C461.696 284.608 462.762 284.927 463.444 285.566C464.14 286.204 464.488 287.089 464.488 288.22C464.488 289.323 464.14 290.193 463.444 290.832C462.762 291.47 461.696 291.789 460.245 291.789H455.567V280.256ZM460.136 290.092C461.036 290.092 461.667 289.932 462.029 289.613C462.392 289.294 462.573 288.822 462.573 288.199C462.573 287.575 462.392 287.103 462.029 286.784C461.667 286.465 461.036 286.305 460.136 286.305H457.481V290.092H460.136ZM466.999 280.256H468.914V285.065H474.876V280.256H476.791V291.789H474.876V286.762H468.914V291.789H466.999V280.256ZM485.068 292.007C484.328 292.007 483.624 291.891 482.957 291.659C482.29 291.412 481.702 291.049 481.195 290.57C480.687 290.077 480.281 289.461 479.976 288.721C479.671 287.981 479.519 287.118 479.519 286.131V285.696C479.519 284.768 479.671 283.948 479.976 283.237C480.281 282.526 480.687 281.939 481.195 281.475C481.702 280.996 482.29 280.641 482.957 280.408C483.624 280.162 484.328 280.038 485.068 280.038C485.808 280.038 486.511 280.162 487.179 280.408C487.846 280.641 488.434 280.996 488.941 281.475C489.449 281.939 489.855 282.526 490.16 283.237C490.464 283.948 490.617 284.768 490.617 285.696V286.131C490.617 287.118 490.464 287.981 490.16 288.721C489.855 289.461 489.449 290.077 488.941 290.57C488.434 291.049 487.846 291.412 487.179 291.659C486.511 291.891 485.808 292.007 485.068 292.007ZM485.068 290.266C485.503 290.266 485.938 290.193 486.374 290.048C486.809 289.889 487.193 289.649 487.527 289.33C487.861 288.996 488.129 288.569 488.332 288.046C488.55 287.524 488.658 286.886 488.658 286.131V285.696C488.658 285 488.55 284.405 488.332 283.912C488.129 283.419 487.861 283.012 487.527 282.693C487.193 282.374 486.809 282.142 486.374 281.997C485.938 281.852 485.503 281.779 485.068 281.779C484.633 281.779 484.198 281.852 483.762 281.997C483.327 282.142 482.943 282.374 482.609 282.693C482.275 283.012 482 283.419 481.782 283.912C481.579 284.405 481.477 285 481.477 285.696V286.131C481.477 286.886 481.579 287.524 481.782 288.046C482 288.569 482.275 288.996 482.609 289.33C482.943 289.649 483.327 289.889 483.762 290.048C484.198 290.193 484.633 290.266 485.068 290.266ZM497.789 292.007C497.049 292.007 496.36 291.891 495.722 291.659C495.084 291.412 494.532 291.049 494.068 290.57C493.604 290.077 493.234 289.461 492.958 288.721C492.697 287.981 492.567 287.118 492.567 286.131V285.696C492.567 284.768 492.712 283.948 493.002 283.237C493.292 282.526 493.677 281.939 494.155 281.475C494.634 280.996 495.185 280.641 495.809 280.408C496.447 280.162 497.107 280.038 497.789 280.038C498.471 280.038 499.08 280.133 499.617 280.321C500.168 280.51 500.64 280.771 501.032 281.105C501.438 281.438 501.764 281.83 502.011 282.28C502.272 282.73 502.46 283.215 502.577 283.738H500.618C500.502 283.462 500.364 283.208 500.205 282.976C500.06 282.73 499.871 282.519 499.639 282.345C499.421 282.171 499.16 282.033 498.855 281.932C498.551 281.83 498.195 281.779 497.789 281.779C497.369 281.779 496.962 281.859 496.571 282.019C496.179 282.164 495.831 282.396 495.526 282.715C495.222 283.02 494.975 283.419 494.786 283.912C494.612 284.405 494.525 285 494.525 285.696V286.131C494.525 286.871 494.612 287.51 494.786 288.046C494.975 288.569 495.222 288.996 495.526 289.33C495.831 289.649 496.179 289.889 496.571 290.048C496.962 290.193 497.369 290.266 497.789 290.266C498.5 290.266 499.095 290.092 499.574 289.744C500.067 289.395 500.415 288.917 500.618 288.307H502.577C502.301 289.453 501.735 290.36 500.879 291.027C500.023 291.68 498.993 292.007 497.789 292.007ZM507.819 281.953H503.88V280.256H513.673V281.953H509.734V291.789H507.819V281.953ZM515.854 280.256H517.769V284.608H520.532C521.983 284.608 523.049 284.927 523.731 285.566C524.427 286.204 524.775 287.089 524.775 288.22C524.775 289.323 524.427 290.193 523.731 290.832C523.049 291.47 521.983 291.789 520.532 291.789H515.854V280.256ZM520.423 290.092C521.323 290.092 521.954 289.932 522.317 289.613C522.679 289.294 522.861 288.822 522.861 288.199C522.861 287.575 522.679 287.103 522.317 286.784C521.954 286.465 521.323 286.305 520.423 286.305H517.769V290.092H520.423Z" fill="black"/>
<rect x="355" y="250.789" width="191" height="65" stroke="#508C6D"/>
<rect x="546" y="250.789" width="123" height="65" fill="#DBEEE5"/>
<path d="M576.943 288.003H570.502L569.044 291.789H566.911L572.743 276.557H574.789L580.62 291.789H578.401L576.943 288.003ZM571.176 286.218H576.268L573.722 279.168L571.176 286.218ZM581.914 290.092H583.329C583.488 289.874 583.633 289.54 583.764 289.091C583.894 288.641 584.01 288.112 584.112 287.502C584.214 286.893 584.286 286.233 584.33 285.522C584.388 284.797 584.417 284.057 584.417 283.303V280.256H592.468V290.092H594.1V294.509H592.272V291.789H583.742V294.509H581.914V290.092ZM590.553 290.092V281.953H586.288V283.738C586.288 284.347 586.266 284.956 586.223 285.566C586.179 286.16 586.114 286.733 586.027 287.285C585.94 287.821 585.831 288.336 585.7 288.83C585.584 289.308 585.447 289.729 585.287 290.092H590.553ZM596.395 280.256H598.179V282.432C598.571 281.663 599.115 281.076 599.811 280.67C600.522 280.249 601.342 280.038 602.27 280.038C603.721 280.038 604.882 280.517 605.752 281.475C606.622 282.418 607.058 283.825 607.058 285.696V286.131C607.058 287.118 606.942 287.981 606.709 288.721C606.477 289.446 606.151 290.055 605.73 290.549C605.309 291.027 604.802 291.39 604.207 291.637C603.627 291.883 602.981 292.007 602.27 292.007C601.284 292.007 600.457 291.789 599.79 291.354C599.137 290.919 598.644 290.375 598.31 289.722V296.141H596.395V280.256ZM601.835 290.309C602.299 290.309 602.735 290.222 603.141 290.048C603.547 289.86 603.895 289.591 604.185 289.243C604.49 288.895 604.722 288.46 604.882 287.937C605.056 287.415 605.143 286.813 605.143 286.131V285.696C605.143 285.072 605.056 284.514 604.882 284.021C604.722 283.527 604.49 283.114 604.185 282.78C603.895 282.432 603.547 282.171 603.141 281.997C602.735 281.823 602.299 281.736 601.835 281.736C601.313 281.736 600.834 281.823 600.399 281.997C599.964 282.156 599.594 282.389 599.289 282.693C598.984 282.983 598.745 283.332 598.571 283.738C598.397 284.144 598.31 284.579 598.31 285.043V286.784C598.31 287.306 598.397 287.785 598.571 288.22C598.745 288.656 598.984 289.025 599.289 289.33C599.594 289.635 599.964 289.874 600.399 290.048C600.834 290.222 601.313 290.309 601.835 290.309ZM614.57 292.007C613.83 292.007 613.127 291.891 612.459 291.659C611.792 291.426 611.204 291.071 610.697 290.592C610.189 290.099 609.783 289.482 609.478 288.743C609.173 288.003 609.021 287.132 609.021 286.131V285.696C609.021 284.739 609.166 283.912 609.456 283.215C609.746 282.505 610.131 281.917 610.61 281.453C611.103 280.974 611.669 280.619 612.307 280.387C612.96 280.155 613.642 280.038 614.352 280.038C616.05 280.038 617.363 280.503 618.291 281.431C619.219 282.36 619.684 283.672 619.684 285.37V286.588H610.936C610.936 287.27 611.045 287.843 611.262 288.307C611.48 288.772 611.763 289.149 612.111 289.439C612.459 289.729 612.844 289.939 613.264 290.07C613.7 290.201 614.135 290.266 614.57 290.266C615.44 290.266 616.108 290.121 616.572 289.831C617.051 289.54 617.392 289.142 617.595 288.634H619.466C619.35 289.185 619.14 289.671 618.835 290.092C618.545 290.512 618.182 290.868 617.747 291.158C617.326 291.434 616.84 291.644 616.289 291.789C615.752 291.934 615.179 292.007 614.57 292.007ZM614.461 281.779C614.011 281.779 613.576 281.845 613.156 281.975C612.735 282.091 612.358 282.287 612.024 282.563C611.705 282.824 611.444 283.157 611.241 283.564C611.038 283.97 610.936 284.456 610.936 285.022H617.878C617.863 284.427 617.762 283.926 617.573 283.52C617.399 283.099 617.159 282.766 616.855 282.519C616.55 282.258 616.188 282.069 615.767 281.953C615.361 281.837 614.925 281.779 614.461 281.779ZM626.866 292.007C626.126 292.007 625.437 291.891 624.799 291.659C624.161 291.412 623.609 291.049 623.145 290.57C622.681 290.077 622.311 289.461 622.035 288.721C621.774 287.981 621.644 287.118 621.644 286.131V285.696C621.644 284.768 621.789 283.948 622.079 283.237C622.369 282.526 622.754 281.939 623.232 281.475C623.711 280.996 624.262 280.641 624.886 280.408C625.524 280.162 626.184 280.038 626.866 280.038C627.548 280.038 628.157 280.133 628.694 280.321C629.245 280.51 629.717 280.771 630.109 281.105C630.515 281.438 630.841 281.83 631.088 282.28C631.349 282.73 631.538 283.215 631.654 283.738H629.695C629.579 283.462 629.441 283.208 629.282 282.976C629.137 282.73 628.948 282.519 628.716 282.345C628.498 282.171 628.237 282.033 627.933 281.932C627.628 281.83 627.272 281.779 626.866 281.779C626.446 281.779 626.039 281.859 625.648 282.019C625.256 282.164 624.908 282.396 624.603 282.715C624.299 283.02 624.052 283.419 623.863 283.912C623.689 284.405 623.602 285 623.602 285.696V286.131C623.602 286.871 623.689 287.51 623.863 288.046C624.052 288.569 624.299 288.996 624.603 289.33C624.908 289.649 625.256 289.889 625.648 290.048C626.039 290.193 626.446 290.266 626.866 290.266C627.577 290.266 628.172 290.092 628.651 289.744C629.144 289.395 629.492 288.917 629.695 288.307H631.654C631.378 289.453 630.812 290.36 629.956 291.027C629.1 291.68 628.07 292.007 626.866 292.007ZM639.159 290.005H642.793V278.798L639.159 281.388V279.168L642.837 276.557H644.882V290.005H647.863V291.789H639.159V290.005Z" fill="black"/>
<rect x="546" y="250.789" width="123" height="65" stroke="#508C6D"/>
<rect x="669" y="250.789" width="125" height="65" fill="#DBEEE5"/>
<path d="M699.912 288.003H693.471L692.013 291.789H689.881L695.713 276.557H697.758L703.59 291.789H701.37L699.912 288.003ZM694.146 286.218H699.238L696.692 279.168L694.146 286.218ZM704.884 290.092H706.298C706.458 289.874 706.603 289.54 706.733 289.091C706.864 288.641 706.98 288.112 707.081 287.502C707.183 286.893 707.255 286.233 707.299 285.522C707.357 284.797 707.386 284.057 707.386 283.303V280.256H715.437V290.092H717.069V294.509H715.241V291.789H706.711V294.509H704.884V290.092ZM713.522 290.092V281.953H709.257V283.738C709.257 284.347 709.236 284.956 709.192 285.566C709.149 286.16 709.083 286.733 708.996 287.285C708.909 287.821 708.8 288.336 708.67 288.83C708.554 289.308 708.416 289.729 708.256 290.092H713.522ZM719.364 280.256H721.149V282.432C721.54 281.663 722.084 281.076 722.781 280.67C723.492 280.249 724.311 280.038 725.24 280.038C726.69 280.038 727.851 280.517 728.721 281.475C729.592 282.418 730.027 283.825 730.027 285.696V286.131C730.027 287.118 729.911 287.981 729.679 288.721C729.447 289.446 729.12 290.055 728.7 290.549C728.279 291.027 727.771 291.39 727.176 291.637C726.596 291.883 725.95 292.007 725.24 292.007C724.253 292.007 723.426 291.789 722.759 291.354C722.106 290.919 721.613 290.375 721.279 289.722V296.141H719.364V280.256ZM724.804 290.309C725.269 290.309 725.704 290.222 726.11 290.048C726.516 289.86 726.864 289.591 727.155 289.243C727.459 288.895 727.691 288.46 727.851 287.937C728.025 287.415 728.112 286.813 728.112 286.131V285.696C728.112 285.072 728.025 284.514 727.851 284.021C727.691 283.527 727.459 283.114 727.155 282.78C726.864 282.432 726.516 282.171 726.11 281.997C725.704 281.823 725.269 281.736 724.804 281.736C724.282 281.736 723.803 281.823 723.368 281.997C722.933 282.156 722.563 282.389 722.258 282.693C721.954 282.983 721.714 283.332 721.54 283.738C721.366 284.144 721.279 284.579 721.279 285.043V286.784C721.279 287.306 721.366 287.785 721.54 288.22C721.714 288.656 721.954 289.025 722.258 289.33C722.563 289.635 722.933 289.874 723.368 290.048C723.803 290.222 724.282 290.309 724.804 290.309ZM737.539 292.007C736.799 292.007 736.096 291.891 735.429 291.659C734.761 291.426 734.174 291.071 733.666 290.592C733.158 290.099 732.752 289.482 732.447 288.743C732.143 288.003 731.99 287.132 731.99 286.131V285.696C731.99 284.739 732.136 283.912 732.426 283.215C732.716 282.505 733.1 281.917 733.579 281.453C734.072 280.974 734.638 280.619 735.276 280.387C735.929 280.155 736.611 280.038 737.322 280.038C739.019 280.038 740.332 280.503 741.26 281.431C742.189 282.36 742.653 283.672 742.653 285.37V286.588H733.905C733.905 287.27 734.014 287.843 734.232 288.307C734.449 288.772 734.732 289.149 735.08 289.439C735.429 289.729 735.813 289.939 736.234 290.07C736.669 290.201 737.104 290.266 737.539 290.266C738.41 290.266 739.077 290.121 739.541 289.831C740.02 289.54 740.361 289.142 740.564 288.634H742.435C742.319 289.185 742.109 289.671 741.804 290.092C741.514 290.512 741.152 290.868 740.716 291.158C740.296 291.434 739.81 291.644 739.258 291.789C738.722 291.934 738.149 292.007 737.539 292.007ZM737.431 281.779C736.981 281.779 736.546 281.845 736.125 281.975C735.704 282.091 735.327 282.287 734.993 282.563C734.674 282.824 734.413 283.157 734.21 283.564C734.007 283.97 733.905 284.456 733.905 285.022H740.847C740.832 284.427 740.731 283.926 740.542 283.52C740.368 283.099 740.129 282.766 739.824 282.519C739.52 282.258 739.157 282.069 738.736 281.953C738.33 281.837 737.895 281.779 737.431 281.779ZM749.836 292.007C749.096 292.007 748.407 291.891 747.768 291.659C747.13 291.412 746.579 291.049 746.115 290.57C745.65 290.077 745.28 289.461 745.005 288.721C744.744 287.981 744.613 287.118 744.613 286.131V285.696C744.613 284.768 744.758 283.948 745.048 283.237C745.339 282.526 745.723 281.939 746.202 281.475C746.68 280.996 747.232 280.641 747.855 280.408C748.494 280.162 749.154 280.038 749.836 280.038C750.517 280.038 751.127 280.133 751.664 280.321C752.215 280.51 752.686 280.771 753.078 281.105C753.484 281.438 753.811 281.83 754.057 282.28C754.318 282.73 754.507 283.215 754.623 283.738H752.664C752.548 283.462 752.411 283.208 752.251 282.976C752.106 282.73 751.917 282.519 751.685 282.345C751.468 282.171 751.207 282.033 750.902 281.932C750.597 281.83 750.242 281.779 749.836 281.779C749.415 281.779 749.009 281.859 748.617 282.019C748.225 282.164 747.877 282.396 747.573 282.715C747.268 283.02 747.021 283.419 746.833 283.912C746.659 284.405 746.572 285 746.572 285.696V286.131C746.572 286.871 746.659 287.51 746.833 288.046C747.021 288.569 747.268 288.996 747.573 289.33C747.877 289.649 748.225 289.889 748.617 290.048C749.009 290.193 749.415 290.266 749.836 290.266C750.546 290.266 751.141 290.092 751.62 289.744C752.113 289.395 752.461 288.917 752.664 288.307H754.623C754.347 289.453 753.782 290.36 752.926 291.027C752.07 291.68 751.04 292.007 749.836 292.007ZM761.802 290.114L767.895 284.826C768.359 284.434 768.736 284.079 769.027 283.759C769.331 283.44 769.571 283.143 769.745 282.867C769.919 282.577 770.035 282.294 770.093 282.019C770.165 281.743 770.202 281.446 770.202 281.126C770.202 280.271 769.948 279.567 769.44 279.016C768.932 278.45 768.236 278.167 767.351 278.167C766.292 278.167 765.48 278.457 764.914 279.037C764.348 279.603 764.065 280.408 764.065 281.453H762.02C762.02 280.713 762.143 280.031 762.39 279.407C762.651 278.769 763.013 278.225 763.478 277.775C763.956 277.326 764.522 276.978 765.175 276.731C765.828 276.47 766.553 276.339 767.351 276.339C768.12 276.339 768.809 276.463 769.418 276.709C770.028 276.941 770.543 277.275 770.963 277.71C771.384 278.131 771.703 278.631 771.921 279.212C772.138 279.792 772.247 280.43 772.247 281.126C772.247 281.649 772.167 282.135 772.008 282.584C771.848 283.034 771.623 283.462 771.333 283.868C771.058 284.274 770.717 284.673 770.31 285.065C769.919 285.442 769.484 285.834 769.005 286.24L764.457 290.005H772.465V291.789H761.802V290.114Z" fill="black"/>
<rect x="669" y="250.789" width="125" height="65" stroke="#508C6D"/>
<rect x="794" y="250.789" width="125" height="65" fill="#DBEEE5"/>
<path d="M824.859 288.003H818.418L816.96 291.789H814.828L820.659 276.557H822.705L828.537 291.789H826.317L824.859 288.003ZM819.093 286.218H824.185L821.639 279.168L819.093 286.218ZM829.83 290.092H831.245C831.404 289.874 831.549 289.54 831.68 289.091C831.811 288.641 831.927 288.112 832.028 287.502C832.13 286.893 832.202 286.233 832.246 285.522C832.304 284.797 832.333 284.057 832.333 283.303V280.256H840.384V290.092H842.016V294.509H840.188V291.789H831.658V294.509H829.83V290.092ZM838.469 290.092V281.953H834.204V283.738C834.204 284.347 834.182 284.956 834.139 285.566C834.095 286.16 834.03 286.733 833.943 287.285C833.856 287.821 833.747 288.336 833.617 288.83C833.501 289.308 833.363 289.729 833.203 290.092H838.469ZM844.311 280.256H846.096V282.432C846.487 281.663 847.031 281.076 847.728 280.67C848.438 280.249 849.258 280.038 850.187 280.038C851.637 280.038 852.798 280.517 853.668 281.475C854.539 282.418 854.974 283.825 854.974 285.696V286.131C854.974 287.118 854.858 287.981 854.626 288.721C854.394 289.446 854.067 290.055 853.646 290.549C853.226 291.027 852.718 291.39 852.123 291.637C851.543 291.883 850.897 292.007 850.187 292.007C849.2 292.007 848.373 291.789 847.706 291.354C847.053 290.919 846.56 290.375 846.226 289.722V296.141H844.311V280.256ZM849.751 290.309C850.216 290.309 850.651 290.222 851.057 290.048C851.463 289.86 851.811 289.591 852.101 289.243C852.406 288.895 852.638 288.46 852.798 287.937C852.972 287.415 853.059 286.813 853.059 286.131V285.696C853.059 285.072 852.972 284.514 852.798 284.021C852.638 283.527 852.406 283.114 852.101 282.78C851.811 282.432 851.463 282.171 851.057 281.997C850.651 281.823 850.216 281.736 849.751 281.736C849.229 281.736 848.75 281.823 848.315 281.997C847.88 282.156 847.51 282.389 847.205 282.693C846.901 282.983 846.661 283.332 846.487 283.738C846.313 284.144 846.226 284.579 846.226 285.043V286.784C846.226 287.306 846.313 287.785 846.487 288.22C846.661 288.656 846.901 289.025 847.205 289.33C847.51 289.635 847.88 289.874 848.315 290.048C848.75 290.222 849.229 290.309 849.751 290.309ZM862.486 292.007C861.746 292.007 861.043 291.891 860.375 291.659C859.708 291.426 859.121 291.071 858.613 290.592C858.105 290.099 857.699 289.482 857.394 288.743C857.09 288.003 856.937 287.132 856.937 286.131V285.696C856.937 284.739 857.082 283.912 857.373 283.215C857.663 282.505 858.047 281.917 858.526 281.453C859.019 280.974 859.585 280.619 860.223 280.387C860.876 280.155 861.558 280.038 862.269 280.038C863.966 280.038 865.279 280.503 866.207 281.431C867.136 282.36 867.6 283.672 867.6 285.37V286.588H858.852C858.852 287.27 858.961 287.843 859.179 288.307C859.396 288.772 859.679 289.149 860.027 289.439C860.375 289.729 860.76 289.939 861.181 290.07C861.616 290.201 862.051 290.266 862.486 290.266C863.357 290.266 864.024 290.121 864.488 289.831C864.967 289.54 865.308 289.142 865.511 288.634H867.382C867.266 289.185 867.056 289.671 866.751 290.092C866.461 290.512 866.098 290.868 865.663 291.158C865.243 291.434 864.757 291.644 864.205 291.789C863.669 291.934 863.096 292.007 862.486 292.007ZM862.377 281.779C861.928 281.779 861.492 281.845 861.072 281.975C860.651 282.091 860.274 282.287 859.94 282.563C859.621 282.824 859.36 283.157 859.157 283.564C858.954 283.97 858.852 284.456 858.852 285.022H865.794C865.779 284.427 865.678 283.926 865.489 283.52C865.315 283.099 865.076 282.766 864.771 282.519C864.466 282.258 864.104 282.069 863.683 281.953C863.277 281.837 862.842 281.779 862.377 281.779ZM874.783 292.007C874.043 292.007 873.354 291.891 872.715 291.659C872.077 291.412 871.526 291.049 871.061 290.57C870.597 290.077 870.227 289.461 869.952 288.721C869.691 287.981 869.56 287.118 869.56 286.131V285.696C869.56 284.768 869.705 283.948 869.995 283.237C870.285 282.526 870.67 281.939 871.149 281.475C871.627 280.996 872.179 280.641 872.802 280.408C873.441 280.162 874.101 280.038 874.783 280.038C875.464 280.038 876.074 280.133 876.61 280.321C877.162 280.51 877.633 280.771 878.025 281.105C878.431 281.438 878.757 281.83 879.004 282.28C879.265 282.73 879.454 283.215 879.57 283.738H877.611C877.495 283.462 877.357 283.208 877.198 282.976C877.053 282.73 876.864 282.519 876.632 282.345C876.415 282.171 876.153 282.033 875.849 281.932C875.544 281.83 875.189 281.779 874.783 281.779C874.362 281.779 873.956 281.859 873.564 282.019C873.172 282.164 872.824 282.396 872.519 282.715C872.215 283.02 871.968 283.419 871.78 283.912C871.606 284.405 871.518 285 871.518 285.696V286.131C871.518 286.871 871.606 287.51 871.78 288.046C871.968 288.569 872.215 288.996 872.519 289.33C872.824 289.649 873.172 289.889 873.564 290.048C873.956 290.193 874.362 290.266 874.783 290.266C875.493 290.266 876.088 290.092 876.567 289.744C877.06 289.395 877.408 288.917 877.611 288.307H879.57C879.294 289.453 878.728 290.36 877.872 291.027C877.017 291.68 875.987 292.007 874.783 292.007ZM892.08 292.007C891.253 292.007 890.514 291.898 889.861 291.68C889.222 291.448 888.678 291.136 888.229 290.745C887.779 290.353 887.438 289.896 887.206 289.374C886.974 288.837 886.858 288.264 886.858 287.655H888.903C888.903 288.394 889.157 289.004 889.665 289.482C890.173 289.947 890.978 290.179 892.08 290.179C893.183 290.179 893.988 289.939 894.496 289.461C895.003 288.967 895.257 288.329 895.257 287.546C895.257 286.733 894.996 286.081 894.474 285.587C893.966 285.08 893.168 284.826 892.08 284.826H890.448V283.085H892.08C893.125 283.085 893.879 282.867 894.343 282.432C894.808 281.982 895.04 281.366 895.04 280.582C895.04 279.828 894.815 279.241 894.365 278.82C893.915 278.385 893.154 278.167 892.08 278.167C891.05 278.167 890.296 278.392 889.817 278.842C889.353 279.277 889.121 279.821 889.121 280.474H887.075C887.075 279.908 887.184 279.371 887.402 278.863C887.634 278.356 887.96 277.92 888.381 277.558C888.816 277.181 889.338 276.883 889.948 276.666C890.572 276.448 891.282 276.339 892.08 276.339C892.878 276.339 893.589 276.448 894.213 276.666C894.837 276.883 895.359 277.173 895.78 277.536C896.215 277.899 896.541 278.327 896.759 278.82C896.976 279.313 897.085 279.828 897.085 280.365C897.085 281.235 896.853 281.975 896.389 282.584C895.939 283.179 895.301 283.6 894.474 283.847C895.344 284.122 896.033 284.572 896.541 285.196C897.049 285.819 897.303 286.675 897.303 287.763C897.303 288.344 897.187 288.895 896.955 289.417C896.723 289.925 896.382 290.375 895.932 290.766C895.497 291.144 894.953 291.448 894.3 291.68C893.647 291.898 892.907 292.007 892.08 292.007Z" fill="black"/>
<rect x="794" y="250.789" width="125" height="65" stroke="#508C6D"/>
<rect x="919" y="250.789" width="413" height="65" fill="#DBEEE5"/>
<path d="M943.649 292.007C943.489 292.007 943.329 291.999 943.17 291.985C943.025 291.985 942.894 291.978 942.778 291.963V290.135C942.894 290.15 943.025 290.164 943.17 290.179C943.329 290.179 943.489 290.179 943.649 290.179C943.953 290.179 944.214 290.157 944.432 290.114C944.649 290.055 944.838 289.961 944.998 289.831C945.172 289.686 945.324 289.497 945.455 289.265C945.6 289.033 945.752 288.728 945.912 288.351L939.623 276.557H941.842L946.934 286.24L951.243 276.557H953.332L947.783 288.808C947.536 289.359 947.282 289.838 947.021 290.244C946.76 290.65 946.47 290.984 946.151 291.245C945.832 291.506 945.469 291.695 945.063 291.811C944.657 291.941 944.185 292.007 943.649 292.007ZM954.635 280.256H964.209V291.789H962.295V281.953H956.55V291.789H954.635V280.256ZM967.683 280.256H969.467V282.432C969.859 281.663 970.403 281.076 971.099 280.67C971.81 280.249 972.629 280.038 973.558 280.038C975.009 280.038 976.169 280.517 977.04 281.475C977.91 282.418 978.345 283.825 978.345 285.696V286.131C978.345 287.118 978.229 287.981 977.997 288.721C977.765 289.446 977.439 290.055 977.018 290.549C976.597 291.027 976.089 291.39 975.495 291.637C974.914 291.883 974.269 292.007 973.558 292.007C972.571 292.007 971.745 291.789 971.077 291.354C970.424 290.919 969.931 290.375 969.598 289.722V296.141H967.683V280.256ZM973.123 290.309C973.587 290.309 974.022 290.222 974.428 290.048C974.835 289.86 975.183 289.591 975.473 289.243C975.777 288.895 976.01 288.46 976.169 287.937C976.343 287.415 976.43 286.813 976.43 286.131V285.696C976.43 285.072 976.343 284.514 976.169 284.021C976.01 283.527 975.777 283.114 975.473 282.78C975.183 282.432 974.835 282.171 974.428 281.997C974.022 281.823 973.587 281.736 973.123 281.736C972.6 281.736 972.122 281.823 971.687 281.997C971.251 282.156 970.881 282.389 970.577 282.693C970.272 282.983 970.033 283.332 969.859 283.738C969.685 284.144 969.598 284.579 969.598 285.043V286.784C969.598 287.306 969.685 287.785 969.859 288.22C970.033 288.656 970.272 289.025 970.577 289.33C970.881 289.635 971.251 289.874 971.687 290.048C972.122 290.222 972.6 290.309 973.123 290.309ZM984.356 292.007C983.718 292.007 983.152 291.92 982.659 291.746C982.18 291.557 981.774 291.303 981.44 290.984C981.107 290.665 980.853 290.288 980.679 289.852C980.505 289.417 980.418 288.938 980.418 288.416C980.418 287.27 980.751 286.443 981.419 285.936C982.1 285.428 983.072 285.174 984.334 285.174H988.077V284.391C988.077 283.404 987.852 282.722 987.403 282.345C986.967 281.968 986.307 281.779 985.422 281.779C984.596 281.779 983.994 281.939 983.616 282.258C983.239 282.563 983.029 282.911 982.985 283.303H981.07C981.099 282.838 981.223 282.41 981.44 282.019C981.672 281.612 981.977 281.264 982.354 280.974C982.746 280.684 983.21 280.459 983.747 280.3C984.284 280.126 984.878 280.038 985.531 280.038C986.895 280.038 987.976 280.365 988.774 281.018C989.586 281.656 989.992 282.708 989.992 284.173V288.851C989.992 289.461 989.992 289.997 989.992 290.462C990.007 290.911 990.043 291.354 990.101 291.789H988.425C988.382 291.455 988.353 291.144 988.338 290.853C988.324 290.549 988.317 290.208 988.317 289.831C988.012 290.44 987.519 290.955 986.837 291.376C986.155 291.796 985.328 292.007 984.356 292.007ZM984.77 290.266C985.219 290.266 985.64 290.208 986.032 290.092C986.438 289.961 986.793 289.78 987.098 289.548C987.403 289.301 987.642 289.004 987.816 288.656C987.99 288.307 988.077 287.901 988.077 287.437V286.654H984.661C983.95 286.654 983.391 286.799 982.985 287.089C982.579 287.364 982.376 287.807 982.376 288.416C982.376 288.953 982.565 289.395 982.942 289.744C983.333 290.092 983.943 290.266 984.77 290.266ZM993.374 280.256H998.379C999.801 280.256 1000.85 280.553 1001.51 281.148C1002.18 281.729 1002.51 282.483 1002.51 283.411C1002.51 283.658 1002.47 283.912 1002.38 284.173C1002.3 284.42 1002.17 284.652 1002.01 284.869C1001.87 285.087 1001.69 285.275 1001.47 285.435C1001.27 285.595 1001.03 285.718 1000.77 285.805C1001.48 285.979 1002.02 286.313 1002.38 286.806C1002.76 287.285 1002.95 287.85 1002.95 288.503C1002.95 289.504 1002.62 290.302 1001.95 290.897C1001.28 291.492 1000.24 291.789 998.814 291.789H993.374V280.256ZM998.814 290.092C999.627 290.092 1000.2 289.947 1000.53 289.657C1000.87 289.366 1001.03 288.953 1001.03 288.416C1001.03 287.865 1000.87 287.444 1000.53 287.154C1000.2 286.849 999.627 286.697 998.814 286.697H995.289V290.092H998.814ZM998.379 285.13C999.206 285.13 999.779 284.985 1000.1 284.695C1000.43 284.405 1000.6 284.006 1000.6 283.498C1000.6 283.02 1000.43 282.642 1000.1 282.367C999.779 282.091 999.206 281.953 998.379 281.953H995.289V285.13H998.379ZM1005.13 292.007C1004.92 292.007 1004.7 291.985 1004.48 291.941V290.026C1004.55 290.041 1004.66 290.048 1004.81 290.048C1005.13 290.048 1005.4 289.947 1005.63 289.744C1005.88 289.54 1006.08 289.185 1006.22 288.677C1006.37 288.17 1006.48 287.481 1006.55 286.61C1006.62 285.74 1006.66 284.637 1006.66 283.303V280.256H1014.93V291.789H1013.01V281.953H1008.57V283.738C1008.57 285.348 1008.5 286.683 1008.35 287.742C1008.21 288.801 1007.99 289.649 1007.7 290.288C1007.43 290.911 1007.07 291.354 1006.64 291.615C1006.2 291.876 1005.7 292.007 1005.13 292.007ZM1023.19 292.007C1022.45 292.007 1021.75 291.891 1021.08 291.659C1020.42 291.426 1019.83 291.071 1019.32 290.592C1018.81 290.099 1018.41 289.482 1018.1 288.743C1017.8 288.003 1017.65 287.132 1017.65 286.131V285.696C1017.65 284.739 1017.79 283.912 1018.08 283.215C1018.37 282.505 1018.76 281.917 1019.23 281.453C1019.73 280.974 1020.29 280.619 1020.93 280.387C1021.58 280.155 1022.27 280.038 1022.98 280.038C1024.67 280.038 1025.99 280.503 1026.92 281.431C1027.84 282.36 1028.31 283.672 1028.31 285.37V286.588H1019.56C1019.56 287.27 1019.67 287.843 1019.89 288.307C1020.1 288.772 1020.39 289.149 1020.74 289.439C1021.08 289.729 1021.47 289.939 1021.89 290.07C1022.32 290.201 1022.76 290.266 1023.19 290.266C1024.06 290.266 1024.73 290.121 1025.2 289.831C1025.68 289.54 1026.02 289.142 1026.22 288.634H1028.09C1027.97 289.185 1027.76 289.671 1027.46 290.092C1027.17 290.512 1026.81 290.868 1026.37 291.158C1025.95 291.434 1025.46 291.644 1024.91 291.789C1024.38 291.934 1023.8 292.007 1023.19 292.007ZM1023.09 281.779C1022.64 281.779 1022.2 281.845 1021.78 281.975C1021.36 282.091 1020.98 282.287 1020.65 282.563C1020.33 282.824 1020.07 283.157 1019.87 283.564C1019.66 283.97 1019.56 284.456 1019.56 285.022H1026.5C1026.49 284.427 1026.39 283.926 1026.2 283.52C1026.02 283.099 1025.78 282.766 1025.48 282.519C1025.17 282.258 1024.81 282.069 1024.39 281.953C1023.99 281.837 1023.55 281.779 1023.09 281.779ZM1031.03 280.256H1032.94V285.065H1038.91V280.256H1040.82V291.789H1038.91V286.762H1032.94V291.789H1031.03V280.256ZM1044.31 280.256H1046.23V288.96L1052.19 280.256H1054.1V291.789H1052.19V283.085L1046.23 291.789H1044.31V280.256ZM1062.38 292.007C1061.64 292.007 1060.94 291.891 1060.27 291.659C1059.6 291.426 1059.01 291.071 1058.51 290.592C1058 290.099 1057.59 289.482 1057.29 288.743C1056.98 288.003 1056.83 287.132 1056.83 286.131V285.696C1056.83 284.739 1056.98 283.912 1057.27 283.215C1057.56 282.505 1057.94 281.917 1058.42 281.453C1058.91 280.974 1059.48 280.619 1060.12 280.387C1060.77 280.155 1061.45 280.038 1062.16 280.038C1063.86 280.038 1065.17 280.503 1066.1 281.431C1067.03 282.36 1067.49 283.672 1067.49 285.37V286.588H1058.75C1058.75 287.27 1058.85 287.843 1059.07 288.307C1059.29 288.772 1059.57 289.149 1059.92 289.439C1060.27 289.729 1060.65 289.939 1061.07 290.07C1061.51 290.201 1061.94 290.266 1062.38 290.266C1063.25 290.266 1063.92 290.121 1064.38 289.831C1064.86 289.54 1065.2 289.142 1065.4 288.634H1067.28C1067.16 289.185 1066.95 289.671 1066.65 290.092C1066.36 290.512 1065.99 290.868 1065.56 291.158C1065.14 291.434 1064.65 291.644 1064.1 291.789C1063.56 291.934 1062.99 292.007 1062.38 292.007ZM1062.27 281.779C1061.82 281.779 1061.39 281.845 1060.97 281.975C1060.54 282.091 1060.17 282.287 1059.83 282.563C1059.52 282.824 1059.25 283.157 1059.05 283.564C1058.85 283.97 1058.75 284.456 1058.75 285.022H1065.69C1065.67 284.427 1065.57 283.926 1065.38 283.52C1065.21 283.099 1064.97 282.766 1064.66 282.519C1064.36 282.258 1064 282.069 1063.58 281.953C1063.17 281.837 1062.74 281.779 1062.27 281.779ZM1075.66 280.256H1085.23V291.789H1083.32V281.953H1077.57V291.789H1075.66V280.256ZM1093.49 292.007C1092.75 292.007 1092.05 291.891 1091.38 291.659C1090.71 291.412 1090.13 291.049 1089.62 290.57C1089.11 290.077 1088.7 289.461 1088.4 288.721C1088.09 287.981 1087.94 287.118 1087.94 286.131V285.696C1087.94 284.768 1088.09 283.948 1088.4 283.237C1088.7 282.526 1089.11 281.939 1089.62 281.475C1090.13 280.996 1090.71 280.641 1091.38 280.408C1092.05 280.162 1092.75 280.038 1093.49 280.038C1094.23 280.038 1094.93 280.162 1095.6 280.408C1096.27 280.641 1096.86 280.996 1097.36 281.475C1097.87 281.939 1098.28 282.526 1098.58 283.237C1098.89 283.948 1099.04 284.768 1099.04 285.696V286.131C1099.04 287.118 1098.89 287.981 1098.58 288.721C1098.28 289.461 1097.87 290.077 1097.36 290.57C1096.86 291.049 1096.27 291.412 1095.6 291.659C1094.93 291.891 1094.23 292.007 1093.49 292.007ZM1093.49 290.266C1093.93 290.266 1094.36 290.193 1094.8 290.048C1095.23 289.889 1095.62 289.649 1095.95 289.33C1096.28 288.996 1096.55 288.569 1096.75 288.046C1096.97 287.524 1097.08 286.886 1097.08 286.131V285.696C1097.08 285 1096.97 284.405 1096.75 283.912C1096.55 283.419 1096.28 283.012 1095.95 282.693C1095.62 282.374 1095.23 282.142 1094.8 281.997C1094.36 281.852 1093.93 281.779 1093.49 281.779C1093.06 281.779 1092.62 281.852 1092.18 281.997C1091.75 282.142 1091.37 282.374 1091.03 282.693C1090.7 283.012 1090.42 283.419 1090.2 283.912C1090 284.405 1089.9 285 1089.9 285.696V286.131C1089.9 286.886 1090 287.524 1090.2 288.046C1090.42 288.569 1090.7 288.996 1091.03 289.33C1091.37 289.649 1091.75 289.889 1092.18 290.048C1092.62 290.193 1093.06 290.266 1093.49 290.266ZM1106.21 292.007C1105.47 292.007 1104.78 291.891 1104.14 291.659C1103.51 291.412 1102.96 291.049 1102.49 290.57C1102.03 290.077 1101.66 289.461 1101.38 288.721C1101.12 287.981 1100.99 287.118 1100.99 286.131V285.696C1100.99 284.768 1101.13 283.948 1101.42 283.237C1101.71 282.526 1102.1 281.939 1102.58 281.475C1103.06 280.996 1103.61 280.641 1104.23 280.408C1104.87 280.162 1105.53 280.038 1106.21 280.038C1106.89 280.038 1107.5 280.133 1108.04 280.321C1108.59 280.51 1109.06 280.771 1109.45 281.105C1109.86 281.438 1110.19 281.83 1110.43 282.28C1110.69 282.73 1110.88 283.215 1111 283.738H1109.04C1108.92 283.462 1108.79 283.208 1108.63 282.976C1108.48 282.73 1108.29 282.519 1108.06 282.345C1107.84 282.171 1107.58 282.033 1107.28 281.932C1106.97 281.83 1106.62 281.779 1106.21 281.779C1105.79 281.779 1105.39 281.859 1104.99 282.019C1104.6 282.164 1104.25 282.396 1103.95 282.715C1103.64 283.02 1103.4 283.419 1103.21 283.912C1103.03 284.405 1102.95 285 1102.95 285.696V286.131C1102.95 286.871 1103.03 287.51 1103.21 288.046C1103.4 288.569 1103.64 288.996 1103.95 289.33C1104.25 289.649 1104.6 289.889 1104.99 290.048C1105.39 290.193 1105.79 290.266 1106.21 290.266C1106.92 290.266 1107.52 290.092 1108 289.744C1108.49 289.395 1108.84 288.917 1109.04 288.307H1111C1110.72 289.453 1110.16 290.36 1109.3 291.027C1108.45 291.68 1107.42 292.007 1106.21 292.007ZM1113.06 292.007C1112.85 292.007 1112.63 291.985 1112.41 291.941V290.026C1112.48 290.041 1112.59 290.048 1112.74 290.048C1113.06 290.048 1113.33 289.947 1113.57 289.744C1113.81 289.54 1114.01 289.185 1114.15 288.677C1114.3 288.17 1114.41 287.481 1114.48 286.61C1114.55 285.74 1114.59 284.637 1114.59 283.303V280.256H1122.86V291.789H1120.94V281.953H1116.5V283.738C1116.5 285.348 1116.43 286.683 1116.29 287.742C1116.14 288.801 1115.92 289.649 1115.63 290.288C1115.36 290.911 1115 291.354 1114.57 291.615C1114.13 291.876 1113.63 292.007 1113.06 292.007ZM1131.12 292.007C1130.39 292.007 1129.68 291.891 1129.01 291.659C1128.35 291.426 1127.76 291.071 1127.25 290.592C1126.74 290.099 1126.34 289.482 1126.03 288.743C1125.73 288.003 1125.58 287.132 1125.58 286.131V285.696C1125.58 284.739 1125.72 283.912 1126.01 283.215C1126.3 282.505 1126.69 281.917 1127.16 281.453C1127.66 280.974 1128.22 280.619 1128.86 280.387C1129.51 280.155 1130.2 280.038 1130.91 280.038C1132.6 280.038 1133.92 280.503 1134.85 281.431C1135.77 282.36 1136.24 283.672 1136.24 285.37V286.588H1127.49C1127.49 287.27 1127.6 287.843 1127.82 288.307C1128.03 288.772 1128.32 289.149 1128.67 289.439C1129.01 289.729 1129.4 289.939 1129.82 290.07C1130.25 290.201 1130.69 290.266 1131.12 290.266C1132 290.266 1132.66 290.121 1133.13 289.831C1133.61 289.54 1133.95 289.142 1134.15 288.634H1136.02C1135.9 289.185 1135.69 289.671 1135.39 290.092C1135.1 290.512 1134.74 290.868 1134.3 291.158C1133.88 291.434 1133.4 291.644 1132.84 291.789C1132.31 291.934 1131.73 292.007 1131.12 292.007ZM1131.02 281.779C1130.57 281.779 1130.13 281.845 1129.71 281.975C1129.29 282.091 1128.91 282.287 1128.58 282.563C1128.26 282.824 1128 283.157 1127.8 283.564C1127.59 283.97 1127.49 284.456 1127.49 285.022H1134.43C1134.42 284.427 1134.32 283.926 1134.13 283.52C1133.95 283.099 1133.71 282.766 1133.41 282.519C1133.11 282.258 1132.74 282.069 1132.32 281.953C1131.92 281.837 1131.48 281.779 1131.02 281.779ZM1137.44 290.092H1138.86C1139.02 289.874 1139.16 289.54 1139.29 289.091C1139.42 288.641 1139.54 288.112 1139.64 287.502C1139.74 286.893 1139.81 286.233 1139.86 285.522C1139.92 284.797 1139.94 284.057 1139.94 283.303V280.256H1148V290.092H1149.63V294.509H1147.8V291.789H1139.27V294.509H1137.44V290.092ZM1146.08 290.092V281.953H1141.82V283.738C1141.82 284.347 1141.79 284.956 1141.75 285.566C1141.71 286.16 1141.64 286.733 1141.55 287.285C1141.47 287.821 1141.36 288.336 1141.23 288.83C1141.11 289.308 1140.97 289.729 1140.82 290.092H1146.08ZM1156.71 292.007C1155.97 292.007 1155.27 291.891 1154.6 291.659C1153.93 291.412 1153.34 291.049 1152.84 290.57C1152.33 290.077 1151.92 289.461 1151.62 288.721C1151.31 287.981 1151.16 287.118 1151.16 286.131V285.696C1151.16 284.768 1151.31 283.948 1151.62 283.237C1151.92 282.526 1152.33 281.939 1152.84 281.475C1153.34 280.996 1153.93 280.641 1154.6 280.408C1155.27 280.162 1155.97 280.038 1156.71 280.038C1157.45 280.038 1158.15 280.162 1158.82 280.408C1159.49 280.641 1160.08 280.996 1160.58 281.475C1161.09 281.939 1161.5 282.526 1161.8 283.237C1162.11 283.948 1162.26 284.768 1162.26 285.696V286.131C1162.26 287.118 1162.11 287.981 1161.8 288.721C1161.5 289.461 1161.09 290.077 1160.58 290.57C1160.08 291.049 1159.49 291.412 1158.82 291.659C1158.15 291.891 1157.45 292.007 1156.71 292.007ZM1156.71 290.266C1157.15 290.266 1157.58 290.193 1158.02 290.048C1158.45 289.889 1158.84 289.649 1159.17 289.33C1159.5 288.996 1159.77 288.569 1159.97 288.046C1160.19 287.524 1160.3 286.886 1160.3 286.131V285.696C1160.3 285 1160.19 284.405 1159.97 283.912C1159.77 283.419 1159.5 283.012 1159.17 282.693C1158.84 282.374 1158.45 282.142 1158.02 281.997C1157.58 281.852 1157.15 281.779 1156.71 281.779C1156.28 281.779 1155.84 281.852 1155.4 281.997C1154.97 282.142 1154.59 282.374 1154.25 282.693C1153.92 283.012 1153.64 283.419 1153.42 283.912C1153.22 284.405 1153.12 285 1153.12 285.696V286.131C1153.12 286.886 1153.22 287.524 1153.42 288.046C1153.64 288.569 1153.92 288.996 1154.25 289.33C1154.59 289.649 1154.97 289.889 1155.4 290.048C1155.84 290.193 1156.28 290.266 1156.71 290.266ZM1164.97 280.256H1169.98C1171.4 280.256 1172.44 280.553 1173.11 281.148C1173.78 281.729 1174.11 282.483 1174.11 283.411C1174.11 283.658 1174.07 283.912 1173.98 284.173C1173.89 284.42 1173.77 284.652 1173.61 284.869C1173.46 285.087 1173.28 285.275 1173.07 285.435C1172.86 285.595 1172.63 285.718 1172.37 285.805C1173.08 285.979 1173.62 286.313 1173.98 286.806C1174.36 287.285 1174.55 287.85 1174.55 288.503C1174.55 289.504 1174.21 290.302 1173.54 290.897C1172.88 291.492 1171.83 291.789 1170.41 291.789H1164.97V280.256ZM1170.41 290.092C1171.22 290.092 1171.8 289.947 1172.13 289.657C1172.46 289.366 1172.63 288.953 1172.63 288.416C1172.63 287.865 1172.46 287.444 1172.13 287.154C1171.8 286.849 1171.22 286.697 1170.41 286.697H1166.89V290.092H1170.41ZM1169.98 285.13C1170.8 285.13 1171.38 284.985 1171.69 284.695C1172.03 284.405 1172.2 284.006 1172.2 283.498C1172.2 283.02 1172.03 282.642 1171.69 282.367C1171.38 282.091 1170.8 281.953 1169.98 281.953H1166.89V285.13H1169.98ZM1180.56 292.007C1179.92 292.007 1179.36 291.92 1178.86 291.746C1178.38 291.557 1177.98 291.303 1177.64 290.984C1177.31 290.665 1177.06 290.288 1176.88 289.852C1176.71 289.417 1176.62 288.938 1176.62 288.416C1176.62 287.27 1176.96 286.443 1177.62 285.936C1178.3 285.428 1179.28 285.174 1180.54 285.174H1184.28V284.391C1184.28 283.404 1184.06 282.722 1183.61 282.345C1183.17 281.968 1182.51 281.779 1181.63 281.779C1180.8 281.779 1180.2 281.939 1179.82 282.258C1179.44 282.563 1179.23 282.911 1179.19 283.303H1177.27C1177.3 282.838 1177.43 282.41 1177.64 282.019C1177.88 281.612 1178.18 281.264 1178.56 280.974C1178.95 280.684 1179.41 280.459 1179.95 280.3C1180.49 280.126 1181.08 280.038 1181.74 280.038C1183.1 280.038 1184.18 280.365 1184.98 281.018C1185.79 281.656 1186.2 282.708 1186.2 284.173V288.851C1186.2 289.461 1186.2 289.997 1186.2 290.462C1186.21 290.911 1186.25 291.354 1186.31 291.789H1184.63C1184.59 291.455 1184.56 291.144 1184.54 290.853C1184.53 290.549 1184.52 290.208 1184.52 289.831C1184.22 290.44 1183.72 290.955 1183.04 291.376C1182.36 291.796 1181.53 292.007 1180.56 292.007ZM1180.97 290.266C1181.42 290.266 1181.84 290.208 1182.24 290.092C1182.64 289.961 1183 289.78 1183.3 289.548C1183.61 289.301 1183.85 289.004 1184.02 288.656C1184.19 288.307 1184.28 287.901 1184.28 287.437V286.654H1180.87C1180.15 286.654 1179.6 286.799 1179.19 287.089C1178.78 287.364 1178.58 287.807 1178.58 288.416C1178.58 288.953 1178.77 289.395 1179.15 289.744C1179.54 290.092 1180.15 290.266 1180.97 290.266ZM1192 281.953H1188.06V280.256H1197.85V281.953H1193.91V291.789H1192V281.953ZM1204.61 292.007C1203.87 292.007 1203.17 291.891 1202.5 291.659C1201.83 291.426 1201.24 291.071 1200.74 290.592C1200.23 290.099 1199.82 289.482 1199.52 288.743C1199.21 288.003 1199.06 287.132 1199.06 286.131V285.696C1199.06 284.739 1199.2 283.912 1199.49 283.215C1199.79 282.505 1200.17 281.917 1200.65 281.453C1201.14 280.974 1201.71 280.619 1202.35 280.387C1203 280.155 1203.68 280.038 1204.39 280.038C1206.09 280.038 1207.4 280.503 1208.33 281.431C1209.26 282.36 1209.72 283.672 1209.72 285.37V286.588H1200.97C1200.97 287.27 1201.08 287.843 1201.3 288.307C1201.52 288.772 1201.8 289.149 1202.15 289.439C1202.5 289.729 1202.88 289.939 1203.3 290.07C1203.74 290.201 1204.17 290.266 1204.61 290.266C1205.48 290.266 1206.15 290.121 1206.61 289.831C1207.09 289.54 1207.43 289.142 1207.63 288.634H1209.5C1209.39 289.185 1209.18 289.671 1208.87 290.092C1208.58 290.512 1208.22 290.868 1207.79 291.158C1207.36 291.434 1206.88 291.644 1206.33 291.789C1205.79 291.934 1205.22 292.007 1204.61 292.007ZM1204.5 281.779C1204.05 281.779 1203.61 281.845 1203.19 281.975C1202.77 282.091 1202.4 282.287 1202.06 282.563C1201.74 282.824 1201.48 283.157 1201.28 283.564C1201.08 283.97 1200.97 284.456 1200.97 285.022H1207.92C1207.9 284.427 1207.8 283.926 1207.61 283.52C1207.44 283.099 1207.2 282.766 1206.89 282.519C1206.59 282.258 1206.23 282.069 1205.81 281.953C1205.4 281.837 1204.96 281.779 1204.5 281.779ZM1211.69 292.007C1211.47 292.007 1211.25 291.985 1211.03 291.941V290.026C1211.11 290.041 1211.22 290.048 1211.36 290.048C1211.68 290.048 1211.96 289.947 1212.19 289.744C1212.43 289.54 1212.63 289.185 1212.78 288.677C1212.92 288.17 1213.03 287.481 1213.1 286.61C1213.17 285.74 1213.21 284.637 1213.21 283.303V280.256H1221.48V291.789H1219.56V281.953H1215.13V283.738C1215.13 285.348 1215.05 286.683 1214.91 287.742C1214.76 288.801 1214.55 289.649 1214.26 290.288C1213.98 290.911 1213.62 291.354 1213.19 291.615C1212.75 291.876 1212.25 292.007 1211.69 292.007ZM1224.96 280.256H1226.88V284.608H1229.64C1231.09 284.608 1232.16 284.927 1232.84 285.566C1233.53 286.204 1233.88 287.089 1233.88 288.22C1233.88 289.323 1233.53 290.193 1232.84 290.832C1232.16 291.47 1231.09 291.789 1229.64 291.789H1224.96V280.256ZM1229.53 290.092C1230.43 290.092 1231.06 289.932 1231.42 289.613C1231.79 289.294 1231.97 288.822 1231.97 288.199C1231.97 287.575 1231.79 287.103 1231.42 286.784C1231.06 286.465 1230.43 286.305 1229.53 286.305H1226.88V290.092H1229.53ZM1236.39 280.256H1238.31V285.065H1244.27V280.256H1246.19V291.789H1244.27V286.762H1238.31V291.789H1236.39V280.256ZM1254.46 292.007C1253.72 292.007 1253.02 291.891 1252.35 291.659C1251.68 291.412 1251.1 291.049 1250.59 290.57C1250.08 290.077 1249.67 289.461 1249.37 288.721C1249.07 287.981 1248.91 287.118 1248.91 286.131V285.696C1248.91 284.768 1249.07 283.948 1249.37 283.237C1249.67 282.526 1250.08 281.939 1250.59 281.475C1251.1 280.996 1251.68 280.641 1252.35 280.408C1253.02 280.162 1253.72 280.038 1254.46 280.038C1255.2 280.038 1255.91 280.162 1256.57 280.408C1257.24 280.641 1257.83 280.996 1258.34 281.475C1258.84 281.939 1259.25 282.526 1259.55 283.237C1259.86 283.948 1260.01 284.768 1260.01 285.696V286.131C1260.01 287.118 1259.86 287.981 1259.55 288.721C1259.25 289.461 1258.84 290.077 1258.34 290.57C1257.83 291.049 1257.24 291.412 1256.57 291.659C1255.91 291.891 1255.2 292.007 1254.46 292.007ZM1254.46 290.266C1254.9 290.266 1255.33 290.193 1255.77 290.048C1256.2 289.889 1256.59 289.649 1256.92 289.33C1257.25 288.996 1257.52 288.569 1257.73 288.046C1257.94 287.524 1258.05 286.886 1258.05 286.131V285.696C1258.05 285 1257.94 284.405 1257.73 283.912C1257.52 283.419 1257.25 283.012 1256.92 282.693C1256.59 282.374 1256.2 282.142 1255.77 281.997C1255.33 281.852 1254.9 281.779 1254.46 281.779C1254.03 281.779 1253.59 281.852 1253.16 281.997C1252.72 282.142 1252.34 282.374 1252 282.693C1251.67 283.012 1251.39 283.419 1251.18 283.912C1250.97 284.405 1250.87 285 1250.87 285.696V286.131C1250.87 286.886 1250.97 287.524 1251.18 288.046C1251.39 288.569 1251.67 288.996 1252 289.33C1252.34 289.649 1252.72 289.889 1253.16 290.048C1253.59 290.193 1254.03 290.266 1254.46 290.266ZM1267.18 292.007C1266.44 292.007 1265.75 291.891 1265.12 291.659C1264.48 291.412 1263.93 291.049 1263.46 290.57C1263 290.077 1262.63 289.461 1262.35 288.721C1262.09 287.981 1261.96 287.118 1261.96 286.131V285.696C1261.96 284.768 1262.11 283.948 1262.4 283.237C1262.69 282.526 1263.07 281.939 1263.55 281.475C1264.03 280.996 1264.58 280.641 1265.2 280.408C1265.84 280.162 1266.5 280.038 1267.18 280.038C1267.87 280.038 1268.47 280.133 1269.01 280.321C1269.56 280.51 1270.03 280.771 1270.43 281.105C1270.83 281.438 1271.16 281.83 1271.4 282.28C1271.67 282.73 1271.85 283.215 1271.97 283.738H1270.01C1269.9 283.462 1269.76 283.208 1269.6 282.976C1269.45 282.73 1269.27 282.519 1269.03 282.345C1268.82 282.171 1268.55 282.033 1268.25 281.932C1267.94 281.83 1267.59 281.779 1267.18 281.779C1266.76 281.779 1266.36 281.859 1265.96 282.019C1265.57 282.164 1265.22 282.396 1264.92 282.715C1264.62 283.02 1264.37 283.419 1264.18 283.912C1264.01 284.405 1263.92 285 1263.92 285.696V286.131C1263.92 286.871 1264.01 287.51 1264.18 288.046C1264.37 288.569 1264.62 288.996 1264.92 289.33C1265.22 289.649 1265.57 289.889 1265.96 290.048C1266.36 290.193 1266.76 290.266 1267.18 290.266C1267.89 290.266 1268.49 290.092 1268.97 289.744C1269.46 289.395 1269.81 288.917 1270.01 288.307H1271.97C1271.69 289.453 1271.13 290.36 1270.27 291.027C1269.42 291.68 1268.39 292.007 1267.18 292.007ZM1277.21 281.953H1273.27V280.256H1283.07V281.953H1279.13V291.789H1277.21V281.953ZM1285.25 280.256H1287.16V284.608H1289.93C1291.38 284.608 1292.44 284.927 1293.12 285.566C1293.82 286.204 1294.17 287.089 1294.17 288.22C1294.17 289.323 1293.82 290.193 1293.12 290.832C1292.44 291.47 1291.38 291.789 1289.93 291.789H1285.25V280.256ZM1289.82 290.092C1290.72 290.092 1291.35 289.932 1291.71 289.613C1292.07 289.294 1292.25 288.822 1292.25 288.199C1292.25 287.575 1292.07 287.103 1291.71 286.784C1291.35 286.465 1290.72 286.305 1289.82 286.305H1287.16V290.092H1289.82ZM1296.68 280.256H1298.6V285.065H1300.23C1300.29 284.238 1300.47 283.513 1300.77 282.889C1301.08 282.251 1301.46 281.721 1301.92 281.301C1302.4 280.88 1302.95 280.568 1303.56 280.365C1304.17 280.147 1304.81 280.038 1305.49 280.038C1306.23 280.038 1306.92 280.162 1307.56 280.408C1308.21 280.641 1308.78 280.996 1309.26 281.475C1309.74 281.939 1310.11 282.526 1310.39 283.237C1310.68 283.948 1310.82 284.768 1310.82 285.696V286.131C1310.82 287.118 1310.68 287.981 1310.39 288.721C1310.11 289.461 1309.74 290.077 1309.26 290.57C1308.78 291.049 1308.21 291.412 1307.56 291.659C1306.92 291.891 1306.23 292.007 1305.49 292.007C1304.81 292.007 1304.16 291.905 1303.53 291.702C1302.93 291.484 1302.38 291.158 1301.9 290.723C1301.44 290.288 1301.05 289.744 1300.75 289.091C1300.46 288.423 1300.29 287.647 1300.23 286.762H1298.6V291.789H1296.68V280.256ZM1305.49 290.266C1305.93 290.266 1306.35 290.193 1306.76 290.048C1307.16 289.889 1307.52 289.649 1307.82 289.33C1308.14 288.996 1308.39 288.569 1308.58 288.046C1308.77 287.524 1308.87 286.886 1308.87 286.131V285.696C1308.87 285 1308.77 284.405 1308.58 283.912C1308.39 283.419 1308.14 283.012 1307.82 282.693C1307.52 282.374 1307.16 282.142 1306.76 281.997C1306.35 281.852 1305.93 281.779 1305.49 281.779C1305.06 281.779 1304.64 281.852 1304.23 281.997C1303.83 282.142 1303.46 282.374 1303.14 282.693C1302.84 283.012 1302.59 283.419 1302.4 283.912C1302.21 284.405 1302.12 285 1302.12 285.696V286.131C1302.12 286.886 1302.21 287.524 1302.4 288.046C1302.59 288.569 1302.84 288.996 1303.14 289.33C1303.46 289.649 1303.83 289.889 1304.23 290.048C1304.64 290.193 1305.06 290.266 1305.49 290.266Z" fill="black"/>
<rect x="919" y="250.789" width="413" height="65" stroke="#508C6D"/>
<rect x="1332" y="250.789" width="125" height="65" fill="#DBEEE5"/>
<path d="M1362.58 288.003H1356.14L1354.68 291.789H1352.55L1358.38 276.557H1360.43L1366.26 291.789H1364.04L1362.58 288.003ZM1356.82 286.218H1361.91L1359.36 279.168L1356.82 286.218ZM1367.55 290.092H1368.97C1369.13 289.874 1369.27 289.54 1369.4 289.091C1369.53 288.641 1369.65 288.112 1369.75 287.502C1369.85 286.893 1369.93 286.233 1369.97 285.522C1370.03 284.797 1370.06 284.057 1370.06 283.303V280.256H1378.11V290.092H1379.74V294.509H1377.91V291.789H1369.38V294.509H1367.55V290.092ZM1376.19 290.092V281.953H1371.93V283.738C1371.93 284.347 1371.91 284.956 1371.86 285.566C1371.82 286.16 1371.75 286.733 1371.67 287.285C1371.58 287.821 1371.47 288.336 1371.34 288.83C1371.22 289.308 1371.09 289.729 1370.93 290.092H1376.19ZM1382.03 280.256H1383.82V282.432C1384.21 281.663 1384.76 281.076 1385.45 280.67C1386.16 280.249 1386.98 280.038 1387.91 280.038C1389.36 280.038 1390.52 280.517 1391.39 281.475C1392.26 282.418 1392.7 283.825 1392.7 285.696V286.131C1392.7 287.118 1392.58 287.981 1392.35 288.721C1392.12 289.446 1391.79 290.055 1391.37 290.549C1390.95 291.027 1390.44 291.39 1389.85 291.637C1389.27 291.883 1388.62 292.007 1387.91 292.007C1386.92 292.007 1386.1 291.789 1385.43 291.354C1384.78 290.919 1384.28 290.375 1383.95 289.722V296.141H1382.03V280.256ZM1387.48 290.309C1387.94 290.309 1388.37 290.222 1388.78 290.048C1389.19 289.86 1389.54 289.591 1389.83 289.243C1390.13 288.895 1390.36 288.46 1390.52 287.937C1390.7 287.415 1390.78 286.813 1390.78 286.131V285.696C1390.78 285.072 1390.7 284.514 1390.52 284.021C1390.36 283.527 1390.13 283.114 1389.83 282.78C1389.54 282.432 1389.19 282.171 1388.78 281.997C1388.37 281.823 1387.94 281.736 1387.48 281.736C1386.95 281.736 1386.47 281.823 1386.04 281.997C1385.6 282.156 1385.23 282.389 1384.93 282.693C1384.62 282.983 1384.39 283.332 1384.21 283.738C1384.04 284.144 1383.95 284.579 1383.95 285.043V286.784C1383.95 287.306 1384.04 287.785 1384.21 288.22C1384.39 288.656 1384.62 289.025 1384.93 289.33C1385.23 289.635 1385.6 289.874 1386.04 290.048C1386.47 290.222 1386.95 290.309 1387.48 290.309ZM1400.21 292.007C1399.47 292.007 1398.77 291.891 1398.1 291.659C1397.43 291.426 1396.84 291.071 1396.34 290.592C1395.83 290.099 1395.42 289.482 1395.12 288.743C1394.81 288.003 1394.66 287.132 1394.66 286.131V285.696C1394.66 284.739 1394.81 283.912 1395.1 283.215C1395.39 282.505 1395.77 281.917 1396.25 281.453C1396.74 280.974 1397.31 280.619 1397.95 280.387C1398.6 280.155 1399.28 280.038 1399.99 280.038C1401.69 280.038 1403 280.503 1403.93 281.431C1404.86 282.36 1405.32 283.672 1405.32 285.37V286.588H1396.58C1396.58 287.27 1396.68 287.843 1396.9 288.307C1397.12 288.772 1397.4 289.149 1397.75 289.439C1398.1 289.729 1398.48 289.939 1398.9 290.07C1399.34 290.201 1399.77 290.266 1400.21 290.266C1401.08 290.266 1401.75 290.121 1402.21 289.831C1402.69 289.54 1403.03 289.142 1403.23 288.634H1405.11C1404.99 289.185 1404.78 289.671 1404.47 290.092C1404.18 290.512 1403.82 290.868 1403.39 291.158C1402.97 291.434 1402.48 291.644 1401.93 291.789C1401.39 291.934 1400.82 292.007 1400.21 292.007ZM1400.1 281.779C1399.65 281.779 1399.22 281.845 1398.8 281.975C1398.37 282.091 1398 282.287 1397.66 282.563C1397.34 282.824 1397.08 283.157 1396.88 283.564C1396.68 283.97 1396.58 284.456 1396.58 285.022H1403.52C1403.5 284.427 1403.4 283.926 1403.21 283.52C1403.04 283.099 1402.8 282.766 1402.49 282.519C1402.19 282.258 1401.83 282.069 1401.41 281.953C1401 281.837 1400.57 281.779 1400.1 281.779ZM1412.51 292.007C1411.77 292.007 1411.08 291.891 1410.44 291.659C1409.8 291.412 1409.25 291.049 1408.79 290.57C1408.32 290.077 1407.95 289.461 1407.68 288.721C1407.41 287.981 1407.28 287.118 1407.28 286.131V285.696C1407.28 284.768 1407.43 283.948 1407.72 283.237C1408.01 282.526 1408.39 281.939 1408.87 281.475C1409.35 280.996 1409.9 280.641 1410.53 280.408C1411.16 280.162 1411.82 280.038 1412.51 280.038C1413.19 280.038 1413.8 280.133 1414.33 280.321C1414.89 280.51 1415.36 280.771 1415.75 281.105C1416.15 281.438 1416.48 281.83 1416.73 282.28C1416.99 282.73 1417.18 283.215 1417.29 283.738H1415.34C1415.22 283.462 1415.08 283.208 1414.92 282.976C1414.78 282.73 1414.59 282.519 1414.36 282.345C1414.14 282.171 1413.88 282.033 1413.57 281.932C1413.27 281.83 1412.91 281.779 1412.51 281.779C1412.09 281.779 1411.68 281.859 1411.29 282.019C1410.9 282.164 1410.55 282.396 1410.24 282.715C1409.94 283.02 1409.69 283.419 1409.5 283.912C1409.33 284.405 1409.24 285 1409.24 285.696V286.131C1409.24 286.871 1409.33 287.51 1409.5 288.046C1409.69 288.569 1409.94 288.996 1410.24 289.33C1410.55 289.649 1410.9 289.889 1411.29 290.048C1411.68 290.193 1412.09 290.266 1412.51 290.266C1413.22 290.266 1413.81 290.092 1414.29 289.744C1414.78 289.395 1415.13 288.917 1415.34 288.307H1417.29C1417.02 289.453 1416.45 290.36 1415.6 291.027C1414.74 291.68 1413.71 292.007 1412.51 292.007ZM1431.78 288.112H1424.04V286.545L1431.57 276.557H1433.83V286.327H1435.79V288.112H1433.83V291.789H1431.78V288.112ZM1431.78 286.327V278.95L1426.21 286.327H1431.78Z" fill="black"/>
<rect x="1332" y="250.789" width="125" height="65" stroke="#508C6D"/>
<g style="mix-blend-mode:multiply">
<path d="M1455.07 250.789H101.682L532.697 165.59L718.052 165.59L1455.07 250.789Z" fill="url(#paint0_radial_564_49283)"/>
</g>
<defs>
<radialGradient id="paint0_radial_564_49283" cx="0" cy="0" r="1" gradientUnits="userSpaceOnUse" gradientTransform="translate(620.334 166.988) rotate(129.73) scale(633.724 851.807)">
<stop stop-color="#E7F9F3"/>
<stop offset="1" stop-color="#ACDBCB" stop-opacity="0"/>
</radialGradient>
</defs>
</svg>
